<svg data-name="Component 2 – 2" xmlns="http://www.w3.org/2000/svg" width="397.75" height="426.6"><path data-name="Path 17" d="M217.166 148.611l37.162 27.974L372.2 44.875 312.393 0zM0 94.994v11.073c0 57.113 35.42 91.5 95.228 91.5s95.228-34.384 95.228-91.5V94.994c0-57.113-37.162-92.08-95.228-92.08C35.42 2.914 0 37.881 0 94.994zm60.388-2.914c0-23.894 11.613-39.047 34.839-39.047s34.839 15.152 34.839 39.047v16.318c0 23.894-11.613 39.047-34.839 39.047s-34.839-15.152-34.839-39.047zm146.906 230.2v11.07c0 57.113 35.42 91.5 95.228 91.5s95.228-34.383 95.228-91.5v-11.069c0-57.113-37.162-92.08-95.228-92.08-59.807 0-95.227 34.967-95.227 92.08zm-29.614-44.292l-37.162-27.974L22.646 381.725 82.454 426.6zm90 41.378c0-23.894 11.613-39.047 34.839-39.047s34.839 15.152 34.839 39.047v16.318c0 23.894-11.613 39.047-34.839 39.047s-34.839-15.152-34.839-39.047z" fill="#8041f9" opacity=".495"/></svg>