<svg xmlns="http://www.w3.org/2000/svg" viewBox="0 0 407.679 59.857"><path d="M377.28 36.659c-.621.132-1.27.132-1.932.132-1.773 0-3.387-.344-4.856-1.032a5.721 5.721 0 01-.741-.397c-.12-.067-.252-.133-.371-.212l.701-5.267 7.2 6.776zm2.41 11.129l-1.033 5.161-12.162 4.023 1.297-9.832c.132.04.251.066.384.106 2.223.622 4.579.926 7.053.926 1.535 0 3.018-.12 4.46-.384z" fill="#5c2ece"/><path d="M37.055 12.175V.926H0v46.319h12.837V30.702h21.902V19.983H12.837v-7.808h24.218zm18.646 23.821V.926H42.864v46.319h35.268v-11.25H55.701zm74.347-21.373c-1.257-2.911-2.99-5.452-5.2-7.609-2.197-2.157-4.83-3.878-7.875-5.135C113.93.622 110.621 0 107.048 0c-3.573 0-6.881.622-9.925 1.88-3.044 1.256-5.69 2.977-7.94 5.16-2.25 2.184-3.997 4.751-5.254 7.676-1.257 2.938-1.88 6.061-1.88 9.37v.132c0 3.308.623 6.418 1.88 9.33s2.99 5.452 5.187 7.61c2.21 2.156 4.844 3.863 7.888 5.12 3.03 1.258 6.339 1.893 9.925 1.893 3.573 0 6.882-.635 9.925-1.892 3.03-1.258 5.678-2.978 7.94-5.162 2.25-2.183 3.997-4.737 5.254-7.675 1.258-2.925 1.88-6.048 1.88-9.356v-.133c0-3.308-.622-6.418-1.88-9.33zm-11.208 9.595c0 1.68-.292 3.269-.874 4.764-.569 1.495-1.363 2.806-2.382 3.93-1.019 1.125-2.263 2.025-3.719 2.687-1.455.662-3.07.992-4.843.992-1.774 0-3.388-.344-4.844-1.032-1.456-.675-2.713-1.588-3.745-2.74a12.412 12.412 0 01-2.422-3.97 13.013 13.013 0 01-.873-4.763v-.133c0-1.68.278-3.269.833-4.764.556-1.495 1.35-2.819 2.396-3.944 1.032-1.124 2.276-2.011 3.705-2.673 1.443-.662 3.044-.992 4.817-.992 1.774 0 3.388.344 4.844 1.019 1.456.688 2.726 1.6 3.785 2.752s1.879 2.475 2.448 3.97c.582 1.496.874 3.084.874 4.765v.132zM194.127.926l-8.073 26.799L177.12.795h-11.05l-8.933 26.93L149.065.926h-13.564l15.483 46.65h11.183l9.264-26.667 9.33 26.667h11.182L207.427.926h-13.3zm54.126 26.336c-.794-1.562-1.932-2.899-3.441-3.997-1.495-1.098-3.308-2.038-5.452-2.806-2.144-.767-4.54-1.442-7.186-2.011-1.588-.357-2.898-.688-3.93-1.019-1.033-.33-1.853-.662-2.449-.993-.595-.33-1.019-.701-1.257-1.098a2.655 2.655 0 01-.37-1.39v-.132c0-.834.396-1.535 1.164-2.104.767-.57 1.932-.86 3.467-.86 2.078 0 4.235.384 6.458 1.151 2.224.78 4.394 1.919 6.511 3.414l6.419-9.091c-2.515-2.038-5.32-3.587-8.43-4.632S233.1.132 229.13.132c-2.78 0-5.267.358-7.477 1.086-2.197.727-4.09 1.746-5.651 3.07-1.562 1.323-2.753 2.885-3.573 4.698-.82 1.8-1.23 3.785-1.23 5.942v.132c0 2.382.462 4.367 1.362 5.982.9 1.601 2.144 2.95 3.706 4.023 1.561 1.085 3.4 1.958 5.518 2.647 2.118.675 4.42 1.31 6.882 1.879 1.588.357 2.885.688 3.877 1.019.993.33 1.787.675 2.382 1.032.596.344 1.006.715 1.218 1.085.225.37.33.807.33 1.284v.132c0 1.02-.45 1.8-1.35 2.356-.899.542-2.222.82-3.943.82-5.373 0-10.388-1.852-15.02-5.558l-7.146 8.55c2.871 2.58 6.167 4.512 9.898 5.796 3.732 1.283 7.663 1.932 11.805 1.932 2.832 0 5.386-.344 7.676-1.02 2.302-.687 4.26-1.68 5.889-2.977a13.44 13.44 0 003.811-4.724c.9-1.853 1.35-3.957 1.35-6.34v-.132c0-2.157-.397-4.023-1.191-5.584zm4.83-26.336v11.25h13.896v35.069h12.836v-35.07h13.896V.926h-40.628zm74.639-.33h-12.374L295.63 47.245h13.498l3.309-8.271h17.865l3.375 8.27h13.763L327.722.597zm-11.514 28.452l5.228-13.167 5.16 13.167h-10.388zm84.031-5.098v.14c0 2.47-.34 4.83-1.06 7.08-.63 2.03-1.53 3.94-2.7 5.69l-9.58-9.9c.16-.84.24-1.7.24-2.61v-.13c0-1.68-.28-3.28-.86-4.81-.57-1.52-1.39-2.85-2.45-4.03-1.06-1.17-2.33-2.09-3.8-2.78-1.48-.68-3.09-1.02-4.87-1.02-1.76 0-3.36.34-4.79 1.02-1.44.69-2.67 1.6-3.7 2.75a11.78 11.78 0 00-2.38 3.97c-.56 1.5-.84 3.09-.84 4.77v.13c0 1.68.29 3.27.88 4.79.57 1.52 1.37 2.86 2.42 4.01.75.85 1.64 1.56 2.63 2.13.12.08.25.14.37.21.24.16.49.28.74.4 1.47.69 3.09 1.03 4.86 1.03.66 0 1.31 0 1.93-.13l3.89 3.65 5.55 5.23c-1.25.59-2.57 1.11-3.95 1.53-.88.27-1.77.49-2.7.65-.13.03-.25.05-.38.07-1.44.26-2.92.38-4.46.38-2.47 0-4.83-.3-7.05-.93a5.58 5.58 0 01-.39-.1c-.84-.24-1.68-.53-2.48-.86-3.05-1.26-5.67-2.97-7.88-5.12-2.2-2.16-3.93-4.7-5.19-7.61-1.25-2.91-1.89-6.02-1.89-9.33v-.13c0-3.31.64-6.44 1.89-9.37 1.26-2.93 3.01-5.5 5.26-7.68s4.89-3.9 7.94-5.16c3.04-1.26 6.35-1.88 9.92-1.88 3.58 0 6.88.62 9.93 1.88 3.04 1.26 5.68 2.98 7.87 5.13a23.52 23.52 0 015.2 7.61c1.26 2.92 1.88 6.02 1.88 9.33z" fill="#fcfcfc"/><path fill="#8041f9" d="M407.679 48.423l-5.744 11.434-15.219-14.319-5.545-5.227-3.89-3.652-7.2-6.776 14.333-5.492 2.488 2.567 9.58 9.9z"/></svg>