<svg xmlns="http://www.w3.org/2000/svg" width="3456.262" height="14760.453"><g data-name="Group 177"><path data-name="Rectangle 2" fill="#5c2ece" d="M1100.516 14760.454l-239.375-239.375 1472.186-1472.185 239.375 239.374z"/><path data-name="Rectangle 1" fill="#8041f9" d="M610.119 11805.182l239.375-239.375 1723.208 1723.209-239.374 239.375z"/><g data-name="Ribbon"><path data-name="Rectangle 2" fill="#5c2ece" d="M1744.702 10276.268l239.375-239.375 1472.185 1472.186-239.374 239.375z"/><path data-name="Rectangle 1" fill="#8041f9" d="M1984.077 10516.391l-239.375-239.375L3140.52 8881.198l239.375 239.375z"/></g><g data-name="Ribbon"><path data-name="Rectangle 2" fill="#5c2ece" d="M1468.702 3371.268l239.375-239.375L3180.262 4604.08l-239.374 239.375z"/><path data-name="Rectangle 1" fill="#8041f9" d="M1708.077 3611.391l-239.375-239.375L2864.52 1976.198l239.375 239.375z"/></g><g data-name="Ribbon"><path data-name="Rectangle 2" fill="#5c2ece" d="M239.374 9902.853L-.001 9663.478l2471.328-2471.327 239.375 239.374z"/><path data-name="Rectangle 1" fill="#8041f9" d="M275.064 5475.385l239.375-239.375 2196.263 2196.263-239.375 239.375z"/></g><g data-name="Ribbon"><path data-name="Rectangle 2" fill="#5c2ece" d="M1999.99 1946.603l-239.375-239.375 934.078-934.077 239.374 239.375z"/><path data-name="Rectangle 1" fill="#8041f9" d="M1681.42 239.375L1920.795 0l1013.273 1013.274-239.375 239.374z"/></g></g></svg>