<svg version="1.0" xmlns="http://www.w3.org/2000/svg" width="1642.667" height="1642.667" viewBox="0 0 1232 1232"><path d="M161.5 3.1c.4 2.2-1 3.5-2.1 1.8-.5-.8-.3-.9.6-.4.8.5 1.1.4.7-.3-.4-.5-1.5-.9-2.5-.7-.9.2-1.9.4-2.1.4-.3.1 0 .6.7 1.3.8.8.9 1.5.1 2.5-.9 1-.8 1.7.2 3 .8.9.9 1.4.3 1-.7-.4-1.1.5-1.1 2.4 0 1.7-.6 3.5-1.4 4-1 .6-.8.9 1.1 1 2.5 0 2.5 0 .3 1.1-1.2.6-2.5 1.8-2.8 2.6-.4 1.2-.1 1.1 1.5-.3 2.1-1.9 2.1-1.9 1.5 1.3-.3 1.9-.1 3.2.5 3.2.5 0 1 .5 1 1.1 0 .5-.4.8-.9.5-.4-.3-1.7.1-2.7 1-1.8 1.4-1.8 1.5.3.9 1.8-.5 2.2-.3 1.7.9-.3.9-1.1 1.3-1.7.9-.6-.3-.7-.1-.3.6.4.6.2 1.9-.6 2.8-.7.9-.8 1.4-.2 1 1.4-.8 2.7 1.7 2.9 5.6.1 1.9-.3 2.6-1.1 2.3-.8-.3-1.1.1-.7.9.3.8.9 1.3 1.3 1 .5-.3 1.2 0 1.6.6.4.7.3.9-.3.6-.6-.4-1.3 0-1.7.8-.3.8 0 1.5.7 1.5.8 0 .7.4-.3.9-.8.6-1.8.7-2.4.4-.5-.3-.6-.1-.2.5.4.6 1.4.9 2.4.6 1.2-.4 1.3-.3.4.3-.7.6-1 1.7-.6 2.8.6 1.4.4 1.6-.6 1-.9-.5-1.1-.4-.6.4.4.6.2 1.9-.6 2.8-.7.9-.8 1.4-.2 1 1.4-.8 2.7 1.7 2.9 5.6.1 1.9-.3 2.6-1.1 2.3-.8-.3-1.1.1-.7.9.3.8.9 1.3 1.3 1 .5-.3 1.2 0 1.6.6.4.7.3.9-.3.6-.6-.4-1.3 0-1.7.8-.3.8 0 1.5.7 1.5.8 0 .7.4-.3.9-.8.6-1.8.7-2.4.4-.5-.3-.6-.1-.2.5.4.6 1.4.9 2.4.6 1.2-.4 1.3-.3.4.3-.7.6-1 1.7-.6 2.8.6 1.4.4 1.6-.6 1-.9-.5-1.1-.4-.6.4.4.6.2 1.9-.6 2.8-.7.9-.8 1.4-.3 1.1.6-.3 1.8.5 2.8 1.8 1.5 2.1 1.6 2.5.3 3-2.2.8-2.7 3.2-1.1 4.8 1.3 1.3 1.3 1.7-.1 3-1.4 1.5-1.3 1.6.8 1.7h2.3l-2.2 1.1c-1.2.6-2.5 1.8-2.8 2.6-.4 1.2-.1 1.1 1.5-.3 2.1-1.9 2.1-1.9 1.5 1.3-.3 1.9-.1 3.2.5 3.2.5 0 1 .5 1 1.1 0 .5-.4.8-.9.5-.4-.3-1.7.1-2.7 1-1.8 1.4-1.8 1.5.3.9 1.9-.5 2.2-.3 1.6 1.2-.4 1-1.1 2.1-1.7 2.5-.6.4 0 .8 1.4.9 2.5 0 2.5 0 .3 1.1-1.2.6-2.5 1.8-2.8 2.6-.4 1.2-.1 1.1 1.5-.3 2.1-1.9 2.1-1.9 1.5 1.3-.3 1.9-.1 3.2.5 3.2.5 0 1 .5 1 1.1 0 .5-.4.8-.9.5-.4-.3-1.7.1-2.7 1-1.8 1.4-1.8 1.5.3.9 1.9-.5 2.2-.3 1.6 1.2-.4 1-1.1 2.1-1.7 2.5-.6.4 0 .8 1.4.9 2.5 0 2.5 0 .3 1.1-1.2.6-2.5 1.8-2.8 2.6-.4 1.2-.1 1.1 1.5-.3 2.1-1.9 2.1-1.9 1.5 1.3-.3 1.9-.1 3.2.5 3.2.5 0 1 .5 1 1.1 0 .5-.4.8-.9.5-.4-.3-1.7.1-2.7 1-1.8 1.4-1.8 1.5.3.9 1.9-.5 2.2-.3 1.6 1.2-.4 1-1.1 2.1-1.7 2.5-.6.4 0 .8 1.4.9 2.5 0 2.5 0 .3 1.1-1.2.6-2.5 1.8-2.8 2.6-.4 1.2-.1 1.1 1.5-.3 2.1-1.9 2.1-1.9 1.5 1.3-.3 1.9-.1 3.2.5 3.2.5 0 1 .5 1 1.1 0 .5-.4.8-.9.5-.4-.3-1.7.1-2.7 1-1.8 1.4-1.8 1.5.3.9 1.8-.5 2.2-.3 1.7.9-.3.9-1.1 1.3-1.7.9-.6-.3-.7-.1-.3.6.4.6.2 1.9-.6 2.8-.7.9-.8 1.4-.2 1 1.4-.8 2.7 1.7 2.9 5.6.1 1.9-.3 2.6-1.1 2.3-.8-.3-1.1.1-.7.9.3.8.9 1.3 1.3 1 .5-.3 1.2 0 1.6.6.4.7.3.9-.3.6-.6-.4-1.3 0-1.7.8-.3.8 0 1.5.7 1.5.8 0 .7.4-.3.9-.8.6-1.8.7-2.4.4-.5-.3-.6-.1-.2.5.4.6 1.4.9 2.4.6 1.2-.4 1.3-.3.4.3-.7.6-1 1.7-.6 2.8.6 1.4.4 1.6-.6 1-.9-.5-1.1-.4-.6.4.4.6.2 1.9-.6 2.8-.7.9-.8 1.4-.2 1 1.4-.8 2.7 1.7 2.9 5.6.1 1.9-.3 2.6-1.1 2.3-.8-.3-1.1.1-.7.9.3.8.9 1.3 1.3 1 .5-.3 1.2 0 1.6.6.4.7.3.9-.3.6-.6-.4-1.3 0-1.7.8-.3.8 0 1.5.7 1.5.8 0 .7.4-.3.9-.8.6-1.8.7-2.4.4-.5-.3-.6-.1-.2.5.4.6 1.4.9 2.4.6 1.2-.4 1.3-.3.4.3-.7.6-1 1.7-.6 2.8.6 1.4.4 1.6-.6 1-.9-.5-1.1-.4-.6.4.4.6.2 1.9-.6 2.8-.7.9-.8 1.4-.3 1.1.6-.3 1.8.5 2.8 1.8 1.5 2.1 1.6 2.5.3 3-2.2.8-2.7 3.2-1.1 4.8 1.3 1.3 1.3 1.7-.1 3-1.4 1.5-1.3 1.6.8 1.7h2.3l-2.2 1.1c-1.2.6-2.5 1.8-2.8 2.6-.4 1.2-.1 1.1 1.5-.3 2.1-1.9 2.1-1.9 1.5 1.3-.3 1.9-.1 3.2.5 3.2.5 0 1 .5 1 1.1 0 .5-.4.8-.9.5-.4-.3-1.7.1-2.7 1-1.8 1.4-1.8 1.5.3.9 1.9-.5 2.2-.3 1.6 1.2-.4 1-1.1 2.1-1.7 2.5-.6.4 0 .8 1.4.9 2.5 0 2.5 0 .3 1.1-1.2.6-2.5 1.8-2.8 2.6-.4 1.2-.1 1.1 1.5-.3 2.1-1.9 2.1-1.9 1.5 1.3-.3 1.9-.1 3.2.5 3.2.5 0 1 .5 1 1.1 0 .5-.4.8-.9.5-.4-.3-1.7.1-2.7 1-1.8 1.4-1.8 1.5.4.9s2.3-.5 1.3 1.4c-.9 1.6-.9 2.1.1 2.1.9 0 .9.3-.2.9-.8.6-1.8.7-2.4.4-.5-.3-.6-.1-.2.5.4.6 1.4.9 2.4.6 1.2-.4 1.3-.3.4.3-.7.6-1 1.7-.6 2.8.6 1.4.4 1.6-.6 1-.9-.5-1.1-.4-.6.4.4.6.2 1.9-.6 2.8-.7.9-.8 1.4-.2 1 1.4-.8 2.7 1.7 2.9 5.5.1 3.1-.4 3.4-2.5 1.5-1.2-1-1.2-.9-.2.4.6.8 1 2.5.7 3.8-.2 1.2 0 1.9.6 1.6.5-.4.7-1 .4-1.5-.3-.5-.1-1.1.4-1.4.5-.4 1.2-.2 1.5.3.4.5.2 1.2-.4 1.6-.6.4-.8 1.1-.5 1.6.4.5-.1.9-.9.9-.9 0-1.6.4-1.6 1 0 .5.8.7 1.8.4 1-.4 1.3-.2.6.3-1.3 1-1.3 5.3.1 5.3.5 0 .3.4-.5.9-.8.6-1.8.7-2.4.4-.5-.3-.6-.1-.2.5.4.6 1.4.9 2.4.6 1.2-.4 1.3-.3.4.3-.7.6-1 1.7-.6 2.8.6 1.4.4 1.6-.6 1-.9-.5-1.1-.4-.6.4.4.6.2 1.9-.6 2.8-.7.9-.8 1.4-.2 1 1.4-.8 2.7 1.7 2.9 5.6.1 1.9-.3 2.6-1.1 2.3-.8-.3-1.1.1-.7.9.3.8.9 1.3 1.3 1 .5-.3 1.2 0 1.6.6.4.7.3.9-.3.6-.6-.4-1.3 0-1.7.8-.3.8 0 1.5.7 1.5.8 0 .7.4-.3.9-.8.6-1.8.7-2.4.4-.5-.3-.6-.1-.2.5.4.6 1.4.9 2.4.6 1-.4 1.3-.3.6.3-1.3 1-1.3 5.3.1 5.3.5 0 .3.4-.5.9-.8.6-1.8.7-2.4.4-.5-.3-.6-.1-.2.5.4.6 1.4.9 2.4.6 1.2-.4 1.3-.3.4.3-.7.6-1 1.7-.6 2.8.6 1.4.4 1.6-.6 1-.9-.5-1.1-.4-.6.4.4.6.2 1.9-.6 2.8-.7.9-.8 1.4-.2 1 1.4-.8 2.7 1.7 2.9 5.5.1 3.1-.4 3.4-2.5 1.5-1.2-1-1.2-.9-.2.4.6.8 1 2.5.7 3.8-.2 1.2 0 1.9.6 1.6.5-.4.7-1 .4-1.5-.3-.5-.1-1.1.4-1.4.5-.4 1.2-.2 1.5.3.4.5.2 1.2-.4 1.6-.6.4-.8 1.1-.5 1.6.4.5-.1.9-.9.9-.9 0-1.6.4-1.6 1 0 .5.8.7 1.8.4 1-.4 1.3-.2.6.3-1.3 1-1.3 5.3.1 5.3.5 0 .3.4-.5.9-.8.6-1.8.7-2.4.4-.5-.3-.6-.1-.2.5.4.6 1.4.9 2.4.6 1.2-.4 1.3-.3.4.3-.7.6-1 1.7-.6 2.8.6 1.4.4 1.6-.6 1-.9-.5-1.1-.4-.6.4.4.6.2 1.9-.6 2.8-.7.9-.8 1.4-.2 1 1.4-.8 2.7 1.7 2.9 5.6.1 1.9-.3 2.6-1.1 2.3-.8-.3-1.1.1-.7.9.3.8.9 1.3 1.3 1 .5-.3 1.2 0 1.6.6.4.7.3.9-.3.6-.6-.4-1.3 0-1.7.8-.3.8 0 1.5.7 1.5.8 0 .7.4-.3.9-.8.6-1.8.7-2.4.4-.5-.3-.6-.1-.2.5.4.6 1.4.9 2.4.6 1.2-.4 1.3-.3.4.3-.7.6-1 1.7-.6 2.8.6 1.4.4 1.6-.6 1-.9-.5-1.1-.4-.6.4.4.6.2 1.9-.6 2.8-.7.9-.8 1.4-.2 1 1.4-.8 2.7 1.7 2.9 5.6.1 1.9-.3 2.6-1.1 2.3-.8-.3-1.1.1-.7.9.3.8.9 1.3 1.3 1 .5-.3 1.2 0 1.6.6.4.7.3.9-.3.6-.6-.4-1.3 0-1.7.8-.3.8 0 1.5.7 1.5.8 0 .7.4-.3.9-.8.6-1.8.7-2.4.4-.5-.3-.6-.1-.2.5.4.6 1.4.9 2.4.6 1.2-.4 1.3-.3.4.3-.7.6-1 1.7-.6 2.8.6 1.4.4 1.6-.6 1-.9-.5-1.1-.4-.6.4.4.6.2 1.9-.6 2.8-.7.9-.8 1.4-.2 1 1.4-.8 2.7 1.7 2.9 5.6.1 1.9-.3 2.6-1.1 2.3-.8-.3-1.1.1-.7.9.3.8.9 1.3 1.3 1 .5-.3 1.2 0 1.6.6.4.7.3.9-.3.6-.6-.4-1.3 0-1.7.8-.3.8 0 1.5.7 1.5.8 0 .7.4-.3.9-.8.6-1.8.7-2.4.4-.5-.3-.6-.1-.2.5.4.6 1.4.9 2.4.6 1.2-.4 1.3-.3.4.3-.7.6-1 1.7-.6 2.8.6 1.4.4 1.6-.6 1-.9-.5-1.1-.4-.6.4.4.6.2 1.9-.6 2.8-.7.9-.8 1.4-.3 1.1.6-.3 1.8.5 2.8 1.8 1.5 2.1 1.6 2.5.3 3-2.2.8-2.7 3.2-1.1 4.8 1.3 1.3 1.3 1.7-.1 3-1.4 1.5-1.3 1.6.8 1.7h2.3l-2.2 1.1c-1.2.6-2.5 1.8-2.8 2.6-.4 1.2-.1 1.1 1.5-.3 2.1-1.9 2.1-1.9 1.5 1.3-.3 1.9-.1 3.2.5 3.2.5 0 1 .5 1 1.1 0 .5-.4.8-.9.5-.4-.3-1.7.1-2.7 1-1.8 1.4-1.8 1.5.3.9 1.9-.5 2.2-.3 1.6 1.2-.4 1-1.1 2.1-1.7 2.5-.6.4 0 .8 1.4.9 2.5 0 2.5 0 .3 1.1-1.2.6-2.5 1.8-2.8 2.6-.4 1.2-.1 1.1 1.5-.3 2.1-1.9 2.1-1.9 1.5 1.3-.3 1.9-.1 3.2.5 3.2.5 0 1 .5 1 1.1 0 .5-.4.8-.9.5-.4-.3-1.7.1-2.7 1-1.8 1.4-1.8 1.5.3.9 1.8-.5 2.2-.3 1.7.9-.3.9-1.1 1.3-1.7.9-.6-.3-.7-.1-.3.6.4.6.2 1.9-.6 2.8-.7.9-.8 1.4-.2 1 1.4-.8 2.7 1.7 2.9 5.6.1 1.9-.3 2.6-1.1 2.3-.8-.3-1.1.1-.7.9.3.8.9 1.3 1.3 1 .5-.3 1.2 0 1.6.6.4.7.3.9-.3.6-.6-.4-1.3 0-1.7.8-.3.8 0 1.5.7 1.5.8 0 .7.4-.3.9-.8.6-1.8.7-2.4.4-.5-.3-.6-.1-.2.5.4.6 1.4.9 2.4.6 1.2-.4 1.3-.3.4.3-.7.6-1 1.7-.6 2.8.6 1.4.4 1.6-.6 1-.9-.5-1.1-.4-.6.4.4.6.2 1.9-.6 2.8-.7.9-.8 1.4-.2 1 1.4-.8 2.7 1.7 2.9 5.6.1 1.9-.3 2.6-1.1 2.3-.8-.3-1.1.1-.7.9.3.8.9 1.3 1.3 1 .5-.3 1.2 0 1.6.6.4.7.3.9-.3.6-.6-.4-1.3 0-1.7.8-.3.8 0 1.5.7 1.5.8 0 .7.4-.3.9-.8.6-1.8.7-2.4.4-.5-.3-.6-.1-.2.5.4.6 1.4.9 2.4.6 1.2-.4 1.3-.3.4.3-.7.6-1 1.7-.6 2.8.6 1.4.4 1.6-.6 1-.9-.5-1.1-.4-.6.4.4.6.2 1.9-.6 2.8-.7.9-.8 1.4-.3 1.1.6-.3 1.8.5 2.8 1.8 1.5 2.1 1.6 2.5.3 3-2.2.8-2.7 3.2-1.1 4.8 1.3 1.3 1.3 1.7-.1 3-1.4 1.5-1.3 1.6.8 1.7h2.3l-2.2 1.1c-1.2.6-2.5 1.8-2.8 2.6-.4 1.2-.1 1.1 1.5-.3 2.1-1.9 2.1-1.9 1.5 1.3-.3 1.9-.1 3.2.5 3.2.5 0 1 .5 1 1.1 0 .5-.4.8-.9.5-.4-.3-1.7.1-2.7 1-1.8 1.4-1.8 1.5.3.9 1.9-.5 2.2-.3 1.6 1.2-.4 1-1.1 2.1-1.7 2.5-.6.4 0 .8 1.4.9 2.5 0 2.5 0 .3 1.1-1.2.6-2.5 1.8-2.8 2.6-.4 1.2-.1 1.1 1.5-.3 2.1-1.9 2.1-1.9 1.5 1.3-.3 1.9-.1 3.2.5 3.2.5 0 1 .5 1 1.1 0 .5-.4.8-.9.5-.4-.3-1.7.1-2.7 1-1.8 1.4-1.8 1.5.3.9 1.8-.5 2.2-.3 1.7.9-.3.9-1.1 1.3-1.7.9-.6-.3-.7-.1-.3.6.4.6.2 1.9-.6 2.8-.7.9-.8 1.4-.2 1 1.4-.8 2.7 1.7 2.9 5.6.1 1.9-.3 2.6-1.1 2.3-.8-.3-1.1.1-.7.9.3.8.9 1.3 1.3 1 .5-.3 1.2 0 1.6.6.4.7.3.9-.3.6-.6-.4-1.3 0-1.7.8-.3.8 0 1.5.7 1.5.8 0 .7.4-.3.9-.8.6-1.8.7-2.4.4-.5-.3-.6-.1-.2.5.4.6 1.4.9 2.4.6 1.2-.4 1.3-.3.4.3-.7.6-1 1.7-.6 2.8.6 1.4.4 1.6-.6 1-.9-.5-1.1-.4-.6.4.4.6.2 1.9-.6 2.8-.7.9-.8 1.4-.2 1 1.4-.8 2.7 1.7 2.9 5.6.1 1.9-.3 2.6-1.1 2.3-.8-.3-1.1.1-.7.9.3.8.9 1.3 1.3 1 .5-.3 1.2 0 1.6.6.4.7.3.9-.3.6-.6-.4-1.3 0-1.7.8-.3.8 0 1.5.7 1.5.8 0 .7.4-.3.9-.8.6-1.8.7-2.4.4-.5-.3-.6-.1-.2.5.4.6 1.4.9 2.4.6 1.2-.4 1.3-.3.4.3-.7.6-1 1.7-.6 2.8.6 1.4.4 1.6-.6 1-.9-.5-1.1-.4-.6.4.4.6.2 2-.5 2.9-.7.9-1 1.4-.5 1 .5-.4 1.7.3 2.6 1.5 1.8 2.1 1.8 2.3-.1 4-1.8 1.7-1.6 4.7.3 4.7.6 0 .5.6-.2 1.5-1 1.2-1 1.5.1 1.5s1.1.2-.1.9c-.8.6-1.8.7-2.4.4-.5-.3-.6-.1-.2.5.4.6 1.4.9 2.4.6 1.2-.4 1.3-.3.4.3-.7.6-1 1.7-.6 2.8.6 1.4.4 1.6-.6 1-.9-.5-1.1-.4-.6.4.4.6.2 1.9-.6 2.8-.7.9-.8 1.4-.2 1 1.4-.8 2.7 1.7 2.9 5.5.1 3.1-.4 3.4-2.5 1.5-1.2-1-1.2-.9-.2.4.6.8 1 2.5.7 3.8-.2 1.2 0 1.9.6 1.6.5-.4.7-1 .4-1.5-.3-.5-.1-1.1.4-1.4.5-.4 1.2-.2 1.5.3.4.5.2 1.2-.4 1.6-.6.4-.8 1.1-.5 1.6.4.5-.1.9-.9.9-.9 0-1.6.4-1.6 1 0 .5.8.7 1.8.4 1-.4 1.3-.2.6.3-1.3 1-1.3 5.3.1 5.3.5 0 .3.4-.5.9-.8.6-1.8.7-2.4.4-.5-.3-.6-.1-.2.5.4.6 1.4.9 2.4.6 1.2-.4 1.3-.3.4.3-.7.6-1 1.7-.6 2.8.6 1.4.4 1.6-.6 1-.9-.5-1.1-.4-.6.4.4.6.2 1.9-.6 2.8-.9 1.2-.9 1.5 0 .9 1.1-.7 1.7.5 1.3 2.7-.1.5.3.6.9.2.5-.3 1-.1 1 .4 0 .6-.4 1.1-.9 1.1-.6 0-.9.9-.8 1.9 0 1.1.4 1.8.8 1.5.4-.2 1.1.1 1.5.7.4.7.3.9-.3.6-.6-.4-1.7.1-2.4 1-1.2 1.4-1.2 1.6.1.9.8-.4.6 0-.5.9-1.9 1.6-1.9 1.6.8 1.1 1.6-.3 2.5-.1 2.2.5-.4.5-1.2.9-2 .9s-1.7.5-2.1 1.2c-.4.7-.3.8.4.4s2-.2 2.9.4c1.7 1.1 1.7 1.1.1.6-1-.3-1.8-.1-1.8.4 0 .6.3 1 .8 1 .4 0 .8 1.3.8 3 .1 1.6-.3 3-.8 3s-.6 1-.3 2.1c.5 1.6.4 1.9-.5 1.4s-1.1-.4-.6.4c.4.6.2 1.9-.6 2.8-.7.9-.8 1.4-.2 1 1.4-.8 2.7 1.7 2.9 5.5.1 3.1-.4 3.4-2.5 1.5-1.2-1-1.2-.9-.2.4.6.8 1 2.5.7 3.8-.2 1.2 0 1.9.6 1.6.5-.4.7-1 .4-1.5-.3-.5-.1-1.1.4-1.4.5-.4 1.2-.2 1.5.3.4.5.2 1.2-.4 1.6-.6.4-.8 1.1-.5 1.6.4.5-.1.9-.9.9-.9 0-1.6.4-1.6 1 0 .5.8.7 1.8.4 1-.4 1.3-.2.6.3-1.3 1-1.3 5.3.1 5.3.5 0 .3.4-.5.9-.8.6-1.8.7-2.4.4-.5-.3-.6-.1-.2.5.4.6 1.4.9 2.4.6 1.2-.4 1.3-.3.4.3-.7.6-1 1.7-.6 2.8.6 1.4.4 1.6-.6 1-.9-.5-1.1-.4-.6.4.4.6.2 1.9-.6 2.8-.7.9-.8 1.4-.2 1 1.4-.8 2.7 1.7 2.9 5.6.1 1.9-.3 2.6-1.1 2.3-.8-.3-1.1.1-.7.9.3.8.9 1.3 1.3 1 .5-.3 1.2 0 1.6.6.4.7.3.9-.3.6-.6-.4-1.3 0-1.7.8-.3.8 0 1.5.7 1.5.8 0 .7.4-.3.9-.8.6-1.8.7-2.4.4-.5-.3-.6-.1-.2.5.4.6 1.4.9 2.4.6 1.2-.4 1.3-.3.4.3-.7.6-1 1.7-.6 2.7.4 1.1.1 2.2-.7 2.7-1 .6-.7.9 1.1 1 2.5 0 2.5 0 .3 1.1-1.2.6-2.5 1.8-2.8 2.6-.4 1.2-.1 1.1 1.5-.3 2.1-1.9 2.1-1.9 1.5 1.3-.3 1.9-.1 3.2.5 3.2.5 0 1 .5 1 1.1 0 .5-.4.8-.9.5-.4-.3-1.7.1-2.7 1-1.8 1.4-1.8 1.5.3.9 1.9-.5 2.2-.3 1.6 1.2-.4 1-1.1 2.1-1.7 2.5-.6.4 0 .8 1.4.9 2.5 0 2.5 0 .3 1.1-1.2.6-2.5 1.8-2.8 2.6-.4 1.2-.1 1.1 1.5-.3 2.1-1.9 2.1-1.9 1.5 1.3-.3 1.9-.1 3.2.5 3.2.5 0 1 .5 1 1.1 0 .5-.4.8-.9.5-.4-.3-1.7.1-2.7 1-1.8 1.4-1.8 1.5.3.9 1.8-.5 2.2-.3 1.7.9-.3.9-1.1 1.3-1.7.9-.6-.3-.7-.1-.3.6.4.6.2 1.9-.6 2.8-.7.9-.8 1.4-.2 1 1.4-.8 2.7 1.7 2.9 5.6.1 1.9-.3 2.6-1.1 2.3-.8-.3-1.1.1-.7.9.3.8.9 1.3 1.3 1 .5-.3 1.2 0 1.6.6.4.7.3.9-.3.6-.6-.4-1.3 0-1.7.8-.3.8 0 1.5.7 1.5.8 0 .7.4-.3.9-.8.6-1.8.7-2.4.4-.5-.3-.6-.1-.2.5.4.6 1.4.9 2.4.6 1.2-.4 1.3-.3.4.3-.7.6-1 1.7-.6 2.8.6 1.4.4 1.6-.6 1-.9-.5-1.1-.4-.6.4.4.6.2 1.9-.6 2.8-.7.9-.8 1.4-.2 1 1.4-.8 2.7 1.7 2.9 5.6.1 1.9-.3 2.6-1.1 2.3-.8-.3-1.1.1-.7.9.3.8.9 1.3 1.3 1 .5-.3 1.2 0 1.6.6.4.7.3.9-.3.6-.6-.4-1.3 0-1.7.8-.3.8 0 1.5.7 1.5.8 0 .7.4-.3.9-.8.6-1.8.7-2.4.4-.5-.3-.6-.1-.2.5.4.6 1.4.9 2.4.6 1.2-.4 1.3-.3.4.3-.7.6-1 1.7-.6 2.8.6 1.4.4 1.6-.6 1-.9-.5-1.1-.4-.6.4.4.6.2 1.9-.6 2.8-.7.9-.8 1.4-.3 1.1.6-.3 1.8.5 2.8 1.8 1.5 2.1 1.6 2.5.3 3-2.2.8-2.7 3.2-1.1 4.8 1.3 1.3 1.3 1.7-.1 3-1.4 1.5-1.3 1.6.8 1.7h2.3l-2.2 1.1c-1.2.6-2.5 1.8-2.8 2.6-.4 1.2-.1 1.1 1.5-.3 2.1-1.9 2.1-1.9 1.5 1.3-.3 1.9-.1 3.2.5 3.2.5 0 1 .5 1 1.1 0 .5-.4.8-.9.5-.4-.3-1.7.1-2.7 1-1.8 1.4-1.8 1.5.3.9 1.9-.5 2.2-.3 1.6 1.2-.4 1-1.1 2.1-1.7 2.5-.6.4 0 .8 1.4.9 2.5 0 2.5 0 .3 1.1-1.2.6-2.5 1.8-2.8 2.6-.4 1.2-.1 1.1 1.5-.3 2.1-1.9 2.1-1.9 1.5 1.3-.3 1.9-.1 3.2.5 3.2.5 0 1 .5 1 1.1 0 .5-.4.8-.9.5-.4-.3-1.7.1-2.7 1-1.8 1.4-1.8 1.5.3.9 1.9-.5 2.2-.3 1.6 1.2-.4 1-1.1 2.1-1.7 2.5-.6.4 0 .8 1.4.9 2.5 0 2.5 0 .3 1.1-1.2.6-2.5 1.8-2.8 2.6-.4 1.2-.1 1.1 1.5-.3 2.1-1.9 2.1-1.9 1.5 1.3-.3 1.9-.1 3.2.5 3.2.5 0 1 .5 1 1.1 0 .5-.4.8-.9.5-.4-.3-1.7.1-2.7 1-1.8 1.4-1.8 1.5.3.9 1.9-.5 2.2-.3 1.6 1.2-.4 1-1.1 2.1-1.7 2.5-.6.4 0 .8 1.4.9 2.5 0 2.5 0 .3 1.1-1.2.6-2.5 1.8-2.8 2.6-.4 1.2-.1 1.1 1.5-.3 2.1-1.9 2.1-1.9 1.5 1.3-.3 1.9-.1 3.2.5 3.2.5 0 1 .5 1 1.1 0 .5-.4.8-.9.5-.4-.3-1.7.1-2.7 1-1.8 1.4-1.8 1.5.3.9 1.8-.5 2.2-.3 1.7.9-.3.9-1.1 1.3-1.7.9-.6-.3-.7-.1-.3.6.4.6.2 1.9-.6 2.8-.7.9-.8 1.4-.2 1 1.4-.8 2.7 1.7 2.9 5.6.1 1.9-.3 2.6-1.1 2.3-.8-.3-1.1.1-.7.9.3.8.9 1.3 1.3 1 .5-.3 1.2 0 1.6.6.4.7.3.9-.3.6-.6-.4-1.3 0-1.7.8-.3.8 0 1.5.7 1.5.8 0 .7.4-.3.9-.8.6-1.8.7-2.4.4-.5-.3-.6-.1-.2.5.4.6 1.4.9 2.4.6 1.2-.4 1.3-.3.4.3-.7.6-1 1.7-.6 2.8.6 1.4.4 1.6-.6 1-.9-.5-1.1-.4-.6.4.4.6.2 1.9-.6 2.8-.7.9-.8 1.4-.3 1.1.6-.3 1.8.5 2.8 1.8 1.6 2.1 1.6 2.5.3 3-1.8.7-2.2 5.4-.5 5.4.8 0 .8.4-.1 1.5-.6.8-.9 1.9-.6 2.4.4.5-.2 1.5-1.1 2.1-1.7 1.1-1.7 1.1-.1.6 1.1-.3 2.2.2 2.8 1.4 1.5 2.8 1.2 3.7-.4 1.4-1.2-1.6-1.7-1.7-2.8-.6-1.1 1.1-1 1.3.2 1 1.1-.2 1.4.4 1.2 2.6-.3 2.1 0 2.6 1 2.1.7-.5 1-.5.6 0-.4.4-.3 1.4.3 2.1.9 1 .7 1.5-.4 2-2.3.8-2.8 3.1-1.2 4.8 1.3 1.3 1.3 1.7-.1 3-1.4 1.5-1.3 1.6.8 1.7h2.3l-2.2 1.1c-1.2.6-2.5 1.8-2.8 2.6-.4 1.2-.1 1.1 1.5-.3 2.1-1.9 2.1-1.9 1.5 1.3-.3 1.9-.1 3.2.5 3.2.5 0 1 .5 1 1.1 0 .5-.4.8-.9.5-.4-.3-1.7.1-2.7 1-1.8 1.4-1.8 1.5.3.9 1.9-.5 2.2-.3 1.6 1.2-.4 1-1.1 2.1-1.7 2.5-.6.4 0 .8 1.4.9 2.5 0 2.5 0 .3 1.1-1.2.6-2.5 1.8-2.8 2.6-.4 1.2-.1 1.1 1.5-.3 2.1-1.9 2.1-1.9 1.5 1.3-.3 1.9-.1 3.2.5 3.2.5 0 1 .5 1 1.1 0 .5-.4.8-.9.5-.4-.3-1.7.1-2.7 1-1.8 1.4-1.8 1.5.4.9s2.3-.5 1.3 1.4c-.9 1.6-.9 2.1.1 2.1.9 0 .9.3-.2.9-.8.6-1.8.7-2.4.4-.5-.3-.6-.1-.2.5.4.6 1.4.9 2.4.6 1.2-.4 1.3-.3.4.3-.7.6-1 1.7-.6 2.8.6 1.4.4 1.6-.6 1-.9-.5-1.1-.4-.6.4.4.6.2 1.9-.6 2.8-.7.9-.8 1.4-.2 1 1.4-.8 2.7 1.7 2.9 5.5.1 3.1-.4 3.4-2.5 1.5-1.2-1-1.2-.9-.2.4.6.8 1 2.5.7 3.8-.2 1.2 0 1.9.6 1.6.5-.4.7-1 .4-1.5-.3-.5-.1-1.1.4-1.4.5-.4 1.2-.2 1.5.3.4.5.2 1.2-.4 1.6-.6.4-.8 1.1-.5 1.6.4.5-.1.9-.9.9-.9 0-1.6.4-1.6 1 0 .5.8.7 1.7.4 1.1-.4 1.4-.2.7.3-1.3 1-1.3 5.3.1 5.3.5 0 .3.4-.5.9-.8.6-1.8.7-2.4.4-.5-.3-.6-.1-.2.5.4.6 1.4.9 2.4.6 1.2-.4 1.3-.3.4.3-.7.6-1 1.7-.6 2.8.6 1.4.4 1.6-.6 1-.9-.5-1.1-.4-.6.4.4.6.2 1.9-.6 2.8-.7.9-.8 1.4-.2 1 1.4-.8 2.7 1.7 2.9 5.6.1 1.9-.3 2.6-1.1 2.3-.8-.3-1.1.1-.7.9.3.8.9 1.3 1.3 1 .5-.3 1.2 0 1.6.6.4.7.3.9-.3.6-.6-.4-1.3 0-1.7.8-.3.8 0 1.5.7 1.5.8 0 .7.4-.3.9-.8.6-1.8.7-2.4.4-.5-.3-.6-.1-.2.5.4.6 1.4.9 2.4.6 1-.4 1.3-.3.6.3-1.3 1-1.3 5.3.1 5.3.5 0 .3.4-.5.9-.8.6-1.8.7-2.4.4-.5-.3-.6-.1-.2.5.4.6 1.4.9 2.4.6 1.2-.4 1.3-.3.4.3-.7.6-1 1.7-.6 2.8.6 1.4.4 1.6-.6 1-.9-.5-1.1-.4-.6.4.4.6.2 1.9-.6 2.8-.7.9-.8 1.4-.2 1 1.4-.8 2.7 1.7 2.9 5.5.1 3.1-.4 3.4-2.5 1.5-1.2-1-1.2-.9-.2.4.6.8 1 2.5.7 3.8-.2 1.2 0 1.9.6 1.6.5-.4.7-1 .4-1.5-.3-.5-.1-1.1.4-1.4.5-.4 1.2-.2 1.5.3.4.5.2 1.2-.4 1.6-.6.4-.8 1.1-.5 1.6.4.5-.1.9-.9.9-.9 0-1.6.4-1.6 1 0 .5.8.7 1.8.4 1-.4 1.3-.2.6.3-1.3 1-1.3 5.3.1 5.3.5 0 .3.4-.5.9-.8.6-1.8.7-2.4.4-.5-.3-.6-.1-.2.5.4.6 1.4.9 2.4.6 1.2-.4 1.3-.3.4.3-.7.6-1 1.7-.6 2.8.6 1.4.4 1.6-.6 1-.9-.5-1.1-.4-.6.4.4.6.2 1.9-.6 2.8-.7.9-.8 1.4-.2 1 1.4-.8 2.7 1.7 2.9 5.6.1 1.9-.3 2.6-1.1 2.3-.8-.3-1.1.1-.8.9.3.8 1 1.3 1.4 1.2.4-.1.8.2.8.8 0 .5-.4.9-.9.7-.5-.1-.9.2-.9.8 0 .5.6 1 1.3 1 .8 0 .7.3-.3.9-.8.6-1.8.7-2.4.4-.5-.3-.6-.1-.2.5.3.6 1.5.9 2.6.7 1.2-.2 1.8 0 1.5.6-.4.5-1.1.7-1.6.4-1.6-1.1-1 .7.9 2.2.9.8 1.2 1.2.5.9-.7-.4-.9.1-.6 1.5.4 1.6.8 1.7 1.4.7.7-1 .9-1 .9.2 0 1.3.1 1.3 1 0 .8-1.3 1-1.3 1 .1 0 .9.7 1.6 1.5 1.6 1.1 0 1.2-.4.5-1.1-.5-.5-1-1.4-1-2 0-.5.8.1 1.9 1.3 1.6 1.8 2 1.9 2.5.6.3-.9.2-1.3-.4-1-.6.3-1 .1-1-.5 0-.7.6-1 1.3-.7.6.2 1.2.9 1.2 1.5 0 .5.3 1.4.7 1.8.5.4.8.1.8-.8 0-1.6 3.4-1.8 4.7-.3.5.4.3.5-.4.1-.6-.3-1.4-.2-1.7.3-.7 1.1 1.3.9 3.3-.3.8-.5 1.6-.3 2.2.5.7 1.2.9 1.1.9-.1 0-1.3.1-1.3 1 0 .8 1.2 1 1.2 1 .1 0-1 .3-1.1 1.3-.2.8.6 1.7.7 2.3.2 1.9-1.9 7.4-2 8.4-.3.8 1.5.9 1.5 1 .1 0-1.6 3.3-2 4.7-.4.5.4.3.5-.4.1-.6-.3-1.4-.2-1.7.3-.7 1.1 1.3.9 3.3-.3.8-.5 1.6-.3 2.2.5.7 1.2.9 1.1.9-.1 0-1.3.1-1.3 1 0 .8 1.3 1 1.3 1 .1s.3-1.2 1.2-.3c.7.7 1.6.8 2.2.3 2.2-1.9 7.6-2 8.6-.3.8 1.5.9 1.5 1 .1 0-1.6 3.3-2 4.7-.4.5.4.3.5-.4.1-.6-.3-1.4-.2-1.7.3-.7 1.1 1.3.9 3.3-.3.8-.5 1.6-.3 2.2.5.7 1.2.9 1.1.9-.1 0-1.3.1-1.3 1 0 .8 1.2 1 1.2 1 .1 0-1 .3-1.1 1.3-.2.8.6 1.7.7 2.3.2 1.9-1.9 7.4-2 8.4-.3.8 1.5.9 1.5 1 .1 0-1.6 3.3-2 4.7-.4.5.4.3.5-.4.1-.6-.3-1.4-.2-1.7.3-.7 1.1 1.3.9 3.3-.3.8-.5 1.6-.3 2.2.5.7 1.2.9 1.1.9-.1 0-1.3.1-1.3 1 0 .7 1.1 1 1.1 1 .2 0-.8.5-1 1.3-.5 2.7 1.7 4.1 1.1 1.8-.8-2.9-2.4-1.4-2.5 1.9-.2s5 2.5 4.3.5c-.5-1.4-.2-1.4 1.6.2 2.2 2 2.2 2 1.5 0-.7-1.7-.6-1.8 1-.4 2.6 2 4.6 2.2 3.9.2-.5-1.4-.2-1.4 1.6.2 2.2 2 2.2 2 1.5 0-.7-1.7-.6-1.8 1-.4 2.6 2 4.6 2.2 3.9.2-.5-1.4-.2-1.4 1.6.2 2.2 2 2.2 2 1.5 0-.7-1.7-.6-1.8 1-.4 2.6 2 4.6 2.2 3.9.2-.5-1.4-.2-1.4 1.6.2 2.2 2 2.2 2 1.5 0-.7-1.7-.6-1.8 1-.4 2.6 2 4.6 2.2 3.9.2-.5-1.4-.2-1.4 1.6.2 2.2 2 2.2 2 1.5 0-.7-1.7-.6-1.8 1-.4 2.6 2 4.6 2.2 3.9.2-.5-1.4-.2-1.4 1.6.2 2.2 2 2.2 2 1.5 0-.7-1.7-.6-1.8 1-.4 2.6 2 4.6 2.2 3.9.2-.5-1.4-.2-1.4 1.6.2 2.2 2 2.2 2 1.5 0-.7-1.7-.6-1.8 1-.4 2.6 2 4.6 2.2 3.9.2-.5-1.4-.2-1.4 1.6.2 2.2 2 2.2 2 1.5 0-.7-1.7-.6-1.8 1-.4 2.6 2 4.6 2.2 3.9.2-.5-1.4-.2-1.4 1.6.2 2.2 2 2.2 2 1.5 0-.7-1.7-.6-1.8 1-.4 2.6 2 4.6 2.2 3.9.2-.5-1.4-.2-1.4 1.6.2 2.2 2 2.2 2 1.5 0-.7-1.7-.6-1.8 1-.4 2.6 2 4.6 2.2 3.9.2-.5-1.4-.2-1.4 1.6.2 2.2 2 2.2 2 1.5 0-.7-1.7-.6-1.8 1-.4 2.6 2 4.6 2.2 3.9.2-.5-1.4-.2-1.4 1.6.2 2.2 2 2.2 2 1.5 0-.7-1.7-.6-1.8 1-.4 2.6 2 4.6 2.2 3.9.2-.5-1.4-.2-1.4 1.6.2 2.2 2 2.2 2 1.5 0-.7-1.7-.6-1.8 1-.4 2.6 2 4.6 2.2 3.9.2-.5-1.4-.2-1.4 1.6.2 2.2 2 2.2 2 1.5 0-.7-1.7-.6-1.8 1-.4 2.6 2 4.6 2.2 3.9.2-.5-1.4-.2-1.4 1.6.2 2.2 2 2.2 2 1.5 0-.7-1.7-.6-1.8 1-.4 2.5 2 4.6 2.2 3.9.3-.5-1.3-.2-1.3 2 .1 1.9 1.3 2.7 1.4 3.3.5.4-.7.3-.9-.4-.5-.6.3-1.3.3-1.6-.2-.2-.4.6-.8 2-.8 1.8 0 2.3.4 1.9 1.6-.5 1.2-.4 1.3.6.2 1.5-1.4 3.3-1.6 2.4-.2-.3.5-.1 1 .4 1 .6 0 1.1-.6 1.1-1.3 0-1.5 3.5-1.6 4.7-.2.5.4.3.5-.4.1-.6-.3-1.4-.2-1.7.3-.7 1.1 1.3.9 3.3-.3.8-.5 1.6-.3 2.2.5.7 1.2.9 1.1.9-.1 0-1.3.1-1.3 1 0 .8 1.2 1 1.2 1 .1 0-1 .3-1.1 1.3-.2.8.6 1.7.7 2.3.2 1.9-1.9 7.4-2 8.4-.3.8 1.5.9 1.5 1 .1 0-1.6 3.3-2 4.7-.4.5.4.3.5-.4.1-.6-.3-1.4-.2-1.7.3-.7 1.1 1.3.9 3.3-.3.8-.5 1.6-.3 2.2.5.7 1.2.9 1.1.9-.1 0-1.3.1-1.3 1 0 .8 1.2 1 1.2 1 .1 0-1 .3-1.1 1.3-.2.8.6 1.7.7 2.3.2 1.9-1.9 7.4-2 8.4-.3.8 1.5.9 1.5 1 .1 0-1.6 3.3-2 4.7-.4.5.4.3.5-.4.1-.6-.3-1.4-.2-1.7.3-.7 1.1 1.3.9 3.3-.3.8-.5 1.6-.3 2.2.5.7 1.2.9 1.1.9-.1 0-1.3.1-1.3 1 0 .8 1.2 1 1.2 1 .1 0-1 .3-1.1 1.3-.2.8.6 1.7.7 2.3.2 1.9-1.9 7.4-2 8.4-.3.9 1.6.9 1.6 1 .1 0-2.1 3.3-2 4.1.1.5 1.1 1.2.5 2.9-2.3 2.3-3.9 3.9-5.2 1.9-1.6-.8 1.6-.8 2.4.1 3.3.6.6 1.1.6 1 .1-.5-2.4.1-4.6 1-4 .6.3.7-.1.4-.9-.3-.9-1.1-1.6-1.7-1.6-.6 0-.2-.7.9-1.6 1.6-1.3 1.6-1.5.2-1-1 .3-1.8.1-1.8-.4 0-.6.7-1 1.5-1 1.5 0 1.6-3.2.2-4.6-.3-.4-.4.3-.2 1.5s0 1.9-.4 1.7c-.4-.3-.7-1.8-.6-3.3.1-1.5-.2-3.6-.7-4.5-.6-1.4-.5-1.6.7-1.2.8.3 1.2 1 .9 1.5-.3.5 0 .9.6.9.7 0 1-.6.7-1.4-.3-.7-.1-1.8.4-2.3.6-.6.4-1-.5-1-.8 0-1.2.5-.9 1 .3.6.1.7-.6.3-.6-.4-.9-1.2-.6-1.7.4-.5.2-.9-.3-.9s-.9-.7-.9-1.5.4-1.2.9-.9c.4.3.8.1.8-.5 0-.5-.5-1.2-1-1.4-.6-.3-.5-.4.2-.3.7.2 1.2 1.3 1.1 2.5-.2 1.4.3 2.1 1.5 2.1.9 0 1.3-.3.7-.8-.5-.4-1.1-1.8-1.3-3.1-.2-2 0-2.2 1.2-1.2 1.3 1.1 1.3.9.3-1.3s-1.3-2.3-1.9-.8c-.5 1.2-.6.8-.5-1 .2-1.5.7-3.1 1.2-3.5.4-.4.5-.2.1.4-.9 1.5.6 1.7 2 .3.7-.7 1.8-.1 3.5 1.7 1.3 1.5 1.6 2.1.7 1.4-1.5-1.1-1.8-1.1-1.8.2 0 1.6 1.6 1.7 3.9.3 1-.6 1.2-.5.7.2-.4.7-.1 1.2.8 1.2s1.6.4 1.6 1c0 .5.5 1 1.1 1 .5 0 .7-.5.4-1-.3-.6-.1-1 .4-1 1.4 0 1.4 1.2.1 2.8-.6.6-.7 1-.3.7.3-.3 1.7.2 3 1 2.5 1.6 3.1.8 1.1-1.4-1-1.1-.8-1 1 0 1.2.8 2.2 2.3 2.2 3.4 0 1.7.2 1.7 1 .5.9-1.3 1-1.3 1.1 0 .1.8.1 1.8 0 2.3 0 .4.2.6.6.6 1.9-.3 3.4.2 2.9.9-.3.5.1.9.9.9s1.2-.4.9-.9c-.3-.4.2-.8 1.1-.8 1.1 0 1.5.5 1.2 1.5-.4.8-.1 1.7.5 2.1.6.4.8.3.5-.3-.4-.6 0-1.3.8-1.7.8-.3 1.7-.1 2 .5.4.5 1.1.7 1.6.3.5-.3.9-.2.8.3-.4 2.2.2 4.3 1.1 3.8.6-.3 1-.1 1 .5s.4.9.9.6c.4-.3 1.7.1 2.7.8 1.5 1.1 2.2 1.2 3.3.3 1.2-1 1.4-.9.9.5-.5 1.2 0 1.8 1.8 2.2 1.6.4 2.2 1.1 1.7 1.9-.4.8-.1.7 1-.2 1.1-.9 1.7-1 1.7-.2 0 .6.8 1.1 1.8 1.1 1.4 0 1.5.2.2 1s-1.3 1 .2 1c.9 0 1.8.3 2.1.7.2.5.3.3.1-.4-.3-1.4 1.9-1.1 4 .7 1.4 1 1.4 1.5.4 2.1-1 .7-1 .9.2 1 .8.1 1.9.1 2.4 0s1.3.4 1.7 1.1c.5.7 1.4 1.3 2.1 1.3.7 0 1.2.9 1 2-.2 1.7-.1 1.7.8.5.9-1.3 1.1-1.3 2.1 0 .9 1.3 1 1.2.5-.3-.5-1.4-.2-1.6 1.3-.8 1 .6 2.1.8 2.3.5.3-.2 1.1.3 1.9 1.3.9 1.1 1 1.4.2.9-.7-.4-1.3-.2-1.3.3 0 1.5 2.3 1.4 4-.1 1.2-1.1 1.2-1 .2.3s-.9 1.9.5 3c1.4 1.2 1.6 1.2 1.1-.2-.4-1-.1-1.6.8-1.6.8 0 1.3.6 1 1.3-.3.7.5 2 1.6 3.1 1.2 1 1.8 1.3 1.5.7-.4-.7-.1-1.7.7-2.3 1.1-.9 1.3-.6 1.1 1.3-.2 1.9.1 2.3 1.3 1.9 1.1-.5 1.3-.3.7.7-.6 1-.2 1.2 1.9.8 1.4-.3 2.9-.1 3.2.4.3.4 1 .6 1.5.3.5-.4.9.2.9 1.1 0 1.6-.1 1.6-1.8.1s-1.8-1.5-1.9.6c-.2 1.5 0 1.8.6.8.6-.9 1.1-1 1.5-.2.5.8 1.3.8 2.7.1 1.3-.7 2.5-.8 3.7-.1.9.6 1.1 1.1.5 1.1-1.6 0-1.7 3-.2 3 .5 0 .7-.6.3-1.3-.5-.9-.4-.9.6 0 .7.6 1.9.9 2.8.5 1.2-.4 1.4-.1.9 1.3-.7 1.7-.6 1.7 2 0 2.8-1.8 2.8-1.8 1 .2-1.5 1.8-1.6 2.1-.3 2.6.9.4 1.8.1 2.2-.5.5-.7.2-.8-.6-.3-.9.6-1.1.4-.6-.4.5-.7 1.1-.9 1.5-.6.6.7.7 1.2 1 3.9.1 1.6 5.3 1.8 6.4.2.4-.6.5.1.3 1.6-.4 2.2-.1 2.6 1.4 2.3 1-.2 2.1.4 2.5 1.3.6 1.5.8 1.5 2.1-.2 1.2-1.8 1.4-1.8 1.5-.3.2 3.1.4 3.5 1.3 4.4.5.4.6.3.3-.3-1.1-2 2.1-2.4 3.9-.6 1.3 1.2 1.9 1.3 2.2.4.2-.7.8-.9 1.4-.6.6.4.1 1.2-1.2 1.9-1.5.8-1.9 1.5-1.1 1.9.6.4 1.1.2 1.1-.4 0-.6.5-.8 1-.5.6.4.8.9.6 1.3-.2.4.7.8 2 .8 1.5.1 2.2-.2 1.7-1-.3-.6.3-.2 1.5.8 2.4 2.1 3.1 3.6.8 1.7-1-.8-1.6-.9-2.1-.1-.4.6-.1.9.7.8.7-.2 1.2.3 1 1-.2 1 .2 1 1.8 0 1.7-1.1 2.2-1 3 .2.5.8.6 1.8.3 2.4-.3.5-.1.6.5.2.6-.3 1.8.1 2.6 1 .9.8 1.6 1.1 1.6.6 0-.5-1-1.6-2.2-2.4-1.7-1.1-1.9-1.6-.8-2.3.8-.5 1.1-.4.7.2-.4.5.5 1.6 1.8 2.3 1.3.7 2.2 1.6 2 2-.3.5.2 1 1 1.3 1 .4 1.2.1.8-1-.4-1 .3-.7 1.8.8 1.3 1.3 2.3 3.1 2.1 3.9-.2 1.2-.1 1.2.6.1 1.1-1.5 5.6-.6 4.7 1-.4.5.3.9 1.5.9 1.7 0 2 .4 1.5 2.2-.4 1.6-.3 1.9.3.9.7-.9 1.2-1 1.6-.2.4.6 1.2.9 1.7.6 1.7-1.1 5-1.4 4.4-.4-.4.5-1.1.6-1.7.3-.7-.4-.8-.2-.4.4.4.6 1.4.8 2.3.5 1.1-.4 1.4-.3.9.5-.4.7-.1 1.2 1 1.2s1.5.6 1.1 2c-.3 1.1-.1 1.8.4 1.4.5-.3.9-1.3 1-2.2 0-1.1.2-1.2.6-.4.2.6.9 1 1.4.6.5-.3.9.2.9 1 0 .9.7 1.6 1.5 1.6.9 0 1.2.6.8 1.7-.5 1.5-.3 1.5 1.1-.2 1.6-1.9 1.7-1.9 1.2-.1-.5 1.6-.4 1.7.8.7 1.6-1.4 4-.6 3.1 1-.5.8 2.4 1.4 4.8 1 .5-.1.6.3.2.8-.3.6-1.2.8-2 .4-.8-.3-1.5-.1-1.5.5s1.3.8 3 .6c2.5-.4 2.9-.2 2.4 1.3-.5 1.7-.5 1.7.6 0 .6-.9 1.7-1.5 2.3-1.1.7.3.3-.2-.7-1-1.8-1.5-1.8-1.6-.2-1.6 1.1 0 1.5-.4.9-1.2-1.4-2.3-1.2-3.7.5-3.1 1 .4 1.4.3 1-.2-.4-.4-.3-1.7.3-2.7.8-1.5.8-2.3-.2-3.2-.9-.8-1-.8-.5.1.4.7.3 2.1-.3 3-.8 1.4-.9 1-.8-1.9.2-2.9.5-3.4 1.8-2.8 1.1.6 1.6.5 1.6-.5 0-.8-.4-1.2-.9-.9-.4.3-.8.1-.8-.5s-.8-.8-1.7-.4c-1.5.5-1.4.3.2-1 1.1-.9 1.6-1.7 1.1-1.7s-.2-.7.5-1.6c1.5-1.8 2.2-4.7.9-3.9-.4.3-1-.2-1.4-1-.3-.8 0-1.7.6-2.1.7-.5.8-.2.3.6s-.4 1.1.3.7c1.1-.7 1.1-3.2-.1-4.3-1-1.1-.9-2.6.2-2 .5.4.8-.2.6-1.1-.1-1 .2-2.3.7-2.9 1.1-1.5-1.9-4.7-3.5-3.7-.7.4-.6-.1.2-1 1.5-1.8 2.6-2.3 1.6-.7-.3.5-.1 1 .4 1 .6 0 1.1-.7 1.1-1.5s-.5-1.5-1.1-1.5c-.5 0-.7-.5-.4-1 .4-.6 1-.8 1.5-.5.5.3 1.1.1 1.5-.4.3-.6-.4-.8-1.5-.6-1.4.3-2 0-1.7-.8.3-.7 1.1-1.1 1.8-.9.9.1.8-.3-.3-1.1-2.3-1.8-2.3-3.1 0-2.2 1.3.5 1.4.3.5-.6-.6-.6-.9-1.8-.6-2.7.5-1.1.3-1.3-.7-.7-.9.6-.8.1.3-1.5 1.2-1.7 1.3-2.8.6-4.2-.5-1-.6-1.8-.1-1.8 1 0 .8-3.4-.3-6.3-.4-1-.3-1.7.5-1.7.6 0 .8.5.4 1.2-.5.7-.3.8.6.3 1-.6 1-1.1-.3-2-2-1.4-2.3-2.9-.4-2 .6.4.3-.1-.7-.9-1.8-1.5-1.8-1.6-.2-1.6 1 0 1.4-.4 1-1.2-1.1-1.8-1.3-6.8-.2-6.8.5 0 .6.5.2 1.2-.4.7-.3.8.5.4.6-.4.9-1.1.6-1.6-.3-.4 0-1 .7-1.2.7-.3.5-.7-.6-1.1-1.1-.5-1.5-.3-1 .5.5.7.3.8-.6.3-1-.6-1-1.1.3-2 .9-.7 1.4-1.5 1-1.8-.3-.4-1.3-.1-2.1.5-.8.7-.6-.3.7-2.5 1.1-2 1.8-3.7 1.5-3.7-.4 0 0-.8.7-1.7 1.1-1.4 1.1-1.5.1-.9s-1.3.3-1-1c.2-1.1-.3-2.5-1.2-3.2-1.3-1-1.2-1.1.5-.6l2 .6-2-1.8c-1.8-1.5-1.8-1.6-.2-1 1.3.4 1.7.2 1.4-.6-.2-.7-1-1.2-1.7-1-1 .2-1.1 0-.2-1.1.7-.8.8-1.8.4-2.2-.4-.5-.1-.5.6-.1s.9 1.2.6 1.8c-.4.7-.2.8.4.4.7-.4 1.2-.2 1.2.5s.2 1 .5.7c.3-.3-.1-1.7-.8-3.1-.8-1.5-1.6-2.5-1.9-2.2-.2.3-.5-.2-.5-1 0-1.3.2-1.3 1.7 0 1.4 1.3 1.6 1.2 1.6-.5 0-1-.4-1.6-.8-1.4-.4.3-.8-.2-.8-1 0-1 .7-1.3 2-1.1 1.1.2 1.8 0 1.5-.5-.6-1-2.4-.8-4.3.4-.7.4-1.6.5-1.9.2-.4-.3-.1-.6.6-.6s.9-.5.5-1.2-.3-.8.4-.4c.8.5 1.2-.1 1.2-1.8 0-1.4.4-2.7.9-3 .5-.3.7-1.5.4-2.6-.4-1.6-.2-1.9 1.3-1.4 1.8.5 1.8.5.1-.6-.9-.6-1.5-1.5-1.2-2.1.4-.5-.4-1.4-1.7-1.9-2.2-1-2.2-1 .4-.5 1.5.3 3 0 3.3-.5.4-.6.3-1-.2-.9-2.1.4-3.1-.3-2.8-1.8.1-1-.3-2.5-.9-3.3-1-1.3-.9-1.3.7-.1.9.8 2.1 1 2.5.6.4-.4.1-1-.5-1.2-.7-.3-1.3-.9-1.3-1.4 0-.6.4-.7 1-.4.6.3.7-.1.4-.9-.3-.9-.9-1.4-1.3-1.1-.4.2-.8-.3-.8-1.1 0-.9.6-1.3 1.4-1 .8.3 1.2.2.8-.3-.3-.5 0-1.1.7-1.3.7-.3.5-.7-.6-1.1-1.2-.5-1.5-.3-1 .6.4.6.3.9-.1.4-1.3-1.1-1.6-4.5-.5-5.2.6-.3.7.1.4.9-.3.9-.1 1.6.6 1.6.6 0 .9-.4.6-.9-.4-.5 0-1.2.6-1.4 1-.4 1-.6.1-.6-.7-.1-1.3-1-1.3-2.2 0-1.1.4-1.7 1-1.4.6.3.7-.1.4-.9-.3-.9-.9-1.4-1.4-1.1-.4.2-.7-.9-.6-2.6.1-1.6.7-3.4 1.5-3.8.9-.6 1-1 .2-1.2-1.6-.6-2.2-5.7-.8-6.6.6-.4.7-.1.2.7-.5.9-.4 1.1.4.6.9-.6.9-1.1.1-2.1-.7-.8-1.3-2.6-1.4-4-.3-2-.1-2.3 1-1.4 1.7 1.4 1.8-.2.2-2-1-1.1-1-1.3 0-.7.6.4 1.2.2 1.2-.3 0-.6-.4-1.1-.9-1.1s-1.2-.7-1.5-1.6c-.6-1.4-.4-1.5.9-.4s1.6 1.1 1.3-.1c-.2-.8.3-1.3 1-1.1 1 .2 1-.2 0-1.7-.7-1.1-1.5-1.8-1.9-1.5-.4.2-.9-.3-1.2-1.1-.4-1-.1-1.2 1.1-.8 1.5.6 1.6.5.2-1.2-.9-1.1-1-1.6-.2-1.1.6.4 1.2.2 1.2-.3 0-.6-.4-1.1-.9-1.1s-1.2-.7-1.5-1.6c-.4-1-.2-1.3.7-.7 1.5.9 4.1 1.4 3.3.6-.3-.4 0-1.3.6-2.2.8-1 .4-.9-1 .3-1.2 1.1-2.2 1.5-2.3 1-.5-4.4-.4-8.2.3-7.8.4.3.8-1.3.8-3.6 0-2.9-.4-3.9-1.2-3.4-.7.5-.8.3-.2-.7.5-.8.9-1.9.9-2.4 0-.6.5-1 1.2-1 .6 0 1.5-.4 2-.9s.3-.6-.4-.2c-.7.4-1.3.2-1.3-.4 0-.6-.5-.8-1.2-.4-.6.4-.8.3-.4-.4.3-.5.3-1.2-.1-1.5-.5-.2-.3-.3.3-.1.6.1 1.6-.8 2.4-1.9 1.1-1.9 1.1-2-.1-1.1-1.1.9-1.7.8-2.9-.4-1.3-1.4-1.2-1.5.3-.9.9.3 1.9.2 2.2-.3.4-.6.1-1-.6-1s-.1-1 1.2-2.2c1.5-1.3 1.8-1.9.7-1.5-1 .3-2.3-.3-3.5-1.6-1.8-2.2-1.8-2.2.4-.4 2.2 1.9 3.1 1.4 3.8-2.3.2-1.2 0-1.8-.6-1.5-.5.4-.7 1-.4 1.5.3.5.2 1.1-.3 1.4-.4.2-.8-.6-.8-2 0-1.3.4-2.4.8-2.4s.8-.5.8-1.1c0-.5-.4-.8-.9-.5-1.1.7-.2-3.4 1.1-5.1.6-.7.5-1.4-.3-1.8-.8-.6-.7-1 .2-1.7 1-.6.6-.7-1.1-.3-1.7.4-2.1.3-1.2-.3.8-.5 1.3-1.2 1.2-1.6-.1-.4 0-1 .3-1.4.2-.4.2 0 0 .8s0 1.1.4.6c1.2-1.2 1.1-6.6-.1-5.9-.6.4-.5-.1.3-1 1.2-1.5 1.1-1.7-.3-1.7-1 0-1.4-.5-1.1-1 .4-.6 1-.8 1.4-.6.4.3.8-.1.8-.9s-.5-1.1-1-.8c-.6.4-.8 0-.5-.9.9-2.2-.5-3.8-3.4-4-1.5-.1-2.4-.6-2.2-1 .3-.5 1.1-.5 1.7-.1.7.4.5-.1-.2-1.1-1.4-1.7-1.5-1.7-2.8 0-.8 1-1.3 1.3-1.3.5 0-.7-.6-.9-1.2-.6-.7.4-.3-.2 1-1.3l2.2-2-3.7.1c-2.5.1-3.8-.3-4-1.3-.4-1.3-.3-1.3.7 0 .9 1.2 1.1 1.2.8.1-.4-1.4-2.7-2.2-6-2.2-.9 0-2.4-.9-3.3-1.9-1-1.1-2.2-1.7-2.8-1.3-.6.3-.7.1-.3-.6.5-.8 1.2-.9 2-.2s1.2.4 1.3-1.2c.1-1.2-.1-1.7-.5-1.2-1 1.4-4.6 1.9-3.7.6.4-.7-.4-1.1-1.9-1.1-2.4 0-3.2-1.3-2.7-4.3.1-.5-.3-.6-.9-.2-.6.3-.8 1.1-.5 1.6.4.5.1.9-.4.9-1.1 0-1.5-1.5-1.1-3.5.1-.5-.2-.7-.6-.3-.4.4-1.3 0-2.1-1-1.3-1.5-1.3-1.5-.4.5.8 1.6.7 2.2-.5 2.7-.8.3-1.2.2-.9-.4.3-.5.2-1.7-.3-2.6-.6-1.2-1.1-1.3-1.6-.5-1.2 1.9-6.9-2.7-6.3-5.1.4-1.5.2-1.7-.7-.9-.7.6-1.6.8-1.9.4-.4-.3-.7 0-.7.8 0 1.2-.2 1.2-.9 0-.5-.8-.7-2.1-.4-2.9.5-1.1.1-1.3-1.6-.7-2.1.6-2.2.5-1.2-1.4 1.4-2.5.8-2.7-1.3-.5-1.2 1.2-1.6 1.2-1.6.2s-.3-.9-1.1.2c-.8 1.2-.9 1-.4-.7.3-1.2.1-2.5-.6-2.9-.7-.4-.9-.3-.6.3.3.5 0 1-.7 1-.8 0-1.2-.6-.9-1.4.3-.7 0-1.3-.7-1.3-.6 0-.8-.5-.4-1.1.5-.8.1-.8-1.4 0-2.7 1.4-3.9 1.4-2.4-.1.7-.7 1.2-1.7 1.2-2.2 0-.6-.5-.4-1 .4-.8 1.3-1 1.3-1 .1s-.3-1.2-1.2-.3c-1.8 1.8-3.2 1.4-1.7-.4 1.2-1.5 1.1-1.6-1.1-.9-2.2.7-2.3.6-1.1-.9.8-.9 1.1-1.9.7-2.3-.3-.3-.6-.1-.6.5 0 .7-.5 1.2-1.1 1.2-.5 0-.7-.4-.4-1 .3-.5-.4-1-1.7-1-4.1 0-5.7-.3-5.2-1.1.6-1.1-2.6-4-3.7-3.4-.5.4-.9.1-.9-.4 0-.6.5-1.1 1.2-1.1.6 0 .8-.3.5-.6-.4-.4-1.4-.1-2.4.7-1.5 1.2-1.6 1.2-1-.3.3-1-.1-2.2-1.1-3-1.1-.9-1.4-1-.8-.1.4.8.1 1.3-.9 1.3-.9 0-1.4-.4-1.1-.9.3-.5-.1-1.2-1-1.5-.8-.3-1.2-.2-.9.3.3.5 0 1.3-.6 1.7-.8.4-.9.3-.5-.4s.2-1.2-.5-1.2c-.9 0-.9-.3 0-1.4.8-.9.8-1.6.2-2-.5-.4-1.3-.1-1.7.5-.4.8-.9.7-1.5-.2-.8-1.2-1.1-1.1-1.9.1-.8 1.2-.9.9-.6-1.2.3-2 .1-2.5-.9-2.2-.8.3-1.1 1.3-.8 2.1.5 1.2.1 1.1-1.5-.3-2.6-2.2-2.6-2.2-.9-2 .6 0 1.2-.4 1.3-.9 0-.6-.8-.9-1.9-.7-1.3.3-1.7 0-1.2-1 .3-.7-.1-.4-.9.6-.9 1.1-1.6 1.4-1.6.7s-.4-1-.9-.7c-.4.3-.7-.6-.5-1.9.1-1.4-.1-2.3-.6-2-.5.3-1.1-.1-1.3-.7-.4-1-.6-1-.6 0-.1.7-.5 1-1.1.7-.5-.3-1-.1-1 .6s-.3.9-.6.6c-.4-.4-.1-1.3.6-2.2.7-.9 1-1.8.6-2.2-.3-.3-.6-.1-.6.5 0 .7-.5 1.2-1.1 1.2-.5 0-.8-.4-.5-.9.3-.5-.1-1.2-1-1.5-.8-.3-1.2-1.1-.8-1.7.4-.8.3-.9-.5-.5-1.5 1-4.3-1.3-3.4-2.8.4-.6-.1-.5-1 .3-2 1.6-2.3 2.5-.4 1.5.6-.4.8-.3.4.1-1.6 1.8-3.4 1.3-3.2-1 .2-1.7-.1-2.2-1.5-1.8-1.1.3-1.9-.2-2.3-1.6-.3-1.2-1.1-2.1-1.9-2.1-1 0-.9.3.2 1 1.3.8 1.2 1-.2 1-1 0-1.8-.5-1.8-1.1 0-.5-.6-.7-1.2-.3-.8.5-.8.2.1-1 1.2-1.5 1.2-1.7 0-1.4-.8.2-1.3-.3-1.1-1.2.3-1.2.1-1.3-.9-.2-1.6 1.5-2.9 1.6-2.9.1 0-.5.5-.7 1-.4.6.3 1 .2 1-.3 0-.6-.7-1.3-1.6-1.6-.8-.3-1.2-.2-.9.3.3.5.1 1.2-.5 1.6-.5.3-1 .1-1-.5 0-.7-.7-.9-1.6-.6-1.4.5-1.5.4-.4-.9s1-1.4-.6-.8c-1.7.6-1.7.5-.5-1s1.2-1.7-.2-1.2c-1.8.7-5.9-2.4-5-3.8.3-.6.1-.7-.6-.3-.6.4-.9 1.2-.6 1.7.4.5-.1.9-1 .9-1.2 0-1.3-.4-.6-1.8.7-1.4.6-1.9-.4-1.9-.8 0-1.2.3-1 .7.2.4-.2.7-.9.7-.8 0-1.2-.8-.9-2.1.4-1.8.2-1.8-1.2.4-1.5 2.3-1.5 2.4-1 .2.4-1.3.2-2.2-.4-2.2-.6 0-1.1.4-1.1 1 0 .5-.5 1-1.2 1-.6 0-.8-.3-.5-.7.8-.7-3.4-3.9-4.6-3.5-.5.1-.6-.2-.2-.8.4-.7 1.7-.3 3.6 1 1.6 1.2 2.9 1.8 2.9 1.3 0-1.2-5.6-4.4-6.4-3.6-.3.4-1.3-.2-2.2-1.3-.8-1-1.2-1.2-.8-.4.4.8.4 1.2-.1.8-.4-.4-1.4-.3-2.1.3-.8.7-1.4.6-2-.2-.4-.7-.3-.9.4-.5.6.3 1.6-.3 2.2-1.4.7-1.3.7-2 0-2-.5 0-1 .5-1 1.1 0 .5-.5.7-1.1.3-.6-.3-.8-1.5-.6-2.6.4-1.6.3-1.7-.9-.7-.7.6-1.1 1.6-.7 2.3.3.6-.3.3-1.4-.7-1.1-.9-2.3-1.4-2.6-1-.4.3-.7-.2-.7-1.2 0-1.7.1-1.7 2 0 1.1 1 2 1.4 1.9.9 0-1.3-5.9-5.8-5.9-4.6 0 .6.6 1.3 1.3 1.5.6.3.7.6.1.6-.5.1-1.9-.6-3-1.5-1-.8-1.3-1.2-.5-.8.9.5 1.2.3.7-.4-.9-1.5-1.1-1.5-3.1.4-1.5 1.6-1.6 1.6-1.3-.2.2-1 .9-2.4 1.7-3 1.1-.9 1-1.1-.5-.9-1.1 0-2.6.5-3.3 1-1.1.6-1.3.4-.8-.7.4-1.2.1-1.4-1.4-1.1-1.3.4-1.9 0-1.9-1s-.6-1.3-2-1c-1.2.3-2 0-2-.6 0-.7-.5-.9-1.2-.5-.8.5-.7 0 .2-1.1.8-1 1-1.6.3-1.2-.7.4-1.7 0-2.3-1-1-1.6-1.1-1.6-.6-.1.3 1 .1 2-.5 2.3-.5.4-.9.3-.8-.2.3-1.6-.2-2.8-2-5.2-1.4-1.8-2-2.1-2.6-1.1-.5.9-.4 1.1.3.6.7-.4 1.2-.3 1.2.3 0 .5-.9.9-1.9.8-1.5-.1-1.7-.5-1.1-1.7.6-1.2.5-1.7-.5-1.7-.8 0-1.2.4-.9.8.2.4-.1 1.1-.7 1.5-.7.4-1 .3-.6-.2.3-.5-.1-2-1-3.4-.8-1.4-1.2-1.7-.9-.8.6 2.1-.5 3-2.4 1.7-.8-.5-1-.9-.4-.9s1.1-1.3 1-2.9c-.1-1.9-.5-2.6-1.1-2-1.4 1.4-2.2 1.1-2.8-1.4-.6-2-.5-2 .7-.4 1.1 1.4 1.5 1.5 2.5.4.6-.8.8-1.6.5-2-.3-.3.6-.4 2-.3 1.7.2 2.6-.2 2.6-1.1 0-.9-.5-1.1-1.2-.7-.7.4-.9.3-.5-.1 1-1.2 3.8-1.5 3.1-.4-.3.5 0 .9.7.9s.9-.8.6-2.1c-.5-1.7-.3-1.8.9-.8.8.6 1.7.9 2.1.6.3-.4 1.2-.2 2 .5.8.6 1.3.7 1.2.2-.4-2.1.2-2.6 1.8-1.3 1.5 1.2 1.6 1.2.8-.1-1.2-2-1.5-4.1-.5-3.5.5.3 1.1-.1 1.4-.7.3-.7.3-.2 0 1.1-.6 2.1-.4 2.2.9 1 .8-.8 1.2-1.9.9-2.4-.3-.6.3-.3 1.3.5 1.7 1.3 1.8 1.3 1.3-.1-.5-1.3-.2-1.6 1.3-1.2 1.5.4 1.9 0 1.9-1.8 0-1.9.2-2.1 1-.9.9 1.3 1 1.3 1.1 0 0-1 .3-.8.9.5.7 1.5.9 1.6.9.4.1-.9 1-1.9 2.2-2.2 1.2-.3 1.8-1 1.5-1.5-.3-.6.2-.8 1.4-.5 1.1.3 2 0 2-.6s-.5-1.1-1.2-1.1c-.6 0-.9-.2-.6-.5.9-1 3.8.7 3.1 1.8-.3.6-.1.7.6.3.6-.4.9-1.1.6-1.6-.3-.5-.1-1.1.5-1.5 1-.6 1.5.9 1 3-.1.5.2.6.7.2.4-.5.8-1.8.8-3 0-2.3 2.4-3.1 3.7-1.2.5.6.8.3.8-.7 0-1.2.5-1.5 1.7-1.1 1.1.4 1.4.3.9-.5-.4-.7-.3-1.2.2-1.2s1.9-.9 3.2-2c1.3-1.1 2.8-2 3.3-2 .6 0 .2.6-.9 1.4-1 .8-1.6 1.7-1.3 2 .3.3 1.4-.2 2.5-1.2 1.1-1.1 3.2-1.8 4.8-1.7 1.5 0 3-.4 3.3-.9.3-.5.1-.6-.4-.3-1.1.7-2.8-2.2-1.8-3.1.3-.3.5 0 .5.6 0 .7.7 1.2 1.6 1.2.9 0 1.2-.5.8-1.3-.6-1-.4-1 .7 0 .7.7 1.8 1.3 2.4 1.3.5 0 .4-.4-.3-.9-1-.6-.9-1.1.4-2.2 1-.8 1.5-.9 1.1-.3-.7 1.2 2.1 2.9 3.1 1.9.3-.3 0-.5-.7-.5s-1-.4-.6-.9c.3-.6-.3-1.4-1.2-2-1-.6-1.4-1.1-.9-1.1.5 0 1.8.8 2.9 1.8 1.3 1 1.7 1.1 1.2.3-.6-1.1-.4-1.3.7-.8.9.3 2 .1 2.6-.5.8-.8 1.5-.8 2.6.1 1 .8 1.6.9 2.1.1.4-.6.1-.9-.6-.8-1.4.4-2-4-.6-4.9.6-.3.7-.1.3.5-.3.6-.2 1.3.4 1.7.5.3 1 .1 1-.6s1.1-1 3-.7c3.3.5 6-1.5 3.9-2.8-.8-.5-.9-.3-.4.6.6.9.4 1.1-.5.5-.9-.6-1.1-.4-.5.5.5.9.4 1.1-.4.6-.9-.6-.9-1.1 0-2.2s1.6-1.1 3.3-.2c2 1 2 1 .6-.7s-1.4-1.8.8-.6c1.2.7 2.2.8 2.2.2 0-.5 1.2-.8 2.8-.6 1.5.2 2.1.2 1.5-.1-2-.9-1.5-2.4.5-1.7 1.5.6 1.5.4.4-.9-1.1-1.4-1-1.6.9-1.1 1.5.4 2 .3 1.5-.5-.4-.7-.2-1.2.3-1.2.6 0 1.1.4 1.1 1 0 .5.5 1 1.1 1 .6 0 .8-.7.5-1.6-.3-.8-.2-1.2.4-.9.6.3 1 .1 1-.4 0-.6.8-1.1 1.7-1.1 1.5 0 1.5.1-.2 1.3-1.4 1.1-1.5 1.6-.5 2.2.8.5 1.1.4.7-.2-.4-.6 0-1.3.8-1.7.9-.3 1.2-1.2.8-2.3-.6-1.6-.5-1.7 1.2-.3 1.1.9 1.6 1 1.1.2-.4-.6-.3-1.2.3-1.2.5 0 1.2.6 1.4 1.2.3.8.6.6.6-.5.1-.9.8-1.7 1.6-1.7s1.5-.5 1.5-1.1c0-.8.6-.7 1.7.2 1.5 1.3 1.5 1.2.4-1-.8-1.4-.9-2.1-.2-1.7.6.4 2 .9 3 1.1 1.5.3 1.8 0 1.4-1.3-.6-1.5-.4-1.5 1-.4 1.4 1.2 1.6 1.1 1.2-.7-.2-1.2 0-1.9.5-1.6.5.3 1.1.1 1.5-.5.4-.7 1.3-.6 2.7.1 1.8 1 2 .9 1.5-.5-.3-.8-.2-1.8.4-2.1.5-.4.8-.1.7.6-.2.6.3 1.4 1.1 1.7.8.3 1.1 0 .7-.7-.4-.6 0-1.1 1-1.1 1.6 0 1.6-.1-.2-1.6-1-.8-1.4-1.3-.8-1 .7.3 2.6.3 4.3 0 2.7-.6 3-.9 1.9-2.3-1.2-1.4-1.1-1.4.5-.2s2.1.9 1.8-1.2c-.1-.4.8-.3 2 .3 1.9 1.1 2 1 1.5-1.2-.3-1.2-.3-1.7 0-1 .3.6 1.1.9 1.6.6.6-.4.8-.3.5.3-.3.5.1 1 .9 1 .9 0 1.3-.6.9-1.6-.5-1.2-.3-1.3.6-.4 1.3 1.3 3.9.7 3.9-.9 0-.6-.8-.4-1.7.3-1.6 1.2-1.6 1.2 0-.8 1.3-1.5 2.8-2 5.4-1.8 3.3.2 3.5.1 1.8-1.1-2.3-1.7-1.2-1.8 1.8-.2 2 1 2.1 1 .9-.5-1.2-1.4-.9-1.8 1.9-3.2 2.4-1.3 3.3-1.4 3.9-.5.6 1 1.3.9 3-.3 1.2-.8 2.9-1.3 3.7-1 1.1.4 1.3-.1.7-2.3-.6-2.8-.6-2.8.9-.9 1.3 1.5 1.7 1.6 1.7.5.1-2.2 4.7-5.3 5.6-3.8.5.7.3.8-.6.3-.9-.5-1.1-.4-.6.4.6.8 1.2.9 2 .2.7-.6 1.5-.9 1.8-.6.3.3 1.1-.1 1.7-.9.7-.8 2-1.2 2.9-.9 1.4.4 1.5.3.2-.6-1.3-.9-1.3-1.2-.1-2.3.8-.7 1.1-.8.8-.2-.4.7-.1 1.4.7 1.7 1 .4 1.2 0 .8-1.6-.5-2.1-.5-2.1 1.2-.5 1 1 1.9 1.8 2.1 1.8.3 0 .1-.8-.2-1.8-.6-1.4-.4-1.5.9-.4 2.1 1.7 4.4-.7 2.5-2.8-.6-.8.2-.5 1.8.5l3 1.8-2-2.3-2-2.3 2.2 1.2c2 1 2.2.9 1.6-.6-.6-1.6-.4-1.6 1.8.2 2.2 1.9 2.3 1.9.9.1-1.3-1.8-1.3-1.9.1-1.4 1 .4 3.3-.2 5.2-1.2 1.9-1 3.8-1.6 4.3-1.2.4.4.4.1 0-.6s-1.2-.9-1.8-.6c-.7.4-.8.2-.4-.5.4-.6 1.2-.8 1.8-.5.8.5.9.1.5-1s-.3-1.5.4-1c.6.4 1.5 0 2-.7.6-.9.9-1 .9-.2 0 .6-.4 1.5-1 1.8-.5.3-1 1.2-1 1.8 0 .7.5.4 1.1-.6.6-.9 1.5-1.5 2-1.1.5.3.8 0 .7-.7-.2-.6.3-1.4 1.1-1.7.9-.3 1.1 0 .7.7-1.1 1.7 1.5.9 3.8-1.1 1-1 2.4-1.5 2.9-1.1.6.3.7.1.3-.6-.4-.6-1.1-.9-1.5-.7-.4.3-1.3.1-1.9-.3-.8-.4.2-.8 2.2-.8 2.1 0 3.3.4 2.9 1-.3.6-.1.7.6.3.7-.5.9-1.6.5-2.9-.6-2.1-.6-2.1 1.3.2 1.5 1.8 2 2 2 .8 0-.9-.5-1.3-1.1-1-.6.4-.2-.3.8-1.5 2-2.3 3.2-3 2.1-1.2-.9 1.4.8 1.2 2.4-.3 1-.8 1.2-.8.7 0-.3.6-.2 1.5.4 1.8.6.4 1 .3.9-.2-.4-2 .2-2.4 1.8-1.2 1 .8 1.4.9 1 .2-.4-.7 0-1.7 1-2.3 1.7-1.1 1.7-1.1.1-.6-1 .3-1.8 0-1.8-.5 0-.7 1.1-.9 2.5-.7 1.4.3 2.5.1 2.5-.5 0-.5.7-.4 1.5.3 1.3 1.1 1.4 1 .9-.4-.7-1.9 1.4-4.9 2.8-4 .6.4 1.5 0 2-.7.6-1 .7-.6.3 1.1-.5 2.2-.4 2.3.5.7 1.2-1.8 5.7-4.2 7.4-3.8.5.1.6-.5.2-1.4-.4-1.3-.2-1.4 1.4-.5 2.4 1.3 4 1.3 2 0-1.2-.8-1.1-1 .7-1 1.2 0 2.3.3 2.6.7.2.5.2.1 0-.7-.8-2.9-.8-3.3.4-3.7.7-.3 1.3 0 1.3.7 0 .6-.5.8-1.2.4s-.8-.3-.4.4c1 1.7 3.8.2 3.1-1.6-.4-1.2-.1-1.1 1.5.3 1.6 1.5 2 1.6 1.5.3-.8-1.9 1.1-3.3 2.1-1.7.5.8.3.9-.6.4-.9-.5-1.1-.4-.6.4.6.8 1.2.9 2 .2.7-.6 1.6-.8 1.9-.5.4.4.5-.2.3-1.3-.3-1.1.1-2 .7-2 .7 0 2.1-.4 3.2-.8 2-.7 2-.6.1.9-1.1.9-1.5 1.6-.9 1.6.5 0 1.8-.9 2.8-2 1.6-1.8 1.4-2.5-.8-2.1-.5.1-.6-.3-.2-.9.3-.6 1-.8 1.5-.5.4.3 1 .2 1.3-.2.2-.5.2-.2.1.4-.2.7.1 1.3.7 1.3s.7.5.3 1.2c-.4.7-.3.8.4.4.6-.4.9-1.3.6-2.1-.4-1 0-1.3 1.4-1 1.2.2 2.7-.4 3.4-1.3 1.1-1.5 1.1-1.5-.2-.5-1.1.8-2 .9-3 .1-1.3-.8-1.2-.9.2-.5 1.9.7 4.2-1.5 3-2.9-.4-.4.1-.2 1.1.5 2 1.5 2.3 2.6.5 1.5-.7-.4-1-.3-.5.1.4.5 1.6.9 2.7 1 1.9.2 1.9.1.3-1.7-.9-1-1.3-2.1-1-2.5.4-.3.7-.2.7.4 0 .5.7 1 1.5 1 1 0 1.4-.6 1-1.6-.5-1.2-.3-1.3.6-.4 1.3 1.3 4.2.6 3.3-.8-.3-.5.3-.6 1.2-.2 1.2.4 1.5.3 1-.5-1-1.6.7-1.5 2.3 0 1 1.1 1.1 1 .6-.4-.5-1.4-.2-1.6 1.5-1.3 1.5.3 2.3-.3 3-2 .9-2.5 3-3.5 3-1.4 0 .5.5.7 1 .4.6-.4.8-1.1.5-1.6-.4-.5.4-.5 1.9.1 2.1.8 2.7.6 3.6-1.1.6-1 .8-2.4.5-2.9-.3-.5-.1-1.2.5-1.5.6-.4.9-.1.8.6-.2.6.9 1.2 2.4 1.3 2.2.1 2.5-.1 1.7-1.6-.8-1.6-.7-1.7 1.5-.8 1.8.6 2.6.5 3-.5.3-.8 0-1.3-.7-1.1-.7.1-.9.1-.4-.1.4-.3.4-1 .1-1.6-.4-.7.1-.4 1.1.5 1.7 1.6 1.9 1.6 3.4-.1.9-.9 1.3-1.2.9-.6-.5.7-.2 1.2.7 1.2.8 0 1.5-.6 1.5-1.3 0-.7.5-1.6 1.2-2 .7-.4.8-.3.4.4s-.2 1.2.3 1.2c.6 0 1.1-.6 1.1-1.4 0-.8.5-1.8 1.2-2.2.7-.4.8-.3.4.4-.5.8-.2 1 .8.6.9-.3 1.3-1.1.9-1.8-.5-.8-.3-.8.8 0 .9.8 2.1.8 3.4.3 1.8-.9 1.8-.9-.3-.5-1.2.2-2 0-1.6-.5.8-1.3 3.8-1.1 5.4.3.8.7.7.4-.3-.8-2.2-2.7-2.2-4.1 0-1.9 1.6 1.6 1.7 1.6 2.5-.4.8-2.3 2.3-2.7 3.2-.9.4.7.4.3.2-.9-.3-1.6 0-2 1.2-1.6 1 .4 1.3.2.8-.5-.3-.6-.2-1.3.3-1.6.5-.4 1.3-.1 1.7.5.5.8.3.9-.6.4-.9-.5-1.1-.4-.6.3.5.9 1.4.8 3.1-.4 1.8-1.2 2.4-1.2 2.8-.2.3.8.6.8.6.2.1-.6-.7-1.8-1.6-2.5-1.4-1.2-1.6-1.2-.8 0 .5 1 .4 1.2-.4.7-.9-.6-.9-1.1.1-2.4 1-1.2 1-1.4.1-.8-.8.4-1.3.2-1.3-.4 0-.6-.6-.8-1.2-.4-1 .6-1 .4 0-.7 1.5-1.6 1.6-2.9.1-2.9-.5 0-.7.4-.4 1 .9 1.5-.4 1.2-2.1-.4-1.1-1.1-1.1-1.6-.1-1.9.7-.3.6-.6-.5-.6-.9-.1-1.8.4-2 1.1-.3.7-.7.5-1.1-.6-.4-1-.3-1.5.3-1.1.6.3 1 .1 1-.4 0-.6-.5-1.1-1.1-1.1-.5 0-.7-.6-.3-1.3.5-.7 0-.6-1.1.3-1.7 1.4-1.8 1.4-.7-.6.9-1.6.7-2.2-.9-3.2-2.3-1.5-2.9-1.5-2.9-.1 0 .5.4.8.9.4 1.5-.9 2.3 1.3 1.1 3.2-.9 1.5-1 1.4-.4-.6.4-1.5.2-2.1-.4-1.7-1.6 1-2.5-1.3-1.2-2.9 1-1.1 1-1.5.1-1.5-.7 0-.9-.5-.5-1.2s.3-.8-.5-.4c-.6.4-.8 1.2-.5 1.8.4.6-.2.6-1.5-.1-1.1-.7-2.1-1.4-2.1-1.7 0-.3.4-.3.8 0 .4.2.8-.4.8-1.4 0-1.1-.2-1.7-.4-1.5-.3.2-1.3 0-2.3-.5-.9-.6-1.9-.7-2.2-.2-.2.4-.2.2-.1-.5.3-1.1-4.5-4.9-5.8-4.6-.8.3-.5-1.8.6-3.5.4-.7.5-1.6.2-1.9-.3-.4-.6-.1-.6.5 0 .7-.5 1.2-1.1 1.2-.6 0-.8-1-.5-2.3.3-1.2.3-1.7 0-1s-1.4.2-3-1.4c-1.3-1.3-2.9-2.1-3.4-1.8-.6.3-1 .1-1-.5 0-.7.7-.9 1.6-.6.8.3 1.3.2.9-.3-.3-.5-.2-1.1.2-1.4.5-.2.2-.2-.4-.1-1.9.5-4.4-.7-3.7-1.7.3-.5-.3-.9-1.3-.9-3.3 0-4.5-2.1-2.5-4.4.9-1.1 1.2-1.7.6-1.3-.6.4-1.9-.2-2.9-1.3s-2.4-1.6-3.3-1.2c-1.5.5-1.6.4-.2-1.3.9-1.1 1-1.6.3-1.1-1.7 1-1.7-1.6-.1-3.4 1.1-1.2 1-1.2-.3-.2-1.7 1.3-4.9.7-4.9-.9 0-.5-.5-.9-1.1-.9-.5 0-.7.6-.3 1.2.5.9.2.9-.9-.1-1.8-1.5-2.3-2.6-.7-1.6.6.3 1 .1 1-.5s.4-.8 1-.5c.6.3.7-.1.3-1-.3-.9-.9-1.3-1.2-.8-1.5 2.2-3.6 2-3.7-.4-.2-2.3-.1-2.3 1.3-.6 1.3 1.5 1.3 1.4 0-.7-.9-1.4-2-2.4-2.6-2.2-.6.1-1.1-.5-1.1-1.3 0-.9-.9-1.5-2.1-1.5-1.7 0-2-.5-1.6-2.1.4-1.6.3-1.8-.9-.8-1.1.9-1.4.8-1.4-.5 0-1-.4-1.4-1-1.1-.5.3-1 .2-1-.4 0-.5.6-1.2 1.3-1.5.6-.4.2-.4-.9-.2-1.2.2-2.8 0-3.5-.5-1-.6-1.1-.9-.1-.9 2 0 1.4-1.6-1.3-3-1.8-1-2.2-1.7-1.4-2.6.8-.9.5-1.1-1-.7-1.2.3-2.1.1-2.1-.6 0-.6-.5-1-1.1-.9-.6.2-1.4-.4-1.6-1.2-.4-1.2-.3-1.2.5-.1.6.8 1.2.9 1.6.3.6-.9-2.1-2.7-3.6-2.4-.4.1-.5-.5-.2-1.3.4-.8.1-1.5-.5-1.5s-1.1.5-1.1 1.2c0 .6-.3.8-.6.5-.4-.4-.1-1.4.7-2.4 1.2-1.5 1.2-1.6-.2-1.1-1.9.7-4.3-.6-4.5-2.4 0-.7-.2-2.1-.2-3.1-.1-.9-.7-1.7-1.2-1.7-.7 0-.7.8.1 2.2l1.2 2.3-2.1-2c-1.7-1.7-1.8-2.2-.6-3.1.8-.6 1.4-1.5 1.4-1.9 0-.4-.6-.2-1.4.4-1.1.9-2 1-3.5.1-2.4-1.2-2.8-2.2-.6-1.4 1.1.5 1.3.2.9-1s-1.3-1.5-2.8-1c-1.7.5-1.9.4-.9-.7 1.7-1.7 1.7-3.4 0-2-1.9 1.5-3 .1-1.4-1.7 1-1.3.9-1.4-.2-.7-1.1.6-1.3.4-.7-1 .5-1.5.4-1.6-.9-.5-1.2 1-1.5 1-1.5-.4 0-1.1-.7-1.6-1.7-1.4-1.2.2-1.7-.3-1.5-1.5.2-.9-.2-1.7-.7-1.7-.6 0-.7-.7-.4-1.7.4-1.1.3-1.4-.5-.9-.7.4-1.2.2-1.2-.3 0-.6-.9-1.1-2.1-1.1-1.1 0-1.7-.5-1.4-1 .4-.6 1.2-.7 1.8-.3.7.4.6-.1-.2-1-1.1-1.4-1.6-1.5-2.9-.5-1.3 1-1.4 1-.8 0 .4-.7.2-1.2-.6-1.2-.9 0-.9-.3.2-1 1.3-.9 1.3-1 0-1.1-.8-.1-1.8-.1-2.2 0-.4 0-1-.9-1.3-2-.5-1.6-.9-1.8-2.1-.8-1.3 1-1.3.8-.5-1.4.7-1.8.7-2.8-.1-3.3-.7-.4-.8-.3-.4.4s.2 1.2-.3 1.2c-.6 0-1.1-.5-1.1-1.1 0-.6-.6-.9-1.4-.6-1.8.7-1.4-2.1.5-3.4 1-.7.6-.8-1.4-.5-1.8.3-2.5.1-2.1-.6.5-.7.2-.9-.8-.5-1.1.4-1.4.1-1.1-1.1.2-1.2-.6-2.1-2.6-3-1.7-.8-2.9-1.9-2.8-2.5.1-.7-.4-1.1-1-.9-.8.1-1.3-.8-1.3-2.4 0-1.4-.4-2.3-1-1.9-1.3.8-1.3-.8 0-2.1.7-.7.6-1.1-.4-1.1-.8 0-1.3.4-1 .9.3.4 0 .8-.5.8-.6 0-1.1-.9-1.1-2 0-1.2-.7-2-1.7-2-1.5 0-1.6.2-.3 1 .8.5 1.1 1 .5 1-.5 0-1.6-.4-2.4-.9-1.1-.7-.8-1.1 1-1.6l2.4-.8-2.3-.8c-1.4-.5-2-1.3-1.6-2 .4-.8.3-.9-.5-.5-.9.6-.9 1.2.1 2.4 1.1 1.5 1.1 1.5-.3.5-.9-.7-1.8-1.1-2-.9-.2.2-.5-.7-.5-2-.1-1.4.2-2.1.9-1.7.6.3.7.1.3-.5-.5-.9-1.4-.7-3.2.4-2.2 1.5-2.4 1.5-2.4 0 0-.9-.4-1.6-1-1.6-.5 0-.7.7-.4 1.5.4 1.1.2 1.3-.9.9-.8-.3-1.8 0-2.3.7-.4.7-.3 1 .4.5.6-.3 1.3-.2 1.6.3 1.1 1.6-1.1 2.2-2.4.6-.7-.8-1.8-1.5-2.4-1.5-.7 0-.8.3 0 .8.6.4.3 1.3-.9 2.5-1.8 1.9-1.9 1.8-1.2-.3.6-1.9.4-2-1.2-1.2-1 .5-2.3.7-3 .5-.6-.2-1.4.1-1.8.6-.4.7.1.8 1.2.4 1-.3 1.5-.3 1.1.2-.4.4-.3 1.4.3 2.2.9.9.8 1.3 0 1.3-.6 0-1.1-.4-1.1-1 0-.5-1.1-.9-2.4-.8-1.5.1-2.2.7-1.9 1.5.4 1.1 0 1.1-2.1.3-1.8-.7-2.5-.7-2.1 0 .3.6-.1 1.3-.9 1.6-.9.3-1.3 1.1-.9 1.7.4.6 0 .8-1 .4-.9-.3-1.9-.2-2.2.4-.4.5-1.2.6-1.8.2-1.8-1.1-3.8-1.2-3.1-.2.3.5 1.1.6 1.7.3.9-.5.9-.3 0 .6-1 1-1.5 1.1-2.7.1-1.2-1-1.4-.8-.9 1.1l.5 2.3-2.2-2.5c-1.9-2.2-2-2.2-1.1-.3 1.5 3.1 1.4 3.8-.6 2.2-.9-.8-1.4-.9-1-.3.4.7 0 1.5-.9 1.8-.8.3-1.3.2-1-.3.3-.5-.1-1.2-1-1.5-2.3-.9-3.1-.7-1.5.3 1 .7 1.1 1.2.1 2.7-1 1.7-1.1 1.7-.6.1.4-1.1.2-1.6-.5-1.2-.5.4-1.8.1-2.7-.6-1.2-1-1.1-.7.3 1 1.7 2 1.7 2.3.3 1.8-1-.3-1.9.1-2.3 1.1-.6 1.5-.8 1.5-1.5-.3-.6-1.3-.9-1.5-.9-.5-.1.8-1.7 2.5-3.7 3.8-2 1.3-3.3 1.9-2.9 1.3.3-.6.1-1.1-.4-1.1-.6 0-1.1.6-1.1 1.2 0 .8-.3.9-.8.3-.4-.6-1.6-1.1-2.7-1.2-1.1-.1-1.4 0-.7.3s1.7 1.5 2.3 2.7c1 2.1 1 2.1-.5.3-1.1-1.4-1.6-1.5-1.6-.6s-.5.7-1.5-.6c-1.1-1.4-1.4-1.5-.9-.3.3 1 0 2-.5 2.4-.6.3-.8 1.2-.5 1.8.5.8.3.8-.7-.1-1.7-1.6-3.2-1.6-2.3 0 .4.7.4 1-.1.6-.4-.4-1.5-.2-2.3.5-1 .8-1.3.8-.9.1.4-.7 0-1.5-.9-1.8-.9-.3-1.2-.2-.9.5.4.6 0 .9-1 .7-1.1-.2-1.9.4-2 1.4-.2 1 .2 1.8.8 1.8.5 0 .8.3.5.6-.4.3-1.5.1-2.6-.5-1.6-.8-2.1-.7-2.6.5-.5 1.4-.9 1.4-2.2.3-1.3-1.1-1.5-1-1.2.5.4 2.2-3.2 3.2-4.4 1.3-.5-.7-.8-.2-.8 1.3 0 1.4-.4 2-.8 1.5-.8-1.1-3.2-1.8-3.2-.9 0 .3.5 1.5 1.1 2.7 1.1 2.2 1.1 2.2-1-.1-2.4-2.5-4-3-2.1-.7.7.8 1 1.6.6 1.6-.3.1-.9.2-1.3.3-.5.1-1.5.5-2.3 1.1-1.3.8-1.3.7-.1-.8.8-1 1.1-2 .7-2.4-.3-.3-.6-.1-.6.5 0 .7-.6 1.2-1.4 1.2-.8 0-1.8.5-2.2 1.2-.5.7-.3.8.6.3.9-.5 1.1-.4.6.4-.6.9-1.1.9-2.4-.1-1.3-1.1-1.5-1-.9.4.5 1.5.2 1.6-1.8.8-1.9-.7-2.3-.6-1.8.5.3.8.9 1.3 1.3 1 .5-.3 1.1-.1 1.4.4.9 1.4-1.9.7-4-.9-1.1-.9-1.5-1-1-.3.4.8.2 1.3-.4 1.3-.6 0-.8.5-.4 1.2.5.7.3.8-.5.4-.7-.5-1.9 0-2.8 1-1.2 1.6-1.2 1.4.1-.8s1.3-2.6.2-2.2c-.8.3-1.7 1.2-2 2-.3.9-1 1.2-1.6.9-.6-.3-.7.1-.4.9.3.9.1 1.6-.5 1.6s-1.1-.5-1.1-1c0-.6-.5-1-1.1-1-.5 0-.8.4-.5.8.3.5-1.3 1.9-3.4 3.1-2.2 1.2-4 1.8-4 1.2 0-.6-.7-.8-1.5-.5-.8.4-1.5 1-1.5 1.6 0 .5.4.7.9.3.5-.3 1.2-.1 1.6.4.3.6-.5.8-1.9.5-1.4-.2-2.7 0-3.1.5-.3.6-1.3.7-2.2.4-1-.4-1.4-.2-1 .4.5.7 0 .9-1.3.6-1.5-.4-2 0-2.1 1.3 0 1.8-.1 1.8-.9-.1-.5-1.1-.9-1.7-1.1-1.3-.4 1.7-.7 2.8-.8 3.5 0 .3-1-.2-2-1.1-1.2-1.1-2.1-1.3-2.5-.7-.4.5.2 1.5 1.1 2.1 1.5.9 1.5 1-.6.4-1.8-.5-2.2-.3-1.5.7.7 1.2.5 1.2-.9 0-1.4-1.1-1.8-1.1-2.3.3-.3.9-1.5 1.6-2.6 1.6-1.2 0-1.7-.4-1.2-1.2.4-.7.3-.8-.5-.4-.9.6-.9 1.1-.1 2.1.7.9.6 1.6-.7 2.6-1.6 1.3-1.7 1.2-.4-.4 1.4-1.8.5-2.2-1.8-.8-.8.5-1 1.4-.5 2.2.6 1.1.5 1.2-.8.2-.8-.7-1.8-1-2.1-.6-.4.3-1.3 0-2.1-.6-1.1-.9-1.6-.9-2.2 0-.4.8-.3.9.4.5s1.2-.1 1.2.9c0 1.3-.4 1.4-2.2.4l-2.3-1.2 2 2.4c1.1 1.3 1.3 1.8.5 1.1-1.9-1.6-3.3-1.5-2.7.3.4.8.2 1.7-.4 2-.5.4-.9.3-.8-.2.5-2.9-.1-3.6-1.9-2-1.5 1.3-2.1 1.4-3.2.4-1-1-1.1-.9-.5.2.6 1.1.4 1.3-.8.8-1.1-.4-1.5-.1-1.2 1.2.2 1.4-.3 1.7-2.6 1.6-1.7-.1-3.2.2-3.5.7-.3.4-1.4.8-2.5.8-1.2 0-1.7.4-1.4 1.1.5.7 1.5.5 3-.5s2.6-1.2 3-.6c.4.6.3.9-.2.8-1.5-.4-5.4 2.3-4.7 3.4.4.7.3.8-.5.4-.6-.4-.9-1.2-.6-1.7.4-.5-.1-.9-1-.9s-1.4.4-1 .9c.3.5 0 1.3-.6 1.7-.7.4-.9.3-.6-.3.4-.6-.5-1-2.2-.9-1.6.1-2.7.4-2.5.7.6 1.1-2.3 1.8-3.3.8-.5-.5-.9-.1-1 1.1-.1 1.1.2 1.8.8 1.5.5-.4.9-.1.9.4 0 .6-1 1-2.2.8-1.4-.1-2.2.3-2 1.1.2 1-.2 1-1.7 0-1.5-.9-2.6-.9-4.5 0-1.9.8-2.6.8-3-.1-.3-.7-.3-.1-.2 1.3.3 1.9-.1 2.6-1.3 2.6s-1.7-.7-1.5-2.2c.1-1.5-.2-2.1-1.1-1.8-.9.4-1.2-.4-.9-3 .3-3.3-.2-4-2.6-3.8-.3 0-.7-.8-.7-2-.1-1.3.3-1.8 1.2-1.5.7.3 2.1 0 3-.7 1.5-1.1 1.5-1.2-.4-1.2-1.1 0-1.7.5-1.3 1.1.3.5-.2.4-1.1-.4-.9-.7-1.7-1.9-1.7-2.5 0-.7.3-.8.8-.1.9 1.3 2.7 1.3 3.9.1.4-.5.4-.7-.2-.3-.6.3-1.9-.1-3-.9-1.2-.9-1.4-1.4-.5-1.4.9 0 .8-.6-.6-2.2-1.1-1.3-1.2-1.8-.3-1.1 1.3 1.1 1.5.6 1.5-3.7.1-3-.3-4.7-.9-4.3-.6.3-.7.2-.4-.4.4-.6 1.8-.9 3.2-.8 1.4.2 2.3-.1 2-.5-.3-.5-1.2-.7-2-.3-.8.3-1.5 0-1.5-.7 0-.6-.4-.9-1-.5-.5.3-.3-.6.5-2.1 1.2-2.4 1.2-3.1-.1-5.5-1.3-2.5-1.2-2.8.1-2.3.8.3 1.3 1 1 1.4-.3.4.2 1.1 1 1.4 1.2.4 1.3.1.7-1.2-1-2.1-1-3.2.3-5.2.8-1.3.7-1.3-.8-.1-.9.7-1.4 1.8-1 2.4.3.5.2.7-.4.4-.5-.3-.8-2.2-.7-4.2.2-2.4 0-3.3-.8-2.9-.7.5-.8.3-.2-.7 1.1-1.7 1.5-9.1.5-8.4-.4.2-.8-.2-.8-1 0-1.1.3-1.2 1.4-.3.8.6 1.2 1.6.9 2.3-.2.6.2 1.2.9 1.2 1.1 0 1.1-.5-.1-2.8-1.8-3.6-1.8-4 .4-3.3 1.4.5 1.4.4.2-.4-.8-.7-1.9-.7-2.5-.2-.7.6-1.1.3-1.1-.9 0-1 .7-1.8 1.4-1.7 1.6.1 2.5-3.1 1.2-3.9-.5-.3-.7.4-.5 1.6.2 1.2.1 1.9-.3 1.5-.3-.4-.7-2.5-.7-4.7 0-2.8.4-3.9 1.5-3.9 1.3 0 1.3-.2 0-.9-.8-.6-1.8-.7-2.4-.4-.5.3-.6.2-.3-.4.4-.6 1.8-.9 3.2-.8 1.4.2 2.3-.1 2-.5-.3-.5-1.2-.7-2-.3-.8.3-1.5 0-1.5-.7 0-.6-.5-.8-1.1-.5-.6.4-.5-.3.3-1.4 1.1-1.8 1.1-2.3 0-3-1.1-.7-1-.9.3-1.4 1.1-.5 1.4-.3.9.6-.5.9-.3.8.7-.1 1.2-1.1 1.2-1.4-.1-2.2-.8-.5-1.7-.7-2-.5-.3.2-.7-.5-.7-1.7-.1-1.3.3-1.8 1.2-1.5.7.3 2.1 0 3-.7 1.5-1.1 1.5-1.2-.4-1.2-1.1 0-1.7.5-1.3 1.1.3.5-.2.4-1.1-.4-.9-.7-1.7-1.9-1.7-2.5 0-.7.3-.8.8-.1.9 1.3 2.7 1.3 3.9.1.4-.5.4-.7-.2-.3-.6.3-1.9-.1-3-.9-1.2-.9-1.4-1.4-.5-1.4 1.1 0 1.1-.3.2-1.2-1.6-1.6-1.5-2.5.1-3.1.8-.3 1.4.1 1.4.9 0 .7-.5 1-1 .7-.6-.4-.7-.1-.3.6 1 1.5 1.9.7 2.3-1.9.2-1.7-.6-2.4-2.7-2.2-.3 0-.7-.8-.7-2-.1-1.3.3-1.8 1.2-1.5.7.3 2.1 0 3-.7 1.5-1.1 1.5-1.2-.4-1.2-1.1 0-1.7.5-1.3 1.1.3.5-.2.4-1.1-.4-.9-.7-1.7-1.9-1.7-2.5 0-.7.3-.8.8-.1.9 1.3 2.7 1.3 3.9.1.4-.5.4-.7-.2-.3-.6.3-1.9-.1-3-.9-1.2-.9-1.4-1.4-.5-1.4.9 0 .8-.6-.6-2.2-1.2-1.4-1.3-1.8-.3-1 .9.6 2 .8 2.4.4.5-.4.5-.1 0 .7-.6 1-.4 1.2.4.7.9-.6.9-1.2-.2-2.4-.8-1-1.3-2.7-1.1-4 .2-1.4 0-2.1-.6-1.7-.6.3-.7-.1-.4-1 .6-1.4.8-1.4 2 .2 1.3 1.6 1.3 1.5.3-.9-.7-1.5-1.7-2.5-2.3-2.1-.6.3-.5 0 .2-.8 1.5-1.6 1.6-3.3 0-2.3-.8.5-.8.3-.2-.7 1.1-1.7 1.5-9.1.5-8.4-.4.2-.8-.2-.8-1 0-1.1.3-1.2 1.4-.3.8.6 1.2 1.6.9 2.3-.2.6.2 1.2.9 1.2 1.1 0 1.1-.5-.1-2.8-1.8-3.6-1.8-4 .4-3.3 1.4.5 1.4.4.2-.4-.8-.7-1.9-.7-2.5-.2-.7.6-1.1.2-1.1-1 0-1 .4-1.6.8-1.4 2 1.2 2.7-.9 1.3-3.6-1.8-3.4-1.8-4-.4-4 .5 0 .8.4.5.9-.3.5.1 1.2.9 1.5 1.2.4 1.3.2.6-1.2-.5-.9-.9-2.1-.9-2.5 0-.5-.4-1.2-.8-1.5-.4-.4-.4-.2-.1.4.3.6-.1 1.1-.9 1.1-1 0-1.1-.4-.4-1.1 1.4-1.4 1.3-3.9-.2-3-1 .6-1 .4 0-.7 1.5-1.6 1.6-3.3 0-2.3-.8.5-.8.3-.2-.7 1.1-1.7 1.5-9.1.5-8.4-.4.2-.8-.2-.8-1 0-1.1.3-1.2 1.4-.3.8.6 1.2 1.6.9 2.3-.2.6.2 1.2.9 1.2 1.1 0 1.1-.5-.1-2.8-1.8-3.6-1.8-4 .4-3.3 1.4.5 1.4.4.2-.4-.8-.7-1.9-.7-2.5-.2-.7.6-1.1.3-1.1-.9 0-1 .7-1.8 1.4-1.7.9.1 1.6-1 1.7-2.7.3-2.4-.3-3.1-2.5-2.9-.3 0-.7-.8-.7-2-.1-1.3.3-1.8 1.2-1.5.7.3 2.1 0 3-.7 1.5-1.1 1.5-1.2-.4-1.2-1.1 0-1.7.5-1.3 1.1.3.5-.2.4-1.1-.4-.9-.7-1.7-1.9-1.7-2.5 0-.7.3-.8.8-.1.9 1.3 2.7 1.3 3.9.1.4-.5.4-.7-.2-.3-.6.3-1.9-.1-3-.9-1.2-.9-1.4-1.4-.5-1.4 1.1 0 1.1-.3.2-1.2-1.6-1.6-1.5-2.5.1-3.1.8-.3 1.4.1 1.4.9 0 .7-.5 1-1 .7-.6-.4-.7-.1-.3.6 1 1.5 1.9.7 2.3-1.9.2-1.7-.6-2.4-2.7-2.2-.3 0-.7-.8-.7-2-.1-1.3.3-1.8 1.2-1.5.7.3 2.1 0 3-.7 1.5-1.1 1.5-1.2-.4-1.2-1.1 0-1.7.5-1.3 1.1.3.5-.2.4-1.1-.4-.9-.7-1.7-1.9-1.7-2.5 0-.7.3-.8.8-.1.9 1.3 2.7 1.3 3.9.1.4-.5.4-.7-.2-.3-.6.3-1.9-.1-3-.9-1.2-.9-1.4-1.4-.5-1.4.9 0 .8-.6-.6-2.2-1.1-1.3-1.2-1.8-.3-1.1 1.3 1.1 1.5.6 1.5-3.7.1-3-.3-4.7-.9-4.3-.6.3-.7.2-.4-.4.4-.6 1.8-.9 3.2-.8 1.4.2 2.3-.1 2-.5-.3-.5-1.2-.7-2-.3-.8.3-1.5 0-1.5-.7 0-.6-.4-.9-1-.5-.5.3-.3-.6.5-2.1 1.2-2.4 1.2-3.1-.1-5.5-1.3-2.5-1.2-2.8.1-2.3.8.3 1.3 1 1 1.4-.3.4.2 1.1 1 1.4 1.2.4 1.3.1.7-1.2-1-2.1-1-3.2.3-5.2.8-1.3.7-1.3-.8-.1-.9.7-1.4 1.8-1 2.4.3.5.2.7-.4.4-.5-.3-.8-2.2-.7-4.2.2-2.4 0-3.3-.8-2.9-.7.5-.8.3-.2-.7 1.1-1.7 1.5-9.1.5-8.4-.4.2-.8-.2-.8-1 0-1.1.3-1.2 1.4-.3.8.6 1.2 1.6.9 2.3-.2.6.2 1.2.9 1.2 1.1 0 1.1-.5-.1-2.8-1.8-3.6-1.8-4 .4-3.3 1.4.5 1.4.4.2-.4-.8-.7-1.9-.7-2.5-.2-.7.6-1.1.3-1.1-.9 0-1 .7-1.8 1.4-1.7 1.6.1 2.5-3.1 1.2-3.9-.5-.3-.7.4-.5 1.6.2 1.2.1 1.9-.3 1.5-.3-.4-.7-2.5-.7-4.7 0-2.8.4-3.9 1.5-3.9 1.3 0 1.3-.2 0-.9-.8-.6-1.8-.7-2.4-.4-.5.3-.6.1-.2-.5.4-.6 1.4-.8 2.3-.5 1.5.6 1.6.5.3-.9-.8-.9-1.9-1.3-2.5-1-.5.2-.4-.1.3-.9 1.6-1.7 1.6-6.3 0-5.3-.7.4-.8.3-.4-.4.4-.6 1.3-.9 2.1-.6.8.4 1.2 1 .9 1.5-.3.5.2.6 1.2.2 1.5-.5 1.5-.7 0-1.5-.9-.5-1.4-1.4-1-1.9.4-.6 1.1-.5 2 .2.9.7 1.4.8 1.2.3-.4-1.3.4-1.6 2.4-.9 1 .4 1.5 1.2 1.2 1.7-.4.6-1 .5-1.5-.3-.6-1-.9-1-.9-.2 0 1.7 1.7 2.5 2.5 1.3.5-.8 1.2-.7 2.3.2 1.6 1.2 1.6 1.1.2-.7-.8-1.1-1.9-2.3-2.5-2.8-.5-.4.1-.5 1.5-.3s3-.1 3.7-.6c.8-.6 1.1-.2.9 1.6-.2 1.5.1 2.6.5 2.6.5 0 .9-.9.9-1.9 0-1 .7-2.2 1.6-2.5.8-.3 1.3-.2.9.3-.7 1.2 2.4 4.3 3.6 3.6.5-.4.9-1.2.8-1.8 0-.9-.2-.8-.6.1-.5 1.3-2.3.7-2.3-.9 0-.6.5-.7 1-.4.6.3 1 0 1-.7.1-.7.6-.3 1.3 1 1.2 2.1 1.4 2.1 3.2.6 1.6-1.3 1.7-1.5.3-1-1 .3-2 .1-2.2-.3-.3-.5.5-.8 1.7-.7 1.4.1 2.1.7 1.9 1.7-.1.9 1 2.1 2.5 2.8 2.4 1 2.6 1 1.1-.2-2-1.6-2.4-3.7-.7-3.7.5 0 .8.4.5.9-.3.5.1 1.2 1 1.5 1.2.4 1.5.2 1.1-.9-.4-.8-.1-1.7.5-2.1.6-.4.8-.3.5.3-.4.6 0 1.4.9 1.7.8.3 1.3.2 1-.2-.3-.5 1.2-.8 3.2-.7 2 .1 4.2-.1 4.7-.4 1.5-.8 3.4-1 3.4-.3-.1.4-.1 1.3 0 2.1.1 1.6 1.6.5 1.6-1.1 0-.6.7-1.3 1.5-1.5.9-.3 1.1-.1.5.4-.5.4-1.1 1.7-1.2 2.8-.1 1.7 0 1.8 1 .5 1.7-2.1 5.3-4.8 4.3-3.3-.4.8-.1 1.3.8 1.3s1.6-.5 1.6-1c0-.6.5-1 1.1-1 .5 0 .8.4.4.9-.3.6.4 1.5 1.5 2.1 1.1.6 2 .8 2 .5 0-.3 1.3.1 2.9 1 2.2 1.1 3.2 1.2 3.7.3.4-.6.3-.8-.2-.5-.6.3-1.6.2-2.3-.2-1.1-.7-1.1-1.3-.1-2.7 1-1.6 1.1-1.6.6-.2-.5 1.8.5 2.4 1.8 1 .4-.4 2.1-.8 3.7-.8 1.6-.1 3-.2 3.2-.4.7-.5 3.6-.7 3.6-.2-.1.4-.1 1.3 0 2.1.1 1.6 1.6.5 1.6-1.1 0-.6.7-1.3 1.5-1.5.9-.3 1.1-.1.5.4-.5.4-1.1 1.7-1.2 2.8-.1 1.9-.1 1.9 1.2.2 1.2-1.7 1.5-1.7 3.8-.2 1.7 1.1 2.7 1.3 3.2.5.3-.6 1-.8 1.5-.5.5.3 1.2.1 1.5-.5.4-.6.1-.9-.6-.8-.6.2-1.3-.3-1.5-1-.1-.7 0-.8.3-.2.2.5.8.8 1.3.5.4-.3 1.3.2 2 1 1.4 1.7 3 2 3 .4 0-.5-.4-.8-.9-.5-.5.3-1.2-.1-1.5-.9-.4-1.3-.2-1.4 1.4-.5 1.1.6 2 1.5 2 1.9 0 .5.7 1.1 1.5 1.5 1.2.4 1.2.1-.2-2.2-1.3-2-1.4-2.4-.3-1.6 1.2.8 7.3 1.2 8.3.4.7-.5 3.6-.7 3.6-.2-.1.4-.1 1.3 0 2.1.1 1.6 1.6.5 1.6-1.2 0-.5.7-1.2 1.5-1.4.9-.3 1.1-.1.5.4-.5.4-1.1 1.7-1.2 2.8-.1 1.7 0 1.8 1 .5 1.7-2.1 5.3-4.8 4.3-3.3-.4.8-.1 1.3.8 1.3s1.6-.5 1.6-1c0-.6.5-1 1.1-1 .5 0 .8.4.4.9-.3.6.4 1.5 1.5 2.1 1.1.6 2 .8 2 .5 0-.3 1.3.1 2.9 1 2.2 1.1 3.2 1.2 3.7.3.4-.6.3-.8-.2-.5-.6.3-1.6.2-2.3-.2-1.1-.7-1.1-1.3-.1-2.7 1-1.6 1.1-1.6.6-.2-.5 1.8.5 2.4 1.8 1 .4-.4 2.1-.8 3.7-.8 1.6-.1 3-.2 3.2-.4.7-.5 3.6-.7 3.6-.2-.1.4-.1 1.3 0 2.1.1 1.6 1.6.5 1.6-1.2 0-.5.7-1.2 1.5-1.4.9-.3 1.1-.1.5.4-.5.4-1.1 1.7-1.2 2.8-.1 1.9-.1 1.9 1.2.2 1.2-1.7 1.5-1.7 3.8-.2 1.7 1.1 2.7 1.3 3.2.5.3-.6 1-.8 1.5-.5.5.3 1.2.1 1.5-.5.4-.6.1-.9-.6-.8-.6.2-1.3-.3-1.5-1-.1-.7 0-.8.3-.2.2.5.8.8 1.3.5.4-.3 1.3.2 2 1 1.4 1.7 3 2 3 .4 0-.5-.4-.8-.9-.5-.5.3-1.2-.1-1.5-.9-.4-1.3-.2-1.4 1.4-.5 1.1.6 2 1.5 2 1.9 0 .5.7 1.1 1.5 1.5 1.2.4 1.2.1-.2-2.2-1.3-2-1.4-2.4-.3-1.6 1.2.8 7.3 1.2 8.3.4.7-.5 3.6-.7 3.6-.2-.1.4-.1 1.3 0 2.1.1 1.6 1.6.5 1.6-1.2 0-.5.7-1.2 1.5-1.4.9-.3 1.1-.1.5.4-.5.4-1.1 1.7-1.2 2.8-.1 1.7 0 1.8 1 .5 1.7-2.1 5.3-4.8 4.3-3.3-.4.8-.1 1.3.8 1.3s1.6-.5 1.6-1c0-.6.5-1 1.1-1 .5 0 .8.4.4.9-.3.6.4 1.5 1.5 2.1 1.1.6 2 .8 2 .5 0-.3 1.3.1 2.9 1 2.2 1.1 3.2 1.2 3.7.3.4-.6.3-.8-.2-.5-.6.3-1.6.2-2.3-.2-1.1-.7-1.1-1.3-.1-2.7 1-1.6 1.1-1.6.6-.2-.5 1.8.5 2.4 1.8 1 .4-.4 2.1-.8 3.7-.8 1.6-.1 3-.2 3.2-.4.7-.5 3.6-.7 3.6-.2-.1.4-.1 1.3 0 2.1.1 1.6 1.6.5 1.6-1.2 0-.5.7-1.2 1.5-1.4.9-.3 1.1-.1.5.4-.5.4-1.1 1.7-1.2 2.8-.1 1.9-.1 1.9 1.2.2 1.2-1.7 1.5-1.7 3.8-.2 1.7 1.1 2.7 1.3 3.2.5.3-.6 1-.8 1.5-.5.5.3 1.2.1 1.5-.5.4-.6.1-.9-.6-.8-.6.2-1.3-.3-1.5-1-.1-.7 0-.8.3-.2.2.5.8.8 1.3.5.4-.3 1.3.2 2 1 1.4 1.7 3 2 3 .4 0-.5-.4-.8-.9-.5-.5.3-1.2-.1-1.5-.9-.4-1.3-.2-1.4 1.4-.5 1.1.6 2 1.5 2 1.9 0 .5.7 1.1 1.5 1.5 1.2.4 1.2.1-.2-2.2-1.3-2-1.4-2.4-.3-1.6 1.2.8 7.3 1.2 8.3.4.7-.5 3.6-.7 3.6-.2-.1.4-.1 1.3 0 2.1.1 1.6 1.6.5 1.6-1.2 0-.5.7-1.2 1.5-1.4.9-.3 1.1-.1.5.4-.5.4-1.1 1.7-1.2 2.8-.1 1.7 0 1.8 1 .5 1.7-2.1 5.3-4.8 4.3-3.3-.4.8-.1 1.3.8 1.3s1.6-.5 1.6-1c0-.6.5-1 1.1-1 .5 0 .8.4.4.9-.3.6.4 1.5 1.5 2.1 1.1.6 2 .8 2 .5 0-.3 1.3.1 2.9 1 2.2 1.1 3.2 1.2 3.7.3.4-.6.3-.8-.2-.5-.6.3-1.6.2-2.3-.2-1.1-.7-1.1-1.3-.1-2.7 1-1.6 1.1-1.6.6-.2-.5 1.8.5 2.4 1.8 1 .4-.4 2.1-.8 3.7-.8 1.6-.1 3-.2 3.2-.4.7-.5 3.6-.7 3.6-.2-.1.4-.1 1.3 0 2.1.1 1.6 1.6.5 1.6-1.2 0-.5.7-1.2 1.5-1.4.9-.3 1.1-.1.5.4-.5.4-1.1 1.7-1.2 2.8-.1 1.9-.1 1.9 1.2.2 1.2-1.7 1.5-1.7 3.8-.2 1.7 1.1 2.7 1.3 3.2.5.3-.6 1-.8 1.5-.5.5.3 1.2.1 1.5-.5.4-.6.1-.9-.6-.8-.6.2-1.3-.3-1.5-1-.1-.7 0-.8.3-.2.2.5.8.8 1.3.5.4-.3 1.3.2 2 1 1.4 1.7 3 2 3 .4 0-.5-.4-.8-.9-.5-.5.3-1.2-.1-1.5-.9-.4-1.3-.2-1.4 1.4-.5 1.1.6 2 1.6 2 2.1 0 .6.7.9 1.5.5.8-.3 1.9.3 2.5 1.2 1.1 1.6 1.1 1.6.6 0-.5-1.7.7-3.1 3.1-3.4.7-.1.9.5.6 1.4-.5 1.1-.3 1.3.7.7 1-.6 1.2-.4.7 1.1-.7 1.8-.6 1.8.6.2 1.1-1.4 1.6-1.5 2.7-.5.9.9 1.1.9.6 0-.3-.6-.2-1.4.4-1.8.5-.3 1-.1 1 .5s1 .2 2.2-1c1.2-1.1 2.7-2 3.2-2 .7 0 .7.3 0 .8-1.2.7-1.1 3.9.2 5 .4.4.4-.1.1-1-.6-1.7.6-3.1 3-3.4.7-.1.9.5.6 1.4-.5 1.1-.3 1.3.7.7 1-.6 1.2-.4.7 1.1-.7 1.8-.6 1.8.6.2 1.1-1.4 1.6-1.5 2.7-.5.9.9 1.1.9.6 0-.3-.6-.2-1.4.4-1.8.5-.3 1 0 1 .7 0 .8.3.9.8.3 1.2-1.7 4.7-4.1 3.8-2.8-.4.7-.3 1.3.3 1.3.5 0 1.3-.5 1.6-1 .5-.8 1.1-.7 2.1.1 1.1.9 1.4.9 1.4-.1 0-.9.3-1 1.3-.1.8.6 1.8.7 2.2.3.5-.4.5-.2.1.5s-1.3 1-2.1.6c-.8-.3-1.5 0-1.5.7 0 .6.4.9.9.6.5-.3 1.2.1 1.5 1 .5 1.2 1 1.4 2 .5.7-.6 1.6-.7 2.1-.3.4.4.3-.2-.3-1.3-.9-1.9-.7-2 4.1-1.9 2.9 0 5.7-.2 6.2-.5 1.5-.8 3.4-1 3.4-.3-.1.4-.1 1.3 0 2.1.1 1.6 1.6.5 1.6-1.1 0-.6.7-1.3 1.5-1.5.9-.3 1.1-.1.5.4-.5.4-1.1 1.7-1.2 2.8-.1 1.9-.1 1.8 1.5-.2 1.5-1.9 2-2 3.4-.9 1 .7 1.5 1.6 1.1 1.9-.3.4-1.2-.1-2-1.1-1.3-1.5-1.3-1.5-.3.6.8 1.7 1.5 2.1 2.4 1.3.9-.7 1.7-.7 2.6.2 1.1.9 1 .7 0-.8-.8-1.1-1.9-2.3-2.5-2.8-.5-.4.1-.5 1.5-.3s3-.1 3.7-.6c.8-.6 1.1-.2.9 1.6-.2 1.5.1 2.6.5 2.6.5 0 .9-.9.9-1.9 0-1 .7-2.2 1.6-2.5.8-.3 1.3-.2.9.3-.7 1.2 2.4 4.3 3.6 3.6.5-.4.9-1.2.8-1.8 0-.9-.2-.8-.6.1-.5 1.3-2.3.7-2.3-.9 0-.6.5-.7 1-.4.6.3 1 0 1-.7.1-.7.6-.3 1.3 1 1.2 2.1 1.4 2.1 3.2.6 1.6-1.3 1.7-1.5.3-1-1 .3-2 .1-2.2-.3-.3-.5.5-.8 1.7-.7 1.4.1 2.1.7 1.9 1.7-.1.9 1 2.1 2.5 2.8 2.4 1 2.6 1 1.1-.2-2-1.6-2.4-3.7-.7-3.7.5 0 .8.4.5.9-.3.5.1 1.2 1 1.5 1.2.4 1.5.2 1.1-.9-.4-.8-.1-1.7.5-2.1.7-.4.8-.3.4.4s-.2 1.2.3 1.2c.6 0 2.1 1 3.3 2.2 1.5 1.5 2 1.7 1.5.5-.6-1.6.6-3 3-3.3.7-.1.9.5.6 1.4-.5 1.1-.3 1.3.7.7 1-.6 1.2-.4.7 1.1-.7 1.8-.6 1.8.6.2 1.1-1.4 1.6-1.5 2.7-.5.9.9 1.1.9.6 0-.3-.6-.2-1.4.4-1.8.5-.3 1-.1 1 .5s1 .2 2.2-1c1.2-1.1 2.7-2 3.2-2 .7 0 .7.3 0 .8-1.2.7-1.1 3.9.2 5 .4.4.4-.1.1-1-.6-1.7.6-3.1 3-3.4.7-.1.9.5.6 1.4-.5 1.1-.3 1.3.7.7 1-.6 1.2-.4.7 1.1-.7 1.8-.6 1.8.6.2 1.1-1.4 1.6-1.5 2.7-.5.9.9 1.1.9.6 0-.3-.6-.2-1.4.4-1.8.5-.3 1 0 1 .7 0 .8.3.9.8.3 1.2-1.7 4.7-4.1 3.8-2.8-.4.7-.3 1.3.3 1.3.5 0 1.3-.5 1.6-1 .5-.8 1.1-.7 2.1.1 1.1.9 1.4.9 1.4-.1 0-.9.3-1 1.3-.1.8.6 1.8.7 2.2.3.5-.4.5-.2.1.5s-1.3 1-2.1.6c-.8-.3-1.5 0-1.5.7 0 .6.4.9.9.6.5-.3 1.2.1 1.5 1 .5 1.2 1 1.4 2 .5.7-.6 1.6-.7 2.1-.3.4.4.3-.2-.3-1.3-.9-1.9-.7-2 4.1-1.9 2.9 0 5.7-.2 6.2-.5 1.5-.8 3.4-1 3.4-.3-.1.4-.1 1.3 0 2.1.1 1.6 1.6.5 1.6-1.1 0-.6.7-1.3 1.5-1.5.9-.3 1.1-.1.5.4-.5.4-1.1 1.7-1.2 2.8-.1 1.9-.1 1.8 1.5-.2 1.5-1.9 2-2 3.4-.9 1 .7 1.5 1.6 1.1 1.9-.3.4-1.2-.1-2-1.1-1.3-1.5-1.3-1.5-.3.6.8 1.7 1.5 2.1 2.4 1.3.9-.7 1.7-.7 2.6.2 1.1.9 1 .7 0-.8-.8-1.1-1.9-2.3-2.5-2.8-.5-.4.1-.5 1.5-.3s3-.1 3.7-.6c.8-.6 1.1-.2.9 1.6-.2 1.5.1 2.6.5 2.6.5 0 .9-.9.9-1.9 0-1 .7-2.2 1.6-2.5.8-.3 1.3-.2.9.3-.7 1.2 2.4 4.3 3.6 3.6.5-.4.9-1.2.8-1.8 0-.9-.2-.8-.6.1-.5 1.3-2.3.7-2.3-.9 0-.6.5-.7 1-.4.6.3 1 0 1-.7.1-.7.6-.3 1.3 1 1.2 2.1 1.4 2.1 3.2.6 1.6-1.3 1.7-1.5.3-1-1 .3-2 .1-2.2-.3-.3-.5.5-.8 1.7-.7 1.4.1 2.1.7 1.9 1.7-.1.9 1 2.1 2.5 2.8 2.4 1 2.6 1 1.1-.2-2-1.6-2.4-3.7-.7-3.7.5 0 .8.4.5.9-.3.5.1 1.2 1 1.5 1.2.4 1.5.2 1.1-.9-.4-.8-.1-1.7.5-2.1.7-.4.8-.3.4.4s-.2 1.2.3 1.2c.6 0 2.1 1 3.3 2.2 1.5 1.5 2 1.7 1.5.5-.6-1.6.6-3 3-3.3.7-.1.9.5.6 1.4-.5 1.1-.3 1.3.7.7 1-.6 1.2-.4.7 1.1-.7 1.8-.6 1.8.6.2 1.1-1.4 1.6-1.5 2.7-.5.9.9 1.1.9.6 0-.3-.6-.2-1.4.4-1.8.5-.3 1-.1 1 .5s1 .2 2.2-1c1.2-1.1 2.7-2 3.2-2 .7 0 .7.3 0 .8-1.2.7-1.1 3.9.2 5 .4.4.4-.1.1-1-.6-1.7.6-3.1 3-3.4.7-.1.9.5.6 1.4-.5 1.1-.3 1.3.7.7 1-.6 1.2-.4.7 1.1-.7 1.8-.6 1.8.6.2 1.1-1.4 1.6-1.5 2.7-.5.9.9 1.1.9.6 0-.3-.6-.2-1.4.4-1.8.5-.3 1 0 1 .7 0 .8.3.9.8.3 1.2-1.7 4.7-4.1 3.8-2.8-.4.7-.3 1.3.3 1.3.5 0 1.3-.5 1.6-1 .5-.8 1.1-.7 2.1.1 1.1.9 1.4.9 1.4-.1 0-.9.3-1 1.3-.1.8.6 1.8.7 2.2.3.5-.4.5-.2.1.5s-1.3 1-2.1.6c-.8-.3-1.5 0-1.5.7 0 .6.4.9.9.6.5-.3 1.2.1 1.5 1 .5 1.2 1 1.4 2 .5.7-.6 1.6-.7 2.1-.3.4.4.3-.2-.3-1.3-.9-1.9-.7-2 4.1-1.9 2.9 0 5.7-.2 6.2-.5 1.5-.8 3.4-1 3.4-.3-.1.4-.1 1.3 0 2.1.1 1.6 1.6.5 1.6-1.2 0-.5.7-1.2 1.5-1.4.9-.3 1.1-.1.5.4-.5.4-1.1 1.7-1.2 2.8-.1 1.9-.1 1.8 1.5-.2 1.5-1.9 2-2 3.4-.9 1 .7 1.5 1.6 1.1 1.9-.3.4-1.2-.1-2-1.1-1.3-1.5-1.3-1.5-.3.6.8 1.7 1.5 2.1 2.4 1.3.9-.7 1.7-.7 2.6.2 1.1.9 1 .7 0-.8-.8-1.1-1.9-2.3-2.5-2.8-.5-.4.1-.5 1.5-.3s3-.1 3.7-.6c.8-.6 1.1-.2.9 1.6-.2 1.5.1 2.6.5 2.6.5 0 .9-.9.9-1.9 0-1 .7-2.2 1.6-2.5.8-.3 1.3-.2.9.3-.7 1.2 2.4 4.3 3.6 3.6.5-.4.9-1.2.8-1.8 0-.9-.2-.8-.6.1-.5 1.3-2.3.7-2.3-.9 0-.6.5-.7 1-.4.6.3 1 0 1-.7.1-.7.6-.3 1.3 1 1.2 2.1 1.4 2.1 3.2.6 1.6-1.3 1.7-1.5.3-1-1 .3-2 .1-2.2-.3-.3-.5.5-.8 1.7-.7 1.4.1 2.1.7 1.9 1.7-.1.9 1 2.1 2.5 2.8 2.4 1 2.6 1 1.1-.2-2-1.6-2.4-3.7-.7-3.7.5 0 .8.4.5.9-.3.5.1 1.2 1 1.5 1.2.4 1.5.2 1.1-.9-.4-.8-.1-1.7.5-2.1.7-.4.8-.3.4.4s-.2 1.2.3 1.2c.6 0 2.1 1 3.3 2.2 1.5 1.5 2 1.7 1.5.5-.6-1.6.6-3 3-3.3.7-.1.9.5.6 1.4-.5 1.1-.3 1.3.7.7 1-.6 1.2-.4.7 1.1-.7 1.8-.6 1.8.6.2 1.1-1.4 1.6-1.5 2.6-.5.7.7 1.2.7 1.1.2-.5-2.2.1-2.9 1-1.5.6 1 1 1.1 1 .2 0-.6.9-1.2 2.1-1.2 1.1 0 1.7.4 1.4 1-.3.5-.1 1 .4 1 .6 0 1.1-.6 1.1-1.4 0-.8.6-1.7 1.3-2 .6-.3.1-.3-1.3 0l-2.5.7 2.5-2.1c1.9-1.5 2.2-2.3 1.3-3.3-1.3-1.7-.7-6 1-7.1.8-.5.3-.8-1.3-.9-2.5 0-2.5 0-.3-1.1 1.2-.6 2.5-1.8 2.8-2.6.4-1.2.1-1.1-1.5.3-2.1 1.9-2.1 1.9-1.5-1.3.3-1.9.1-3.2-.5-3.2-.5 0-1-.5-1-1.1 0-.5.4-.8.9-.5.4.3 1.7-.1 2.7-1 1.8-1.4 1.8-1.5-.3-.9-1.9.5-2.2.3-1.6-1.2.4-1 1.1-2.1 1.7-2.5.6-.4 0-.8-1.4-.9-2.5 0-2.5 0-.3-1.1 1.2-.6 2.5-1.8 2.8-2.6.4-1.2.1-1.1-1.5.3-2.1 1.9-2.1 1.9-1.5-1.3.3-1.9.1-3.2-.5-3.2-.5 0-1-.5-1-1.1 0-.5.4-.8.9-.5.4.3 1.7-.1 2.7-1 1.8-1.4 1.8-1.5-.4-.9s-2.3.5-1.3-1.4c.9-1.6.9-2.1-.1-2.1-.9 0-.9-.3.2-.9.8-.6 1.8-.7 2.4-.4.5.3.6.1.2-.5-.4-.6-1.4-.9-2.4-.6-1.2.4-1.3.3-.4-.3.7-.6 1-1.7.6-2.8-.6-1.4-.4-1.6.6-1 .9.5 1.1.4.6-.4-.4-.6-.2-1.9.6-2.8.7-.9.8-1.4.2-1-1.4.8-2.7-1.7-2.9-5.6-.1-1.9.3-2.6 1.1-2.3.8.3 1.1-.1.7-.9-.3-.8-.9-1.3-1.3-1-.5.3-1.2 0-1.6-.6-.4-.7-.3-.9.3-.6.6.4 1.3 0 1.7-.8.3-.8 0-1.5-.7-1.5-.8 0-.7-.4.3-.9.8-.6 1.8-.7 2.4-.4.5.3.6.1.2-.5-.4-.6-1.4-.9-2.4-.6-1.2.4-1.3.3-.4-.3.7-.6 1-1.7.6-2.7-.4-1.1-.1-2.2.7-2.7 1-.6.7-.9-1.1-1-2.5 0-2.5 0-.3-1.1 1.2-.6 2.5-1.8 2.8-2.6.4-1.2.1-1.1-1.5.3-2.1 1.9-2.1 1.9-1.5-1.3.3-1.9.1-3.2-.5-3.2-.5 0-1-.5-1-1.1 0-.5.4-.8.9-.5.4.3 1.7-.1 2.7-1 1.8-1.4 1.8-1.5-.3-.9-1.9.5-2.2.3-1.6-1.2.4-1 1.1-2.1 1.7-2.5.6-.4 0-.8-1.4-.9-2.5 0-2.5 0-.3-1.1 1.2-.6 2.5-1.8 2.8-2.6.4-1.2.1-1.1-1.5.3-2.1 1.9-2.1 1.9-1.5-1.3.3-1.9.1-3.2-.5-3.2-.5 0-1-.5-1-1.1 0-.5.4-.8.9-.5.4.3 1.7-.1 2.7-1 1.8-1.4 1.8-1.5-.4-.9s-2.3.5-1.3-1.4c.9-1.6.9-2.1-.1-2.1-.9 0-.9-.3.2-.9.8-.6 1.8-.7 2.4-.4.5.3.6.1.2-.5-.4-.6-1.4-.9-2.4-.6-1.2.4-1.3.3-.4-.3.7-.6 1-1.7.6-2.8-.6-1.4-.4-1.6.6-1 .9.5 1.1.4.6-.4-.4-.6-.2-1.9.6-2.8.7-.9.8-1.4.2-1-1.4.8-2.7-1.7-2.9-5.6-.1-1.9.3-2.6 1.1-2.3.8.3 1.1-.1.7-.9-.3-.8-.9-1.3-1.3-1-.5.3-1.2 0-1.6-.6-.4-.7-.3-.9.3-.6.6.4 1.3 0 1.7-.8.3-.8 0-1.5-.7-1.5-.8 0-.7-.4.3-.9.8-.6 1.8-.7 2.4-.4.5.3.6.1.2-.5-.4-.6-1.4-.9-2.4-.6-1.2.4-1.3.3-.4-.3.7-.6 1-1.7.6-2.7-.4-1.1-.1-2.2.7-2.7 1-.6.7-.9-1.1-1-2.5 0-2.5 0-.3-1.1 1.2-.6 2.5-1.8 2.8-2.6.4-1.2.1-1.1-1.5.3-2.1 1.9-2.1 1.9-1.5-1.3.3-1.9.1-3.2-.5-3.2-.5 0-1-.5-1-1.1 0-.5.4-.8.9-.5.4.3 1.7-.1 2.7-1 1.8-1.4 1.8-1.5-.3-.9-1.9.5-2.2.3-1.6-1.2.4-1 1.1-2.1 1.7-2.5.6-.4 0-.8-1.4-.9-2.5 0-2.5 0-.3-1.1 1.2-.6 2.5-1.8 2.8-2.6.4-1.2.1-1.1-1.5.3-2.1 1.9-2.1 1.9-1.5-1.3.3-1.9.1-3.2-.5-3.2-.5 0-1-.5-1-1.1 0-.5.4-.8.9-.5.4.3 1.7-.1 2.7-1 1.8-1.4 1.8-1.5-.4-.9s-2.3.5-1.3-1.4c.9-1.6.9-2.1-.1-2.1-.9 0-.9-.3.2-.9.8-.6 1.8-.7 2.4-.4.5.3.6.1.2-.5-.4-.6-1.4-.9-2.4-.6-1.2.4-1.3.3-.4-.3.7-.6 1-1.7.6-2.8-.6-1.4-.4-1.6.6-1 .9.5 1.1.4.6-.4-.4-.6-.2-1.9.6-2.8.7-.9.8-1.4.2-1-1.4.8-2.7-1.7-2.9-5.6-.1-1.9.3-2.6 1.1-2.3.8.3 1.1-.1.7-.9-.3-.8-.9-1.3-1.3-1-.5.3-1.2 0-1.6-.6-.4-.7-.3-.9.3-.6.6.4 1.3 0 1.7-.8.3-.8 0-1.5-.7-1.5-.8 0-.7-.4.3-.9.8-.6 1.8-.7 2.4-.4.5.3.6.1.2-.5-.4-.6-1.4-.9-2.4-.6-1.2.4-1.3.3-.4-.3.7-.6 1-1.7.6-2.7-.4-1.1-.1-2.2.7-2.7 1-.6.7-.9-1.1-1-2.5 0-2.5 0-.3-1.1 1.2-.6 2.5-1.8 2.8-2.6.4-1.2.1-1.1-1.5.3-2.1 1.9-2.1 1.9-1.5-1.3.3-1.9.1-3.2-.5-3.2-.5 0-1-.5-1-1.1 0-.5.4-.8.9-.5.4.3 1.7-.1 2.7-1 1.8-1.4 1.8-1.5-.3-.9-1.9.5-2.2.3-1.6-1.2.4-1 1.1-2.1 1.7-2.5.6-.4 0-.8-1.4-.9-2.5 0-2.5 0-.3-1.1 1.2-.6 2.5-1.8 2.8-2.6.4-1.2.1-1.1-1.5.3-2.1 1.9-2.1 1.9-1.5-1.3.3-1.9.1-3.2-.5-3.2-.5 0-1-.5-1-1.1 0-.5.4-.8.9-.5.4.3 1.7-.1 2.7-1 1.8-1.4 1.8-1.5-.4-.9s-2.3.5-1.3-1.4c.9-1.6.9-2.1-.1-2.1-.9 0-.9-.3.2-.9.8-.6 1.8-.7 2.4-.4.5.3.6.1.2-.5-.4-.6-1.4-.9-2.4-.6-1.2.4-1.3.3-.4-.3.7-.6 1-1.7.6-2.8-.6-1.4-.4-1.6.6-1 .9.5 1.1.4.6-.4-.4-.6-.2-1.9.6-2.8.7-.9.8-1.4.2-1-1.4.8-2.7-1.7-2.9-5.6-.1-1.9.3-2.6 1.1-2.3.8.3 1.1-.1.7-.9-.3-.8-.9-1.3-1.3-1-.5.3-1.2 0-1.6-.6-.4-.7-.3-.9.3-.6.6.4 1.3 0 1.7-.8.3-.8 0-1.5-.7-1.5-.8 0-.7-.4.3-.9.8-.6 1.8-.7 2.4-.4.5.3.6.1.2-.5-.4-.6-1.4-.9-2.4-.6-1.2.4-1.3.3-.4-.3.7-.6 1-1.7.6-2.7-.4-1.1-.1-2.2.7-2.7 1-.6.7-.9-1.1-1-2.5 0-2.5 0-.3-1.1 1.2-.6 2.5-1.8 2.8-2.6.5-1.3.2-1.2-1.4.2-1.9 1.8-2 1.7-1.8-.2 0-1.1.5-1.8.9-1.6.4.3.8 0 .8-.5 0-1-1.5-1.5-2.3-.9-.2.2-1.1-.3-1.9-1-1.3-1-1.7-1-2.1 0-.4.8-.6.7-.6-.5-.1-.9-.6-1.7-1.2-1.7s-.8.7-.5 1.6c.4 1.1-.2.9-1.8-.7-2.7-2.6-5.3-3.3-5.3-1.3 0 1 .4 1.1 1.3.3.9-.7 1.5-.5 2.3.9 1.2 2.2.7 2.3-3.7.8-1.2-.4-1.9-1.2-1.6-1.8.4-.7.2-.8-.5-.4-.9.6-.9 1.1 0 2.2 1.6 1.9.4 1.8-1.5-.2-.9-.8-1.6-1.1-1.6-.5 0 .6-.9.3-2-.6-2.8-2.4-4.9-2.5-4.5-.2.2 1-.1 2.2-.7 2.5-.7.4-.8.2-.4-.4.4-.7.3-1.2-.3-1.2-.5 0-1.2.6-1.4 1.2-.3.8-.6.6-.6-.5-.1-.9-.6-1.7-1.2-1.7s-.8.7-.5 1.6c.4 1.1-.2.9-1.8-.7-2.7-2.6-5.3-3.3-5.3-1.3 0 1 .4 1.1 1.3.3.9-.7 1.5-.5 2.3.9 1.2 2.2.7 2.3-3.7.8-1.2-.4-1.9-1.2-1.6-1.8.4-.7.2-.8-.5-.4-.9.6-.9 1.1 0 2.2 1.6 1.9.4 1.8-1.5-.2-.9-.8-1.6-1.1-1.6-.5 0 .6-.9.3-2-.6-2.8-2.4-4.9-2.5-4.5-.2.2 1-.1 2.2-.7 2.5-.7.4-.8.2-.4-.4.4-.7.3-1.2-.3-1.2-.5 0-1.2.6-1.4 1.2-.3.8-.6.6-.6-.5-.1-.9-.6-1.7-1.2-1.7s-.8.7-.5 1.6c.4 1.1-.2.9-1.8-.7-2.7-2.6-5.3-3.3-5.3-1.3 0 1 .4 1.1 1.3.3.9-.7 1.5-.5 2.3.9 1.2 2.2.7 2.3-3.7.8-1.2-.4-1.9-1.2-1.6-1.8.4-.7.2-.8-.5-.4-.9.6-.9 1.1 0 2.2 1.6 1.9.4 1.8-1.5-.2-.9-.8-1.6-1.1-1.6-.5 0 .6-.9.3-2-.6-2.8-2.4-4.9-2.5-4.5-.2.2 1-.1 2.2-.7 2.5-.7.4-.8.2-.4-.4.4-.7.3-1.2-.3-1.2-.5 0-1.2.6-1.4 1.2-.3.8-.6.6-.6-.5-.1-.9-.6-1.7-1.2-1.7s-.8.7-.5 1.6c.4 1.1-.2.9-1.8-.7-2.7-2.6-5.3-3.3-5.3-1.3 0 1 .4 1.1 1.3.3.9-.7 1.5-.5 2.3.9 1.2 2.2.7 2.3-3.7.8-1.2-.4-1.9-1.2-1.6-1.8.4-.7.2-.8-.5-.4-.9.6-.9 1.1 0 2.2 1.6 1.9.4 1.8-1.5-.2-.9-.8-1.6-1.1-1.6-.5 0 .6-.9.3-2-.6-2.8-2.4-4.9-2.5-4.5-.2.2 1-.1 2.2-.7 2.5-.7.4-.8.2-.4-.4.4-.7.3-1.2-.3-1.2-.5 0-1.2.6-1.4 1.2-.3.8-.6.6-.6-.5-.1-.9-.6-1.7-1.2-1.7s-.8.7-.5 1.6c.4 1.1-.2.9-1.8-.7-2.7-2.6-5.3-3.3-5.3-1.3 0 1 .4 1.1 1.3.3.9-.7 1.5-.5 2.3.9 1.2 2.2.7 2.3-3.7.8-1.2-.4-1.9-1.2-1.6-1.8.4-.7.2-.8-.5-.4-.9.6-.9 1.1 0 2.2 1.6 1.9.4 1.8-1.5-.2-.9-.8-1.6-1.1-1.6-.5 0 .6-.9.3-2-.6-2.8-2.4-4.9-2.5-4.5-.2.2 1-.1 2.2-.7 2.5-.7.4-.8.2-.4-.4.4-.7.3-1.2-.3-1.2-.5 0-1.2.6-1.4 1.2-.3.8-.6.6-.6-.5-.1-.9-.6-1.7-1.2-1.7s-.8.7-.5 1.6c.4 1.1-.2.9-1.8-.7-2.7-2.6-5.3-3.3-5.3-1.3 0 1 .4 1.1 1.3.3.9-.7 1.5-.5 2.3.9 1.2 2.2.7 2.3-3.7.8-1.2-.4-1.9-1.2-1.6-1.8.4-.7.2-.8-.5-.4-.9.6-.9 1.1 0 2.2 1.6 1.9.4 1.8-1.5-.2-.9-.8-1.6-1.1-1.6-.5 0 .6-.9.3-2-.6-2.8-2.4-4.9-2.5-4.5-.2.2 1-.1 2.2-.7 2.5-.7.4-.8.2-.4-.4.4-.7.3-1.2-.3-1.2-.5 0-1.2.6-1.4 1.2-.3.8-.6.6-.6-.5-.1-.9-.6-1.7-1.2-1.7s-.8.7-.5 1.6c.4 1.1-.2.9-1.8-.7-2.7-2.6-5.3-3.3-5.3-1.3 0 1 .4 1.1 1.3.3.9-.7 1.5-.5 2.3.9 1.2 2.2.7 2.3-3.7.8-1.2-.4-1.9-1.2-1.6-1.8.4-.7.2-.8-.5-.4-.9.6-.9 1.1 0 2.2 1.6 1.9.4 1.8-1.5-.2-.9-.8-1.6-1.1-1.6-.5 0 .6-.9.3-2-.6-2.8-2.4-4.9-2.5-4.5-.2.2 1-.1 2.2-.7 2.5-.7.4-.8.2-.4-.4.4-.7.3-1.2-.3-1.2-.5 0-1.2.6-1.4 1.2-.3.8-.6.6-.6-.5-.1-.9-.6-1.7-1.2-1.7s-.8.7-.5 1.6c.4 1.1-.2.9-1.8-.7-2.7-2.6-5.3-3.3-5.3-1.3 0 1 .4 1.1 1.3.3.9-.7 1.5-.5 2.3.9 1.2 2.2.7 2.3-3.7.8-1.2-.4-1.9-1.2-1.6-1.8.4-.7.2-.8-.5-.4-.9.6-.9 1.1 0 2.2 1.6 1.9.4 1.8-1.5-.2-.9-.8-1.6-1.1-1.6-.5 0 .6-.9.3-2-.6-2.8-2.4-4.9-2.5-4.5-.2.2 1-.1 2.2-.7 2.5-.7.4-.8.2-.4-.4.4-.7.3-1.2-.3-1.2-.5 0-1.2.6-1.4 1.2-.3.8-.6.6-.6-.5-.1-.9-.6-1.7-1.2-1.7s-.8.7-.5 1.6c.4 1.1-.2.9-1.8-.7-2.7-2.6-5.3-3.3-5.3-1.3 0 1 .4 1.1 1.3.3.9-.7 1.5-.5 2.3.9 1.2 2.2.7 2.3-3.7.8-1.2-.4-1.9-1.2-1.6-1.8.4-.7.2-.8-.5-.4-.9.6-.9 1.1 0 2.2 1.6 1.9.4 1.8-1.5-.2-.9-.8-1.6-1.1-1.6-.5 0 .6-.9.3-2-.6-2.8-2.4-4.9-2.5-4.5-.2.2 1-.1 2.2-.7 2.5-.7.4-.8.2-.4-.4.4-.7.3-1.2-.3-1.2-.5 0-1.2.6-1.4 1.2-.3.8-.6.6-.6-.5-.1-.9-.6-1.7-1.2-1.7s-.8.7-.5 1.6c.4 1.1-.2.9-1.8-.7-2.7-2.6-5.3-3.3-5.3-1.3 0 1 .4 1.1 1.3.3.9-.7 1.5-.5 2.3.9 1.2 2.2.7 2.3-3.7.8-1.2-.4-1.9-1.2-1.6-1.8.4-.7.2-.8-.5-.4-.9.6-.9 1.1 0 2.2 1.6 1.9.4 1.8-1.5-.2-.9-.8-1.6-1.1-1.6-.5 0 .6-.9.3-2-.6-2.8-2.4-4.9-2.5-4.5-.2.2 1-.1 2.2-.7 2.5-.7.4-.8.2-.4-.4.4-.7.3-1.2-.3-1.2-.5 0-1.2.6-1.4 1.2-.3.8-.6.6-.6-.5-.1-.9-.6-1.7-1.2-1.7s-.8.7-.5 1.6c.4 1.1-.2.9-1.8-.7-2.7-2.6-5.3-3.3-5.3-1.3 0 1 .4 1.1 1.3.3.9-.7 1.5-.5 2.3.9 1.2 2.2.7 2.3-3.7.8-1.2-.4-1.9-1.2-1.6-1.8.4-.7.2-.8-.5-.4-.9.6-.9 1.1 0 2.2 1.6 1.9.4 1.8-1.5-.2-.9-.8-1.6-1.1-1.6-.5 0 .6-.9.3-2-.6-2.8-2.4-4.9-2.5-4.5-.2.2 1-.1 2.2-.7 2.5-.7.4-.8.2-.4-.4.4-.7.3-1.2-.3-1.2-.5 0-1.2.6-1.4 1.2-.3.8-.6.6-.6-.5-.1-.9-.6-1.7-1.2-1.7s-.8.7-.5 1.6c.4 1.1-.2.9-1.8-.7-2.7-2.6-5.3-3.3-5.3-1.3 0 1 .4 1.1 1.3.3.9-.7 1.5-.5 2.3.9 1.2 2.2.7 2.3-3.7.8-1.2-.4-1.9-1.2-1.6-1.8.4-.7.2-.8-.5-.4-.9.6-.9 1.1 0 2.2 1.6 1.9.4 1.8-1.5-.2-.9-.8-1.6-1.1-1.6-.5 0 .6-.9.3-2-.6-2.8-2.4-4.9-2.5-4.5-.2.2 1-.1 2.2-.7 2.5-.7.4-.8.2-.4-.4.4-.7.3-1.2-.3-1.2-.5 0-1.2.6-1.4 1.2-.3.8-.6.6-.6-.5-.1-.9-.6-1.7-1.2-1.7s-.8.7-.5 1.6c.4 1.1-.2.9-1.8-.7-2.7-2.6-5.3-3.3-5.3-1.3 0 1 .4 1.1 1.3.3.9-.7 1.5-.5 2.3.9 1.2 2.2.7 2.3-3.7.8-1.2-.4-1.9-1.2-1.6-1.8.4-.7.2-.8-.5-.4-.9.6-.9 1.1 0 2.2 1.6 1.9.4 1.8-1.5-.2-.9-.8-1.6-1.1-1.6-.5 0 .6-.9.3-2-.6-2.8-2.4-4.9-2.5-4.5-.2.2 1-.1 2.2-.7 2.5-.7.4-.8.2-.4-.4.4-.7.3-1.2-.3-1.2-.5 0-1.2.6-1.4 1.2-.3.8-.6.6-.6-.5-.1-.9-.6-1.7-1.2-1.7s-.8.7-.5 1.6c.4 1.1-.2.9-1.8-.7-2.7-2.6-5.3-3.3-5.3-1.3 0 1 .4 1.1 1.3.3.9-.7 1.5-.5 2.3.9 1.2 2.2.7 2.3-3.7.8-1.2-.4-1.9-1.2-1.6-1.8.4-.7.2-.8-.5-.4-.9.6-.9 1.1 0 2.2 1.6 1.9.4 1.8-1.5-.2-.9-.8-1.6-1.1-1.6-.5 0 .6-.9.3-2-.6-2.8-2.4-4.9-2.5-4.5-.2.2 1-.1 2.2-.7 2.5-.7.4-.8.2-.4-.4.4-.7.3-1.2-.3-1.2-.5 0-1.2.6-1.4 1.2-.3.8-.6.6-.6-.5-.1-.9-.6-1.7-1.2-1.7s-.8.7-.5 1.6c.4 1.1-.2.9-1.8-.7-2.7-2.6-5.3-3.3-5.3-1.3 0 1 .4 1.1 1.3.3.9-.7 1.5-.5 2.3.9 1.2 2.2.7 2.3-3.7.8-1.2-.4-1.9-1.2-1.6-1.8.4-.7.2-.8-.5-.4-.9.6-.9 1.1 0 2.2 1.6 1.9.4 1.8-1.5-.2-.9-.8-1.6-1.1-1.6-.5 0 .6-.9.3-2-.6-2.8-2.4-4.9-2.5-4.5-.2.2 1-.1 2.2-.7 2.5-.7.4-.8.2-.4-.4.4-.7.3-1.2-.3-1.2-.5 0-1.2.6-1.4 1.2-.3.8-.6.6-.6-.5-.1-.9-.6-1.7-1.2-1.7s-.8.7-.5 1.6c.4 1.1-.2.9-1.8-.7-2.7-2.6-5.3-3.3-5.3-1.3 0 1 .4 1.1 1.3.3.9-.7 1.5-.5 2.3.9 1.2 2.2.7 2.3-3.7.8-1.2-.4-1.9-1.2-1.6-1.8.4-.7.2-.8-.5-.4-.9.6-.9 1.1 0 2.2 1.6 1.9.4 1.8-1.5-.2-.9-.8-1.6-1.1-1.6-.5 0 .6-.9.3-2-.6-2.8-2.4-4.9-2.5-4.5-.2.2 1-.1 2.2-.7 2.5-.7.4-.8.2-.4-.4.4-.7.3-1.2-.3-1.2-.5 0-1.2.6-1.4 1.2-.3.8-.6.6-.6-.5-.1-.9-.6-1.7-1.2-1.7s-.8.7-.5 1.6c.4 1.1-.2.9-1.8-.7-2.7-2.6-5.3-3.3-5.3-1.3 0 1 .4 1.1 1.3.3.9-.7 1.5-.5 2.3.9 1.2 2.2.7 2.3-3.7.8-1.2-.4-1.9-1.2-1.6-1.8.4-.7.2-.8-.5-.4-.9.6-.9 1.1 0 2.2 1.6 1.9.4 1.8-1.5-.2-.9-.8-1.6-1.1-1.6-.5 0 .6-.9.3-2-.6-2.8-2.4-4.9-2.5-4.5-.2.2 1-.1 2.2-.7 2.5-.7.4-.8.2-.4-.4.4-.7.3-1.2-.3-1.2-.5 0-1.2.6-1.4 1.2-.3.8-.6.6-.6-.5-.1-.9-.6-1.7-1.2-1.7s-.8.7-.5 1.6c.4 1.1-.2.9-1.8-.7-2.7-2.6-5.3-3.3-5.3-1.3 0 1 .4 1.1 1.3.3.9-.7 1.5-.5 2.3.9 1.2 2.2.7 2.3-3.7.8-1.2-.4-1.9-1.2-1.6-1.8.4-.7.2-.8-.5-.4-.9.6-.9 1.1 0 2.2 1.6 1.9.4 1.8-1.5-.2-.9-.8-1.6-1.1-1.6-.5 0 .6-.9.3-2-.6-2.8-2.4-4.9-2.5-4.5-.2.2 1-.1 2.2-.7 2.5-.7.4-.8.2-.4-.4.4-.7.3-1.2-.3-1.2-.5 0-1.2.6-1.4 1.2-.3.8-.6.6-.6-.5-.1-.9-.6-1.7-1.2-1.7s-.8.7-.5 1.6c.4 1.1-.2.9-1.8-.7-2.7-2.6-5.3-3.3-5.3-1.3 0 1 .4 1.1 1.3.3.9-.7 1.5-.5 2.3.9 1.2 2.2.7 2.3-3.7.8-1.2-.4-1.9-1.2-1.6-1.8.4-.7.2-.8-.5-.4-.9.6-.9 1.1 0 2.2 1.6 1.9.4 1.8-1.5-.2-.9-.8-1.6-1.1-1.6-.5 0 .6-.9.3-2-.6-2.8-2.4-4.9-2.5-4.5-.2.2 1-.1 2.2-.7 2.5-.7.4-.8.2-.4-.4.4-.7.3-1.2-.3-1.2-.5 0-1.2.6-1.4 1.2-.3.8-.6.6-.6-.5-.1-.9-.6-1.7-1.2-1.7s-.8.7-.5 1.6c.4 1.1-.2.9-1.8-.7-2.7-2.6-5.3-3.3-5.3-1.3 0 1 .4 1.1 1.3.3.9-.7 1.5-.5 2.3.9 1.2 2.2.7 2.3-3.7.8-1.2-.4-1.9-1.2-1.6-1.8.4-.7.2-.8-.5-.4-.9.6-.9 1.1 0 2.2 1.6 1.9.4 1.8-1.5-.2-.9-.8-1.6-1.1-1.6-.5 0 .6-.9.3-2-.6-2.8-2.4-4.9-2.5-4.5-.2.2 1-.1 2.2-.7 2.5-.7.4-.8.2-.4-.4.4-.7.3-1.2-.3-1.2-.5 0-1.2.6-1.4 1.2-.3.8-.6.6-.6-.5-.1-.9-.6-1.7-1.2-1.7s-.8.7-.5 1.6c.4 1.1-.2.9-1.8-.7-2.7-2.6-5.3-3.3-5.3-1.3 0 1 .4 1.1 1.3.3.9-.7 1.5-.5 2.3.9 1.2 2.2.7 2.3-3.7.8-1.2-.4-1.9-1.2-1.6-1.8.4-.7.2-.8-.5-.4-.9.6-.9 1.1 0 2.2 1.6 1.9.4 1.8-1.5-.2-.9-.8-1.6-1.1-1.6-.5 0 .6-.9.3-2-.6-2.8-2.4-4.9-2.5-4.5-.2.2 1-.1 2.2-.7 2.5-.7.4-.8.2-.4-.4.4-.7.3-1.2-.3-1.2-.5 0-1.2.6-1.4 1.2-.3.8-.6.6-.6-.5-.1-.9-.6-1.7-1.2-1.7s-.8.7-.5 1.6c.4 1.1-.2.9-1.8-.7-2.7-2.6-5.3-3.3-5.3-1.3 0 1 .4 1.1 1.3.3.9-.7 1.5-.5 2.3.9 1.2 2.2.7 2.3-3.7.8-1.2-.4-1.9-1.2-1.6-1.8.4-.7.2-.8-.5-.4-.9.6-.9 1.1 0 2.2 1.6 1.9.4 1.8-1.5-.2-.9-.8-1.6-1.1-1.6-.5 0 .6-.9.3-2-.6-2.8-2.4-4.9-2.5-4.5-.2.2 1-.1 2.2-.7 2.5-.7.4-.8.2-.4-.4.4-.7.3-1.2-.3-1.2-.5 0-1.2.6-1.4 1.2-.3.8-.6.6-.6-.5-.1-.9-.6-1.7-1.2-1.7s-.8.7-.5 1.6c.4 1.1-.2.9-1.8-.7-2.7-2.6-5.3-3.3-5.3-1.3 0 1 .4 1.1 1.3.3.9-.7 1.5-.5 2.3.9 1.2 2.2.7 2.3-3.7.8-1.2-.4-1.9-1.2-1.6-1.8.4-.7.2-.8-.5-.4-.9.6-.9 1.1 0 2.2 1.6 1.9.4 1.8-1.5-.2-.9-.8-1.6-1.1-1.6-.5 0 .6-.9.3-2-.6-2.8-2.4-4.9-2.5-4.5-.2.2 1-.1 2.2-.7 2.5-.7.4-.8.2-.4-.4.4-.7.3-1.2-.3-1.2-.5 0-1.2.6-1.4 1.2-.3.8-.6.6-.6-.5-.1-.9-.6-1.7-1.2-1.7s-.8.7-.5 1.6c.4 1.1-.2.9-1.8-.7-2.7-2.6-5.3-3.3-5.3-1.3 0 1 .4 1.1 1.3.3.9-.7 1.5-.5 2.3.9 1.2 2.2.7 2.3-3.7.8-1.2-.4-1.9-1.2-1.6-1.8.4-.7.2-.8-.5-.4-.9.6-.9 1.1 0 2.2 1.6 1.9.4 1.8-1.5-.2-.9-.8-1.6-1.1-1.6-.5 0 .6-.9.3-2-.6-2.8-2.4-4.9-2.5-4.5-.2.2 1-.1 2.2-.7 2.5-.7.4-.8.2-.4-.4.4-.7.3-1.2-.3-1.2-.5 0-1.2.6-1.4 1.2-.3.8-.6.6-.6-.5-.1-.9-.6-1.7-1.2-1.7s-.8.7-.5 1.6c.4 1.1-.2.9-1.8-.7-2.7-2.6-5.3-3.3-5.3-1.3 0 1 .4 1.1 1.3.3.9-.7 1.5-.5 2.3.9 1.2 2.2.7 2.3-3.7.8-1.2-.4-1.9-1.2-1.6-1.8.4-.7.2-.8-.5-.4-.9.6-.9 1.1 0 2.2 1.6 1.9.4 1.8-1.5-.2-.9-.8-1.6-1.1-1.6-.5 0 .6-.9.3-2-.6-2.8-2.4-4.9-2.5-4.5-.2.2 1-.1 2.2-.7 2.5-.7.4-.8.2-.4-.4.4-.7.3-1.2-.3-1.2-.5 0-1.2.6-1.4 1.2-.3.8-.6.6-.6-.5-.1-.9-.6-1.7-1.2-1.7s-.8.7-.5 1.6c.4 1.1-.2.9-1.8-.7-2.7-2.6-5.3-3.3-5.3-1.3 0 1 .4 1.1 1.3.3.9-.7 1.5-.5 2.3.9 1.2 2.2.7 2.3-3.7.8-1.2-.4-1.9-1.2-1.6-1.8.4-.7.2-.8-.5-.4-.9.6-.9 1.1 0 2.2 1.6 1.9.4 1.8-1.5-.2-.9-.8-1.6-1.1-1.6-.5 0 .6-.9.3-2-.6-2.8-2.4-4.9-2.5-4.5-.2.2 1-.1 2.2-.7 2.5-.7.4-.8.2-.4-.4.4-.7.3-1.2-.3-1.2-.5 0-1.2.6-1.4 1.2-.3.8-.6.6-.6-.5-.1-.9-.6-1.7-1.2-1.7s-.8.7-.5 1.6c.4 1.1-.2.9-1.8-.7-2.7-2.6-5.3-3.3-5.3-1.3 0 1 .4 1.1 1.3.3.9-.7 1.5-.5 2.3.9 1.2 2.2.7 2.3-3.7.8-1.2-.4-1.9-1.2-1.6-1.8.4-.7.2-.8-.5-.4-.9.6-.9 1.1 0 2.2 1.6 1.9.4 1.8-1.5-.2-.9-.8-1.6-1.1-1.6-.5 0 .6-.9.3-2-.6-2.8-2.4-4.9-2.5-4.5-.2.2 1-.1 2.2-.7 2.5-.7.4-.8.2-.4-.4.4-.7.3-1.2-.3-1.2-.5 0-1.2.6-1.4 1.2-.3.8-.6.6-.6-.5-.1-.9-.6-1.7-1.2-1.7s-.8.7-.5 1.6c.4 1.1-.2.9-1.8-.7-2.7-2.6-5.3-3.3-5.3-1.3 0 1 .4 1.1 1.3.3.9-.7 1.5-.5 2.3.9 1.2 2.2.7 2.3-3.7.8-1.2-.4-1.9-1.2-1.6-1.8.4-.7.2-.8-.5-.4-.9.6-.9 1.1 0 2.2 1.6 1.9.4 1.8-1.5-.2-.9-.8-1.6-1.1-1.6-.5 0 .6-.9.3-2-.6-2.8-2.4-4.9-2.5-4.5-.2.2 1-.1 2.2-.7 2.5-.7.4-.8.2-.4-.4.4-.7.3-1.2-.3-1.2-.5 0-1.2.6-1.4 1.2-.3.8-.6.6-.6-.5-.1-.9-.6-1.7-1.2-1.7s-.8.7-.5 1.6c.4 1.1-.2.9-1.8-.7-2.7-2.6-5.3-3.3-5.3-1.3 0 1 .4 1.1 1.3.3.9-.7 1.5-.5 2.3.9 1.2 2.2.7 2.3-3.7.8-1.2-.4-1.9-1.2-1.6-1.8.4-.7.2-.8-.5-.4-.9.6-.9 1.1 0 2.2 1.6 1.9.4 1.8-1.5-.2-.9-.8-1.6-1.1-1.6-.5 0 .6-.9.3-2-.6-2.8-2.4-4.9-2.5-4.5-.2.2 1-.1 2.2-.7 2.5-.7.4-.8.2-.4-.4.4-.7.3-1.2-.3-1.2-.5 0-1.2.6-1.4 1.2-.3.8-.6.6-.6-.5-.1-.9-.6-1.7-1.2-1.7s-.8.7-.5 1.6c.4 1.1-.2.9-1.8-.7-2.7-2.6-5.3-3.3-5.3-1.3 0 1 .4 1.1 1.3.3.9-.7 1.5-.5 2.3.9 1.2 2.2.7 2.3-3.7.8-1.2-.4-1.9-1.2-1.6-1.8.4-.7.2-.8-.5-.4-.9.6-.9 1.1 0 2.2 1.6 1.9.4 1.8-1.5-.2-.9-.8-1.6-1.1-1.6-.5 0 .6-.9.3-2-.6-2.8-2.4-4.9-2.5-4.5-.2.2 1-.1 2.2-.7 2.5-.7.4-.8.2-.4-.4.4-.7.3-1.2-.3-1.2-.5 0-1.2.6-1.4 1.2-.3.8-.6.6-.6-.5-.1-.9-.6-1.7-1.2-1.7s-.8.7-.5 1.6c.4 1.1-.2.9-1.8-.7-2.7-2.6-5.3-3.3-5.3-1.3 0 1 .4 1.1 1.3.3.9-.7 1.5-.5 2.3.9 1.2 2.2.7 2.3-3.7.8-1.2-.4-1.9-1.2-1.6-1.8.4-.7.2-.8-.5-.4-.9.6-.9 1.1 0 2.2 1.6 1.9.4 1.8-1.5-.2-.9-.8-1.6-1.1-1.6-.5 0 .6-.9.3-2-.6-2.8-2.4-4.9-2.5-4.5-.2.2 1-.1 2.2-.7 2.5-.7.4-.8.2-.4-.4.4-.7.3-1.2-.3-1.2-.5 0-1.2.6-1.4 1.2-.3.8-.6.6-.6-.5-.1-.9-.6-1.7-1.2-1.7s-.8.7-.5 1.6c.4 1.1-.2.9-1.8-.7-2.7-2.6-5.3-3.3-5.3-1.3 0 1 .4 1.1 1.3.3.9-.7 1.5-.5 2.3.9 1.2 2.2.7 2.3-3.7.8-1.2-.4-1.9-1.2-1.6-1.8.4-.7.2-.8-.5-.4-.9.6-.9 1.1 0 2.2 1.6 1.9.4 1.8-1.5-.2-.9-.8-1.6-1.1-1.6-.5 0 .6-.9.3-2-.6-2.8-2.4-4.9-2.5-4.5-.2.2 1-.1 2.2-.7 2.5-.7.4-.8.2-.4-.4.4-.7.3-1.2-.3-1.2-.5 0-1.2.6-1.4 1.2-.3.8-.6.6-.6-.5-.1-.9-.6-1.7-1.2-1.7s-.8.7-.5 1.6c.4 1.1-.2.9-1.8-.7-2.7-2.6-5.3-3.3-5.3-1.3 0 1 .4 1.1 1.3.3.9-.7 1.5-.5 2.3.9 1.2 2.2.7 2.3-3.7.8-1.2-.4-1.9-1.2-1.6-1.8.4-.7.2-.8-.5-.4-.9.6-.9 1.1 0 2.2 1.6 1.9.4 1.8-1.5-.2-.9-.8-1.6-1.1-1.6-.5 0 .6-.9.3-2-.6-2.8-2.4-4.9-2.5-4.5-.2.2 1-.1 2.2-.7 2.5-.7.4-.8.2-.4-.4.4-.7.3-1.2-.3-1.2-.5 0-1.2.6-1.4 1.2-.3.8-.6.6-.6-.5-.1-.9-.6-1.7-1.2-1.7s-.8.7-.5 1.6c.4 1.1-.2.9-1.8-.7-2.7-2.6-5.3-3.3-5.3-1.3 0 1 .4 1.1 1.3.3.9-.7 1.5-.5 2.3.9 1.2 2.2.7 2.3-3.7.8-1.2-.4-1.9-1.2-1.6-1.8.4-.7.2-.8-.5-.4-.9.6-.9 1.1 0 2.2 1.6 1.9.4 1.8-1.5-.2-.9-.8-1.6-1.1-1.6-.5 0 .6-.9.3-2-.6-2.8-2.4-4.9-2.5-4.5-.2.2 1-.1 2.2-.7 2.5-.7.4-.8.2-.4-.4.4-.7.3-1.2-.3-1.2-.5 0-1.2.6-1.4 1.2-.3.8-.6.6-.6-.5-.1-.9-.6-1.7-1.2-1.7s-.8.7-.5 1.6c.4 1.1-.2.9-1.8-.7-2.7-2.6-5.3-3.3-5.3-1.3 0 1 .4 1.1 1.3.3.9-.7 1.5-.5 2.3.9 1.2 2.2.7 2.3-3.7.8-1.2-.4-1.9-1.2-1.6-1.8.4-.7.2-.8-.5-.4-.9.6-.9 1.1 0 2.2 1.6 1.9.4 1.8-1.5-.2-.9-.8-1.6-1.1-1.6-.5 0 .6-.9.3-2-.6-2.8-2.4-4.9-2.5-4.5-.2.2 1-.1 2.2-.7 2.5-.7.4-.8.2-.4-.4.4-.7.3-1.2-.3-1.2-.5 0-1.2.6-1.4 1.2-.3.8-.6.6-.6-.5-.1-.9-.6-1.7-1.2-1.7s-.8.7-.5 1.6c.4 1.1-.2.9-1.8-.7-2.7-2.6-5.3-3.3-5.3-1.3 0 1 .4 1.1 1.3.3.9-.7 1.5-.5 2.3.9 1.2 2.2.7 2.3-3.7.8-1.2-.4-1.9-1.2-1.6-1.8.4-.7.2-.8-.5-.4-.9.6-.9 1.1 0 2.2 1.6 1.9.4 1.8-1.5-.2-.9-.8-1.6-1.1-1.6-.5 0 .6-.9.3-2-.6-2.8-2.4-4.9-2.5-4.5-.2.2 1-.1 2.2-.7 2.5-.7.4-.8.2-.4-.4.4-.7.3-1.2-.3-1.2-.5 0-1.2.6-1.4 1.2-.3.8-.6.6-.6-.5-.1-.9-.6-1.7-1.2-1.7s-.8.7-.5 1.6c.4 1.1-.2.9-1.8-.7-2.7-2.6-5.3-3.3-5.3-1.3 0 1 .4 1.1 1.3.3.9-.7 1.5-.5 2.3.9 1.2 2.2.7 2.3-3.7.8-1.2-.4-1.9-1.2-1.6-1.8.4-.7.2-.8-.5-.4-.9.6-.9 1.1 0 2.2 1.6 1.9.4 1.8-1.5-.2-.9-.8-1.6-1.1-1.6-.5 0 .6-.9.3-2-.6-2.8-2.4-4.9-2.5-4.5-.2.2 1-.1 2.2-.7 2.5-.7.4-.8.2-.4-.4.4-.7.3-1.2-.3-1.2-.5 0-1.2.6-1.4 1.2-.3.8-.6.6-.6-.5-.1-.9-.6-1.7-1.2-1.7s-.8.7-.5 1.6c.4 1.1-.2.9-1.8-.7-2.7-2.6-5.3-3.3-5.3-1.3 0 1 .4 1.1 1.3.3.9-.7 1.5-.5 2.3.9 1.2 2.2.7 2.3-3.7.8-1.2-.4-1.9-1.2-1.6-1.8.4-.7.2-.8-.5-.4-.9.6-.9 1.1 0 2.2 1.6 1.9.4 1.8-1.5-.2-.9-.8-1.6-1.1-1.6-.5 0 .6-.9.3-2-.6-2.8-2.4-4.9-2.5-4.5-.2zm3.5 1c1.1 1.9 1 2-1 .9-1.1-.6-1.8-1.5-1.5-2.1.9-1.3 1.3-1.1 2.5 1.2zm24 0c1.1 1.9 1 2-1 .9-1.1-.6-1.8-1.5-1.5-2.1.9-1.3 1.3-1.1 2.5 1.2zm24 0c1.1 1.9 1 2-1 .9-1.1-.6-1.8-1.5-1.5-2.1.9-1.3 1.3-1.1 2.5 1.2zm24 0c1.1 1.9 1 2-1 .9-1.1-.6-1.8-1.5-1.5-2.1.9-1.3 1.3-1.1 2.5 1.2zm24 0c1.1 1.9 1 2-1 .9-1.1-.6-1.8-1.5-1.5-2.1.9-1.3 1.3-1.1 2.5 1.2zm24 0c1.1 1.9 1 2-1 .9-1.1-.6-1.8-1.5-1.5-2.1.9-1.3 1.3-1.1 2.5 1.2zm24 0c1.1 1.9 1 2-1 .9-1.1-.6-1.8-1.5-1.5-2.1.9-1.3 1.3-1.1 2.5 1.2zm24 0c1.1 1.9 1 2-1 .9-1.1-.6-1.8-1.5-1.5-2.1.9-1.3 1.3-1.1 2.5 1.2zm24 0c1.1 1.9 1 2-1 .9-1.1-.6-1.8-1.5-1.5-2.1.9-1.3 1.3-1.1 2.5 1.2zm24 0c1.1 1.9 1 2-1 .9-1.1-.6-1.8-1.5-1.5-2.1.9-1.3 1.3-1.1 2.5 1.2zm24 0c1.1 1.9 1 2-1 .9-1.1-.6-1.8-1.5-1.5-2.1.9-1.3 1.3-1.1 2.5 1.2zm24 0c1.1 1.9 1 2-1 .9-1.1-.6-1.8-1.5-1.5-2.1.9-1.3 1.3-1.1 2.5 1.2zm24 0c1.1 1.9 1 2-1 .9-1.1-.6-1.8-1.5-1.5-2.1.9-1.3 1.3-1.1 2.5 1.2zm24 0c1.1 1.9 1 2-1 .9-1.1-.6-1.8-1.5-1.5-2.1.9-1.3 1.3-1.1 2.5 1.2zm24 0c1.1 1.9 1 2-1 .9-1.1-.6-1.8-1.5-1.5-2.1.9-1.3 1.3-1.1 2.5 1.2zm24 0c1.1 1.9 1 2-1 .9-1.1-.6-1.8-1.5-1.5-2.1.9-1.3 1.3-1.1 2.5 1.2zm24 0c1.1 1.9 1 2-1 .9-1.1-.6-1.8-1.5-1.5-2.1.9-1.3 1.3-1.1 2.5 1.2zm24 0c1.1 1.9 1 2-1 .9-1.1-.6-1.8-1.5-1.5-2.1.9-1.3 1.3-1.1 2.5 1.2zm24 0c1.1 1.9 1 2-1 .9-1.1-.6-1.8-1.5-1.5-2.1.9-1.3 1.3-1.1 2.5 1.2zm24 0c1.1 1.9 1 2-1 .9-1.1-.6-1.8-1.5-1.5-2.1.9-1.3 1.3-1.1 2.5 1.2zm24 0c1.1 1.9 1 2-1 .9-1.1-.6-1.8-1.5-1.5-2.1.9-1.3 1.3-1.1 2.5 1.2zm24 0c1.1 1.9 1 2-1 .9-1.1-.6-1.8-1.5-1.5-2.1.9-1.3 1.3-1.1 2.5 1.2zm24 0c1.1 1.9 1 2-1 .9-1.1-.6-1.8-1.5-1.5-2.1.9-1.3 1.3-1.1 2.5 1.2zm24 0c1.1 1.9 1 2-1 .9-1.1-.6-1.8-1.5-1.5-2.1.9-1.3 1.3-1.1 2.5 1.2zm24 0c1.1 1.9 1 2-1 .9-1.1-.6-1.8-1.5-1.5-2.1.9-1.3 1.3-1.1 2.5 1.2zm24 0c1.1 1.9 1 2-1 .9-1.1-.6-1.8-1.5-1.5-2.1.9-1.3 1.3-1.1 2.5 1.2zm24 0c1.1 1.9 1 2-1 .9-1.1-.6-1.8-1.5-1.5-2.1.9-1.3 1.3-1.1 2.5 1.2zm24 0c1.1 1.9 1 2-1 .9-1.1-.6-1.8-1.5-1.5-2.1.9-1.3 1.3-1.1 2.5 1.2zm24 0c1.1 1.9 1 2-1 .9-1.1-.6-1.8-1.5-1.5-2.1.9-1.3 1.3-1.1 2.5 1.2zm24 0c1.1 1.9 1 2-1 .9-1.1-.6-1.8-1.5-1.5-2.1.9-1.3 1.3-1.1 2.5 1.2zm24 0c1.1 1.9 1 2-1 .9-1.1-.6-1.8-1.5-1.5-2.1.9-1.3 1.3-1.1 2.5 1.2zm24 0c1.1 1.9 1 2-1 .9-1.1-.6-1.8-1.5-1.5-2.1.9-1.3 1.3-1.1 2.5 1.2zm24 0c1.1 1.9 1 2-1 .9-1.1-.6-1.8-1.5-1.5-2.1.9-1.3 1.3-1.1 2.5 1.2zm24 0c1.1 1.9 1 2-1 .9-1.1-.6-1.8-1.5-1.5-2.1.9-1.3 1.3-1.1 2.5 1.2zm24 0c1.1 1.9 1 2-1 .9-1.1-.6-1.8-1.5-1.5-2.1.9-1.3 1.3-1.1 2.5 1.2zm24 0c1.1 1.9 1 2-1 .9-1.1-.6-1.8-1.5-1.5-2.1.9-1.3 1.3-1.1 2.5 1.2zm24 0c1.1 1.9 1 2-1 .9-1.1-.6-1.8-1.5-1.5-2.1.9-1.3 1.3-1.1 2.5 1.2zm24 0c1.1 1.9 1 2-1 .9-1.1-.6-1.8-1.5-1.5-2.1.9-1.3 1.3-1.1 2.5 1.2zM156.7 92.5c0 .8-.4 1.2-.9.9-.5-.3-.6-1-.3-1.5.9-1.3 1.2-1.1 1.2.6zm0 128c0 .8-.4 1.2-.9.9-.5-.3-.6-1-.3-1.5.9-1.3 1.2-1.1 1.2.6zm382.6 61.8c.3.8-.1 1.4-.8 1.4-.7 0-1.1-.6-.8-1.4.3-.7.6-1.3.8-1.3.2 0 .5.6.8 1.3zm25.4.9c0 1.3-.1 1.7-.4 1-.3-.6-.9-1-1.4-.7-.5.4-.6-.1-.3-.9.9-2.3 2-1.9 2.1.6zm38.6-.9c.3.8-.1 1.4-.8 1.4-.7 0-1.1-.6-.8-1.4.3-.7.6-1.3.8-1.3.2 0 .5.6.8 1.3zm25.4.9c0 1.3-.1 1.7-.4 1-.3-.6-.9-1-1.4-.7-.5.4-.6-.1-.3-.9.9-2.3 2-1.9 2.1.6zm38.6-.9c.3.8-.1 1.4-.8 1.4-.7 0-1.1-.6-.8-1.4.3-.7.6-1.3.8-1.3.2 0 .5.6.8 1.3zm25.4.9c0 1.3-.1 1.7-.4 1-.3-.6-.9-1-1.4-.7-.5.4-.6-.1-.3-.9.9-2.3 2-1.9 2.1.6zm38.6-.9c.3.8-.1 1.4-.8 1.4-.7 0-1.1-.6-.8-1.4.3-.7.6-1.3.8-1.3.2 0 .5.6.8 1.3zm25.4.9c0 1.3-.1 1.7-.4 1-.3-.6-.9-1-1.4-.7-.5.4-.6-.1-.3-.9.9-2.3 2-1.9 2.1.6zm13.5-1.5c-.6.3-1 .8-.8 1.2.3.4-.1.8-.9.8-2.6 0-2.3-2.2.4-2.3 1.4-.1 2 .1 1.3.3zm9.2.6c-.3.8-1.2 1.4-2.1 1.4-1.3 0-1.3-.2.3-1.4 1-.7 1.9-1.3 2.1-1.3.1 0 0 .6-.3 1.3zm16 0c-.3.8-1.2 1.4-2.1 1.4-1.3 0-1.3-.2.3-1.4 1-.7 1.9-1.3 2.1-1.3.1 0 0 .6-.3 1.3zm70.8-.6c-.6.2-1 .9-.7 1.4.4.5-.1.6-1 .2-1.3-.5-1.4-.7-.3-1.4.7-.5 1.8-.8 2.3-.8.6 0 .4.3-.3.6zm9.2.6c-.3.8-1.2 1.4-2.1 1.4-1.3 0-1.3-.2.3-1.4 1-.7 1.9-1.3 2.1-1.3.1 0 0 .6-.3 1.3zm16 0c-.3.8-1.2 1.4-2.1 1.4-1.3 0-1.3-.2.3-1.4 1-.7 1.9-1.3 2.1-1.3.1 0 0 .6-.3 1.3zm70.8-.6c-.6.2-1 .9-.7 1.4.4.5-.1.6-1 .2-1.3-.5-1.4-.7-.3-1.4.7-.5 1.8-.8 2.3-.8.6 0 .4.3-.3.6zm9.2.6c-.3.8-1.2 1.4-2.1 1.4-1.3 0-1.3-.2.3-1.4 1-.7 1.9-1.3 2.1-1.3.1 0 0 .6-.3 1.3zm16 0c-.3.8-1.2 1.4-2.1 1.4-1.3 0-1.3-.2.3-1.4 1-.7 1.9-1.3 2.1-1.3.1 0 0 .6-.3 1.3zm70.8-.6c-.6.2-1 .9-.7 1.4.4.5-.1.6-1 .2-1.3-.5-1.4-.7-.3-1.4.7-.5 1.8-.8 2.3-.8.6 0 .4.3-.3.6zm9.2.6c-.3.8-1.2 1.4-2.1 1.4-1.3 0-1.3-.2.3-1.4 1-.7 1.9-1.3 2.1-1.3.1 0 0 .6-.3 1.3zM812 284.4c0 .3-.4.8-1 1.1-.5.3-1 .1-1-.4 0-.6.5-1.1 1-1.1.6 0 1 .2 1 .4zm96 0c0 .3-.4.8-1 1.1-.5.3-1 .1-1-.4 0-.6.5-1.1 1-1.1.6 0 1 .2 1 .4zm96 0c0 .3-.4.8-1 1.1-.5.3-1 .1-1-.4 0-.6.5-1.1 1-1.1.6 0 1 .2 1 .4zm-528.4 99.5c0 1.6-.3 1.7-1.4.9-1.2-1-.7-1.9 1.3-2.8.1 0 .1.9.1 1.9zm-.5 32.8c1.3 1.6 1.2 1.7-.3.4-1-.7-1.8-1.5-1.8-1.7 0-.8.8-.3 2.1 1.3zm-318.4 27.8c0 .8-.4 1.2-.9.9-.5-.3-.6-1-.3-1.5.9-1.3 1.2-1.1 1.2.6zM621 508.2c0 .6-.6.5-1.5-.2-.8-.7-1.5-1.4-1.5-1.6 0-.2.7-.1 1.5.2.8.4 1.5 1.1 1.5 1.6zm-464.3 32.3c0 .8-.4 1.2-.9.9-.5-.3-.6-1-.3-1.5.9-1.3 1.2-1.1 1.2.6zm318.7 21c-.2 2.6.1 3.5 1.2 3.5.8 0 1.2.5.9 1.1-.5.7-1.3.5-2.4-.5-1-.9-2-1.5-2.2-1.4-.2.2.1-.2.8-.8 1-.8 1-1.3 0-2.3-.9-.9-.9-1.4.3-2.1l1.6-1c.1 0 0 1.6-.2 3.5zm10 3.9c-1 .8-2.1 1.2-2.4 1-.5-.6 2.1-2.4 3.4-2.4.6 0 .1.6-1 1.4zM798 583.9c0 .4-.6.8-1.3.8-.8 0-1.4-.6-1.4-1.3 0-.7.6-1 1.4-.7.7.3 1.3.8 1.3 1.2zm6.4 7c-.4.3-.9 0-1.1-.7-.3-.6-1-.9-1.5-.6-.7.4-.8.2-.4-.5.6-.9 1.1-.9 2.2 0 .8.6 1.2 1.5.8 1.8zm-647.7 45.6c0 .8-.4 1.2-.9.9-.5-.3-.6-1-.3-1.5.9-1.3 1.2-1.1 1.2.6zm647.6 27.2c-.3.7-.6 1.3-.8 1.3-.2 0-.5-.6-.8-1.3-.3-.8.1-1.4.8-1.4.7 0 1.1.6.8 1.4zm-45 19.8c.4.8.2 1.7-.3 2-.6.4-1-.3-1-1.4 0-2.5.6-2.7 1.3-.6zm-38.2 19.2c1.2 1.6 1.2 1.7-.2.6-.9-.7-2-.9-2.4-.5-.5.4-.5.1-.1-.6.9-1.6 1.1-1.5 2.7.5zm-563.4 10.5c-.3.8-.6.5-.6-.6-.1-1.1.2-1.7.5-1.3.3.3.4 1.2.1 1.9zm547.3-1.7c0 .7-3 1.3-3.4.7-.3-.4.4-.9 1.5-.9 1-.1 1.9 0 1.9.2zm-15.5 7.5c-.8 1.3-4.2 1.8-4.2.6 0-.6 1.1-1.2 2.4-1.2 1.2-.1 2.1.2 1.8.6zm-13.2 7.3c-.3.4-.6.7-.7.5-.1-.2-.8-1.2-1.6-2.2-1.4-1.8-1.4-1.8.7-.6 1.2.8 1.9 1.8 1.6 2.3zm-11.3 4.1c0 .3-.4.8-1 1.1-.5.3-1 .1-1-.4 0-.6.5-1.1 1-1.1.6 0 1 .2 1 .4zm-13 6.9c0 .2-.8.3-1.8.3s-1.9-.6-1.9-1.3c0-.8.6-.9 1.9-.2 1 .5 1.8 1.1 1.8 1.2zm-161 76.6c0 .6-.4 1.2-.8 1.5-.5.3-.9-.1-.9-.9s.4-1.5.9-1.5c.4 0 .8.4.8.9zm-14 13.5c0 .2-.7.7-1.6 1-.8.3-1.2.2-.9-.4.6-1 2.5-1.4 2.5-.6zm11.4 7.4c.2.4-.5.9-1.7.9-1.7.2-1.9 0-.7-.7 1.8-1.2 1.8-1.2 2.4-.2zm-331.7 25.7c0 .8-.4 1.2-.9.9-.5-.3-.6-1-.3-1.5.9-1.3 1.2-1.1 1.2.6zm386.7 9.3c.3.5-.1.9-.9.9s-1.2-.4-.9-.9c.3-.4.7-.8.9-.8.2 0 .6.4.9.8zm31.6 19.8c0 .1-.5.6-1.2 1s-.8.3-.4-.4c.7-1.2-.3-1.5-3.4-1.3-1 0-1.1-.1-.2-.5.6-.3.9-1 .6-1.6-.4-.5.5-.2 2 .7 1.4 1 2.6 1.9 2.6 2.1zm54 34.4c0 .5-.5 1-1.1 1-.5 0-.7-.5-.4-1 .3-.6.8-1 1.1-1 .2 0 .4.4.4 1zm47 29.4c0 .3-.4.8-1 1.1-.5.3-1 .1-1-.4 0-.6.5-1.1 1-1.1.6 0 1 .2 1 .4zm14.5 9.5c.3.5.2 1.2-.3 1.5-.5.3-.9-.1-.9-.9 0-1.7.3-1.9 1.2-.6zm-213 13.1c.3.6-.1.7-.9.4-1.8-.7-2.1-1.4-.7-1.4.6 0 1.3.4 1.6 1zm213.7 6.4c.7-.4.8-.2.4.5-.9 1.3-2.6.5-2.5-1.2 0-.9.2-.8.6.1.2.6 1 .9 1.5.6zm-534.5 6.1c0 .8-.4 1.2-.9.9-.5-.3-.6-1-.3-1.5.9-1.3 1.2-1.1 1.2.6zm528.7 109.4c.3.4-.1 1.7-1 2.7-1.4 1.8-1.5 1.8-.5-.3.8-1.6.8-2.3-.2-2.6-.9-.4-.9-.6 0-.6.6-.1 1.4.3 1.7.8zm-.4 5.6c-.7.9-1.5 1.3-1.9 1-.3-.3.1-1 .9-1.5 2.1-1.4 2.4-1.2 1 .5zm-1.3 27.9c0 .8-.6 1.2-1.5.9-1.1-.5-1.1-.7 0-1.4.7-.5 1.3-.9 1.4-.9 0 0 .1.6.1 1.4zm-179.5 2c.7-.4.8-.2.4.4-.8 1.4-4.6-.2-4.6-1.9 0-.6.7-.3 1.6.5.8.9 2 1.3 2.6 1zm12.8 6.8c0 .4-.4.8-.9.8-.6 0-1.2-.4-1.5-.8-.3-.5.1-.9.9-.9s1.5.4 1.5.9zM387.5 1152c-.3.5-1.2 1-1.8 1-.7 0-.6-.4.3-1 1.9-1.2 2.3-1.2 1.5 0zm-208.1 1.8c.3.5-.1.9-.9.9s-1.5-.4-1.5-.9c0-.4.4-.8.9-.8.6 0 1.2.4 1.5.8zm4.1.1c.3.5 0 1.3-.6 1.7-.7.4-.9.3-.5-.4.3-.5 0-1.3-.6-1.5-.9-.4-1-.6-.1-.6.6-.1 1.4.3 1.8.8zm19.9-.1c.3.5-.1.9-.9.9s-1.5-.4-1.5-.9c0-.4.4-.8.9-.8.6 0 1.2.4 1.5.8zm4.1.1c.3.5 0 1.3-.6 1.7-.7.4-.9.3-.5-.4.3-.5 0-1.3-.6-1.5-.9-.4-1-.6-.1-.6.6-.1 1.4.3 1.8.8zm19.9-.1c.3.5-.1.9-.9.9s-1.5-.4-1.5-.9c0-.4.4-.8.9-.8.6 0 1.2.4 1.5.8zm4.1.1c.3.5 0 1.3-.6 1.7-.7.4-.9.3-.5-.4.3-.5 0-1.3-.6-1.5-.9-.4-1-.6-.1-.6.6-.1 1.4.3 1.8.8zm19.9-.1c.3.5-.1.9-.9.9s-1.5-.4-1.5-.9c0-.4.4-.8.9-.8.6 0 1.2.4 1.5.8zm8.4 1.7c-.3.3-.9-.2-1.2-1.2-.6-1.4-.5-1.5.5-.6.7.7 1 1.5.7 1.8zm8 0c-.3.3-.9-.2-1.2-1.2-.6-1.4-.5-1.5.5-.6.7.7 1 1.5.7 1.8zm8 0c-.3.3-.9-.2-1.2-1.2-.6-1.4-.5-1.5.5-.6.7.7 1 1.5.7 1.8zm8 0c-.3.3-.9-.2-1.2-1.2-.6-1.4-.5-1.5.5-.6.7.7 1 1.5.7 1.8zm8 0c-.3.3-.9-.2-1.2-1.2-.6-1.4-.5-1.5.5-.6.7.7 1 1.5.7 1.8zm8 0c-.3.3-.9-.2-1.2-1.2-.6-1.4-.5-1.5.5-.6.7.7 1 1.5.7 1.8zm8 0c-.3.3-.9-.2-1.2-1.2-.6-1.4-.5-1.5.5-.6.7.7 1 1.5.7 1.8zm8 0c-.3.3-.9-.2-1.2-1.2-.6-1.4-.5-1.5.5-.6.7.7 1 1.5.7 1.8zm8 0c-.3.3-.9-.2-1.2-1.2-.6-1.4-.5-1.5.5-.6.7.7 1 1.5.7 1.8zm8 0c-.3.3-.9-.2-1.2-1.2-.6-1.4-.5-1.5.5-.6.7.7 1 1.5.7 1.8zm8 0c-.3.3-.9-.2-1.2-1.2-.6-1.4-.5-1.5.5-.6.7.7 1 1.5.7 1.8zm8 0c-.3.3-.9-.2-1.2-1.2-.6-1.4-.5-1.5.5-.6.7.7 1 1.5.7 1.8zm8 0c-.3.3-.9-.2-1.2-1.2-.6-1.4-.5-1.5.5-.6.7.7 1 1.5.7 1.8zm8 0c-.3.3-.9-.2-1.2-1.2-.6-1.4-.5-1.5.5-.6.7.7 1 1.5.7 1.8zm8 0c-.3.3-.9-.2-1.2-1.2-.6-1.4-.5-1.5.5-.6.7.7 1 1.5.7 1.8zm8 0c-.3.3-.9-.2-1.2-1.2-.6-1.4-.5-1.5.5-.6.7.7 1 1.5.7 1.8zm23.6-1.7c.3.5-.1.9-.9.9s-1.5-.4-1.5-.9c0-.4.4-.8.9-.8.6 0 1.2.4 1.5.8zm4.1.1c.3.5 0 1.3-.6 1.7-.7.4-.9.3-.5-.4.3-.5 0-1.3-.6-1.5-.9-.4-1-.6-.1-.6.6-.1 1.4.3 1.8.8zm19.9-.1c.3.5-.1.9-.9.9s-1.5-.4-1.5-.9c0-.4.4-.8.9-.8.6 0 1.2.4 1.5.8zm4.1.1c.3.5 0 1.3-.6 1.7-.7.4-.9.3-.5-.4.3-.5 0-1.3-.6-1.5-.9-.4-1-.6-.1-.6.6-.1 1.4.3 1.8.8zm19.9-.1c.3.5-.1.9-.9.9s-1.5-.4-1.5-.9c0-.4.4-.8.9-.8.6 0 1.2.4 1.5.8zm4.1.1c.3.5 0 1.3-.6 1.7-.7.4-.9.3-.5-.4.3-.5 0-1.3-.6-1.5-.9-.4-1-.6-.1-.6.6-.1 1.4.3 1.8.8zm91.2 2.8c0 .9-.4 1-1.2.3-.7-.5-1.5-.7-1.8-.3-.4.3-.7.1-.7-.5s.8-1 1.8-.9c1 0 1.9.7 1.9 1.4zm16.3 9.3c0 .5-.2 1-.4 1-.3 0-.8-.5-1.1-1-.3-.6-.1-1 .4-1 .6 0 1.1.4 1.1 1zm32.1 17.3c-1 .9-1.1.8-.5-.6.3-1 .9-1.5 1.2-1.2.3.3 0 1.1-.7 1.8zm7.9 4.6c-.1 1.4-.2 1.4-1.1-.2-.6-.9-1.5-1.4-2.1-1.1-.7.4-.8.2-.4-.4.9-1.6 3.6-.3 3.6 1.7zm78.4 3.7c-2 3-2.9 3.2-1.2.1.7-1.2 1.1-2.6 1-3-.1-.5.2-.6.8-.2.6.4.4 1.5-.6 3.1zm.6 5.8c0 1.1-1.9 1.5-2.5.6-.3-.5.1-1 .9-1 .9 0 1.6.2 1.6.4zm-3.2 3.1c-.3.3-.9-.2-1.2-1.2-.6-1.4-.5-1.5.5-.6.7.7 1 1.5.7 1.8zm3.2 4c0 .2-1 1-2.2 1.6-2.1 1.1-2.2 1.1-.9-.4 1.3-1.6 3.1-2.3 3.1-1.2zm-33.5 7.5c.3.5.1 1-.4 1-.6 0-1.1-.5-1.1-1 0-.6.2-1 .4-1 .3 0 .8.4 1.1 1z"/><path d="M1073.3 2.5c-.3.9-.3 1.8-.1 2.1.3.3.8-.4 1.1-1.6.6-2.3-.1-2.7-1-.5zM154.4 7.1c0 1.3.3 1.5 1.3.7.7-.6 1.3-1.2 1.3-1.3 0-.2-.6-.5-1.3-.8-.7-.3-1.3.3-1.3 1.4zm0 18c-.3.6-.2 1.5.3 2s.9.1.9-1.1c0-2.3-.2-2.4-1.2-.9zm922 28.9c0 1.3.4 1.6 1 1 .7-.7.7-1.3 0-2-.6-.6-1-.3-1 1zm0 16c0 1.3.4 1.6 1 1 .7-.7.7-1.3 0-2-.6-.6-1-.3-1 1zM155 88c0 .5.5 1 1.1 1 .5 0 .7-.5.4-1-.3-.6-.8-1-1.1-1-.2 0-.4.4-.4 1zm-.6 17.1c-.3.6-.2 1.5.3 2s.9.1.9-1.1c0-2.3-.2-2.4-1.2-.9zm922 12.9c0 1.3.4 1.6 1 1 .7-.7.7-1.3 0-2-.6-.6-1-.3-1 1zm-922 3.1c-.3.6-.2 1.5.3 2s.9.1.9-1.1c0-2.3-.2-2.4-1.2-.9zm922 12.9c0 1.3.4 1.6 1 1 .7-.7.7-1.3 0-2-.6-.6-1-.3-1 1zm-922 3.1c-.3.6-.2 1.5.3 2s.9.1.9-1.1c0-2.3-.2-2.4-1.2-.9zm0 16c-.3.6-.2 1.5.3 2s.9.1.9-1.1c0-2.3-.2-2.4-1.2-.9zm922 28.9c0 1.3.4 1.6 1 1 .7-.7.7-1.3 0-2-.6-.6-1-.3-1 1zm0 16c0 1.3.4 1.6 1 1 .7-.7.7-1.3 0-2-.6-.6-1-.3-1 1zM155 216c0 .5.5 1 1.1 1 .5 0 .7-.5.4-1-.3-.6-.8-1-1.1-1-.2 0-.4.4-.4 1zm-.6 17.1c-.3.6-.2 1.5.3 2s.9.1.9-1.1c0-2.3-.2-2.4-1.2-.9zm922 12.9c0 1.3.4 1.6 1 1 .7-.7.7-1.3 0-2-.6-.6-1-.3-1 1zm-922 3.1c-.3.6-.2 1.5.3 2s.9.1.9-1.1c0-2.3-.2-2.4-1.2-.9zm922 12.9c0 1.3.4 1.6 1 1 .7-.7.7-1.3 0-2-.6-.6-1-.3-1 1zm1 11.8c.3.5 0 1.3-.6 1.5-.9.4-1 .6-.1.6 1.7.1 2.5-1.6 1.2-2.5-.7-.4-.9-.3-.5.4zm-557.7 8.9c-1.2 1.2-.7 2.2 1.6 3.3 2 1 2 1 .5-.3-2-1.6-2.5-3.2-.6-2.1.7.4.8.3.4-.4-.8-1.4-1-1.4-1.9-.5zm32 0c-1.2 1.2-.7 2.2 1.6 3.3 2 1 2 1 .5-.3-2-1.6-2.5-3.2-.6-2.1.7.4.8.3.4-.4-.8-1.4-1-1.4-1.9-.5zm32 0c-1.2 1.2-.7 2.2 1.6 3.3 2 1 2 1 .5-.3-2-1.6-2.5-3.2-.6-2.1.7.4.8.3.4-.4-.8-1.4-1-1.4-1.9-.5zm32 0c-1.2 1.2-.7 2.2 1.6 3.3 2 1 2 1 .5-.3-2-1.6-2.5-3.2-.6-2.1.7.4.8.3.4-.4-.8-1.4-1-1.4-1.9-.5zm32 0c-1.2 1.2-.7 2.2 1.6 3.3 2 1 2 1 .5-.3-2-1.6-2.5-3.2-.6-2.1.7.4.8.3.4-.4-.8-1.4-1-1.4-1.9-.5zm32 0c-1.2 1.2-.7 2.2 1.6 3.3 2 1 2 1 .5-.3-2-1.6-2.5-3.2-.6-2.1.7.4.8.3.4-.4-.8-1.4-1-1.4-1.9-.5zm32 0c-1.2 1.2-.7 2.2 1.6 3.3 2 1 2 1 .5-.3-2-1.6-2.5-3.2-.6-2.1.7.4.8.3.4-.4-.8-1.4-1-1.4-1.9-.5zm32 0c-1.2 1.2-.7 2.2 1.6 3.3 2 1 2 1 .5-.3-2-1.6-2.5-3.2-.6-2.1.7.4.8.3.4-.4-.8-1.4-1-1.4-1.9-.5zm59.8.3c-.4.6-1.4.9-2.2.8-.9-.2-1.7.3-1.9 1-.1.7 0 .8.3.2.3-.6 1.1-.6 2.5.1 1.6.9 1.9.8 1.3-.2-.6-.9-.3-1.1.8-.6 1 .3 1.7.2 1.7-.3 0-1.4-1.8-2.1-2.5-1zm20.2-.3c-1.2 1.2-.7 2.2 1.6 3.3 2 1 2 1 .5-.3-2-1.6-2.5-3.2-.6-2.1.7.4.8.3.4-.4-.8-1.4-1-1.4-1.9-.5zm75.8.3c-.4.6-1.4.9-2.2.8-.9-.2-1.7.3-1.9 1-.1.7 0 .8.3.2.3-.6 1.1-.6 2.5.1 1.6.9 1.9.8 1.3-.2-.6-.9-.3-1.1.8-.6 1 .3 1.7.2 1.7-.3 0-1.4-1.8-2.1-2.5-1zm20.2-.3c-1.2 1.2-.7 2.2 1.6 3.3 2 1 2 1 .5-.3-2-1.6-2.5-3.2-.6-2.1.7.4.8.3.4-.4-.8-1.4-1-1.4-1.9-.5zm75.8.3c-.4.6-1.4.9-2.2.8-.9-.2-1.7.3-1.9 1-.1.7 0 .8.3.2.3-.6 1.1-.6 2.5.1 1.6.9 1.9.8 1.3-.2-.6-.9-.3-1.1.8-.6 1 .3 1.7.2 1.7-.3 0-1.4-1.8-2.1-2.5-1zm20.2-.3c-1.2 1.2-.7 2.2 1.6 3.3 2 1 2 1 .5-.3-2-1.6-2.5-3.2-.6-2.1.7.4.8.3.4-.4-.8-1.4-1-1.4-1.9-.5zm-529.1 1.5c.3.5 1 .6 1.5.3 1.3-.9 1.1-1.2-.6-1.2-.8 0-1.2.4-.9.9zm27.1.5c.3.7.6 1.3.8 1.3.2 0 .5-.6.8-1.3.3-.8-.1-1.4-.8-1.4-.7 0-1.1.6-.8 1.4zm2.9 0c-.6 1.4-.5 1.5.5.6.7-.7 1-1.5.7-1.8-.3-.3-.9.2-1.2 1.2zm12-.9c-.3.4.4.9 1.5.9 2.3.2 2.5-.3.4-1-.8-.4-1.6-.3-1.9.1zm4.4.1c0 .5.7 1.2 1.6 1.5 1.4.5 1.5.4.4-.9-1.4-1.7-2-1.9-2-.6zm12.7.8c.3.7.6 1.3.8 1.3.2 0 .5-.6.8-1.3.3-.8-.1-1.4-.8-1.4-.7 0-1.1.6-.8 1.4zm2.9 0c-.6 1.4-.5 1.5.5.6.7-.7 1-1.5.7-1.8-.3-.3-.9.2-1.2 1.2zm29.1 0c.3.7.6 1.3.8 1.3.2 0 .5-.6.8-1.3.3-.8-.1-1.4-.8-1.4-.7 0-1.1.6-.8 1.4zm2.9 0c-.6 1.4-.5 1.5.5.6.7-.7 1-1.5.7-1.8-.3-.3-.9.2-1.2 1.2zm12-.9c-.3.4.4.9 1.5.9 2.3.2 2.5-.3.4-1-.8-.4-1.6-.3-1.9.1zm4.4.1c0 .5.7 1.2 1.6 1.5 1.4.5 1.5.4.4-.9-1.4-1.7-2-1.9-2-.6zm12.7.8c.3.7.6 1.3.8 1.3.2 0 .5-.6.8-1.3.3-.8-.1-1.4-.8-1.4-.7 0-1.1.6-.8 1.4zm2.9 0c-.6 1.4-.5 1.5.5.6.7-.7 1-1.5.7-1.8-.3-.3-.9.2-1.2 1.2zm29.1 0c.3.7.6 1.3.8 1.3.2 0 .5-.6.8-1.3.3-.8-.1-1.4-.8-1.4-.7 0-1.1.6-.8 1.4zm2.9 0c-.6 1.4-.5 1.5.5.6.7-.7 1-1.5.7-1.8-.3-.3-.9.2-1.2 1.2zm12-.9c-.3.4.4.9 1.5.9 2.3.2 2.5-.3.4-1-.8-.4-1.6-.3-1.9.1zm4.4.1c0 .5.7 1.2 1.6 1.5 1.4.5 1.5.4.4-.9-1.4-1.7-2-1.9-2-.6zm12.7.8c.3.7.6 1.3.8 1.3.2 0 .5-.6.8-1.3.3-.8-.1-1.4-.8-1.4-.7 0-1.1.6-.8 1.4zm2.9 0c-.6 1.4-.5 1.5.5.6.7-.7 1-1.5.7-1.8-.3-.3-.9.2-1.2 1.2zm29.1 0c.3.7.6 1.3.8 1.3.2 0 .5-.6.8-1.3.3-.8-.1-1.4-.8-1.4-.7 0-1.1.6-.8 1.4zm2.9 0c-.6 1.4-.5 1.5.5.6.7-.7 1-1.5.7-1.8-.3-.3-.9.2-1.2 1.2zm12-.9c-.3.4.4.9 1.5.9 2.3.2 2.5-.3.4-1-.8-.4-1.6-.3-1.9.1zm4.4.1c0 .5.7 1.2 1.6 1.5 1.4.5 1.5.4.4-.9-1.4-1.7-2-1.9-2-.6zm12.7.8c.3.7.6 1.3.8 1.3.2 0 .5-.6.8-1.3.3-.8-.1-1.4-.8-1.4-.7 0-1.1.6-.8 1.4zm2.9 0c-.6 1.4-.5 1.5.5.6.7-.7 1-1.5.7-1.8-.3-.3-.9.2-1.2 1.2zm31.5-.1c0 1.1.3 1.4.6.6.3-.7.2-1.6-.1-1.9-.3-.4-.6.2-.5 1.3zm11.4-.5c-.4.6-.5 1.2-.2 1.5.2.3.7-.2 1-1.1.7-1.7.1-2-.8-.4zm4.6.5c0 1.1.3 1.4.6.6.3-.7.2-1.6-.1-1.9-.3-.4-.6.2-.5 1.3zm29.6.1c.3.7.6 1.3.8 1.3.2 0 .5-.6.8-1.3.3-.8-.1-1.4-.8-1.4-.7 0-1.1.6-.8 1.4zm2.9 0c-.6 1.4-.5 1.5.5.6.7-.7 1-1.5.7-1.8-.3-.3-.9.2-1.2 1.2zm18-.5c.3.5 1 .6 1.5.3 1.3-.9 1.1-1.2-.6-1.2-.8 0-1.2.4-.9.9zm29.5.4c0 1.1.3 1.4.6.6.3-.7.2-1.6-.1-1.9-.3-.4-.6.2-.5 1.3zm11.4-.5c-.4.6-.5 1.2-.2 1.5.2.3.7-.2 1-1.1.7-1.7.1-2-.8-.4zm4.6.5c0 1.1.3 1.4.6.6.3-.7.2-1.6-.1-1.9-.3-.4-.6.2-.5 1.3zm29.6.1c.3.7.6 1.3.8 1.3.2 0 .5-.6.8-1.3.3-.8-.1-1.4-.8-1.4-.7 0-1.1.6-.8 1.4zm2.9 0c-.6 1.4-.5 1.5.5.6.7-.7 1-1.5.7-1.8-.3-.3-.9.2-1.2 1.2zm18-.5c.3.5 1 .6 1.5.3 1.3-.9 1.1-1.2-.6-1.2-.8 0-1.2.4-.9.9zm29.5.4c0 1.1.3 1.4.6.6.3-.7.2-1.6-.1-1.9-.3-.4-.6.2-.5 1.3zm11.4-.5c-.4.6-.5 1.2-.2 1.5.2.3.7-.2 1-1.1.7-1.7.1-2-.8-.4zm4.6.5c0 1.1.3 1.4.6.6.3-.7.2-1.6-.1-1.9-.3-.4-.6.2-.5 1.3zm29.6.1c.3.7.6 1.3.8 1.3.2 0 .5-.6.8-1.3.3-.8-.1-1.4-.8-1.4-.7 0-1.1.6-.8 1.4zm2.9 0c-.6 1.4-.5 1.5.5.6.7-.7 1-1.5.7-1.8-.3-.3-.9.2-1.2 1.2zm18-.5c.3.5 1 .6 1.5.3 1.3-.9 1.1-1.2-.6-1.2-.8 0-1.2.4-.9.9zm29.5.4c0 1.1.3 1.4.6.6.3-.7.2-1.6-.1-1.9-.3-.4-.6.2-.5 1.3zm-549.3 1.1c.7.3 1.6.2 1.9-.1.4-.3-.2-.6-1.3-.5-1.1 0-1.4.3-.6.6zm48.7.3c-.3.5-.1 1 .4 1 .6 0 1.1-.5 1.1-1 0-.6-.2-1-.4-1-.3 0-.8.4-1.1 1zm64 0c-.3.5-.1 1 .4 1 .6 0 1.1-.5 1.1-1 0-.6-.2-1-.4-1-.3 0-.8.4-1.1 1zm64 0c-.3.5-.1 1 .4 1 .6 0 1.1-.5 1.1-1 0-.6-.2-1-.4-1-.3 0-.8.4-1.1 1zm64 0c-.3.5-.1 1 .4 1 .6 0 1.1-.5 1.1-1 0-.6-.2-1-.4-1-.3 0-.8.4-1.1 1zm-275.9 4.7c-.6 1.4-.5 1.5.5.6.7-.7 1-1.5.7-1.8-.3-.3-.9.2-1.2 1.2zm.1 8.7c-.3.8 0 1.7.7 1.9 1 .4 1.2-.1.9-1.4-.6-2.3-.9-2.4-1.6-.5zm.3 18.6c-.9.6-1 1-.3 1 .6 0 1.5-.5 1.8-1 .8-1.2.4-1.2-1.5 0zm1.6 1.8c-.3.5.1.9.9.9s1.2-.4.9-.9c-.3-.4-.7-.8-.9-.8-.2 0-.6.4-.9.8zm-2.2 3.3c0 1 .4 1.9.8 1.9s.8-.6.8-1.4c0-.8-.4-1.7-.8-2-.4-.2-.8.4-.8 1.5zm.2 15.6c-.6 1.4-.5 1.5.5.6.7-.7 1-1.5.7-1.8-.3-.3-.9.2-1.2 1.2zm-.2 8.3c0 1.1.6 2.2 1.2 2.4.7.3 1-.3.7-1.5-.7-2.6-1.9-3.2-1.9-.9zm0 5c0 1.3.4 1.6 1 1 .7-.7.7-1.3 0-2-.6-.6-1-.3-1 1zm1.2 2.5c-1.1.8-1.5 1.5-.9 1.5s1.6-.7 2.3-1.5c1.6-1.9 1.1-1.9-1.4 0zm-1.8 8.7c.5.5 1.6.8 2.3.6.8-.3.3-.7-1-1.1-1.7-.4-2.1-.3-1.3.5zm1.8 7.3c-1.1.8-1.5 1.5-.9 1.5s1.6-.7 2.3-1.5c1.6-1.9 1.1-1.9-1.4 0zm-1.8 8.7c.5.5 1.6.8 2.3.6.8-.3.3-.7-1-1.1-1.7-.4-2.1-.3-1.3.5zM476 398c-.9.6-1 1-.3 1 .6 0 1.5-.5 1.8-1 .8-1.2.4-1.2-1.5 0zm.6 2.5c-1.1.8-1.5 1.5-.9 1.5s1.6-.7 2.3-1.5c1.6-1.9 1.1-1.9-1.4 0zm-1.1 3.5c-.3.5-.1 1 .4 1 .6 0 1.1-.5 1.1-1 0-.6-.2-1-.4-1-.3 0-.8.4-1.1 1zm.5 26c-.9.6-1 1-.3 1 .6 0 1.5-.5 1.8-1 .8-1.2.4-1.2-1.5 0zm.6 2.5c-1.1.8-1.5 1.5-.9 1.5s1.6-.7 2.3-1.5c1.6-1.9 1.1-1.9-1.4 0zm-1.1 3.5c-.3.5-.1 1 .4 1 .6 0 1.1-.5 1.1-1 0-.6-.2-1-.4-1-.3 0-.8.4-1.1 1zM155 440c0 .5.5 1 1.1 1 .5 0 .7-.5.4-1-.3-.6-.8-1-1.1-1-.2 0-.4.4-.4 1zm320.3 4.5c0 .8.4 1.2.9.9.4-.3.8 0 .8.7s.2 1 .5.7c.7-.7-.5-3.8-1.4-3.8-.4 0-.8.7-.8 1.5zm1.3 6c-1.1.8-1.5 1.5-.9 1.5s1.6-.7 2.3-1.5c1.6-1.9 1.1-1.9-1.4 0zm-322.2 6.6c-.3.6-.2 1.5.3 2s.9.1.9-1.1c0-2.3-.2-2.4-1.2-.9zm320.4 2.1c.5.5 1.6.8 2.3.6.8-.3.3-.7-1-1.1-1.7-.4-2.1-.3-1.3.5zm1.8 7.3c-1.1.8-1.5 1.5-.9 1.5s1.6-.7 2.3-1.5c1.6-1.9 1.1-1.9-1.4 0zm-322.2 6.6c-.3.6-.2 1.5.3 2s.9.1.9-1.1c0-2.3-.2-2.4-1.2-.9zm320.4 2.1c.5.5 1.6.8 2.3.6.8-.3.3-.7-1-1.1-1.7-.4-2.1-.3-1.3.5zm.8 7.5c-.6 1.4-.5 1.5.5.6.7-.7 1-1.5.7-1.8-.3-.3-.9.2-1.2 1.2zm.1 8.7c-.3.8 0 1.7.7 1.9 1 .4 1.2-.1.9-1.4-.6-2.3-.9-2.4-1.6-.5zm164.9 5.1c-1 .8-2.3 1.2-2.9.8-.6-.3-.7-.1-.3.5.8 1.3 3.9.1 5.1-1.8.8-1.3.4-1.2-1.9.5zm-14 6.7c.3.5 1 .6 1.5.3 1.3-.9 1.1-1.2-.6-1.2-.8 0-1.2.4-.9.9zM476 510c-.9.6-1 1-.3 1 .6 0 1.5-.5 1.8-1 .8-1.2.4-1.2-1.5 0zm131.6.8c-.3.5.1.9.9.9s1.2-.4.9-.9c-.3-.4-.7-.8-.9-.8-.2 0-.6.4-.9.8zm-130 1c-.3.5.1.9.9.9s1.2-.4.9-.9c-.3-.4-.7-.8-.9-.8-.2 0-.6.4-.9.8zm-2.2 3.3c0 1 .4 1.9.8 1.9s.8-.6.8-1.4c0-.8-.4-1.7-.8-2-.4-.2-.8.4-.8 1.5zm92.1 11.8c-.8.7-.6 2.1.3 2.1.5 0 1.6-.6 2.6-1.3 1.6-1.2 1.6-1.3-.4-1.3-1.1 0-2.3.2-2.5.5zm-91.9 3.8c-.6 1.4-.5 1.5.5.6.7-.7 1-1.5.7-1.8-.3-.3-.9.2-1.2 1.2zm85-.1c-.5 1.4-.9 1.4-2.4.3-1.5-1.3-1.6-1.2-.3.4s1.6 1.6 3 .3c.8-.9 1.2-1.8.9-2.1-.3-.3-.8.2-1.2 1.1zm194 4.1c-.6 1.4-.5 1.5.5.6.7-.7 1-1.5.7-1.8-.3-.3-.9.2-1.2 1.2zM155 536c0 .5.5 1 1.1 1 .5 0 .7-.5.4-1-.3-.6-.8-1-1.1-1-.2 0-.4.4-.4 1zm320.4 3c0 1.1.6 2.2 1.2 2.4.7.3 1-.3.7-1.5-.7-2.6-1.9-3.2-1.9-.9zm0 5c0 1.3.4 1.6 1 1 .7-.7.7-1.3 0-2-.6-.6-1-.3-1 1zm286.6.1c0 .5.5.7 1 .4.6-.3 1-.8 1-1.1 0-.2-.4-.4-1-.4-.5 0-1 .5-1 1.1zm-285.4 2.4c-1.1.8-1.5 1.5-.9 1.5s1.6-.7 2.3-1.5c1.6-1.9 1.1-1.9-1.4 0zm290.4-.6c0 .6.4 1.3 1 1.6.6.3.7-.1.4-.9-.7-1.8-1.4-2.1-1.4-.7zm-255.2 4.8c.7.3 1.6.2 1.9-.1.4-.3-.2-.6-1.3-.5-1.1 0-1.4.3-.6.6zm-357.4 2.4c-.3.6-.2 1.5.3 2s.9.1.9-1.1c0-2.3-.2-2.4-1.2-.9zm320.4 2.1c.5.5 1.6.8 2.3.6.8-.3.3-.7-1-1.1-1.7-.4-2.1-.3-1.3.5zm15.7 5.8c-.4.6-1.1.7-1.7.4-.7-.4-.8-.2-.4.5.6.9 1.1.9 2.2 0 1.4-1.1 1.8-1.9 1-1.9-.3 0-.8.5-1.1 1zm-336.1 8.1c-.3.6-.2 1.5.3 2s.9.1.9-1.1c0-2.3-.2-2.4-1.2-.9zm651.8 22.8c-1.1.7-1.1.9 0 1.4.9.3 1.5-.1 1.5-.9s-.1-1.4-.1-1.4c-.1 0-.7.4-1.4.9zm14.8 17.6c1.9 2.3 5 3.8 5 2.5 0-.5-.7-1-1.5-1s-1.5-.4-1.5-.9-.7-1.2-1.6-1.5c-1.4-.6-1.5-.4-.4.9zm6 3.9c0 .2.7.7 1.6 1 .8.3 1.2.2.9-.4-.6-1-2.5-1.4-2.5-.6zM155 632c0 .5.5 1 1.1 1 .5 0 .7-.5.4-1-.3-.6-.8-1-1.1-1-.2 0-.4.4-.4 1zm688 14.1c0 .5.5.7 1 .4.6-.3 1-.8 1-1.1 0-.2-.4-.4-1-.4-.5 0-1 .5-1 1.1zM740.5 696c-.3.6.1.7.9.4 1.8-.7 2.1-1.4.7-1.4-.6 0-1.3.4-1.6 1zm-9.9 2.5c-.3.8 0 1.7.6 2.1.6.4.8.3.4-.4-.3-.5-.1-1.2.6-1.4.8-.3.9-.6.1-1.1-.6-.4-1.3 0-1.7.8zm-576.3 6.2c.4.6.2 1.3-.5 1.5-.8.3-.6.6.4 1 1.7.7 1.9-1.5.3-2.9-.4-.4-.5-.3-.2.4zm502.8 29.7c-.8 1-.9 1.6-.1 2.1.5.3 1 .5 1.1.3.4-1.8.7-3.8.4-3.8-.1 0-.8.6-1.4 1.4zm-16.1 7.1c-1.5.8-1.9 1.4-1 1.4 1.8.1 4.6-1.6 4-2.3-.3-.2-1.6.2-3 .9zm-21.3 11.2c-.4.3-.7 1.1-.7 1.7 0 .6.5.5 1.2-.2.6-.6.9-1.4.7-1.7-.3-.3-.9-.2-1.2.2zm-5.2 3.3c-.3.6.1.7.9.4 1.8-.7 2.1-1.4.7-1.4-.6 0-1.3.4-1.6 1zm-11 4c-.3.5-.1 1 .4 1 .6 0 1.1-.5 1.1-1 0-.6-.2-1-.4-1-.3 0-.8.4-1.1 1zm-449.1 17.1c-.3.6-.2 1.5.3 2s.9.1.9-1.1c0-2.3-.2-2.4-1.2-.9zm0 16c-.3.6-.2 1.5.3 2s.9.1.9-1.1c0-2.3-.2-2.4-1.2-.9zM527 798c0 .5.5 1 1 1 .6 0 1-.5 1-1 0-.6-.4-1-1-1-.5 0-1 .4-1 1zm-7.4 3.3c.3 1 .9 1.5 1.2 1.2.3-.3 0-1.1-.7-1.8-1-.9-1.1-.8-.5.6zm-8.8 6.4c.7.3 1.6.2 1.9-.1.4-.3-.2-.6-1.3-.5-1.1 0-1.4.3-.6.6zM155 856c0 .5.5 1 1.1 1 .5 0 .7-.5.4-1-.3-.6-.8-1-1.1-1-.2 0-.4.4-.4 1zm-.6 17.1c-.3.6-.2 1.5.3 2s.9.1.9-1.1c0-2.3-.2-2.4-1.2-.9zm0 16c-.3.6-.2 1.5.3 2s.9.1.9-1.1c0-2.3-.2-2.4-1.2-.9zm0 16c-.3.6-.2 1.5.3 2s.9.1.9-1.1c0-2.3-.2-2.4-1.2-.9zm457.6 6.8c0 .6.4 1.3 1 1.6.6.3.7-.1.4-.9-.7-1.8-1.4-2.1-1.4-.7zm-457.6 9.2c-.3.6-.2 1.5.3 2s.9.1.9-1.1c0-2.3-.2-2.4-1.2-.9zm487.2 9.6c-.6 1.4-.5 1.5.5.6.7-.7 1-1.5.7-1.8-.3-.3-.9.2-1.2 1.2zm4.4 3.2c0 .5 1.1 1.6 2.5 2.5 2.2 1.4 2.5 1.5 2.5.1 0-.8-.3-1.4-.7-1.4-2 .3-3.4-.2-2.8-1.1.3-.6.1-1-.4-1-.6 0-1.1.4-1.1.9zm25 16c0 .4 1.4.8 3.1.9 3.7.1 3.5-.5-.4-1.2-1.5-.2-2.7-.1-2.7.3zM155 960c0 .5.5 1 1.1 1 .5 0 .7-.5.4-1-.3-.6-.8-1-1.1-1-.2 0-.4.4-.4 1zm0 24c0 .5.5 1 1.1 1 .5 0 .7-.5.4-1-.3-.6-.8-1-1.1-1-.2 0-.4.4-.4 1zm-.6 17.1c-.3.6-.2 1.5.3 2s.9.1.9-1.1c0-2.3-.2-2.4-1.2-.9zm537.1 5c-.4.6-.5 1.2-.2 1.5.2.3.7-.2 1-1.1.7-1.7.1-2-.8-.4zm-2.2 6.5c0 .6.9.9 1.9.6 1-.2 1.8-.7 1.8-1.1 0-.4-.8-.7-1.8-.7s-1.9.5-1.9 1.2zm.7 3.2c0 .5.7.9 1.5.9s1.2-.4.9-.9c-.3-.4-.9-.8-1.5-.8-.5 0-.9.4-.9.8zm-535.6 1.3c-.3.6-.2 1.5.3 2s.9.1.9-1.1c0-2.3-.2-2.4-1.2-.9zm534.5 5.6c-.7 1-.9 1.5-.5 1.1.5-.4 1.5-.3 2.3.3.9.9 1.3.8 1.3 0 0-.6-.5-1.1-1.1-1.1-.5 0-.7-.5-.4-1 1-1.7-.2-1.1-1.6.7zm-.6 3.8c0 .8.4 1.2.9.9.5-.3.6-1 .3-1.5-.9-1.3-1.2-1.1-1.2.6zM687 1066c0 .5.5 1 1.1 1 .5 0 .7-.5.4-1-.3-.6-.8-1-1.1-1-.2 0-.4.4-.4 1zm-208.5 55.1c-.9 1.4-.2 2 1.4 1 .8-.6.9-1.1.3-1.5-.6-.3-1.4-.1-1.7.5zm205.5 15c0 .5.5.7 1 .4.6-.3 1-.8 1-1.1 0-.2-.4-.4-1-.4-.5 0-1 .5-1 1.1zm-174.7 2.4c0 .8.4 1.2.9.9.5-.3.6-1 .3-1.5-.9-1.3-1.2-1.1-1.2.6zM535 1152c0 .5.5 1 1.1 1 .5 0 .7-.5.4-1-.3-.6-.8-1-1.1-1-.2 0-.4.4-.4 1zm15.6 9.2c.3.5 1 .6 1.5.3 1.3-.9 1.1-1.2-.6-1.2-.8 0-1.2.4-.9.9zm130.7 47.3c0 .8.4 1.2.9.9.4-.3.8-.9.8-1.5 0-.5-.4-.9-.8-.9-.5 0-.9.7-.9 1.5zm-14.3 15.6c0 .5.5.7 1 .4.6-.3 1-.8 1-1.1 0-.2-.4-.4-1-.4-.5 0-1 .5-1 1.1z"/></svg>