<svg id="Component_2_2" data-name="Component 2 – 2" xmlns="http://www.w3.org/2000/svg" width="397.75" height="426.6" viewBox="0 0 397.75 426.6">
  <path id="Path_17" data-name="Path 17" d="M236.966,295.261l37.162,27.974L392,191.525,332.193,146.65ZM19.8,241.644v11.073c0,57.113,35.42,91.5,95.228,91.5s95.228-34.384,95.228-91.5V241.644c0-57.113-37.162-92.08-95.228-92.08C55.22,149.564,19.8,184.531,19.8,241.644Zm60.388-2.914c0-23.894,11.613-39.047,34.839-39.047s34.839,15.152,34.839,39.047v16.318c0,23.894-11.613,39.047-34.839,39.047s-34.839-15.152-34.839-39.047Zm146.906,230.2V480c0,57.113,35.42,91.5,95.228,91.5S417.55,537.117,417.55,480V468.931c0-57.113-37.162-92.08-95.228-92.08C262.515,376.851,227.095,411.818,227.095,468.931Zm-29.614-44.292-37.162-27.974L42.446,528.375l59.808,44.875Zm90,41.378c0-23.894,11.613-39.047,34.839-39.047s34.839,15.152,34.839,39.047v16.318c0,23.894-11.613,39.047-34.839,39.047s-34.839-15.152-34.839-39.047Z" transform="translate(-19.8 -146.65)" fill="#8041f9" opacity="0.495"/>
</svg>
