<?xml version="1.0" encoding="utf-8"?>
<!-- Generator: Adobe Illustrator 24.1.3, SVG Export Plug-In . SVG Version: 6.00 Build 0)  -->
<svg version="1.1" id="Layer_1" xmlns="http://www.w3.org/2000/svg" xmlns:xlink="http://www.w3.org/1999/xlink" x="0px" y="0px"
	 viewBox="0 0 407.67865 59.857399" style="enable-background:new 0 0 407.67865 59.857399;" xml:space="preserve">
<style type="text/css">
	.st0{fill:#5C2ECE;}
	.st1{fill:#FCFCFC;}
	.st2{fill:#8041F9;}
	.st3{fill:#020202;}
	.st4{fill:#FFFFFF;}
</style>
<g>
	<path class="st0" d="M377.280579,36.658512c-0.621948,0.132385-1.270416,0.132385-1.932098,0.132385
		c-1.773346,0-3.387848-0.344093-4.856781-1.032276c-0.251434-0.119057-0.502899-0.238197-0.74118-0.396996
		c-0.119049-0.066154-0.251343-0.132305-0.370483-0.211708l0.701355-5.267105L377.280579,36.658512z"/>
	<path class="st0" d="M379.689117,47.788181l-1.032196,5.161133l-12.161865,4.023129l1.296906-9.832703
		c0.132385,0.039658,0.251434,0.066151,0.38382,0.105812c2.223267,0.622028,4.578857,0.92638,7.053558,0.92638
		C376.764496,48.171932,378.246704,48.052876,379.689117,47.788181z"/>
	<path class="st1" d="M37.054638,12.175112V0.926382H0v46.318298h12.836802V30.702431h21.901922V19.983086H12.836802v-7.807974
		H37.054638z"/>
	<path class="st1" d="M55.701015,35.995953V0.926382h-12.8368v46.318298h35.268108v-11.24873H55.701015z"/>
	<path class="st1" d="M130.048492,14.623413c-1.257141-2.911452-2.990768-5.452319-5.200874-7.609435
		c-2.19677-2.157116-4.830284-3.877494-7.874123-5.134721C113.929733,0.622031,110.621284,0,107.048141,0
		c-3.573059,0-6.881508,0.622031-9.925346,1.879258c-3.043762,1.257227-5.690521,2.977605-7.940277,5.161133
		c-2.249687,2.183609-3.996559,4.75097-5.253784,7.675669c-1.257225,2.937865-1.879173,6.061023-1.879173,9.369472v0.132387
		c0,3.308449,0.621948,6.41836,1.879173,9.329811s2.990852,5.45232,5.18763,7.609436
		c2.210098,2.157116,4.843613,3.864246,7.887375,5.121475c3.03051,1.257225,6.338959,1.892422,9.925346,1.892422
		c3.573143,0,6.881592-0.635197,9.925346-1.892422c3.030518-1.257229,5.677277-2.977608,7.940285-5.161217
		c2.249763-2.183529,3.996635-4.73764,5.253777-7.675587c1.257233-2.924698,1.879257-6.047855,1.879257-9.356306v-0.132305
		C131.92775,20.644775,131.305725,17.534784,130.048492,14.623413z M118.839508,24.217918
		c0,1.680637-0.291191,3.268709-0.873482,4.764135c-0.569038,1.495426-1.363037,2.805559-2.382065,3.930479
		c-1.018951,1.124844-2.262932,2.024731-3.718697,2.68642c-1.455681,0.66169-3.070251,0.992535-4.843536,0.992535
		c-1.773361,0-3.387848-0.34409-4.843613-1.032192c-1.455688-0.674938-2.712914-1.588074-3.74511-2.739407
		c-1.045517-1.151335-1.85276-2.474716-2.421806-3.97014c-0.582291-1.495426-0.873474-3.083498-0.873474-4.764217v-0.132305
		c0-1.680719,0.277939-3.268791,0.833733-4.764217c0.555878-1.495344,1.349876-2.818724,2.395317-3.943645
		c1.032272-1.124841,2.276253-2.011563,3.705528-2.673254c1.442436-0.66169,3.043755-0.992535,4.817039-0.992535
		c1.773369,0,3.387848,0.344091,4.84362,1.019029c1.455681,0.688183,2.726158,1.601318,3.784843,2.752653
		s1.879181,2.474713,2.448219,3.97014c0.582291,1.495426,0.873482,3.083498,0.873482,4.764135V24.217918z"/>
	<path class="st1" d="M194.126602,0.926382l-8.072662,26.798445l-8.932816-26.93075h-11.050186l-8.932816,26.93075
		L149.06546,0.926382h-13.564651l15.483566,46.649143h11.182571l9.263672-26.666059l9.329803,26.666059h11.182571
		l15.483566-46.649143H194.126602z"/>
	<path class="st1" d="M248.252808,27.261675c-0.794006-1.561579-1.932083-2.898205-3.440765-3.996632
		c-1.495422-1.098429-3.308441-2.037977-5.452316-2.805559c-2.143875-0.767584-4.539185-1.44244-7.185944-2.011564
		c-1.588074-0.357258-2.898209-0.688103-3.930481-1.018948c-1.032196-0.330845-1.852676-0.66169-2.448212-0.992535
		c-0.595551-0.330845-1.019043-0.70143-1.257233-1.098429c-0.238205-0.396997-0.37059-0.860229-0.37059-1.389532V13.81609
		c0-0.833735,0.397079-1.535085,1.164581-2.104129c0.767593-0.569043,1.932159-0.860229,3.467255-0.860229
		c2.077713,0,4.234833,0.383831,6.458099,1.151334c2.223343,0.780829,4.393631,1.918917,6.511093,3.414343l6.41835-9.091614
		c-2.51445-2.037976-5.320007-3.586389-8.429916-4.63183s-6.656647-1.561579-10.626785-1.561579
		c-2.779068,0-5.267029,0.357338-7.477051,1.085181c-2.196854,0.727843-4.089279,1.746871-5.650848,3.070251
		c-1.561584,1.32338-2.752655,2.884959-3.573151,4.697983c-0.82048,1.799777-1.230728,3.784847-1.230728,5.941963v0.132305
		c0,2.382149,0.463226,4.367218,1.363113,5.981703c0.899887,1.60132,2.143875,2.951113,3.705444,4.023046
		c1.561584,1.085182,3.401108,1.958658,5.518478,2.646761c2.117462,0.674936,4.42012,1.310213,6.881592,1.879257
		c1.588074,0.357258,2.884964,0.688103,3.877487,1.018948c0.992538,0.330845,1.786621,0.674936,2.38208,1.032274
		c0.595535,0.344093,1.005783,0.714596,1.21756,1.085182c0.22496,0.370502,0.330841,0.807243,0.330841,1.283638v0.132389
		c0,1.018948-0.449982,1.799778-1.349869,2.355572c-0.899887,0.542633-2.223267,0.820492-3.943649,0.820492
		c-5.37291,0-10.38858-1.852684-15.020401-5.558212l-7.14621,8.549065c2.871719,2.580605,6.166916,4.512768,9.898865,5.79641
		c3.731934,1.283638,7.662338,1.932163,11.80452,1.932163c2.832047,0,5.386169-0.344093,7.675583-1.019028
		c2.30275-0.688183,4.261337-1.680717,5.889069-2.977604c1.640976-1.296886,2.911438-2.871716,3.81134-4.72448
		c0.899887-1.852764,1.349869-3.95689,1.349869-6.338959v-0.132385C249.443878,30.689184,249.046875,28.823254,248.252808,27.261675
		z"/>
	<path class="st1" d="M253.083176,0.926382v11.24873h13.895493v35.069572h12.836792V12.175112h13.895477V0.926382H253.083176z"/>
	<path class="st1" d="M327.721741,0.595537h-12.373566l-19.718384,46.649147h13.498474l3.308472-8.271126h17.865631
		l3.374603,8.271126h13.763184L327.721741,0.595537z M316.208405,29.048206l5.227295-13.167646l5.161224,13.167646H316.208405z"/>
	<path class="st1" d="M400.238647,23.95067v0.140015c0,2.469971-0.340027,4.830017-1.059998,7.080017
		c-0.630005,2.029966-1.530029,3.940001-2.700012,5.690001l-9.580017-9.900023
		c0.160034-0.840027,0.240051-1.700012,0.240051-2.609985V24.22069c0-1.679993-0.280029-3.280029-0.860046-4.809998
		c-0.569946-1.52002-1.389954-2.850037-2.449951-4.03003c-1.059998-1.169983-2.330017-2.089966-3.800049-2.779968
		c-1.47998-0.679993-3.089966-1.02002-4.869995-1.02002c-1.76001,0-3.359985,0.340027-4.789978,1.02002
		c-1.440002,0.690002-2.669983,1.599976-3.700012,2.75c-1.049988,1.149964-1.839966,2.479981-2.380005,3.969972
		c-0.559998,1.5-0.839966,3.090027-0.839966,4.77002v0.130005c0,1.679993,0.289978,3.27002,0.880005,4.789978
		c0.569946,1.52002,1.369995,2.859985,2.419983,4.010008c0.75,0.849976,1.640015,1.559998,2.630005,2.130005
		c0.119995,0.080017,0.25,0.140015,0.369995,0.210022c0.23999,0.159973,0.48999,0.279968,0.73999,0.399963
		c1.470032,0.690002,3.090027,1.030029,4.859985,1.030029c0.660034,0,1.309998,0,1.929993-0.130005l3.890015,3.649963
		l5.549988,5.230042c-1.25,0.589966-2.570007,1.109985-3.949951,1.529968c-0.880005,0.27002-1.77002,0.48999-2.700012,0.650024
		c-0.130005,0.029968-0.25,0.049988-0.380005,0.070007c-1.440002,0.26001-2.919983,0.380005-4.460022,0.380005
		c-2.469971,0-4.830017-0.300049-7.049988-0.929993c-0.140015-0.030029-0.25-0.059998-0.390015-0.100037
		c-0.839966-0.23999-1.679993-0.529968-2.47998-0.859985c-3.049988-1.26001-5.669983-2.970032-7.880005-5.119995
		c-2.200012-2.160034-3.929993-4.700012-5.190002-7.609985c-1.25-2.910032-1.890015-6.020018-1.890015-9.330015v-0.130005
		c0-3.309998,0.640015-6.440002,1.890015-9.369996c1.26001-2.929993,3.01001-5.5,5.26001-7.679992
		s4.890015-3.900025,7.940002-5.160034c3.039978-1.26001,6.349976-1.880005,9.919983-1.880005
		c3.580017,0,6.880005,0.619995,9.929993,1.880005c3.040039,1.26001,5.679993,2.980042,7.869995,5.130005
		c2.210022,2.160034,3.950012,4.700012,5.200012,7.609985C399.618652,17.540697,400.238647,20.640673,400.238647,23.95067z"/>
	<polygon class="st2" points="407.67865,48.423378 401.93515,59.857399 386.716278,45.538418 381.171295,40.311054 
		377.280579,36.658512 370.08139,29.882812 384.413605,24.390833 386.901581,26.958195 396.482819,36.857052 	"/>
</g>
</svg>
