<?xml version="1.0" standalone="no"?>
<!DOCTYPE svg PUBLIC "-//W3C//DTD SVG 20010904//EN"
 "http://www.w3.org/TR/2001/REC-SVG-20010904/DTD/svg10.dtd">
<svg version="1.0" xmlns="http://www.w3.org/2000/svg"
 width="1232.000000pt" height="1232.000000pt" viewBox="0 0 1232.000000 1232.000000"
 preserveAspectRatio="xMidYMid meet">
<metadata>
Created by potrace 1.11, written by Peter Selinger 2001-2013
</metadata>
<g transform="translate(0.000000,1232.000000) scale(0.100000,-0.100000)"
fill="#000000" stroke="none">
<path d="M1615 12289 c4 -22 -10 -35 -21 -18 -5 8 -3 9 6 4 8 -5 11 -4 7 3 -4
5 -15 9 -25 7 -9 -2 -19 -4 -21 -4 -3 -1 0 -6 7 -13 8 -8 9 -15 1 -25 -9 -10
-8 -17 2 -30 8 -9 9 -14 3 -10 -7 4 -11 -5 -11 -24 0 -17 -6 -35 -14 -40 -10
-6 -8 -9 11 -10 25 0 25 0 3 -11 -12 -6 -25 -18 -28 -26 -4 -12 -1 -11 15 3
21 19 21 19 15 -13 -3 -19 -1 -32 5 -32 5 0 10 -5 10 -11 0 -5 -4 -8 -9 -5 -4
3 -17 -1 -27 -10 -18 -14 -18 -15 3 -9 18 5 22 3 17 -9 -3 -9 -11 -13 -17 -9
-6 3 -7 1 -3 -6 4 -6 2 -19 -6 -28 -7 -9 -8 -14 -2 -10 14 8 27 -17 29 -56 1
-19 -3 -26 -11 -23 -8 3 -11 -1 -7 -9 3 -8 9 -13 13 -10 5 3 12 0 16 -6 4 -7
3 -9 -3 -6 -6 4 -13 0 -17 -8 -3 -8 0 -15 7 -15 8 0 7 -4 -3 -9 -8 -6 -18 -7
-24 -4 -5 3 -6 1 -2 -5 4 -6 14 -9 24 -6 12 4 13 3 4 -3 -7 -6 -10 -17 -6 -28
6 -14 4 -16 -6 -10 -9 5 -11 4 -6 -4 4 -6 2 -19 -6 -28 -7 -9 -8 -14 -2 -10
14 8 27 -17 29 -56 1 -19 -3 -26 -11 -23 -8 3 -11 -1 -7 -9 3 -8 9 -13 13 -10
5 3 12 0 16 -6 4 -7 3 -9 -3 -6 -6 4 -13 0 -17 -8 -3 -8 0 -15 7 -15 8 0 7 -4
-3 -9 -8 -6 -18 -7 -24 -4 -5 3 -6 1 -2 -5 4 -6 14 -9 24 -6 12 4 13 3 4 -3
-7 -6 -10 -17 -6 -28 6 -14 4 -16 -6 -10 -9 5 -11 4 -6 -4 4 -6 2 -19 -6 -28
-7 -9 -8 -14 -3 -11 6 3 18 -5 28 -18 15 -21 16 -25 3 -30 -22 -8 -27 -32 -11
-48 13 -13 13 -17 -1 -30 -14 -15 -13 -16 8 -17 l23 0 -22 -11 c-12 -6 -25
-18 -28 -26 -4 -12 -1 -11 15 3 21 19 21 19 15 -13 -3 -19 -1 -32 5 -32 5 0
10 -5 10 -11 0 -5 -4 -8 -9 -5 -4 3 -17 -1 -27 -10 -18 -14 -18 -15 3 -9 19 5
22 3 16 -12 -4 -10 -11 -21 -17 -25 -6 -4 0 -8 14 -9 25 0 25 0 3 -11 -12 -6
-25 -18 -28 -26 -4 -12 -1 -11 15 3 21 19 21 19 15 -13 -3 -19 -1 -32 5 -32 5
0 10 -5 10 -11 0 -5 -4 -8 -9 -5 -4 3 -17 -1 -27 -10 -18 -14 -18 -15 3 -9 19
5 22 3 16 -12 -4 -10 -11 -21 -17 -25 -6 -4 0 -8 14 -9 25 0 25 0 3 -11 -12
-6 -25 -18 -28 -26 -4 -12 -1 -11 15 3 21 19 21 19 15 -13 -3 -19 -1 -32 5
-32 5 0 10 -5 10 -11 0 -5 -4 -8 -9 -5 -4 3 -17 -1 -27 -10 -18 -14 -18 -15 3
-9 19 5 22 3 16 -12 -4 -10 -11 -21 -17 -25 -6 -4 0 -8 14 -9 25 0 25 0 3 -11
-12 -6 -25 -18 -28 -26 -4 -12 -1 -11 15 3 21 19 21 19 15 -13 -3 -19 -1 -32
5 -32 5 0 10 -5 10 -11 0 -5 -4 -8 -9 -5 -4 3 -17 -1 -27 -10 -18 -14 -18 -15
3 -9 18 5 22 3 17 -9 -3 -9 -11 -13 -17 -9 -6 3 -7 1 -3 -6 4 -6 2 -19 -6 -28
-7 -9 -8 -14 -2 -10 14 8 27 -17 29 -56 1 -19 -3 -26 -11 -23 -8 3 -11 -1 -7
-9 3 -8 9 -13 13 -10 5 3 12 0 16 -6 4 -7 3 -9 -3 -6 -6 4 -13 0 -17 -8 -3 -8
0 -15 7 -15 8 0 7 -4 -3 -9 -8 -6 -18 -7 -24 -4 -5 3 -6 1 -2 -5 4 -6 14 -9
24 -6 12 4 13 3 4 -3 -7 -6 -10 -17 -6 -28 6 -14 4 -16 -6 -10 -9 5 -11 4 -6
-4 4 -6 2 -19 -6 -28 -7 -9 -8 -14 -2 -10 14 8 27 -17 29 -56 1 -19 -3 -26
-11 -23 -8 3 -11 -1 -7 -9 3 -8 9 -13 13 -10 5 3 12 0 16 -6 4 -7 3 -9 -3 -6
-6 4 -13 0 -17 -8 -3 -8 0 -15 7 -15 8 0 7 -4 -3 -9 -8 -6 -18 -7 -24 -4 -5 3
-6 1 -2 -5 4 -6 14 -9 24 -6 12 4 13 3 4 -3 -7 -6 -10 -17 -6 -28 6 -14 4 -16
-6 -10 -9 5 -11 4 -6 -4 4 -6 2 -19 -6 -28 -7 -9 -8 -14 -3 -11 6 3 18 -5 28
-18 15 -21 16 -25 3 -30 -22 -8 -27 -32 -11 -48 13 -13 13 -17 -1 -30 -14 -15
-13 -16 8 -17 l23 0 -22 -11 c-12 -6 -25 -18 -28 -26 -4 -12 -1 -11 15 3 21
19 21 19 15 -13 -3 -19 -1 -32 5 -32 5 0 10 -5 10 -11 0 -5 -4 -8 -9 -5 -4 3
-17 -1 -27 -10 -18 -14 -18 -15 3 -9 19 5 22 3 16 -12 -4 -10 -11 -21 -17 -25
-6 -4 0 -8 14 -9 25 0 25 0 3 -11 -12 -6 -25 -18 -28 -26 -4 -12 -1 -11 15 3
21 19 21 19 15 -13 -3 -19 -1 -32 5 -32 5 0 10 -5 10 -11 0 -5 -4 -8 -9 -5 -4
3 -17 -1 -27 -10 -18 -14 -18 -15 4 -9 22 6 23 5 13 -14 -9 -16 -9 -21 1 -21
9 0 9 -3 -2 -9 -8 -6 -18 -7 -24 -4 -5 3 -6 1 -2 -5 4 -6 14 -9 24 -6 12 4 13
3 4 -3 -7 -6 -10 -17 -6 -28 6 -14 4 -16 -6 -10 -9 5 -11 4 -6 -4 4 -6 2 -19
-6 -28 -7 -9 -8 -14 -2 -10 14 8 27 -17 29 -55 1 -31 -4 -34 -25 -15 -12 10
-12 9 -2 -4 6 -8 10 -25 7 -38 -2 -12 0 -19 6 -16 5 4 7 10 4 15 -3 5 -1 11 4
14 5 4 12 2 15 -3 4 -5 2 -12 -4 -16 -6 -4 -8 -11 -5 -16 4 -5 -1 -9 -9 -9 -9
0 -16 -4 -16 -10 0 -5 8 -7 18 -4 10 4 13 2 6 -3 -13 -10 -13 -53 1 -53 5 0 3
-4 -5 -9 -8 -6 -18 -7 -24 -4 -5 3 -6 1 -2 -5 4 -6 14 -9 24 -6 12 4 13 3 4
-3 -7 -6 -10 -17 -6 -28 6 -14 4 -16 -6 -10 -9 5 -11 4 -6 -4 4 -6 2 -19 -6
-28 -7 -9 -8 -14 -2 -10 14 8 27 -17 29 -56 1 -19 -3 -26 -11 -23 -8 3 -11 -1
-7 -9 3 -8 9 -13 13 -10 5 3 12 0 16 -6 4 -7 3 -9 -3 -6 -6 4 -13 0 -17 -8 -3
-8 0 -15 7 -15 8 0 7 -4 -3 -9 -8 -6 -18 -7 -24 -4 -5 3 -6 1 -2 -5 4 -6 14
-9 24 -6 10 4 13 3 6 -3 -13 -10 -13 -53 1 -53 5 0 3 -4 -5 -9 -8 -6 -18 -7
-24 -4 -5 3 -6 1 -2 -5 4 -6 14 -9 24 -6 12 4 13 3 4 -3 -7 -6 -10 -17 -6 -28
6 -14 4 -16 -6 -10 -9 5 -11 4 -6 -4 4 -6 2 -19 -6 -28 -7 -9 -8 -14 -2 -10
14 8 27 -17 29 -55 1 -31 -4 -34 -25 -15 -12 10 -12 9 -2 -4 6 -8 10 -25 7
-38 -2 -12 0 -19 6 -16 5 4 7 10 4 15 -3 5 -1 11 4 14 5 4 12 2 15 -3 4 -5 2
-12 -4 -16 -6 -4 -8 -11 -5 -16 4 -5 -1 -9 -9 -9 -9 0 -16 -4 -16 -10 0 -5 8
-7 18 -4 10 4 13 2 6 -3 -13 -10 -13 -53 1 -53 5 0 3 -4 -5 -9 -8 -6 -18 -7
-24 -4 -5 3 -6 1 -2 -5 4 -6 14 -9 24 -6 12 4 13 3 4 -3 -7 -6 -10 -17 -6 -28
6 -14 4 -16 -6 -10 -9 5 -11 4 -6 -4 4 -6 2 -19 -6 -28 -7 -9 -8 -14 -2 -10
14 8 27 -17 29 -56 1 -19 -3 -26 -11 -23 -8 3 -11 -1 -7 -9 3 -8 9 -13 13 -10
5 3 12 0 16 -6 4 -7 3 -9 -3 -6 -6 4 -13 0 -17 -8 -3 -8 0 -15 7 -15 8 0 7 -4
-3 -9 -8 -6 -18 -7 -24 -4 -5 3 -6 1 -2 -5 4 -6 14 -9 24 -6 12 4 13 3 4 -3
-7 -6 -10 -17 -6 -28 6 -14 4 -16 -6 -10 -9 5 -11 4 -6 -4 4 -6 2 -19 -6 -28
-7 -9 -8 -14 -2 -10 14 8 27 -17 29 -56 1 -19 -3 -26 -11 -23 -8 3 -11 -1 -7
-9 3 -8 9 -13 13 -10 5 3 12 0 16 -6 4 -7 3 -9 -3 -6 -6 4 -13 0 -17 -8 -3 -8
0 -15 7 -15 8 0 7 -4 -3 -9 -8 -6 -18 -7 -24 -4 -5 3 -6 1 -2 -5 4 -6 14 -9
24 -6 12 4 13 3 4 -3 -7 -6 -10 -17 -6 -28 6 -14 4 -16 -6 -10 -9 5 -11 4 -6
-4 4 -6 2 -19 -6 -28 -7 -9 -8 -14 -2 -10 14 8 27 -17 29 -56 1 -19 -3 -26
-11 -23 -8 3 -11 -1 -7 -9 3 -8 9 -13 13 -10 5 3 12 0 16 -6 4 -7 3 -9 -3 -6
-6 4 -13 0 -17 -8 -3 -8 0 -15 7 -15 8 0 7 -4 -3 -9 -8 -6 -18 -7 -24 -4 -5 3
-6 1 -2 -5 4 -6 14 -9 24 -6 12 4 13 3 4 -3 -7 -6 -10 -17 -6 -28 6 -14 4 -16
-6 -10 -9 5 -11 4 -6 -4 4 -6 2 -19 -6 -28 -7 -9 -8 -14 -3 -11 6 3 18 -5 28
-18 15 -21 16 -25 3 -30 -22 -8 -27 -32 -11 -48 13 -13 13 -17 -1 -30 -14 -15
-13 -16 8 -17 l23 0 -22 -11 c-12 -6 -25 -18 -28 -26 -4 -12 -1 -11 15 3 21
19 21 19 15 -13 -3 -19 -1 -32 5 -32 5 0 10 -5 10 -11 0 -5 -4 -8 -9 -5 -4 3
-17 -1 -27 -10 -18 -14 -18 -15 3 -9 19 5 22 3 16 -12 -4 -10 -11 -21 -17 -25
-6 -4 0 -8 14 -9 25 0 25 0 3 -11 -12 -6 -25 -18 -28 -26 -4 -12 -1 -11 15 3
21 19 21 19 15 -13 -3 -19 -1 -32 5 -32 5 0 10 -5 10 -11 0 -5 -4 -8 -9 -5 -4
3 -17 -1 -27 -10 -18 -14 -18 -15 3 -9 18 5 22 3 17 -9 -3 -9 -11 -13 -17 -9
-6 3 -7 1 -3 -6 4 -6 2 -19 -6 -28 -7 -9 -8 -14 -2 -10 14 8 27 -17 29 -56 1
-19 -3 -26 -11 -23 -8 3 -11 -1 -7 -9 3 -8 9 -13 13 -10 5 3 12 0 16 -6 4 -7
3 -9 -3 -6 -6 4 -13 0 -17 -8 -3 -8 0 -15 7 -15 8 0 7 -4 -3 -9 -8 -6 -18 -7
-24 -4 -5 3 -6 1 -2 -5 4 -6 14 -9 24 -6 12 4 13 3 4 -3 -7 -6 -10 -17 -6 -28
6 -14 4 -16 -6 -10 -9 5 -11 4 -6 -4 4 -6 2 -19 -6 -28 -7 -9 -8 -14 -2 -10
14 8 27 -17 29 -56 1 -19 -3 -26 -11 -23 -8 3 -11 -1 -7 -9 3 -8 9 -13 13 -10
5 3 12 0 16 -6 4 -7 3 -9 -3 -6 -6 4 -13 0 -17 -8 -3 -8 0 -15 7 -15 8 0 7 -4
-3 -9 -8 -6 -18 -7 -24 -4 -5 3 -6 1 -2 -5 4 -6 14 -9 24 -6 12 4 13 3 4 -3
-7 -6 -10 -17 -6 -28 6 -14 4 -16 -6 -10 -9 5 -11 4 -6 -4 4 -6 2 -19 -6 -28
-7 -9 -8 -14 -3 -11 6 3 18 -5 28 -18 15 -21 16 -25 3 -30 -22 -8 -27 -32 -11
-48 13 -13 13 -17 -1 -30 -14 -15 -13 -16 8 -17 l23 0 -22 -11 c-12 -6 -25
-18 -28 -26 -4 -12 -1 -11 15 3 21 19 21 19 15 -13 -3 -19 -1 -32 5 -32 5 0
10 -5 10 -11 0 -5 -4 -8 -9 -5 -4 3 -17 -1 -27 -10 -18 -14 -18 -15 3 -9 19 5
22 3 16 -12 -4 -10 -11 -21 -17 -25 -6 -4 0 -8 14 -9 25 0 25 0 3 -11 -12 -6
-25 -18 -28 -26 -4 -12 -1 -11 15 3 21 19 21 19 15 -13 -3 -19 -1 -32 5 -32 5
0 10 -5 10 -11 0 -5 -4 -8 -9 -5 -4 3 -17 -1 -27 -10 -18 -14 -18 -15 3 -9 18
5 22 3 17 -9 -3 -9 -11 -13 -17 -9 -6 3 -7 1 -3 -6 4 -6 2 -19 -6 -28 -7 -9
-8 -14 -2 -10 14 8 27 -17 29 -56 1 -19 -3 -26 -11 -23 -8 3 -11 -1 -7 -9 3
-8 9 -13 13 -10 5 3 12 0 16 -6 4 -7 3 -9 -3 -6 -6 4 -13 0 -17 -8 -3 -8 0
-15 7 -15 8 0 7 -4 -3 -9 -8 -6 -18 -7 -24 -4 -5 3 -6 1 -2 -5 4 -6 14 -9 24
-6 12 4 13 3 4 -3 -7 -6 -10 -17 -6 -28 6 -14 4 -16 -6 -10 -9 5 -11 4 -6 -4
4 -6 2 -19 -6 -28 -7 -9 -8 -14 -2 -10 14 8 27 -17 29 -56 1 -19 -3 -26 -11
-23 -8 3 -11 -1 -7 -9 3 -8 9 -13 13 -10 5 3 12 0 16 -6 4 -7 3 -9 -3 -6 -6 4
-13 0 -17 -8 -3 -8 0 -15 7 -15 8 0 7 -4 -3 -9 -8 -6 -18 -7 -24 -4 -5 3 -6 1
-2 -5 4 -6 14 -9 24 -6 12 4 13 3 4 -3 -7 -6 -10 -17 -6 -28 6 -14 4 -16 -6
-10 -9 5 -11 4 -6 -4 4 -6 2 -20 -5 -29 -7 -9 -10 -14 -5 -10 5 4 17 -3 26
-15 18 -21 18 -23 -1 -40 -18 -17 -16 -47 3 -47 6 0 5 -6 -2 -15 -10 -12 -10
-15 1 -15 11 0 11 -2 -1 -9 -8 -6 -18 -7 -24 -4 -5 3 -6 1 -2 -5 4 -6 14 -9
24 -6 12 4 13 3 4 -3 -7 -6 -10 -17 -6 -28 6 -14 4 -16 -6 -10 -9 5 -11 4 -6
-4 4 -6 2 -19 -6 -28 -7 -9 -8 -14 -2 -10 14 8 27 -17 29 -55 1 -31 -4 -34
-25 -15 -12 10 -12 9 -2 -4 6 -8 10 -25 7 -38 -2 -12 0 -19 6 -16 5 4 7 10 4
15 -3 5 -1 11 4 14 5 4 12 2 15 -3 4 -5 2 -12 -4 -16 -6 -4 -8 -11 -5 -16 4
-5 -1 -9 -9 -9 -9 0 -16 -4 -16 -10 0 -5 8 -7 18 -4 10 4 13 2 6 -3 -13 -10
-13 -53 1 -53 5 0 3 -4 -5 -9 -8 -6 -18 -7 -24 -4 -5 3 -6 1 -2 -5 4 -6 14 -9
24 -6 12 4 13 3 4 -3 -7 -6 -10 -17 -6 -28 6 -14 4 -16 -6 -10 -9 5 -11 4 -6
-4 4 -6 2 -19 -6 -28 -9 -12 -9 -15 0 -9 11 7 17 -5 13 -27 -1 -5 3 -6 9 -2 5
3 10 1 10 -4 0 -6 -4 -11 -9 -11 -6 0 -9 -9 -8 -19 0 -11 4 -18 8 -15 4 2 11
-1 15 -7 4 -7 3 -9 -3 -6 -6 4 -17 -1 -24 -10 -12 -14 -12 -16 1 -9 8 4 6 0
-5 -9 -19 -16 -19 -16 8 -11 16 3 25 1 22 -5 -4 -5 -12 -9 -20 -9 -8 0 -17 -5
-21 -12 -4 -7 -3 -8 4 -4 7 4 20 2 29 -4 17 -11 17 -11 1 -6 -10 3 -18 1 -18
-4 0 -6 3 -10 8 -10 4 0 8 -13 8 -30 1 -16 -3 -30 -8 -30 -5 0 -6 -10 -3 -21
5 -16 4 -19 -5 -14 -9 5 -11 4 -6 -4 4 -6 2 -19 -6 -28 -7 -9 -8 -14 -2 -10
14 8 27 -17 29 -55 1 -31 -4 -34 -25 -15 -12 10 -12 9 -2 -4 6 -8 10 -25 7
-38 -2 -12 0 -19 6 -16 5 4 7 10 4 15 -3 5 -1 11 4 14 5 4 12 2 15 -3 4 -5 2
-12 -4 -16 -6 -4 -8 -11 -5 -16 4 -5 -1 -9 -9 -9 -9 0 -16 -4 -16 -10 0 -5 8
-7 18 -4 10 4 13 2 6 -3 -13 -10 -13 -53 1 -53 5 0 3 -4 -5 -9 -8 -6 -18 -7
-24 -4 -5 3 -6 1 -2 -5 4 -6 14 -9 24 -6 12 4 13 3 4 -3 -7 -6 -10 -17 -6 -28
6 -14 4 -16 -6 -10 -9 5 -11 4 -6 -4 4 -6 2 -19 -6 -28 -7 -9 -8 -14 -2 -10
14 8 27 -17 29 -56 1 -19 -3 -26 -11 -23 -8 3 -11 -1 -7 -9 3 -8 9 -13 13 -10
5 3 12 0 16 -6 4 -7 3 -9 -3 -6 -6 4 -13 0 -17 -8 -3 -8 0 -15 7 -15 8 0 7 -4
-3 -9 -8 -6 -18 -7 -24 -4 -5 3 -6 1 -2 -5 4 -6 14 -9 24 -6 12 4 13 3 4 -3
-7 -6 -10 -17 -6 -27 4 -11 1 -22 -7 -27 -10 -6 -7 -9 11 -10 25 0 25 0 3 -11
-12 -6 -25 -18 -28 -26 -4 -12 -1 -11 15 3 21 19 21 19 15 -13 -3 -19 -1 -32
5 -32 5 0 10 -5 10 -11 0 -5 -4 -8 -9 -5 -4 3 -17 -1 -27 -10 -18 -14 -18 -15
3 -9 19 5 22 3 16 -12 -4 -10 -11 -21 -17 -25 -6 -4 0 -8 14 -9 25 0 25 0 3
-11 -12 -6 -25 -18 -28 -26 -4 -12 -1 -11 15 3 21 19 21 19 15 -13 -3 -19 -1
-32 5 -32 5 0 10 -5 10 -11 0 -5 -4 -8 -9 -5 -4 3 -17 -1 -27 -10 -18 -14 -18
-15 3 -9 18 5 22 3 17 -9 -3 -9 -11 -13 -17 -9 -6 3 -7 1 -3 -6 4 -6 2 -19 -6
-28 -7 -9 -8 -14 -2 -10 14 8 27 -17 29 -56 1 -19 -3 -26 -11 -23 -8 3 -11 -1
-7 -9 3 -8 9 -13 13 -10 5 3 12 0 16 -6 4 -7 3 -9 -3 -6 -6 4 -13 0 -17 -8 -3
-8 0 -15 7 -15 8 0 7 -4 -3 -9 -8 -6 -18 -7 -24 -4 -5 3 -6 1 -2 -5 4 -6 14
-9 24 -6 12 4 13 3 4 -3 -7 -6 -10 -17 -6 -28 6 -14 4 -16 -6 -10 -9 5 -11 4
-6 -4 4 -6 2 -19 -6 -28 -7 -9 -8 -14 -2 -10 14 8 27 -17 29 -56 1 -19 -3 -26
-11 -23 -8 3 -11 -1 -7 -9 3 -8 9 -13 13 -10 5 3 12 0 16 -6 4 -7 3 -9 -3 -6
-6 4 -13 0 -17 -8 -3 -8 0 -15 7 -15 8 0 7 -4 -3 -9 -8 -6 -18 -7 -24 -4 -5 3
-6 1 -2 -5 4 -6 14 -9 24 -6 12 4 13 3 4 -3 -7 -6 -10 -17 -6 -28 6 -14 4 -16
-6 -10 -9 5 -11 4 -6 -4 4 -6 2 -19 -6 -28 -7 -9 -8 -14 -3 -11 6 3 18 -5 28
-18 15 -21 16 -25 3 -30 -22 -8 -27 -32 -11 -48 13 -13 13 -17 -1 -30 -14 -15
-13 -16 8 -17 l23 0 -22 -11 c-12 -6 -25 -18 -28 -26 -4 -12 -1 -11 15 3 21
19 21 19 15 -13 -3 -19 -1 -32 5 -32 5 0 10 -5 10 -11 0 -5 -4 -8 -9 -5 -4 3
-17 -1 -27 -10 -18 -14 -18 -15 3 -9 19 5 22 3 16 -12 -4 -10 -11 -21 -17 -25
-6 -4 0 -8 14 -9 25 0 25 0 3 -11 -12 -6 -25 -18 -28 -26 -4 -12 -1 -11 15 3
21 19 21 19 15 -13 -3 -19 -1 -32 5 -32 5 0 10 -5 10 -11 0 -5 -4 -8 -9 -5 -4
3 -17 -1 -27 -10 -18 -14 -18 -15 3 -9 19 5 22 3 16 -12 -4 -10 -11 -21 -17
-25 -6 -4 0 -8 14 -9 25 0 25 0 3 -11 -12 -6 -25 -18 -28 -26 -4 -12 -1 -11
15 3 21 19 21 19 15 -13 -3 -19 -1 -32 5 -32 5 0 10 -5 10 -11 0 -5 -4 -8 -9
-5 -4 3 -17 -1 -27 -10 -18 -14 -18 -15 3 -9 19 5 22 3 16 -12 -4 -10 -11 -21
-17 -25 -6 -4 0 -8 14 -9 25 0 25 0 3 -11 -12 -6 -25 -18 -28 -26 -4 -12 -1
-11 15 3 21 19 21 19 15 -13 -3 -19 -1 -32 5 -32 5 0 10 -5 10 -11 0 -5 -4 -8
-9 -5 -4 3 -17 -1 -27 -10 -18 -14 -18 -15 3 -9 18 5 22 3 17 -9 -3 -9 -11
-13 -17 -9 -6 3 -7 1 -3 -6 4 -6 2 -19 -6 -28 -7 -9 -8 -14 -2 -10 14 8 27
-17 29 -56 1 -19 -3 -26 -11 -23 -8 3 -11 -1 -7 -9 3 -8 9 -13 13 -10 5 3 12
0 16 -6 4 -7 3 -9 -3 -6 -6 4 -13 0 -17 -8 -3 -8 0 -15 7 -15 8 0 7 -4 -3 -9
-8 -6 -18 -7 -24 -4 -5 3 -6 1 -2 -5 4 -6 14 -9 24 -6 12 4 13 3 4 -3 -7 -6
-10 -17 -6 -28 6 -14 4 -16 -6 -10 -9 5 -11 4 -6 -4 4 -6 2 -19 -6 -28 -7 -9
-8 -14 -3 -11 6 3 18 -5 28 -18 16 -21 16 -25 3 -30 -18 -7 -22 -54 -5 -54 8
0 8 -4 -1 -15 -6 -8 -9 -19 -6 -24 4 -5 -2 -15 -11 -21 -17 -11 -17 -11 -1 -6
11 3 22 -2 28 -14 15 -28 12 -37 -4 -14 -12 16 -17 17 -28 6 -11 -11 -10 -13
2 -10 11 2 14 -4 12 -26 -3 -21 0 -26 10 -21 7 5 10 5 6 0 -4 -4 -3 -14 3 -21
9 -10 7 -15 -4 -20 -23 -8 -28 -31 -12 -48 13 -13 13 -17 -1 -30 -14 -15 -13
-16 8 -17 l23 0 -22 -11 c-12 -6 -25 -18 -28 -26 -4 -12 -1 -11 15 3 21 19 21
19 15 -13 -3 -19 -1 -32 5 -32 5 0 10 -5 10 -11 0 -5 -4 -8 -9 -5 -4 3 -17 -1
-27 -10 -18 -14 -18 -15 3 -9 19 5 22 3 16 -12 -4 -10 -11 -21 -17 -25 -6 -4
0 -8 14 -9 25 0 25 0 3 -11 -12 -6 -25 -18 -28 -26 -4 -12 -1 -11 15 3 21 19
21 19 15 -13 -3 -19 -1 -32 5 -32 5 0 10 -5 10 -11 0 -5 -4 -8 -9 -5 -4 3 -17
-1 -27 -10 -18 -14 -18 -15 4 -9 22 6 23 5 13 -14 -9 -16 -9 -21 1 -21 9 0 9
-3 -2 -9 -8 -6 -18 -7 -24 -4 -5 3 -6 1 -2 -5 4 -6 14 -9 24 -6 12 4 13 3 4
-3 -7 -6 -10 -17 -6 -28 6 -14 4 -16 -6 -10 -9 5 -11 4 -6 -4 4 -6 2 -19 -6
-28 -7 -9 -8 -14 -2 -10 14 8 27 -17 29 -55 1 -31 -4 -34 -25 -15 -12 10 -12
9 -2 -4 6 -8 10 -25 7 -38 -2 -12 0 -19 6 -16 5 4 7 10 4 15 -3 5 -1 11 4 14
5 4 12 2 15 -3 4 -5 2 -12 -4 -16 -6 -4 -8 -11 -5 -16 4 -5 -1 -9 -9 -9 -9 0
-16 -4 -16 -10 0 -5 8 -7 17 -4 11 4 14 2 7 -3 -13 -10 -13 -53 1 -53 5 0 3
-4 -5 -9 -8 -6 -18 -7 -24 -4 -5 3 -6 1 -2 -5 4 -6 14 -9 24 -6 12 4 13 3 4
-3 -7 -6 -10 -17 -6 -28 6 -14 4 -16 -6 -10 -9 5 -11 4 -6 -4 4 -6 2 -19 -6
-28 -7 -9 -8 -14 -2 -10 14 8 27 -17 29 -56 1 -19 -3 -26 -11 -23 -8 3 -11 -1
-7 -9 3 -8 9 -13 13 -10 5 3 12 0 16 -6 4 -7 3 -9 -3 -6 -6 4 -13 0 -17 -8 -3
-8 0 -15 7 -15 8 0 7 -4 -3 -9 -8 -6 -18 -7 -24 -4 -5 3 -6 1 -2 -5 4 -6 14
-9 24 -6 10 4 13 3 6 -3 -13 -10 -13 -53 1 -53 5 0 3 -4 -5 -9 -8 -6 -18 -7
-24 -4 -5 3 -6 1 -2 -5 4 -6 14 -9 24 -6 12 4 13 3 4 -3 -7 -6 -10 -17 -6 -28
6 -14 4 -16 -6 -10 -9 5 -11 4 -6 -4 4 -6 2 -19 -6 -28 -7 -9 -8 -14 -2 -10
14 8 27 -17 29 -55 1 -31 -4 -34 -25 -15 -12 10 -12 9 -2 -4 6 -8 10 -25 7
-38 -2 -12 0 -19 6 -16 5 4 7 10 4 15 -3 5 -1 11 4 14 5 4 12 2 15 -3 4 -5 2
-12 -4 -16 -6 -4 -8 -11 -5 -16 4 -5 -1 -9 -9 -9 -9 0 -16 -4 -16 -10 0 -5 8
-7 18 -4 10 4 13 2 6 -3 -13 -10 -13 -53 1 -53 5 0 3 -4 -5 -9 -8 -6 -18 -7
-24 -4 -5 3 -6 1 -2 -5 4 -6 14 -9 24 -6 12 4 13 3 4 -3 -7 -6 -10 -17 -6 -28
6 -14 4 -16 -6 -10 -9 5 -11 4 -6 -4 4 -6 2 -19 -6 -28 -7 -9 -8 -14 -2 -10
14 8 27 -17 29 -56 1 -19 -3 -26 -11 -23 -8 3 -11 -1 -8 -9 3 -8 10 -13 14
-12 4 1 8 -2 8 -8 0 -5 -4 -9 -9 -7 -5 1 -9 -2 -9 -8 0 -5 6 -10 13 -10 8 0 7
-3 -3 -9 -8 -6 -18 -7 -24 -4 -5 3 -6 1 -2 -5 3 -6 15 -9 26 -7 12 2 18 0 15
-6 -4 -5 -11 -7 -16 -4 -16 11 -10 -7 9 -22 9 -8 12 -12 5 -9 -7 4 -9 -1 -6
-15 4 -16 8 -17 14 -7 7 10 9 10 9 -2 0 -13 1 -13 10 0 8 13 10 13 10 -1 0 -9
7 -16 15 -16 11 0 12 4 5 11 -5 5 -10 14 -10 20 0 5 8 -1 19 -13 16 -18 20
-19 25 -6 3 9 2 13 -4 10 -6 -3 -10 -1 -10 5 0 7 6 10 13 7 6 -2 12 -9 12 -15
0 -5 3 -14 7 -18 5 -4 8 -1 8 8 0 16 34 18 47 3 5 -4 3 -5 -4 -1 -6 3 -14 2
-17 -3 -7 -11 13 -9 33 3 8 5 16 3 22 -5 7 -12 9 -11 9 1 0 13 1 13 10 0 8
-12 10 -12 10 -1 0 10 3 11 13 2 8 -6 17 -7 23 -2 19 19 74 20 84 3 8 -15 9
-15 10 -1 0 16 33 20 47 4 5 -4 3 -5 -4 -1 -6 3 -14 2 -17 -3 -7 -11 13 -9 33
3 8 5 16 3 22 -5 7 -12 9 -11 9 1 0 13 1 13 10 0 8 -13 10 -13 10 -1 0 12 3
12 12 3 7 -7 16 -8 22 -3 22 19 76 20 86 3 8 -15 9 -15 10 -1 0 16 33 20 47 4
5 -4 3 -5 -4 -1 -6 3 -14 2 -17 -3 -7 -11 13 -9 33 3 8 5 16 3 22 -5 7 -12 9
-11 9 1 0 13 1 13 10 0 8 -12 10 -12 10 -1 0 10 3 11 13 2 8 -6 17 -7 23 -2
19 19 74 20 84 3 8 -15 9 -15 10 -1 0 16 33 20 47 4 5 -4 3 -5 -4 -1 -6 3 -14
2 -17 -3 -7 -11 13 -9 33 3 8 5 16 3 22 -5 7 -12 9 -11 9 1 0 13 1 13 10 0 7
-11 10 -11 10 -2 0 8 5 10 13 5 27 -17 41 -11 18 8 -29 24 -14 25 19 2 33 -23
50 -25 43 -5 -5 14 -2 14 16 -2 22 -20 22 -20 15 0 -7 17 -6 18 10 4 26 -20
46 -22 39 -2 -5 14 -2 14 16 -2 22 -20 22 -20 15 0 -7 17 -6 18 10 4 26 -20
46 -22 39 -2 -5 14 -2 14 16 -2 22 -20 22 -20 15 0 -7 17 -6 18 10 4 26 -20
46 -22 39 -2 -5 14 -2 14 16 -2 22 -20 22 -20 15 0 -7 17 -6 18 10 4 26 -20
46 -22 39 -2 -5 14 -2 14 16 -2 22 -20 22 -20 15 0 -7 17 -6 18 10 4 26 -20
46 -22 39 -2 -5 14 -2 14 16 -2 22 -20 22 -20 15 0 -7 17 -6 18 10 4 26 -20
46 -22 39 -2 -5 14 -2 14 16 -2 22 -20 22 -20 15 0 -7 17 -6 18 10 4 26 -20
46 -22 39 -2 -5 14 -2 14 16 -2 22 -20 22 -20 15 0 -7 17 -6 18 10 4 26 -20
46 -22 39 -2 -5 14 -2 14 16 -2 22 -20 22 -20 15 0 -7 17 -6 18 10 4 26 -20
46 -22 39 -2 -5 14 -2 14 16 -2 22 -20 22 -20 15 0 -7 17 -6 18 10 4 26 -20
46 -22 39 -2 -5 14 -2 14 16 -2 22 -20 22 -20 15 0 -7 17 -6 18 10 4 26 -20
46 -22 39 -2 -5 14 -2 14 16 -2 22 -20 22 -20 15 0 -7 17 -6 18 10 4 26 -20
46 -22 39 -2 -5 14 -2 14 16 -2 22 -20 22 -20 15 0 -7 17 -6 18 10 4 26 -20
46 -22 39 -2 -5 14 -2 14 16 -2 22 -20 22 -20 15 0 -7 17 -6 18 10 4 26 -20
46 -22 39 -2 -5 14 -2 14 16 -2 22 -20 22 -20 15 0 -7 17 -6 18 10 4 25 -20
46 -22 39 -3 -5 13 -2 13 20 -1 19 -13 27 -14 33 -5 4 7 3 9 -4 5 -6 -3 -13
-3 -16 2 -2 4 6 8 20 8 18 0 23 -4 19 -16 -5 -12 -4 -13 6 -2 15 14 33 16 24
2 -3 -5 -1 -10 4 -10 6 0 11 6 11 13 0 15 35 16 47 2 5 -4 3 -5 -4 -1 -6 3
-14 2 -17 -3 -7 -11 13 -9 33 3 8 5 16 3 22 -5 7 -12 9 -11 9 1 0 13 1 13 10
0 8 -12 10 -12 10 -1 0 10 3 11 13 2 8 -6 17 -7 23 -2 19 19 74 20 84 3 8 -15
9 -15 10 -1 0 16 33 20 47 4 5 -4 3 -5 -4 -1 -6 3 -14 2 -17 -3 -7 -11 13 -9
33 3 8 5 16 3 22 -5 7 -12 9 -11 9 1 0 13 1 13 10 0 8 -12 10 -12 10 -1 0 10
3 11 13 2 8 -6 17 -7 23 -2 19 19 74 20 84 3 8 -15 9 -15 10 -1 0 16 33 20 47
4 5 -4 3 -5 -4 -1 -6 3 -14 2 -17 -3 -7 -11 13 -9 33 3 8 5 16 3 22 -5 7 -12
9 -11 9 1 0 13 1 13 10 0 8 -12 10 -12 10 -1 0 10 3 11 13 2 8 -6 17 -7 23 -2
19 19 74 20 84 3 9 -16 9 -16 10 -1 0 21 33 20 41 -1 5 -11 12 -5 29 23 23 39
39 52 19 16 -8 -16 -8 -24 1 -33 6 -6 11 -6 10 -1 -5 24 1 46 10 40 6 -3 7 1
4 9 -3 9 -11 16 -17 16 -6 0 -2 7 9 16 16 13 16 15 2 10 -10 -3 -18 -1 -18 4
0 6 7 10 15 10 15 0 16 32 2 46 -3 4 -4 -3 -2 -15 2 -12 0 -19 -4 -17 -4 3 -7
18 -6 33 1 15 -2 36 -7 45 -6 14 -5 16 7 12 8 -3 12 -10 9 -15 -3 -5 0 -9 6
-9 7 0 10 6 7 14 -3 7 -1 18 4 23 6 6 4 10 -5 10 -8 0 -12 -5 -9 -10 3 -6 1
-7 -6 -3 -6 4 -9 12 -6 17 4 5 2 9 -3 9 -5 0 -9 7 -9 15 0 8 4 12 9 9 4 -3 8
-1 8 5 0 5 -5 12 -10 14 -6 3 -5 4 2 3 7 -2 12 -13 11 -25 -2 -14 3 -21 15
-21 9 0 13 3 7 8 -5 4 -11 18 -13 31 -2 20 0 22 12 12 13 -11 13 -9 3 13 -10
22 -13 23 -19 8 -5 -12 -6 -8 -5 10 2 15 7 31 12 35 4 4 5 2 1 -4 -9 -15 6
-17 20 -3 7 7 18 1 35 -17 13 -15 16 -21 7 -14 -15 11 -18 11 -18 -2 0 -16 16
-17 39 -3 10 6 12 5 7 -2 -4 -7 -1 -12 8 -12 9 0 16 -4 16 -10 0 -5 5 -10 11
-10 5 0 7 5 4 10 -3 6 -1 10 4 10 14 0 14 -12 1 -28 -6 -6 -7 -10 -3 -7 3 3
17 -2 30 -10 25 -16 31 -8 11 14 -10 11 -8 10 10 0 12 -8 22 -23 22 -34 0 -17
2 -17 10 -5 9 13 10 13 11 0 1 -8 1 -18 0 -23 0 -4 2 -6 6 -6 19 3 34 -2 29
-9 -3 -5 1 -9 9 -9 8 0 12 4 9 9 -3 4 2 8 11 8 11 0 15 -5 12 -15 -4 -8 -1
-17 5 -21 6 -4 8 -3 5 3 -4 6 0 13 8 17 8 3 17 1 20 -5 4 -5 11 -7 16 -3 5 3
9 2 8 -3 -4 -22 2 -43 11 -38 6 3 10 1 10 -5 0 -6 4 -9 9 -6 4 3 17 -1 27 -8
15 -11 22 -12 33 -3 12 10 14 9 9 -5 -5 -12 0 -18 18 -22 16 -4 22 -11 17 -19
-4 -8 -1 -7 10 2 11 9 17 10 17 2 0 -6 8 -11 18 -11 14 0 15 -2 2 -10 -13 -8
-13 -10 2 -10 9 0 18 -3 21 -7 2 -5 3 -3 1 4 -3 14 19 11 40 -7 14 -10 14 -15
4 -21 -10 -7 -10 -9 2 -10 8 -1 19 -1 24 0 5 1 13 -4 17 -11 5 -7 14 -13 21
-13 7 0 12 -9 10 -20 -2 -17 -1 -17 8 -5 9 13 11 13 21 0 9 -13 10 -12 5 3 -5
14 -2 16 13 8 10 -6 21 -8 23 -5 3 2 11 -3 19 -13 9 -11 10 -14 2 -9 -7 4 -13
2 -13 -3 0 -15 23 -14 40 1 12 11 12 10 2 -3 -10 -13 -9 -19 5 -30 14 -12 16
-12 11 2 -4 10 -1 16 8 16 8 0 13 -6 10 -13 -3 -7 5 -20 16 -31 12 -10 18 -13
15 -7 -4 7 -1 17 7 23 11 9 13 6 11 -13 -2 -19 1 -23 13 -19 11 5 13 3 7 -7
-6 -10 -2 -12 19 -8 14 3 29 1 32 -4 3 -4 10 -6 15 -3 5 4 9 -2 9 -11 0 -16
-1 -16 -18 -1 -17 15 -18 15 -19 -6 -2 -15 0 -18 6 -8 6 9 11 10 15 2 5 -8 13
-8 27 -1 13 7 25 8 37 1 9 -6 11 -11 5 -11 -16 0 -17 -30 -2 -30 5 0 7 6 3 13
-5 9 -4 9 6 0 7 -6 19 -9 28 -5 12 4 14 1 9 -13 -7 -17 -6 -17 20 0 28 18 28
18 10 -2 -15 -18 -16 -21 -3 -26 9 -4 18 -1 22 5 5 7 2 8 -6 3 -9 -6 -11 -4
-6 4 5 7 11 9 15 6 6 -7 7 -12 10 -39 1 -16 53 -18 64 -2 4 6 5 -1 3 -16 -4
-22 -1 -26 14 -23 10 2 21 -4 25 -13 6 -15 8 -15 21 2 12 18 14 18 15 3 2 -31
4 -35 13 -44 5 -4 6 -3 3 3 -11 20 21 24 39 6 13 -12 19 -13 22 -4 2 7 8 9 14
6 6 -4 1 -12 -12 -19 -15 -8 -19 -15 -11 -19 6 -4 11 -2 11 4 0 6 5 8 10 5 6
-4 8 -9 6 -13 -2 -4 7 -8 20 -8 15 -1 22 2 17 10 -3 6 3 2 15 -8 24 -21 31
-36 8 -17 -10 8 -16 9 -21 1 -4 -6 -1 -9 7 -8 7 2 12 -3 10 -10 -2 -10 2 -10
18 0 17 11 22 10 30 -2 5 -8 6 -18 3 -24 -3 -5 -1 -6 5 -2 6 3 18 -1 26 -10 9
-8 16 -11 16 -6 0 5 -10 16 -22 24 -17 11 -19 16 -8 23 8 5 11 4 7 -2 -4 -5 5
-16 18 -23 13 -7 22 -16 20 -20 -3 -5 2 -10 10 -13 10 -4 12 -1 8 10 -4 10 3
7 18 -8 13 -13 23 -31 21 -39 -2 -12 -1 -12 6 -1 11 15 56 6 47 -10 -4 -5 3
-9 15 -9 17 0 20 -4 15 -22 -4 -16 -3 -19 3 -9 7 9 12 10 16 2 4 -6 12 -9 17
-6 17 11 50 14 44 4 -4 -5 -11 -6 -17 -3 -7 4 -8 2 -4 -4 4 -6 14 -8 23 -5 11
4 14 3 9 -5 -4 -7 -1 -12 10 -12 11 0 15 -6 11 -20 -3 -11 -1 -18 4 -14 5 3 9
13 10 22 0 11 2 12 6 4 2 -6 9 -10 14 -6 5 3 9 -2 9 -10 0 -9 7 -16 15 -16 9
0 12 -6 8 -17 -5 -15 -3 -15 11 2 16 19 17 19 12 1 -5 -16 -4 -17 8 -7 16 14
40 6 31 -10 -5 -8 24 -14 48 -10 5 1 6 -3 2 -8 -3 -6 -12 -8 -20 -4 -8 3 -15
1 -15 -5 0 -6 13 -8 30 -6 25 4 29 2 24 -13 -5 -17 -5 -17 6 0 6 9 17 15 23
11 7 -3 3 2 -7 10 -18 15 -18 16 -2 16 11 0 15 4 9 12 -14 23 -12 37 5 31 10
-4 14 -3 10 2 -4 4 -3 17 3 27 8 15 8 23 -2 32 -9 8 -10 8 -5 -1 4 -7 3 -21
-3 -30 -8 -14 -9 -10 -8 19 2 29 5 34 18 28 11 -6 16 -5 16 5 0 8 -4 12 -9 9
-4 -3 -8 -1 -8 5 0 6 -8 8 -17 4 -15 -5 -14 -3 2 10 11 9 16 17 11 17 -5 0 -2
7 5 16 15 18 22 47 9 39 -4 -3 -10 2 -14 10 -3 8 0 17 6 21 7 5 8 2 3 -6 -5
-8 -4 -11 3 -7 11 7 11 32 -1 43 -10 11 -9 26 2 20 5 -4 8 2 6 11 -1 10 2 23
7 29 11 15 -19 47 -35 37 -7 -4 -6 1 2 10 15 18 26 23 16 7 -3 -5 -1 -10 4
-10 6 0 11 7 11 15 0 8 -5 15 -11 15 -5 0 -7 5 -4 10 4 6 10 8 15 5 5 -3 11
-1 15 4 3 6 -4 8 -15 6 -14 -3 -20 0 -17 8 3 7 11 11 18 9 9 -1 8 3 -3 11 -23
18 -23 31 0 22 13 -5 14 -3 5 6 -6 6 -9 18 -6 27 5 11 3 13 -7 7 -9 -6 -8 -1
3 15 12 17 13 28 6 42 -5 10 -6 18 -1 18 10 0 8 34 -3 63 -4 10 -3 17 5 17 6
0 8 -5 4 -12 -5 -7 -3 -8 6 -3 10 6 10 11 -3 20 -20 14 -23 29 -4 20 6 -4 3 1
-7 9 -18 15 -18 16 -2 16 10 0 14 4 10 12 -11 18 -13 68 -2 68 5 0 6 -5 2 -12
-4 -7 -3 -8 5 -4 6 4 9 11 6 16 -3 4 0 10 7 12 7 3 5 7 -6 11 -11 5 -15 3 -10
-5 5 -7 3 -8 -6 -3 -10 6 -10 11 3 20 9 7 14 15 10 18 -3 4 -13 1 -21 -5 -8
-7 -6 3 7 25 11 20 18 37 15 37 -4 0 0 8 7 17 11 14 11 15 1 9 -10 -6 -13 -3
-10 10 2 11 -3 25 -12 32 -13 10 -12 11 5 6 l20 -6 -20 18 c-18 15 -18 16 -2
10 13 -4 17 -2 14 6 -2 7 -10 12 -17 10 -10 -2 -11 0 -2 11 7 8 8 18 4 22 -4
5 -1 5 6 1 7 -4 9 -12 6 -18 -4 -7 -2 -8 4 -4 7 4 12 2 12 -5 0 -7 2 -10 5 -7
3 3 -1 17 -8 31 -8 15 -16 25 -19 22 -2 -3 -5 2 -5 10 0 13 2 13 17 0 14 -13
16 -12 16 5 0 10 -4 16 -8 14 -4 -3 -8 2 -8 10 0 10 7 13 20 11 11 -2 18 0 15
5 -6 10 -24 8 -43 -4 -7 -4 -16 -5 -19 -2 -4 3 -1 6 6 6 7 0 9 5 5 12 -4 7 -3
8 4 4 8 -5 12 1 12 18 0 14 4 27 9 30 5 3 7 15 4 26 -4 16 -2 19 13 14 18 -5
18 -5 1 6 -9 6 -15 15 -12 21 4 5 -4 14 -17 19 -22 10 -22 10 4 5 15 -3 30 0
33 5 4 6 3 10 -2 9 -21 -4 -31 3 -28 18 1 10 -3 25 -9 33 -10 13 -9 13 7 1 9
-8 21 -10 25 -6 4 4 1 10 -5 12 -7 3 -13 9 -13 14 0 6 4 7 10 4 6 -3 7 1 4 9
-3 9 -9 14 -13 11 -4 -2 -8 3 -8 11 0 9 6 13 14 10 8 -3 12 -2 8 3 -3 5 0 11
7 13 7 3 5 7 -6 11 -12 5 -15 3 -10 -6 4 -6 3 -9 -1 -4 -13 11 -16 45 -5 52 6
3 7 -1 4 -9 -3 -9 -1 -16 6 -16 6 0 9 4 6 9 -4 5 0 12 6 14 10 4 10 6 1 6 -7
1 -13 10 -13 22 0 11 4 17 10 14 6 -3 7 1 4 9 -3 9 -9 14 -14 11 -4 -2 -7 9
-6 26 1 16 7 34 15 38 9 6 10 10 2 12 -16 6 -22 57 -8 66 6 4 7 1 2 -7 -5 -9
-4 -11 4 -6 9 6 9 11 1 21 -7 8 -13 26 -14 40 -3 20 -1 23 10 14 17 -14 18 2
2 20 -10 11 -10 13 0 7 6 -4 12 -2 12 3 0 6 -4 11 -9 11 -5 0 -12 7 -15 16 -6
14 -4 15 9 4 13 -11 16 -11 13 1 -2 8 3 13 10 11 10 -2 10 2 0 17 -7 11 -15
18 -19 15 -4 -2 -9 3 -12 11 -4 10 -1 12 11 8 15 -6 16 -5 2 12 -9 11 -10 16
-2 11 6 -4 12 -2 12 3 0 6 -4 11 -9 11 -5 0 -12 7 -15 16 -4 10 -2 13 7 7 15
-9 41 -14 33 -6 -3 4 0 13 6 22 8 10 4 9 -10 -3 -12 -11 -22 -15 -23 -10 -5
44 -4 82 3 78 4 -3 8 13 8 36 0 29 -4 39 -12 34 -7 -5 -8 -3 -2 7 5 8 9 19 9
24 0 6 5 10 12 10 6 0 15 4 20 9 5 5 3 6 -4 2 -7 -4 -13 -2 -13 4 0 6 -5 8
-12 4 -6 -4 -8 -3 -4 4 3 5 3 12 -1 15 -5 2 -3 3 3 1 6 -1 16 8 24 19 11 19
11 20 -1 11 -11 -9 -17 -8 -29 4 -13 14 -12 15 3 9 9 -3 19 -2 22 3 4 6 1 10
-6 10 -7 0 -1 10 12 22 15 13 18 19 7 15 -10 -3 -23 3 -35 16 -18 22 -18 22 4
4 22 -19 31 -14 38 23 2 12 0 18 -6 15 -5 -4 -7 -10 -4 -15 3 -5 2 -11 -3 -14
-4 -2 -8 6 -8 20 0 13 4 24 8 24 4 0 8 5 8 11 0 5 -4 8 -9 5 -11 -7 -2 34 11
51 6 7 5 14 -3 18 -8 6 -7 10 2 17 10 6 6 7 -11 3 -17 -4 -21 -3 -12 3 8 5 13
12 12 16 -1 4 0 10 3 14 2 4 2 0 0 -8 -2 -8 0 -11 4 -6 12 12 11 66 -1 59 -6
-4 -5 1 3 10 12 15 11 17 -3 17 -10 0 -14 5 -11 10 4 6 10 8 14 6 4 -3 8 1 8
9 0 8 -5 11 -10 8 -6 -4 -8 0 -5 9 9 22 -5 38 -34 40 -15 1 -24 6 -22 10 3 5
11 5 17 1 7 -4 5 1 -2 11 -14 17 -15 17 -28 0 -8 -10 -13 -13 -13 -5 0 7 -6 9
-12 6 -7 -4 -3 2 10 13 l22 20 -37 -1 c-25 -1 -38 3 -40 13 -4 13 -3 13 7 0 9
-12 11 -12 8 -1 -4 14 -27 22 -60 22 -9 0 -24 9 -33 19 -10 11 -22 17 -28 13
-6 -3 -7 -1 -3 6 5 8 12 9 20 2 8 -7 12 -4 13 12 1 12 -1 17 -5 12 -10 -14
-46 -19 -37 -6 4 7 -4 11 -19 11 -24 0 -32 13 -27 43 1 5 -3 6 -9 2 -6 -3 -8
-11 -5 -16 4 -5 1 -9 -4 -9 -11 0 -15 15 -11 35 1 5 -2 7 -6 3 -4 -4 -13 0
-21 10 -13 15 -13 15 -4 -5 8 -16 7 -22 -5 -27 -8 -3 -12 -2 -9 4 3 5 2 17 -3
26 -6 12 -11 13 -16 5 -12 -19 -69 27 -63 51 4 15 2 17 -7 9 -7 -6 -16 -8 -19
-4 -4 3 -7 0 -7 -8 0 -12 -2 -12 -9 0 -5 8 -7 21 -4 29 5 11 1 13 -16 7 -21
-6 -22 -5 -12 14 14 25 8 27 -13 5 -12 -12 -16 -12 -16 -2 0 10 -3 9 -11 -2
-8 -12 -9 -10 -4 7 3 12 1 25 -6 29 -7 4 -9 3 -6 -3 3 -5 0 -10 -7 -10 -8 0
-12 6 -9 14 3 7 0 13 -7 13 -6 0 -8 5 -4 11 5 8 1 8 -14 0 -27 -14 -39 -14
-24 1 7 7 12 17 12 22 0 6 -5 4 -10 -4 -8 -13 -10 -13 -10 -1 0 12 -3 12 -12
3 -18 -18 -32 -14 -17 4 12 15 11 16 -11 9 -22 -7 -23 -6 -11 9 8 9 11 19 7
23 -3 3 -6 1 -6 -5 0 -7 -5 -12 -11 -12 -5 0 -7 4 -4 10 3 5 -4 10 -17 10 -41
0 -57 3 -52 11 6 11 -26 40 -37 34 -5 -4 -9 -1 -9 4 0 6 5 11 12 11 6 0 8 3 5
6 -4 4 -14 1 -24 -7 -15 -12 -16 -12 -10 3 3 10 -1 22 -11 30 -11 9 -14 10 -8
1 4 -8 1 -13 -9 -13 -9 0 -14 4 -11 9 3 5 -1 12 -10 15 -8 3 -12 2 -9 -3 3 -5
0 -13 -6 -17 -8 -4 -9 -3 -5 4 4 7 2 12 -5 12 -9 0 -9 3 0 14 8 9 8 16 2 20
-5 4 -13 1 -17 -5 -4 -8 -9 -7 -15 2 -8 12 -11 11 -19 -1 -8 -12 -9 -9 -6 12
3 20 1 25 -9 22 -8 -3 -11 -13 -8 -21 5 -12 1 -11 -15 3 -26 22 -26 22 -9 20
6 0 12 4 13 9 0 6 -8 9 -19 7 -13 -3 -17 0 -12 10 3 7 -1 4 -9 -6 -9 -11 -16
-14 -16 -7 0 7 -4 10 -9 7 -4 -3 -7 6 -5 19 1 14 -1 23 -6 20 -5 -3 -11 1 -13
7 -4 10 -6 10 -6 0 -1 -7 -5 -10 -11 -7 -5 3 -10 1 -10 -6 0 -7 -3 -9 -6 -6
-4 4 -1 13 6 22 7 9 10 18 6 22 -3 3 -6 1 -6 -5 0 -7 -5 -12 -11 -12 -5 0 -8
4 -5 9 3 5 -1 12 -10 15 -8 3 -12 11 -8 17 4 8 3 9 -5 5 -15 -10 -43 13 -34
28 4 6 -1 5 -10 -3 -20 -16 -23 -25 -4 -15 6 4 8 3 4 -1 -16 -18 -34 -13 -32
10 2 17 -1 22 -15 18 -11 -3 -19 2 -23 16 -3 12 -11 21 -19 21 -10 0 -9 -3 2
-10 13 -8 12 -10 -2 -10 -10 0 -18 5 -18 11 0 5 -6 7 -12 3 -8 -5 -8 -2 1 10
12 15 12 17 0 14 -8 -2 -13 3 -11 12 3 12 1 13 -9 2 -16 -15 -29 -16 -29 -1 0
5 5 7 10 4 6 -3 10 -2 10 3 0 6 -7 13 -16 16 -8 3 -12 2 -9 -3 3 -5 1 -12 -5
-16 -5 -3 -10 -1 -10 5 0 7 -7 9 -16 6 -14 -5 -15 -4 -4 9 11 13 10 14 -6 8
-17 -6 -17 -5 -5 10 12 15 12 17 -2 12 -18 -7 -59 24 -50 38 3 6 1 7 -6 3 -6
-4 -9 -12 -6 -17 4 -5 -1 -9 -10 -9 -12 0 -13 4 -6 18 7 14 6 19 -4 19 -8 0
-12 -3 -10 -7 2 -4 -2 -7 -9 -7 -8 0 -12 8 -9 21 4 18 2 18 -12 -4 -15 -23
-15 -24 -10 -2 4 13 2 22 -4 22 -6 0 -11 -4 -11 -10 0 -5 -5 -10 -12 -10 -6 0
-8 3 -5 7 8 7 -34 39 -46 35 -5 -1 -6 2 -2 8 4 7 17 3 36 -10 16 -12 29 -18
29 -13 0 12 -56 44 -64 36 -3 -4 -13 2 -22 13 -8 10 -12 12 -8 4 4 -8 4 -12
-1 -8 -4 4 -14 3 -21 -3 -8 -7 -14 -6 -20 2 -4 7 -3 9 4 5 6 -3 16 3 22 14 7
13 7 20 0 20 -5 0 -10 -5 -10 -11 0 -5 -5 -7 -11 -3 -6 3 -8 15 -6 26 4 16 3
17 -9 7 -7 -6 -11 -16 -7 -23 3 -6 -3 -3 -14 7 -11 9 -23 14 -26 10 -4 -3 -7
2 -7 12 0 17 1 17 20 0 11 -10 20 -14 19 -9 0 13 -59 58 -59 46 0 -6 6 -13 13
-15 6 -3 7 -6 1 -6 -5 -1 -19 6 -30 15 -10 8 -13 12 -5 8 9 -5 12 -3 7 4 -9
15 -11 15 -31 -4 -15 -16 -16 -16 -13 2 2 10 9 24 17 30 11 9 10 11 -5 9 -11
0 -26 -5 -33 -10 -11 -6 -13 -4 -8 7 4 12 1 14 -14 11 -13 -4 -19 0 -19 10 0
10 -6 13 -20 10 -12 -3 -20 0 -20 6 0 7 -5 9 -12 5 -8 -5 -7 0 2 11 8 10 10
16 3 12 -7 -4 -17 0 -23 10 -10 16 -11 16 -6 1 3 -10 1 -20 -5 -23 -5 -4 -9
-3 -8 2 3 16 -2 28 -20 52 -14 18 -20 21 -26 11 -5 -9 -4 -11 3 -6 7 4 12 3
12 -3 0 -5 -9 -9 -19 -8 -15 1 -17 5 -11 17 6 12 5 17 -5 17 -8 0 -12 -4 -9
-8 2 -4 -1 -11 -7 -15 -7 -4 -10 -3 -6 2 3 5 -1 20 -10 34 -8 14 -12 17 -9 8
6 -21 -5 -30 -24 -17 -8 5 -10 9 -4 9 6 0 11 13 10 29 -1 19 -5 26 -11 20 -14
-14 -22 -11 -28 14 -6 20 -5 20 7 4 11 -14 15 -15 25 -4 6 8 8 16 5 20 -3 3 6
4 20 3 17 -2 26 2 26 11 0 9 -5 11 -12 7 -7 -4 -9 -3 -5 1 10 12 38 15 31 4
-3 -5 0 -9 7 -9 7 0 9 8 6 21 -5 17 -3 18 9 8 8 -6 17 -9 21 -6 3 4 12 2 20
-5 8 -6 13 -7 12 -2 -4 21 2 26 18 13 15 -12 16 -12 8 1 -12 20 -15 41 -5 35
5 -3 11 1 14 7 3 7 3 2 0 -11 -6 -21 -4 -22 9 -10 8 8 12 19 9 24 -3 6 3 3 13
-5 17 -13 18 -13 13 1 -5 13 -2 16 13 12 15 -4 19 0 19 18 0 19 2 21 10 9 9
-13 10 -13 11 0 0 10 3 8 9 -5 7 -15 9 -16 9 -4 1 9 10 19 22 22 12 3 18 10
15 15 -3 6 2 8 14 5 11 -3 20 0 20 6 0 6 -5 11 -12 11 -6 0 -9 2 -6 5 9 10 38
-7 31 -18 -3 -6 -1 -7 6 -3 6 4 9 11 6 16 -3 5 -1 11 5 15 10 6 15 -9 10 -30
-1 -5 2 -6 7 -2 4 5 8 18 8 30 0 23 24 31 37 12 5 -6 8 -3 8 7 0 12 5 15 17
11 11 -4 14 -3 9 5 -4 7 -3 12 2 12 5 0 19 9 32 20 13 11 28 20 33 20 6 0 2
-6 -9 -14 -10 -8 -16 -17 -13 -20 3 -3 14 2 25 12 11 11 32 18 48 17 15 0 30
4 33 9 3 5 1 6 -4 3 -11 -7 -28 22 -18 31 3 3 5 0 5 -6 0 -7 7 -12 16 -12 9 0
12 5 8 13 -6 10 -4 10 7 0 7 -7 18 -13 24 -13 5 0 4 4 -3 9 -10 6 -9 11 4 22
10 8 15 9 11 3 -7 -12 21 -29 31 -19 3 3 0 5 -7 5 -7 0 -10 4 -6 9 3 6 -3 14
-12 20 -10 6 -14 11 -9 11 5 0 18 -8 29 -18 13 -10 17 -11 12 -3 -6 11 -4 13
7 8 9 -3 20 -1 26 5 8 8 15 8 26 -1 10 -8 16 -9 21 -1 4 6 1 9 -6 8 -14 -4
-20 40 -6 49 6 3 7 1 3 -5 -3 -6 -2 -13 4 -17 5 -3 10 -1 10 6 0 7 11 10 30 7
33 -5 60 15 39 28 -8 5 -9 3 -4 -6 6 -9 4 -11 -5 -5 -9 6 -11 4 -5 -5 5 -9 4
-11 -4 -6 -9 6 -9 11 0 22 9 11 16 11 33 2 20 -10 20 -10 6 7 -14 17 -14 18 8
6 12 -7 22 -8 22 -2 0 5 12 8 28 6 15 -2 21 -2 15 1 -20 9 -15 24 5 17 15 -6
15 -4 4 9 -11 14 -10 16 9 11 15 -4 20 -3 15 5 -4 7 -2 12 3 12 6 0 11 -4 11
-10 0 -5 5 -10 11 -10 6 0 8 7 5 16 -3 8 -2 12 4 9 6 -3 10 -1 10 4 0 6 8 11
17 11 15 0 15 -1 -2 -13 -14 -11 -15 -16 -5 -22 8 -5 11 -4 7 2 -4 6 0 13 8
17 9 3 12 12 8 23 -6 16 -5 17 12 3 11 -9 16 -10 11 -2 -4 6 -3 12 3 12 5 0
12 -6 14 -12 3 -8 6 -6 6 5 1 9 8 17 16 17 8 0 15 5 15 11 0 8 6 7 17 -2 15
-13 15 -12 4 10 -8 14 -9 21 -2 17 6 -4 20 -9 30 -11 15 -3 18 0 14 13 -6 15
-4 15 10 4 14 -12 16 -11 12 7 -2 12 0 19 5 16 5 -3 11 -1 15 5 4 7 13 6 27
-1 18 -10 20 -9 15 5 -3 8 -2 18 4 21 5 4 8 1 7 -6 -2 -6 3 -14 11 -17 8 -3
11 0 7 7 -4 6 0 11 10 11 16 0 16 1 -2 16 -10 8 -14 13 -8 10 7 -3 26 -3 43 0
27 6 30 9 19 23 -12 14 -11 14 5 2 16 -12 21 -9 18 12 -1 4 8 3 20 -3 19 -11
20 -10 15 12 -3 12 -3 17 0 10 3 -6 11 -9 16 -6 6 4 8 3 5 -3 -3 -5 1 -10 9
-10 9 0 13 6 9 16 -5 12 -3 13 6 4 13 -13 39 -7 39 9 0 6 -8 4 -17 -3 -16 -12
-16 -12 0 8 13 15 28 20 54 18 33 -2 35 -1 18 11 -23 17 -12 18 18 2 20 -10
21 -10 9 5 -12 14 -9 18 19 32 24 13 33 14 39 5 6 -10 13 -9 30 3 12 8 29 13
37 10 11 -4 13 1 7 23 -6 28 -6 28 9 9 13 -15 17 -16 17 -5 1 22 47 53 56 38
5 -7 3 -8 -6 -3 -9 5 -11 4 -6 -4 6 -8 12 -9 20 -2 7 6 15 9 18 6 3 -3 11 1
17 9 7 8 20 12 29 9 14 -4 15 -3 2 6 -13 9 -13 12 -1 23 8 7 11 8 8 2 -4 -7
-1 -14 7 -17 10 -4 12 0 8 16 -5 21 -5 21 12 5 10 -10 19 -18 21 -18 3 0 1 8
-2 18 -6 14 -4 15 9 4 21 -17 44 7 25 28 -6 8 2 5 18 -5 l30 -18 -20 23 -20
23 22 -12 c20 -10 22 -9 16 6 -6 16 -4 16 18 -2 22 -19 23 -19 9 -1 -13 18
-13 19 1 14 10 -4 33 2 52 12 19 10 38 16 43 12 4 -4 4 -1 0 6 -4 7 -12 9 -18
6 -7 -4 -8 -2 -4 5 4 6 12 8 18 5 8 -5 9 -1 5 10 -4 11 -3 15 4 10 6 -4 15 0
20 7 6 9 9 10 9 2 0 -6 -4 -15 -10 -18 -5 -3 -10 -12 -10 -18 0 -7 5 -4 11 6
6 9 15 15 20 11 5 -3 8 0 7 7 -2 6 3 14 11 17 9 3 11 0 7 -7 -11 -17 15 -9 38
11 10 10 24 15 29 11 6 -3 7 -1 3 6 -4 6 -11 9 -15 7 -4 -3 -13 -1 -19 3 -8 4
2 8 22 8 21 0 33 -4 29 -10 -3 -6 -1 -7 6 -3 7 5 9 16 5 29 -6 21 -6 21 13 -2
15 -18 20 -20 20 -8 0 9 -5 13 -11 10 -6 -4 -2 3 8 15 20 23 32 30 21 12 -9
-14 8 -12 24 3 10 8 12 8 7 0 -3 -6 -2 -15 4 -18 6 -4 10 -3 9 2 -4 20 2 24
18 12 10 -8 14 -9 10 -2 -4 7 0 17 10 23 17 11 17 11 1 6 -10 -3 -18 0 -18 5
0 7 11 9 25 7 14 -3 25 -1 25 5 0 5 7 4 15 -3 13 -11 14 -10 9 4 -7 19 14 49
28 40 6 -4 15 0 20 7 6 10 7 6 3 -11 -5 -22 -4 -23 5 -7 12 18 57 42 74 38 5
-1 6 5 2 14 -4 13 -2 14 14 5 24 -13 40 -13 20 0 -12 8 -11 10 7 10 12 0 23
-3 26 -7 2 -5 2 -1 0 7 -8 29 -8 33 4 37 7 3 13 0 13 -7 0 -6 -5 -8 -12 -4 -7
4 -8 3 -4 -4 10 -17 38 -2 31 16 -4 12 -1 11 15 -3 16 -15 20 -16 15 -3 -8 19
11 33 21 17 5 -8 3 -9 -6 -4 -9 5 -11 4 -6 -4 6 -8 12 -9 20 -2 7 6 16 8 19 5
4 -4 5 2 3 13 -3 11 1 20 7 20 7 0 21 4 32 8 20 7 20 6 1 -9 -11 -9 -15 -16
-9 -16 5 0 18 9 28 20 16 18 14 25 -8 21 -5 -1 -6 3 -2 9 3 6 10 8 15 5 4 -3
10 -2 13 2 2 5 2 2 1 -4 -2 -7 1 -13 7 -13 6 0 7 -5 3 -12 -4 -7 -3 -8 4 -4 6
4 9 13 6 21 -4 10 0 13 14 10 12 -2 27 4 34 13 11 15 11 15 -2 5 -11 -8 -20
-9 -30 -1 -13 8 -12 9 2 5 19 -7 42 15 30 29 -4 4 1 2 11 -5 20 -15 23 -26 5
-15 -7 4 -10 3 -5 -1 4 -5 16 -9 27 -10 19 -2 19 -1 3 17 -9 10 -13 21 -10 25
4 3 7 2 7 -4 0 -5 7 -10 15 -10 10 0 14 6 10 16 -5 12 -3 13 6 4 13 -13 42 -6
33 8 -3 5 3 6 12 2 12 -4 15 -3 10 5 -10 16 7 15 23 0 10 -11 11 -10 6 4 -5
14 -2 16 15 13 15 -3 23 3 30 20 9 25 30 35 30 14 0 -5 5 -7 10 -4 6 4 8 11 5
16 -4 5 4 5 19 -1 21 -8 27 -6 36 11 6 10 8 24 5 29 -3 5 -1 12 5 15 6 4 9 1
8 -6 -2 -6 9 -12 24 -13 22 -1 25 1 17 16 -8 16 -7 17 15 8 18 -6 26 -5 30 5
3 8 0 13 -7 11 -7 -1 -9 -1 -4 1 4 3 4 10 1 16 -4 7 1 4 11 -5 17 -16 19 -16
34 1 9 9 13 12 9 6 -5 -7 -2 -12 7 -12 8 0 15 6 15 13 0 7 5 16 12 20 7 4 8 3
4 -4 -4 -7 -2 -12 3 -12 6 0 11 6 11 14 0 8 5 18 12 22 7 4 8 3 4 -4 -5 -8 -2
-10 8 -6 9 3 13 11 9 18 -5 8 -3 8 8 0 9 -8 21 -8 34 -3 18 9 18 9 -3 5 -12
-2 -20 0 -16 5 8 13 38 11 54 -3 8 -7 7 -4 -3 8 -22 27 -22 41 0 19 16 -16 17
-16 25 4 8 23 23 27 32 9 4 -7 4 -3 2 9 -3 16 0 20 12 16 10 -4 13 -2 8 5 -3
6 -2 13 3 16 5 4 13 1 17 -5 5 -8 3 -9 -6 -4 -9 5 -11 4 -6 -3 5 -9 14 -8 31
4 18 12 24 12 28 2 3 -8 6 -8 6 -2 1 6 -7 18 -16 25 -14 12 -16 12 -8 0 5 -10
4 -12 -4 -7 -9 6 -9 11 1 24 10 12 10 14 1 8 -8 -4 -13 -2 -13 4 0 6 -6 8 -12
4 -10 -6 -10 -4 0 7 15 16 16 29 1 29 -5 0 -7 -4 -4 -10 9 -15 -4 -12 -21 4
-11 11 -11 16 -1 19 7 3 6 6 -5 6 -9 1 -18 -4 -20 -11 -3 -7 -7 -5 -11 6 -4
10 -3 15 3 11 6 -3 10 -1 10 4 0 6 -5 11 -11 11 -5 0 -7 6 -3 13 5 7 0 6 -11
-3 -17 -14 -18 -14 -7 6 9 16 7 22 -9 32 -23 15 -29 15 -29 1 0 -5 4 -8 9 -4
15 9 23 -13 11 -32 -9 -15 -10 -14 -4 6 4 15 2 21 -4 17 -16 -10 -25 13 -12
29 10 11 10 15 1 15 -7 0 -9 5 -5 12 4 7 3 8 -5 4 -6 -4 -8 -12 -5 -18 4 -6
-2 -6 -15 1 -11 7 -21 14 -21 17 0 3 4 3 8 0 4 -2 8 4 8 14 0 11 -2 17 -4 15
-3 -2 -13 0 -23 5 -9 6 -19 7 -22 2 -2 -4 -2 -2 -1 5 3 11 -45 49 -58 46 -8
-3 -5 18 6 35 4 7 5 16 2 19 -3 4 -6 1 -6 -5 0 -7 -5 -12 -11 -12 -6 0 -8 10
-5 23 3 12 3 17 0 10 -3 -7 -14 -2 -30 14 -13 13 -29 21 -34 18 -6 -3 -10 -1
-10 5 0 7 7 9 16 6 8 -3 13 -2 9 3 -3 5 -2 11 2 14 5 2 2 2 -4 1 -19 -5 -44 7
-37 17 3 5 -3 9 -13 9 -33 0 -45 21 -25 44 9 11 12 17 6 13 -6 -4 -19 2 -29
13 -10 11 -24 16 -33 12 -15 -5 -16 -4 -2 13 9 11 10 16 3 11 -17 -10 -17 16
-1 34 11 12 10 12 -3 2 -17 -13 -49 -7 -49 9 0 5 -5 9 -11 9 -5 0 -7 -6 -3
-12 5 -9 2 -9 -9 1 -18 15 -23 26 -7 16 6 -3 10 -1 10 5 0 6 4 8 10 5 6 -3 7
1 3 10 -3 9 -9 13 -12 8 -15 -22 -36 -20 -37 4 -2 23 -1 23 13 6 13 -15 13
-14 0 7 -9 14 -20 24 -26 22 -6 -1 -11 5 -11 13 0 9 -9 15 -21 15 -17 0 -20 5
-16 21 4 16 3 18 -9 8 -11 -9 -14 -8 -14 5 0 10 -4 14 -10 11 -5 -3 -10 -2
-10 4 0 5 6 12 13 15 6 4 2 4 -9 2 -12 -2 -28 0 -35 5 -10 6 -11 9 -1 9 20 0
14 16 -13 30 -18 10 -22 17 -14 26 8 9 5 11 -10 7 -12 -3 -21 -1 -21 6 0 6 -5
10 -11 9 -6 -2 -14 4 -16 12 -4 12 -3 12 5 1 6 -8 12 -9 16 -3 6 9 -21 27 -36
24 -4 -1 -5 5 -2 13 4 8 1 15 -5 15 -6 0 -11 -5 -11 -12 0 -6 -3 -8 -6 -5 -4
4 -1 14 7 24 12 15 12 16 -2 11 -19 -7 -43 6 -45 24 0 7 -2 21 -2 31 -1 9 -7
17 -12 17 -7 0 -7 -8 1 -22 l12 -23 -21 20 c-17 17 -18 22 -6 31 8 6 14 15 14
19 0 4 -6 2 -14 -4 -11 -9 -20 -10 -35 -1 -24 12 -28 22 -6 14 11 -5 13 -2 9
10 -4 12 -13 15 -28 10 -17 -5 -19 -4 -9 7 17 17 17 34 0 20 -19 -15 -30 -1
-14 17 10 13 9 14 -2 7 -11 -6 -13 -4 -7 10 5 15 4 16 -9 5 -12 -10 -15 -10
-15 4 0 11 -7 16 -17 14 -12 -2 -17 3 -15 15 2 9 -2 17 -7 17 -6 0 -7 7 -4 17
4 11 3 14 -5 9 -7 -4 -12 -2 -12 3 0 6 -9 11 -21 11 -11 0 -17 5 -14 10 4 6
12 7 18 3 7 -4 6 1 -2 10 -11 14 -16 15 -29 5 -13 -10 -14 -10 -8 0 4 7 2 12
-6 12 -9 0 -9 3 2 10 13 9 13 10 0 11 -8 1 -18 1 -22 0 -4 0 -10 9 -13 20 -5
16 -9 18 -21 8 -13 -10 -13 -8 -5 14 7 18 7 28 -1 33 -7 4 -8 3 -4 -4 4 -7 2
-12 -3 -12 -6 0 -11 5 -11 11 0 6 -6 9 -14 6 -18 -7 -14 21 5 34 10 7 6 8 -14
5 -18 -3 -25 -1 -21 6 5 7 2 9 -8 5 -11 -4 -14 -1 -11 11 2 12 -6 21 -26 30
-17 8 -29 19 -28 25 1 7 -4 11 -10 9 -8 -1 -13 8 -13 24 0 14 -4 23 -10 19
-13 -8 -13 8 0 21 7 7 6 11 -4 11 -8 0 -13 -4 -10 -9 3 -4 0 -8 -5 -8 -6 0
-11 9 -11 20 0 12 -7 20 -17 20 -15 0 -16 -2 -3 -10 8 -5 11 -10 5 -10 -5 0
-16 4 -24 9 -11 7 -8 11 10 16 l24 8 -23 8 c-14 5 -20 13 -16 20 4 8 3 9 -5 5
-9 -6 -9 -12 1 -24 11 -15 11 -15 -3 -5 -9 7 -18 11 -20 9 -2 -2 -5 7 -5 20
-1 14 2 21 9 17 6 -3 7 -1 3 5 -5 9 -14 7 -32 -4 -22 -15 -24 -15 -24 0 0 9
-4 16 -10 16 -5 0 -7 -7 -4 -15 4 -11 2 -13 -9 -9 -8 3 -18 0 -23 -7 -4 -7 -3
-10 4 -5 6 3 13 2 16 -3 11 -16 -11 -22 -24 -6 -7 8 -18 15 -24 15 -7 0 -8 -3
0 -8 6 -4 3 -13 -9 -25 -18 -19 -19 -18 -12 3 6 19 4 20 -12 12 -10 -5 -23 -7
-30 -5 -6 2 -14 -1 -18 -6 -4 -7 1 -8 12 -4 10 3 15 3 11 -2 -4 -4 -3 -14 3
-22 9 -9 8 -13 0 -13 -6 0 -11 4 -11 10 0 5 -11 9 -24 8 -15 -1 -22 -7 -19
-15 4 -11 0 -11 -21 -3 -18 7 -25 7 -21 0 3 -6 -1 -13 -9 -16 -9 -3 -13 -11
-9 -17 4 -6 0 -8 -10 -4 -9 3 -19 2 -22 -4 -4 -5 -12 -6 -18 -2 -18 11 -38 12
-31 2 3 -5 11 -6 17 -3 9 5 9 3 0 -6 -10 -10 -15 -11 -27 -1 -12 10 -14 8 -9
-11 l5 -23 -22 25 c-19 22 -20 22 -11 3 15 -31 14 -38 -6 -22 -9 8 -14 9 -10
3 4 -7 0 -15 -9 -18 -8 -3 -13 -2 -10 3 3 5 -1 12 -10 15 -23 9 -31 7 -15 -3
10 -7 11 -12 1 -27 -10 -17 -11 -17 -6 -1 4 11 2 16 -5 12 -5 -4 -18 -1 -27 6
-12 10 -11 7 3 -10 17 -20 17 -23 3 -18 -10 3 -19 -1 -23 -11 -6 -15 -8 -15
-15 3 -6 13 -9 15 -9 5 -1 -8 -17 -25 -37 -38 -20 -13 -33 -19 -29 -13 3 6 1
11 -4 11 -6 0 -11 -6 -11 -12 0 -8 -3 -9 -8 -3 -4 6 -16 11 -27 12 -11 1 -14
0 -7 -3 7 -3 17 -15 23 -27 10 -21 10 -21 -5 -3 -11 14 -16 15 -16 6 0 -9 -5
-7 -15 6 -11 14 -14 15 -9 3 3 -10 0 -20 -5 -24 -6 -3 -8 -12 -5 -18 5 -8 3
-8 -7 1 -17 16 -32 16 -23 0 4 -7 4 -10 -1 -6 -4 4 -15 2 -23 -5 -10 -8 -13
-8 -9 -1 4 7 0 15 -9 18 -9 3 -12 2 -9 -5 4 -6 0 -9 -10 -7 -11 2 -19 -4 -20
-14 -2 -10 2 -18 8 -18 5 0 8 -3 5 -6 -4 -3 -15 -1 -26 5 -16 8 -21 7 -26 -5
-5 -14 -9 -14 -22 -3 -13 11 -15 10 -12 -5 4 -22 -32 -32 -44 -13 -5 7 -8 2
-8 -13 0 -14 -4 -20 -8 -15 -8 11 -32 18 -32 9 0 -3 5 -15 11 -27 11 -22 11
-22 -10 1 -24 25 -40 30 -21 7 7 -8 10 -16 6 -16 -3 -1 -9 -2 -13 -3 -5 -1
-15 -5 -23 -11 -13 -8 -13 -7 -1 8 8 10 11 20 7 24 -3 3 -6 1 -6 -5 0 -7 -6
-12 -14 -12 -8 0 -18 -5 -22 -12 -5 -7 -3 -8 6 -3 9 5 11 4 6 -4 -6 -9 -11 -9
-24 1 -13 11 -15 10 -9 -4 5 -15 2 -16 -18 -8 -19 7 -23 6 -18 -5 3 -8 9 -13
13 -10 5 3 11 1 14 -4 9 -14 -19 -7 -40 9 -11 9 -15 10 -10 3 4 -8 2 -13 -4
-13 -6 0 -8 -5 -4 -12 5 -7 3 -8 -5 -4 -7 5 -19 0 -28 -10 -12 -16 -12 -14 1
8 13 22 13 26 2 22 -8 -3 -17 -12 -20 -20 -3 -9 -10 -12 -16 -9 -6 3 -7 -1 -4
-9 3 -9 1 -16 -5 -16 -6 0 -11 5 -11 10 0 6 -5 10 -11 10 -5 0 -8 -4 -5 -8 3
-5 -13 -19 -34 -31 -22 -12 -40 -18 -40 -12 0 6 -7 8 -15 5 -8 -4 -15 -10 -15
-16 0 -5 4 -7 9 -3 5 3 12 1 16 -4 3 -6 -5 -8 -19 -5 -14 2 -27 0 -31 -5 -3
-6 -13 -7 -22 -4 -10 4 -14 2 -10 -4 5 -7 0 -9 -13 -6 -15 4 -20 0 -21 -13 0
-18 -1 -18 -9 1 -5 11 -9 17 -11 13 -4 -17 -7 -28 -8 -35 0 -3 -10 2 -20 11
-12 11 -21 13 -25 7 -4 -5 2 -15 11 -21 15 -9 15 -10 -6 -4 -18 5 -22 3 -15
-7 7 -12 5 -12 -9 0 -14 11 -18 11 -23 -3 -3 -9 -15 -16 -26 -16 -12 0 -17 4
-12 12 4 7 3 8 -5 4 -9 -6 -9 -11 -1 -21 7 -9 6 -16 -7 -26 -16 -13 -17 -12
-4 4 14 18 5 22 -18 8 -8 -5 -10 -14 -5 -22 6 -11 5 -12 -8 -2 -8 7 -18 10
-21 6 -4 -3 -13 0 -21 6 -11 9 -16 9 -22 0 -4 -8 -3 -9 4 -5 7 4 12 1 12 -9 0
-13 -4 -14 -22 -4 l-23 12 20 -24 c11 -13 13 -18 5 -11 -19 16 -33 15 -27 -3
4 -8 2 -17 -4 -20 -5 -4 -9 -3 -8 2 5 29 -1 36 -19 20 -15 -13 -21 -14 -32 -4
-10 10 -11 9 -5 -2 6 -11 4 -13 -8 -8 -11 4 -15 1 -12 -12 2 -14 -3 -17 -26
-16 -17 1 -32 -2 -35 -7 -3 -4 -14 -8 -25 -8 -12 0 -17 -4 -14 -11 5 -7 15 -5
30 5 15 10 26 12 30 6 4 -6 3 -9 -2 -8 -15 4 -54 -23 -47 -34 4 -7 3 -8 -5 -4
-6 4 -9 12 -6 17 4 5 -1 9 -10 9 -9 0 -14 -4 -10 -9 3 -5 0 -13 -6 -17 -7 -4
-9 -3 -6 3 4 6 -5 10 -22 9 -16 -1 -27 -4 -25 -7 6 -11 -23 -18 -33 -8 -5 5
-9 1 -10 -11 -1 -11 2 -18 8 -15 5 4 9 1 9 -4 0 -6 -10 -10 -22 -8 -14 1 -22
-3 -20 -11 2 -10 -2 -10 -17 0 -15 9 -26 9 -45 0 -19 -8 -26 -8 -30 1 -3 7 -3
1 -2 -13 3 -19 -1 -26 -13 -26 -12 0 -17 7 -15 22 1 15 -2 21 -11 18 -9 -4
-12 4 -9 30 3 33 -2 40 -26 38 -3 0 -7 8 -7 20 -1 13 3 18 12 15 7 -3 21 0 30
7 15 11 15 12 -4 12 -11 0 -17 -5 -13 -11 3 -5 -2 -4 -11 4 -9 7 -17 19 -17
25 0 7 3 8 8 1 9 -13 27 -13 39 -1 4 5 4 7 -2 3 -6 -3 -19 1 -30 9 -12 9 -14
14 -5 14 9 0 8 6 -6 22 -11 13 -12 18 -3 11 13 -11 15 -6 15 37 1 30 -3 47 -9
43 -6 -3 -7 -2 -4 4 4 6 18 9 32 8 14 -2 23 1 20 5 -3 5 -12 7 -20 3 -8 -3
-15 0 -15 7 0 6 -4 9 -10 5 -5 -3 -3 6 5 21 12 24 12 31 -1 55 -13 25 -12 28
1 23 8 -3 13 -10 10 -14 -3 -4 2 -11 10 -14 12 -4 13 -1 7 12 -10 21 -10 32 3
52 8 13 7 13 -8 1 -9 -7 -14 -18 -10 -24 3 -5 2 -7 -4 -4 -5 3 -8 22 -7 42 2
24 0 33 -8 29 -7 -5 -8 -3 -2 7 11 17 15 91 5 84 -4 -2 -8 2 -8 10 0 11 3 12
14 3 8 -6 12 -16 9 -23 -2 -6 2 -12 9 -12 11 0 11 5 -1 28 -18 36 -18 40 4 33
14 -5 14 -4 2 4 -8 7 -19 7 -25 2 -7 -6 -11 -3 -11 9 0 10 7 18 14 17 16 -1
25 31 12 39 -5 3 -7 -4 -5 -16 2 -12 1 -19 -3 -15 -3 4 -7 25 -7 47 0 28 4 39
15 39 13 0 13 2 0 9 -8 6 -18 7 -24 4 -5 -3 -6 -2 -3 4 4 6 18 9 32 8 14 -2
23 1 20 5 -3 5 -12 7 -20 3 -8 -3 -15 0 -15 7 0 6 -5 8 -11 5 -6 -4 -5 3 3 14
11 18 11 23 0 30 -11 7 -10 9 3 14 11 5 14 3 9 -6 -5 -9 -3 -8 7 1 12 11 12
14 -1 22 -8 5 -17 7 -20 5 -3 -2 -7 5 -7 17 -1 13 3 18 12 15 7 -3 21 0 30 7
15 11 15 12 -4 12 -11 0 -17 -5 -13 -11 3 -5 -2 -4 -11 4 -9 7 -17 19 -17 25
0 7 3 8 8 1 9 -13 27 -13 39 -1 4 5 4 7 -2 3 -6 -3 -19 1 -30 9 -12 9 -14 14
-5 14 11 0 11 3 2 12 -16 16 -15 25 1 31 8 3 14 -1 14 -9 0 -7 -5 -10 -10 -7
-6 4 -7 1 -3 -6 10 -15 19 -7 23 19 2 17 -6 24 -27 22 -3 0 -7 8 -7 20 -1 13
3 18 12 15 7 -3 21 0 30 7 15 11 15 12 -4 12 -11 0 -17 -5 -13 -11 3 -5 -2 -4
-11 4 -9 7 -17 19 -17 25 0 7 3 8 8 1 9 -13 27 -13 39 -1 4 5 4 7 -2 3 -6 -3
-19 1 -30 9 -12 9 -14 14 -5 14 9 0 8 6 -6 22 -12 14 -13 18 -3 10 9 -6 20 -8
24 -4 5 4 5 1 0 -7 -6 -10 -4 -12 4 -7 9 6 9 12 -2 24 -8 10 -13 27 -11 40 2
14 0 21 -6 17 -6 -3 -7 1 -4 10 6 14 8 14 20 -2 13 -16 13 -15 3 9 -7 15 -17
25 -23 21 -6 -3 -5 0 2 8 15 16 16 33 0 23 -8 -5 -8 -3 -2 7 11 17 15 91 5 84
-4 -2 -8 2 -8 10 0 11 3 12 14 3 8 -6 12 -16 9 -23 -2 -6 2 -12 9 -12 11 0 11
5 -1 28 -18 36 -18 40 4 33 14 -5 14 -4 2 4 -8 7 -19 7 -25 2 -7 -6 -11 -2
-11 10 0 10 4 16 8 14 20 -12 27 9 13 36 -18 34 -18 40 -4 40 5 0 8 -4 5 -9
-3 -5 1 -12 9 -15 12 -4 13 -2 6 12 -5 9 -9 21 -9 25 0 5 -4 12 -8 15 -4 4 -4
2 -1 -4 3 -6 -1 -11 -9 -11 -10 0 -11 4 -4 11 14 14 13 39 -2 30 -10 -6 -10
-4 0 7 15 16 16 33 0 23 -8 -5 -8 -3 -2 7 11 17 15 91 5 84 -4 -2 -8 2 -8 10
0 11 3 12 14 3 8 -6 12 -16 9 -23 -2 -6 2 -12 9 -12 11 0 11 5 -1 28 -18 36
-18 40 4 33 14 -5 14 -4 2 4 -8 7 -19 7 -25 2 -7 -6 -11 -3 -11 9 0 10 7 18
14 17 9 -1 16 10 17 27 3 24 -3 31 -25 29 -3 0 -7 8 -7 20 -1 13 3 18 12 15 7
-3 21 0 30 7 15 11 15 12 -4 12 -11 0 -17 -5 -13 -11 3 -5 -2 -4 -11 4 -9 7
-17 19 -17 25 0 7 3 8 8 1 9 -13 27 -13 39 -1 4 5 4 7 -2 3 -6 -3 -19 1 -30 9
-12 9 -14 14 -5 14 11 0 11 3 2 12 -16 16 -15 25 1 31 8 3 14 -1 14 -9 0 -7
-5 -10 -10 -7 -6 4 -7 1 -3 -6 10 -15 19 -7 23 19 2 17 -6 24 -27 22 -3 0 -7
8 -7 20 -1 13 3 18 12 15 7 -3 21 0 30 7 15 11 15 12 -4 12 -11 0 -17 -5 -13
-11 3 -5 -2 -4 -11 4 -9 7 -17 19 -17 25 0 7 3 8 8 1 9 -13 27 -13 39 -1 4 5
4 7 -2 3 -6 -3 -19 1 -30 9 -12 9 -14 14 -5 14 9 0 8 6 -6 22 -11 13 -12 18
-3 11 13 -11 15 -6 15 37 1 30 -3 47 -9 43 -6 -3 -7 -2 -4 4 4 6 18 9 32 8 14
-2 23 1 20 5 -3 5 -12 7 -20 3 -8 -3 -15 0 -15 7 0 6 -4 9 -10 5 -5 -3 -3 6 5
21 12 24 12 31 -1 55 -13 25 -12 28 1 23 8 -3 13 -10 10 -14 -3 -4 2 -11 10
-14 12 -4 13 -1 7 12 -10 21 -10 32 3 52 8 13 7 13 -8 1 -9 -7 -14 -18 -10
-24 3 -5 2 -7 -4 -4 -5 3 -8 22 -7 42 2 24 0 33 -8 29 -7 -5 -8 -3 -2 7 11 17
15 91 5 84 -4 -2 -8 2 -8 10 0 11 3 12 14 3 8 -6 12 -16 9 -23 -2 -6 2 -12 9
-12 11 0 11 5 -1 28 -18 36 -18 40 4 33 14 -5 14 -4 2 4 -8 7 -19 7 -25 2 -7
-6 -11 -3 -11 9 0 10 7 18 14 17 16 -1 25 31 12 39 -5 3 -7 -4 -5 -16 2 -12 1
-19 -3 -15 -3 4 -7 25 -7 47 0 28 4 39 15 39 13 0 13 2 0 9 -8 6 -18 7 -24 4
-5 -3 -6 -1 -2 5 4 6 14 8 23 5 15 -6 16 -5 3 9 -8 9 -19 13 -25 10 -5 -2 -4
1 3 9 16 17 16 63 0 53 -7 -4 -8 -3 -4 4 4 6 13 9 21 6 8 -4 12 -10 9 -15 -3
-5 2 -6 12 -2 15 5 15 7 0 15 -9 5 -14 14 -10 19 4 6 11 5 20 -2 9 -7 14 -8
12 -3 -4 13 4 16 24 9 10 -4 15 -12 12 -17 -4 -6 -10 -5 -15 3 -6 10 -9 10 -9
2 0 -17 17 -25 25 -13 5 8 12 7 23 -2 16 -12 16 -11 2 7 -8 11 -19 23 -25 28
-5 4 1 5 15 3 14 -2 30 1 37 6 8 6 11 2 9 -16 -2 -15 1 -26 5 -26 5 0 9 9 9
19 0 10 7 22 16 25 8 3 13 2 9 -3 -7 -12 24 -43 36 -36 5 4 9 12 8 18 0 9 -2
8 -6 -1 -5 -13 -23 -7 -23 9 0 6 5 7 10 4 6 -3 10 0 10 7 1 7 6 3 13 -10 12
-21 14 -21 32 -6 16 13 17 15 3 10 -10 -3 -20 -1 -22 3 -3 5 5 8 17 7 14 -1
21 -7 19 -17 -1 -9 10 -21 25 -28 24 -10 26 -10 11 2 -20 16 -24 37 -7 37 5 0
8 -4 5 -9 -3 -5 1 -12 10 -15 12 -4 15 -2 11 9 -4 8 -1 17 5 21 6 4 8 3 5 -3
-4 -6 0 -14 9 -17 8 -3 13 -2 10 2 -3 5 12 8 32 7 20 -1 42 1 47 4 15 8 34 10
34 3 -1 -4 -1 -13 0 -21 1 -16 16 -5 16 11 0 6 7 13 15 15 9 3 11 1 5 -4 -5
-4 -11 -17 -12 -28 -1 -17 0 -18 10 -5 17 21 53 48 43 33 -4 -8 -1 -13 8 -13
9 0 16 5 16 10 0 6 5 10 11 10 5 0 8 -4 4 -9 -3 -6 4 -15 15 -21 11 -6 20 -8
20 -5 0 3 13 -1 29 -10 22 -11 32 -12 37 -3 4 6 3 8 -2 5 -6 -3 -16 -2 -23 2
-11 7 -11 13 -1 27 10 16 11 16 6 2 -5 -18 5 -24 18 -10 4 4 21 8 37 8 16 1
30 2 32 4 7 5 36 7 36 2 -1 -4 -1 -13 0 -21 1 -16 16 -5 16 11 0 6 7 13 15 15
9 3 11 1 5 -4 -5 -4 -11 -17 -12 -28 -1 -19 -1 -19 12 -2 12 17 15 17 38 2 17
-11 27 -13 32 -5 3 6 10 8 15 5 5 -3 12 -1 15 5 4 6 1 9 -6 8 -6 -2 -13 3 -15
10 -1 7 0 8 3 2 2 -5 8 -8 13 -5 4 3 13 -2 20 -10 14 -17 30 -20 30 -4 0 5 -4
8 -9 5 -5 -3 -12 1 -15 9 -4 13 -2 14 14 5 11 -6 20 -15 20 -19 0 -5 7 -11 15
-15 12 -4 12 -1 -2 22 -13 20 -14 24 -3 16 12 -8 73 -12 83 -4 7 5 36 7 36 2
-1 -4 -1 -13 0 -21 1 -16 16 -5 16 12 0 5 7 12 15 14 9 3 11 1 5 -4 -5 -4 -11
-17 -12 -28 -1 -17 0 -18 10 -5 17 21 53 48 43 33 -4 -8 -1 -13 8 -13 9 0 16
5 16 10 0 6 5 10 11 10 5 0 8 -4 4 -9 -3 -6 4 -15 15 -21 11 -6 20 -8 20 -5 0
3 13 -1 29 -10 22 -11 32 -12 37 -3 4 6 3 8 -2 5 -6 -3 -16 -2 -23 2 -11 7
-11 13 -1 27 10 16 11 16 6 2 -5 -18 5 -24 18 -10 4 4 21 8 37 8 16 1 30 2 32
4 7 5 36 7 36 2 -1 -4 -1 -13 0 -21 1 -16 16 -5 16 12 0 5 7 12 15 14 9 3 11
1 5 -4 -5 -4 -11 -17 -12 -28 -1 -19 -1 -19 12 -2 12 17 15 17 38 2 17 -11 27
-13 32 -5 3 6 10 8 15 5 5 -3 12 -1 15 5 4 6 1 9 -6 8 -6 -2 -13 3 -15 10 -1
7 0 8 3 2 2 -5 8 -8 13 -5 4 3 13 -2 20 -10 14 -17 30 -20 30 -4 0 5 -4 8 -9
5 -5 -3 -12 1 -15 9 -4 13 -2 14 14 5 11 -6 20 -15 20 -19 0 -5 7 -11 15 -15
12 -4 12 -1 -2 22 -13 20 -14 24 -3 16 12 -8 73 -12 83 -4 7 5 36 7 36 2 -1
-4 -1 -13 0 -21 1 -16 16 -5 16 12 0 5 7 12 15 14 9 3 11 1 5 -4 -5 -4 -11
-17 -12 -28 -1 -17 0 -18 10 -5 17 21 53 48 43 33 -4 -8 -1 -13 8 -13 9 0 16
5 16 10 0 6 5 10 11 10 5 0 8 -4 4 -9 -3 -6 4 -15 15 -21 11 -6 20 -8 20 -5 0
3 13 -1 29 -10 22 -11 32 -12 37 -3 4 6 3 8 -2 5 -6 -3 -16 -2 -23 2 -11 7
-11 13 -1 27 10 16 11 16 6 2 -5 -18 5 -24 18 -10 4 4 21 8 37 8 16 1 30 2 32
4 7 5 36 7 36 2 -1 -4 -1 -13 0 -21 1 -16 16 -5 16 12 0 5 7 12 15 14 9 3 11
1 5 -4 -5 -4 -11 -17 -12 -28 -1 -19 -1 -19 12 -2 12 17 15 17 38 2 17 -11 27
-13 32 -5 3 6 10 8 15 5 5 -3 12 -1 15 5 4 6 1 9 -6 8 -6 -2 -13 3 -15 10 -1
7 0 8 3 2 2 -5 8 -8 13 -5 4 3 13 -2 20 -10 14 -17 30 -20 30 -4 0 5 -4 8 -9
5 -5 -3 -12 1 -15 9 -4 13 -2 14 14 5 11 -6 20 -15 20 -19 0 -5 7 -11 15 -15
12 -4 12 -1 -2 22 -13 20 -14 24 -3 16 12 -8 73 -12 83 -4 7 5 36 7 36 2 -1
-4 -1 -13 0 -21 1 -16 16 -5 16 12 0 5 7 12 15 14 9 3 11 1 5 -4 -5 -4 -11
-17 -12 -28 -1 -17 0 -18 10 -5 17 21 53 48 43 33 -4 -8 -1 -13 8 -13 9 0 16
5 16 10 0 6 5 10 11 10 5 0 8 -4 4 -9 -3 -6 4 -15 15 -21 11 -6 20 -8 20 -5 0
3 13 -1 29 -10 22 -11 32 -12 37 -3 4 6 3 8 -2 5 -6 -3 -16 -2 -23 2 -11 7
-11 13 -1 27 10 16 11 16 6 2 -5 -18 5 -24 18 -10 4 4 21 8 37 8 16 1 30 2 32
4 7 5 36 7 36 2 -1 -4 -1 -13 0 -21 1 -16 16 -5 16 12 0 5 7 12 15 14 9 3 11
1 5 -4 -5 -4 -11 -17 -12 -28 -1 -19 -1 -19 12 -2 12 17 15 17 38 2 17 -11 27
-13 32 -5 3 6 10 8 15 5 5 -3 12 -1 15 5 4 6 1 9 -6 8 -6 -2 -13 3 -15 10 -1
7 0 8 3 2 2 -5 8 -8 13 -5 4 3 13 -2 20 -10 14 -17 30 -20 30 -4 0 5 -4 8 -9
5 -5 -3 -12 1 -15 9 -4 13 -2 14 14 5 11 -6 20 -16 20 -21 0 -6 7 -9 15 -5 8
3 19 -3 25 -12 11 -16 11 -16 6 0 -5 17 7 31 31 34 7 1 9 -5 6 -14 -5 -11 -3
-13 7 -7 10 6 12 4 7 -11 -7 -18 -6 -18 6 -2 11 14 16 15 27 5 9 -9 11 -9 6 0
-3 6 -2 14 4 18 5 3 10 1 10 -5 0 -6 10 -2 22 10 12 11 27 20 32 20 7 0 7 -3
0 -8 -12 -7 -11 -39 2 -50 4 -4 4 1 1 10 -6 17 6 31 30 34 7 1 9 -5 6 -14 -5
-11 -3 -13 7 -7 10 6 12 4 7 -11 -7 -18 -6 -18 6 -2 11 14 16 15 27 5 9 -9 11
-9 6 0 -3 6 -2 14 4 18 5 3 10 0 10 -7 0 -8 3 -9 8 -3 12 17 47 41 38 28 -4
-7 -3 -13 3 -13 5 0 13 5 16 10 5 8 11 7 21 -1 11 -9 14 -9 14 1 0 9 3 10 13
1 8 -6 18 -7 22 -3 5 4 5 2 1 -5 -4 -7 -13 -10 -21 -6 -8 3 -15 0 -15 -7 0 -6
4 -9 9 -6 5 3 12 -1 15 -10 5 -12 10 -14 20 -5 7 6 16 7 21 3 4 -4 3 2 -3 13
-9 19 -7 20 41 19 29 0 57 2 62 5 15 8 34 10 34 3 -1 -4 -1 -13 0 -21 1 -16
16 -5 16 11 0 6 7 13 15 15 9 3 11 1 5 -4 -5 -4 -11 -17 -12 -28 -1 -19 -1
-18 15 2 15 19 20 20 34 9 10 -7 15 -16 11 -19 -3 -4 -12 1 -20 11 -13 15 -13
15 -3 -6 8 -17 15 -21 24 -13 9 7 17 7 26 -2 11 -9 10 -7 0 8 -8 11 -19 23
-25 28 -5 4 1 5 15 3 14 -2 30 1 37 6 8 6 11 2 9 -16 -2 -15 1 -26 5 -26 5 0
9 9 9 19 0 10 7 22 16 25 8 3 13 2 9 -3 -7 -12 24 -43 36 -36 5 4 9 12 8 18 0
9 -2 8 -6 -1 -5 -13 -23 -7 -23 9 0 6 5 7 10 4 6 -3 10 0 10 7 1 7 6 3 13 -10
12 -21 14 -21 32 -6 16 13 17 15 3 10 -10 -3 -20 -1 -22 3 -3 5 5 8 17 7 14
-1 21 -7 19 -17 -1 -9 10 -21 25 -28 24 -10 26 -10 11 2 -20 16 -24 37 -7 37
5 0 8 -4 5 -9 -3 -5 1 -12 10 -15 12 -4 15 -2 11 9 -4 8 -1 17 5 21 7 4 8 3 4
-4 -4 -7 -2 -12 3 -12 6 0 21 -10 33 -22 15 -15 20 -17 15 -5 -6 16 6 30 30
33 7 1 9 -5 6 -14 -5 -11 -3 -13 7 -7 10 6 12 4 7 -11 -7 -18 -6 -18 6 -2 11
14 16 15 27 5 9 -9 11 -9 6 0 -3 6 -2 14 4 18 5 3 10 1 10 -5 0 -6 10 -2 22
10 12 11 27 20 32 20 7 0 7 -3 0 -8 -12 -7 -11 -39 2 -50 4 -4 4 1 1 10 -6 17
6 31 30 34 7 1 9 -5 6 -14 -5 -11 -3 -13 7 -7 10 6 12 4 7 -11 -7 -18 -6 -18
6 -2 11 14 16 15 27 5 9 -9 11 -9 6 0 -3 6 -2 14 4 18 5 3 10 0 10 -7 0 -8 3
-9 8 -3 12 17 47 41 38 28 -4 -7 -3 -13 3 -13 5 0 13 5 16 10 5 8 11 7 21 -1
11 -9 14 -9 14 1 0 9 3 10 13 1 8 -6 18 -7 22 -3 5 4 5 2 1 -5 -4 -7 -13 -10
-21 -6 -8 3 -15 0 -15 -7 0 -6 4 -9 9 -6 5 3 12 -1 15 -10 5 -12 10 -14 20 -5
7 6 16 7 21 3 4 -4 3 2 -3 13 -9 19 -7 20 41 19 29 0 57 2 62 5 15 8 34 10 34
3 -1 -4 -1 -13 0 -21 1 -16 16 -5 16 11 0 6 7 13 15 15 9 3 11 1 5 -4 -5 -4
-11 -17 -12 -28 -1 -19 -1 -18 15 2 15 19 20 20 34 9 10 -7 15 -16 11 -19 -3
-4 -12 1 -20 11 -13 15 -13 15 -3 -6 8 -17 15 -21 24 -13 9 7 17 7 26 -2 11
-9 10 -7 0 8 -8 11 -19 23 -25 28 -5 4 1 5 15 3 14 -2 30 1 37 6 8 6 11 2 9
-16 -2 -15 1 -26 5 -26 5 0 9 9 9 19 0 10 7 22 16 25 8 3 13 2 9 -3 -7 -12 24
-43 36 -36 5 4 9 12 8 18 0 9 -2 8 -6 -1 -5 -13 -23 -7 -23 9 0 6 5 7 10 4 6
-3 10 0 10 7 1 7 6 3 13 -10 12 -21 14 -21 32 -6 16 13 17 15 3 10 -10 -3 -20
-1 -22 3 -3 5 5 8 17 7 14 -1 21 -7 19 -17 -1 -9 10 -21 25 -28 24 -10 26 -10
11 2 -20 16 -24 37 -7 37 5 0 8 -4 5 -9 -3 -5 1 -12 10 -15 12 -4 15 -2 11 9
-4 8 -1 17 5 21 7 4 8 3 4 -4 -4 -7 -2 -12 3 -12 6 0 21 -10 33 -22 15 -15 20
-17 15 -5 -6 16 6 30 30 33 7 1 9 -5 6 -14 -5 -11 -3 -13 7 -7 10 6 12 4 7
-11 -7 -18 -6 -18 6 -2 11 14 16 15 27 5 9 -9 11 -9 6 0 -3 6 -2 14 4 18 5 3
10 1 10 -5 0 -6 10 -2 22 10 12 11 27 20 32 20 7 0 7 -3 0 -8 -12 -7 -11 -39
2 -50 4 -4 4 1 1 10 -6 17 6 31 30 34 7 1 9 -5 6 -14 -5 -11 -3 -13 7 -7 10 6
12 4 7 -11 -7 -18 -6 -18 6 -2 11 14 16 15 27 5 9 -9 11 -9 6 0 -3 6 -2 14 4
18 5 3 10 0 10 -7 0 -8 3 -9 8 -3 12 17 47 41 38 28 -4 -7 -3 -13 3 -13 5 0
13 5 16 10 5 8 11 7 21 -1 11 -9 14 -9 14 1 0 9 3 10 13 1 8 -6 18 -7 22 -3 5
4 5 2 1 -5 -4 -7 -13 -10 -21 -6 -8 3 -15 0 -15 -7 0 -6 4 -9 9 -6 5 3 12 -1
15 -10 5 -12 10 -14 20 -5 7 6 16 7 21 3 4 -4 3 2 -3 13 -9 19 -7 20 41 19 29
0 57 2 62 5 15 8 34 10 34 3 -1 -4 -1 -13 0 -21 1 -16 16 -5 16 12 0 5 7 12
15 14 9 3 11 1 5 -4 -5 -4 -11 -17 -12 -28 -1 -19 -1 -18 15 2 15 19 20 20 34
9 10 -7 15 -16 11 -19 -3 -4 -12 1 -20 11 -13 15 -13 15 -3 -6 8 -17 15 -21
24 -13 9 7 17 7 26 -2 11 -9 10 -7 0 8 -8 11 -19 23 -25 28 -5 4 1 5 15 3 14
-2 30 1 37 6 8 6 11 2 9 -16 -2 -15 1 -26 5 -26 5 0 9 9 9 19 0 10 7 22 16 25
8 3 13 2 9 -3 -7 -12 24 -43 36 -36 5 4 9 12 8 18 0 9 -2 8 -6 -1 -5 -13 -23
-7 -23 9 0 6 5 7 10 4 6 -3 10 0 10 7 1 7 6 3 13 -10 12 -21 14 -21 32 -6 16
13 17 15 3 10 -10 -3 -20 -1 -22 3 -3 5 5 8 17 7 14 -1 21 -7 19 -17 -1 -9 10
-21 25 -28 24 -10 26 -10 11 2 -20 16 -24 37 -7 37 5 0 8 -4 5 -9 -3 -5 1 -12
10 -15 12 -4 15 -2 11 9 -4 8 -1 17 5 21 7 4 8 3 4 -4 -4 -7 -2 -12 3 -12 6 0
21 -10 33 -22 15 -15 20 -17 15 -5 -6 16 6 30 30 33 7 1 9 -5 6 -14 -5 -11 -3
-13 7 -7 10 6 12 4 7 -11 -7 -18 -6 -18 6 -2 11 14 16 15 26 5 7 -7 12 -7 11
-2 -5 22 1 29 10 15 6 -10 10 -11 10 -2 0 6 9 12 21 12 11 0 17 -4 14 -10 -3
-5 -1 -10 4 -10 6 0 11 6 11 14 0 8 6 17 13 20 6 3 1 3 -13 0 l-25 -7 25 21
c19 15 22 23 13 33 -13 17 -7 60 10 71 8 5 3 8 -13 9 -25 0 -25 0 -3 11 12 6
25 18 28 26 4 12 1 11 -15 -3 -21 -19 -21 -19 -15 13 3 19 1 32 -5 32 -5 0
-10 5 -10 11 0 5 4 8 9 5 4 -3 17 1 27 10 18 14 18 15 -3 9 -19 -5 -22 -3 -16
12 4 10 11 21 17 25 6 4 0 8 -14 9 -25 0 -25 0 -3 11 12 6 25 18 28 26 4 12 1
11 -15 -3 -21 -19 -21 -19 -15 13 3 19 1 32 -5 32 -5 0 -10 5 -10 11 0 5 4 8
9 5 4 -3 17 1 27 10 18 14 18 15 -4 9 -22 -6 -23 -5 -13 14 9 16 9 21 -1 21
-9 0 -9 3 2 9 8 6 18 7 24 4 5 -3 6 -1 2 5 -4 6 -14 9 -24 6 -12 -4 -13 -3 -4
3 7 6 10 17 6 28 -6 14 -4 16 6 10 9 -5 11 -4 6 4 -4 6 -2 19 6 28 7 9 8 14 2
10 -14 -8 -27 17 -29 56 -1 19 3 26 11 23 8 -3 11 1 7 9 -3 8 -9 13 -13 10 -5
-3 -12 0 -16 6 -4 7 -3 9 3 6 6 -4 13 0 17 8 3 8 0 15 -7 15 -8 0 -7 4 3 9 8
6 18 7 24 4 5 -3 6 -1 2 5 -4 6 -14 9 -24 6 -12 -4 -13 -3 -4 3 7 6 10 17 6
27 -4 11 -1 22 7 27 10 6 7 9 -11 10 -25 0 -25 0 -3 11 12 6 25 18 28 26 4 12
1 11 -15 -3 -21 -19 -21 -19 -15 13 3 19 1 32 -5 32 -5 0 -10 5 -10 11 0 5 4
8 9 5 4 -3 17 1 27 10 18 14 18 15 -3 9 -19 -5 -22 -3 -16 12 4 10 11 21 17
25 6 4 0 8 -14 9 -25 0 -25 0 -3 11 12 6 25 18 28 26 4 12 1 11 -15 -3 -21
-19 -21 -19 -15 13 3 19 1 32 -5 32 -5 0 -10 5 -10 11 0 5 4 8 9 5 4 -3 17 1
27 10 18 14 18 15 -4 9 -22 -6 -23 -5 -13 14 9 16 9 21 -1 21 -9 0 -9 3 2 9 8
6 18 7 24 4 5 -3 6 -1 2 5 -4 6 -14 9 -24 6 -12 -4 -13 -3 -4 3 7 6 10 17 6
28 -6 14 -4 16 6 10 9 -5 11 -4 6 4 -4 6 -2 19 6 28 7 9 8 14 2 10 -14 -8 -27
17 -29 56 -1 19 3 26 11 23 8 -3 11 1 7 9 -3 8 -9 13 -13 10 -5 -3 -12 0 -16
6 -4 7 -3 9 3 6 6 -4 13 0 17 8 3 8 0 15 -7 15 -8 0 -7 4 3 9 8 6 18 7 24 4 5
-3 6 -1 2 5 -4 6 -14 9 -24 6 -12 -4 -13 -3 -4 3 7 6 10 17 6 27 -4 11 -1 22
7 27 10 6 7 9 -11 10 -25 0 -25 0 -3 11 12 6 25 18 28 26 4 12 1 11 -15 -3
-21 -19 -21 -19 -15 13 3 19 1 32 -5 32 -5 0 -10 5 -10 11 0 5 4 8 9 5 4 -3
17 1 27 10 18 14 18 15 -3 9 -19 -5 -22 -3 -16 12 4 10 11 21 17 25 6 4 0 8
-14 9 -25 0 -25 0 -3 11 12 6 25 18 28 26 4 12 1 11 -15 -3 -21 -19 -21 -19
-15 13 3 19 1 32 -5 32 -5 0 -10 5 -10 11 0 5 4 8 9 5 4 -3 17 1 27 10 18 14
18 15 -4 9 -22 -6 -23 -5 -13 14 9 16 9 21 -1 21 -9 0 -9 3 2 9 8 6 18 7 24 4
5 -3 6 -1 2 5 -4 6 -14 9 -24 6 -12 -4 -13 -3 -4 3 7 6 10 17 6 28 -6 14 -4
16 6 10 9 -5 11 -4 6 4 -4 6 -2 19 6 28 7 9 8 14 2 10 -14 -8 -27 17 -29 56
-1 19 3 26 11 23 8 -3 11 1 7 9 -3 8 -9 13 -13 10 -5 -3 -12 0 -16 6 -4 7 -3
9 3 6 6 -4 13 0 17 8 3 8 0 15 -7 15 -8 0 -7 4 3 9 8 6 18 7 24 4 5 -3 6 -1 2
5 -4 6 -14 9 -24 6 -12 -4 -13 -3 -4 3 7 6 10 17 6 27 -4 11 -1 22 7 27 10 6
7 9 -11 10 -25 0 -25 0 -3 11 12 6 25 18 28 26 4 12 1 11 -15 -3 -21 -19 -21
-19 -15 13 3 19 1 32 -5 32 -5 0 -10 5 -10 11 0 5 4 8 9 5 4 -3 17 1 27 10 18
14 18 15 -3 9 -19 -5 -22 -3 -16 12 4 10 11 21 17 25 6 4 0 8 -14 9 -25 0 -25
0 -3 11 12 6 25 18 28 26 4 12 1 11 -15 -3 -21 -19 -21 -19 -15 13 3 19 1 32
-5 32 -5 0 -10 5 -10 11 0 5 4 8 9 5 4 -3 17 1 27 10 18 14 18 15 -4 9 -22 -6
-23 -5 -13 14 9 16 9 21 -1 21 -9 0 -9 3 2 9 8 6 18 7 24 4 5 -3 6 -1 2 5 -4
6 -14 9 -24 6 -12 -4 -13 -3 -4 3 7 6 10 17 6 28 -6 14 -4 16 6 10 9 -5 11 -4
6 4 -4 6 -2 19 6 28 7 9 8 14 2 10 -14 -8 -27 17 -29 56 -1 19 3 26 11 23 8
-3 11 1 7 9 -3 8 -9 13 -13 10 -5 -3 -12 0 -16 6 -4 7 -3 9 3 6 6 -4 13 0 17
8 3 8 0 15 -7 15 -8 0 -7 4 3 9 8 6 18 7 24 4 5 -3 6 -1 2 5 -4 6 -14 9 -24 6
-12 -4 -13 -3 -4 3 7 6 10 17 6 27 -4 11 -1 22 7 27 10 6 7 9 -11 10 -25 0
-25 0 -3 11 12 6 25 18 28 26 5 13 2 12 -14 -2 -19 -18 -20 -17 -18 2 0 11 5
18 9 16 4 -3 8 0 8 5 0 10 -15 15 -23 9 -2 -2 -11 3 -19 10 -13 10 -17 10 -21
0 -4 -8 -6 -7 -6 5 -1 9 -6 17 -12 17 -6 0 -8 -7 -5 -16 4 -11 -2 -9 -18 7
-27 26 -53 33 -53 13 0 -10 4 -11 13 -3 9 7 15 5 23 -9 12 -22 7 -23 -37 -8
-12 4 -19 12 -16 18 4 7 2 8 -5 4 -9 -6 -9 -11 0 -22 16 -19 4 -18 -15 2 -9 8
-16 11 -16 5 0 -6 -9 -3 -20 6 -28 24 -49 25 -45 2 2 -10 -1 -22 -7 -25 -7 -4
-8 -2 -4 4 4 7 3 12 -3 12 -5 0 -12 -6 -14 -12 -3 -8 -6 -6 -6 5 -1 9 -6 17
-12 17 -6 0 -8 -7 -5 -16 4 -11 -2 -9 -18 7 -27 26 -53 33 -53 13 0 -10 4 -11
13 -3 9 7 15 5 23 -9 12 -22 7 -23 -37 -8 -12 4 -19 12 -16 18 4 7 2 8 -5 4
-9 -6 -9 -11 0 -22 16 -19 4 -18 -15 2 -9 8 -16 11 -16 5 0 -6 -9 -3 -20 6
-28 24 -49 25 -45 2 2 -10 -1 -22 -7 -25 -7 -4 -8 -2 -4 4 4 7 3 12 -3 12 -5
0 -12 -6 -14 -12 -3 -8 -6 -6 -6 5 -1 9 -6 17 -12 17 -6 0 -8 -7 -5 -16 4 -11
-2 -9 -18 7 -27 26 -53 33 -53 13 0 -10 4 -11 13 -3 9 7 15 5 23 -9 12 -22 7
-23 -37 -8 -12 4 -19 12 -16 18 4 7 2 8 -5 4 -9 -6 -9 -11 0 -22 16 -19 4 -18
-15 2 -9 8 -16 11 -16 5 0 -6 -9 -3 -20 6 -28 24 -49 25 -45 2 2 -10 -1 -22
-7 -25 -7 -4 -8 -2 -4 4 4 7 3 12 -3 12 -5 0 -12 -6 -14 -12 -3 -8 -6 -6 -6 5
-1 9 -6 17 -12 17 -6 0 -8 -7 -5 -16 4 -11 -2 -9 -18 7 -27 26 -53 33 -53 13
0 -10 4 -11 13 -3 9 7 15 5 23 -9 12 -22 7 -23 -37 -8 -12 4 -19 12 -16 18 4
7 2 8 -5 4 -9 -6 -9 -11 0 -22 16 -19 4 -18 -15 2 -9 8 -16 11 -16 5 0 -6 -9
-3 -20 6 -28 24 -49 25 -45 2 2 -10 -1 -22 -7 -25 -7 -4 -8 -2 -4 4 4 7 3 12
-3 12 -5 0 -12 -6 -14 -12 -3 -8 -6 -6 -6 5 -1 9 -6 17 -12 17 -6 0 -8 -7 -5
-16 4 -11 -2 -9 -18 7 -27 26 -53 33 -53 13 0 -10 4 -11 13 -3 9 7 15 5 23 -9
12 -22 7 -23 -37 -8 -12 4 -19 12 -16 18 4 7 2 8 -5 4 -9 -6 -9 -11 0 -22 16
-19 4 -18 -15 2 -9 8 -16 11 -16 5 0 -6 -9 -3 -20 6 -28 24 -49 25 -45 2 2
-10 -1 -22 -7 -25 -7 -4 -8 -2 -4 4 4 7 3 12 -3 12 -5 0 -12 -6 -14 -12 -3 -8
-6 -6 -6 5 -1 9 -6 17 -12 17 -6 0 -8 -7 -5 -16 4 -11 -2 -9 -18 7 -27 26 -53
33 -53 13 0 -10 4 -11 13 -3 9 7 15 5 23 -9 12 -22 7 -23 -37 -8 -12 4 -19 12
-16 18 4 7 2 8 -5 4 -9 -6 -9 -11 0 -22 16 -19 4 -18 -15 2 -9 8 -16 11 -16 5
0 -6 -9 -3 -20 6 -28 24 -49 25 -45 2 2 -10 -1 -22 -7 -25 -7 -4 -8 -2 -4 4 4
7 3 12 -3 12 -5 0 -12 -6 -14 -12 -3 -8 -6 -6 -6 5 -1 9 -6 17 -12 17 -6 0 -8
-7 -5 -16 4 -11 -2 -9 -18 7 -27 26 -53 33 -53 13 0 -10 4 -11 13 -3 9 7 15 5
23 -9 12 -22 7 -23 -37 -8 -12 4 -19 12 -16 18 4 7 2 8 -5 4 -9 -6 -9 -11 0
-22 16 -19 4 -18 -15 2 -9 8 -16 11 -16 5 0 -6 -9 -3 -20 6 -28 24 -49 25 -45
2 2 -10 -1 -22 -7 -25 -7 -4 -8 -2 -4 4 4 7 3 12 -3 12 -5 0 -12 -6 -14 -12
-3 -8 -6 -6 -6 5 -1 9 -6 17 -12 17 -6 0 -8 -7 -5 -16 4 -11 -2 -9 -18 7 -27
26 -53 33 -53 13 0 -10 4 -11 13 -3 9 7 15 5 23 -9 12 -22 7 -23 -37 -8 -12 4
-19 12 -16 18 4 7 2 8 -5 4 -9 -6 -9 -11 0 -22 16 -19 4 -18 -15 2 -9 8 -16
11 -16 5 0 -6 -9 -3 -20 6 -28 24 -49 25 -45 2 2 -10 -1 -22 -7 -25 -7 -4 -8
-2 -4 4 4 7 3 12 -3 12 -5 0 -12 -6 -14 -12 -3 -8 -6 -6 -6 5 -1 9 -6 17 -12
17 -6 0 -8 -7 -5 -16 4 -11 -2 -9 -18 7 -27 26 -53 33 -53 13 0 -10 4 -11 13
-3 9 7 15 5 23 -9 12 -22 7 -23 -37 -8 -12 4 -19 12 -16 18 4 7 2 8 -5 4 -9
-6 -9 -11 0 -22 16 -19 4 -18 -15 2 -9 8 -16 11 -16 5 0 -6 -9 -3 -20 6 -28
24 -49 25 -45 2 2 -10 -1 -22 -7 -25 -7 -4 -8 -2 -4 4 4 7 3 12 -3 12 -5 0
-12 -6 -14 -12 -3 -8 -6 -6 -6 5 -1 9 -6 17 -12 17 -6 0 -8 -7 -5 -16 4 -11
-2 -9 -18 7 -27 26 -53 33 -53 13 0 -10 4 -11 13 -3 9 7 15 5 23 -9 12 -22 7
-23 -37 -8 -12 4 -19 12 -16 18 4 7 2 8 -5 4 -9 -6 -9 -11 0 -22 16 -19 4 -18
-15 2 -9 8 -16 11 -16 5 0 -6 -9 -3 -20 6 -28 24 -49 25 -45 2 2 -10 -1 -22
-7 -25 -7 -4 -8 -2 -4 4 4 7 3 12 -3 12 -5 0 -12 -6 -14 -12 -3 -8 -6 -6 -6 5
-1 9 -6 17 -12 17 -6 0 -8 -7 -5 -16 4 -11 -2 -9 -18 7 -27 26 -53 33 -53 13
0 -10 4 -11 13 -3 9 7 15 5 23 -9 12 -22 7 -23 -37 -8 -12 4 -19 12 -16 18 4
7 2 8 -5 4 -9 -6 -9 -11 0 -22 16 -19 4 -18 -15 2 -9 8 -16 11 -16 5 0 -6 -9
-3 -20 6 -28 24 -49 25 -45 2 2 -10 -1 -22 -7 -25 -7 -4 -8 -2 -4 4 4 7 3 12
-3 12 -5 0 -12 -6 -14 -12 -3 -8 -6 -6 -6 5 -1 9 -6 17 -12 17 -6 0 -8 -7 -5
-16 4 -11 -2 -9 -18 7 -27 26 -53 33 -53 13 0 -10 4 -11 13 -3 9 7 15 5 23 -9
12 -22 7 -23 -37 -8 -12 4 -19 12 -16 18 4 7 2 8 -5 4 -9 -6 -9 -11 0 -22 16
-19 4 -18 -15 2 -9 8 -16 11 -16 5 0 -6 -9 -3 -20 6 -28 24 -49 25 -45 2 2
-10 -1 -22 -7 -25 -7 -4 -8 -2 -4 4 4 7 3 12 -3 12 -5 0 -12 -6 -14 -12 -3 -8
-6 -6 -6 5 -1 9 -6 17 -12 17 -6 0 -8 -7 -5 -16 4 -11 -2 -9 -18 7 -27 26 -53
33 -53 13 0 -10 4 -11 13 -3 9 7 15 5 23 -9 12 -22 7 -23 -37 -8 -12 4 -19 12
-16 18 4 7 2 8 -5 4 -9 -6 -9 -11 0 -22 16 -19 4 -18 -15 2 -9 8 -16 11 -16 5
0 -6 -9 -3 -20 6 -28 24 -49 25 -45 2 2 -10 -1 -22 -7 -25 -7 -4 -8 -2 -4 4 4
7 3 12 -3 12 -5 0 -12 -6 -14 -12 -3 -8 -6 -6 -6 5 -1 9 -6 17 -12 17 -6 0 -8
-7 -5 -16 4 -11 -2 -9 -18 7 -27 26 -53 33 -53 13 0 -10 4 -11 13 -3 9 7 15 5
23 -9 12 -22 7 -23 -37 -8 -12 4 -19 12 -16 18 4 7 2 8 -5 4 -9 -6 -9 -11 0
-22 16 -19 4 -18 -15 2 -9 8 -16 11 -16 5 0 -6 -9 -3 -20 6 -28 24 -49 25 -45
2 2 -10 -1 -22 -7 -25 -7 -4 -8 -2 -4 4 4 7 3 12 -3 12 -5 0 -12 -6 -14 -12
-3 -8 -6 -6 -6 5 -1 9 -6 17 -12 17 -6 0 -8 -7 -5 -16 4 -11 -2 -9 -18 7 -27
26 -53 33 -53 13 0 -10 4 -11 13 -3 9 7 15 5 23 -9 12 -22 7 -23 -37 -8 -12 4
-19 12 -16 18 4 7 2 8 -5 4 -9 -6 -9 -11 0 -22 16 -19 4 -18 -15 2 -9 8 -16
11 -16 5 0 -6 -9 -3 -20 6 -28 24 -49 25 -45 2 2 -10 -1 -22 -7 -25 -7 -4 -8
-2 -4 4 4 7 3 12 -3 12 -5 0 -12 -6 -14 -12 -3 -8 -6 -6 -6 5 -1 9 -6 17 -12
17 -6 0 -8 -7 -5 -16 4 -11 -2 -9 -18 7 -27 26 -53 33 -53 13 0 -10 4 -11 13
-3 9 7 15 5 23 -9 12 -22 7 -23 -37 -8 -12 4 -19 12 -16 18 4 7 2 8 -5 4 -9
-6 -9 -11 0 -22 16 -19 4 -18 -15 2 -9 8 -16 11 -16 5 0 -6 -9 -3 -20 6 -28
24 -49 25 -45 2 2 -10 -1 -22 -7 -25 -7 -4 -8 -2 -4 4 4 7 3 12 -3 12 -5 0
-12 -6 -14 -12 -3 -8 -6 -6 -6 5 -1 9 -6 17 -12 17 -6 0 -8 -7 -5 -16 4 -11
-2 -9 -18 7 -27 26 -53 33 -53 13 0 -10 4 -11 13 -3 9 7 15 5 23 -9 12 -22 7
-23 -37 -8 -12 4 -19 12 -16 18 4 7 2 8 -5 4 -9 -6 -9 -11 0 -22 16 -19 4 -18
-15 2 -9 8 -16 11 -16 5 0 -6 -9 -3 -20 6 -28 24 -49 25 -45 2 2 -10 -1 -22
-7 -25 -7 -4 -8 -2 -4 4 4 7 3 12 -3 12 -5 0 -12 -6 -14 -12 -3 -8 -6 -6 -6 5
-1 9 -6 17 -12 17 -6 0 -8 -7 -5 -16 4 -11 -2 -9 -18 7 -27 26 -53 33 -53 13
0 -10 4 -11 13 -3 9 7 15 5 23 -9 12 -22 7 -23 -37 -8 -12 4 -19 12 -16 18 4
7 2 8 -5 4 -9 -6 -9 -11 0 -22 16 -19 4 -18 -15 2 -9 8 -16 11 -16 5 0 -6 -9
-3 -20 6 -28 24 -49 25 -45 2 2 -10 -1 -22 -7 -25 -7 -4 -8 -2 -4 4 4 7 3 12
-3 12 -5 0 -12 -6 -14 -12 -3 -8 -6 -6 -6 5 -1 9 -6 17 -12 17 -6 0 -8 -7 -5
-16 4 -11 -2 -9 -18 7 -27 26 -53 33 -53 13 0 -10 4 -11 13 -3 9 7 15 5 23 -9
12 -22 7 -23 -37 -8 -12 4 -19 12 -16 18 4 7 2 8 -5 4 -9 -6 -9 -11 0 -22 16
-19 4 -18 -15 2 -9 8 -16 11 -16 5 0 -6 -9 -3 -20 6 -28 24 -49 25 -45 2 2
-10 -1 -22 -7 -25 -7 -4 -8 -2 -4 4 4 7 3 12 -3 12 -5 0 -12 -6 -14 -12 -3 -8
-6 -6 -6 5 -1 9 -6 17 -12 17 -6 0 -8 -7 -5 -16 4 -11 -2 -9 -18 7 -27 26 -53
33 -53 13 0 -10 4 -11 13 -3 9 7 15 5 23 -9 12 -22 7 -23 -37 -8 -12 4 -19 12
-16 18 4 7 2 8 -5 4 -9 -6 -9 -11 0 -22 16 -19 4 -18 -15 2 -9 8 -16 11 -16 5
0 -6 -9 -3 -20 6 -28 24 -49 25 -45 2 2 -10 -1 -22 -7 -25 -7 -4 -8 -2 -4 4 4
7 3 12 -3 12 -5 0 -12 -6 -14 -12 -3 -8 -6 -6 -6 5 -1 9 -6 17 -12 17 -6 0 -8
-7 -5 -16 4 -11 -2 -9 -18 7 -27 26 -53 33 -53 13 0 -10 4 -11 13 -3 9 7 15 5
23 -9 12 -22 7 -23 -37 -8 -12 4 -19 12 -16 18 4 7 2 8 -5 4 -9 -6 -9 -11 0
-22 16 -19 4 -18 -15 2 -9 8 -16 11 -16 5 0 -6 -9 -3 -20 6 -28 24 -49 25 -45
2 2 -10 -1 -22 -7 -25 -7 -4 -8 -2 -4 4 4 7 3 12 -3 12 -5 0 -12 -6 -14 -12
-3 -8 -6 -6 -6 5 -1 9 -6 17 -12 17 -6 0 -8 -7 -5 -16 4 -11 -2 -9 -18 7 -27
26 -53 33 -53 13 0 -10 4 -11 13 -3 9 7 15 5 23 -9 12 -22 7 -23 -37 -8 -12 4
-19 12 -16 18 4 7 2 8 -5 4 -9 -6 -9 -11 0 -22 16 -19 4 -18 -15 2 -9 8 -16
11 -16 5 0 -6 -9 -3 -20 6 -28 24 -49 25 -45 2 2 -10 -1 -22 -7 -25 -7 -4 -8
-2 -4 4 4 7 3 12 -3 12 -5 0 -12 -6 -14 -12 -3 -8 -6 -6 -6 5 -1 9 -6 17 -12
17 -6 0 -8 -7 -5 -16 4 -11 -2 -9 -18 7 -27 26 -53 33 -53 13 0 -10 4 -11 13
-3 9 7 15 5 23 -9 12 -22 7 -23 -37 -8 -12 4 -19 12 -16 18 4 7 2 8 -5 4 -9
-6 -9 -11 0 -22 16 -19 4 -18 -15 2 -9 8 -16 11 -16 5 0 -6 -9 -3 -20 6 -28
24 -49 25 -45 2 2 -10 -1 -22 -7 -25 -7 -4 -8 -2 -4 4 4 7 3 12 -3 12 -5 0
-12 -6 -14 -12 -3 -8 -6 -6 -6 5 -1 9 -6 17 -12 17 -6 0 -8 -7 -5 -16 4 -11
-2 -9 -18 7 -27 26 -53 33 -53 13 0 -10 4 -11 13 -3 9 7 15 5 23 -9 12 -22 7
-23 -37 -8 -12 4 -19 12 -16 18 4 7 2 8 -5 4 -9 -6 -9 -11 0 -22 16 -19 4 -18
-15 2 -9 8 -16 11 -16 5 0 -6 -9 -3 -20 6 -28 24 -49 25 -45 2 2 -10 -1 -22
-7 -25 -7 -4 -8 -2 -4 4 4 7 3 12 -3 12 -5 0 -12 -6 -14 -12 -3 -8 -6 -6 -6 5
-1 9 -6 17 -12 17 -6 0 -8 -7 -5 -16 4 -11 -2 -9 -18 7 -27 26 -53 33 -53 13
0 -10 4 -11 13 -3 9 7 15 5 23 -9 12 -22 7 -23 -37 -8 -12 4 -19 12 -16 18 4
7 2 8 -5 4 -9 -6 -9 -11 0 -22 16 -19 4 -18 -15 2 -9 8 -16 11 -16 5 0 -6 -9
-3 -20 6 -28 24 -49 25 -45 2 2 -10 -1 -22 -7 -25 -7 -4 -8 -2 -4 4 4 7 3 12
-3 12 -5 0 -12 -6 -14 -12 -3 -8 -6 -6 -6 5 -1 9 -6 17 -12 17 -6 0 -8 -7 -5
-16 4 -11 -2 -9 -18 7 -27 26 -53 33 -53 13 0 -10 4 -11 13 -3 9 7 15 5 23 -9
12 -22 7 -23 -37 -8 -12 4 -19 12 -16 18 4 7 2 8 -5 4 -9 -6 -9 -11 0 -22 16
-19 4 -18 -15 2 -9 8 -16 11 -16 5 0 -6 -9 -3 -20 6 -28 24 -49 25 -45 2 2
-10 -1 -22 -7 -25 -7 -4 -8 -2 -4 4 4 7 3 12 -3 12 -5 0 -12 -6 -14 -12 -3 -8
-6 -6 -6 5 -1 9 -6 17 -12 17 -6 0 -8 -7 -5 -16 4 -11 -2 -9 -18 7 -27 26 -53
33 -53 13 0 -10 4 -11 13 -3 9 7 15 5 23 -9 12 -22 7 -23 -37 -8 -12 4 -19 12
-16 18 4 7 2 8 -5 4 -9 -6 -9 -11 0 -22 16 -19 4 -18 -15 2 -9 8 -16 11 -16 5
0 -6 -9 -3 -20 6 -28 24 -49 25 -45 2 2 -10 -1 -22 -7 -25 -7 -4 -8 -2 -4 4 4
7 3 12 -3 12 -5 0 -12 -6 -14 -12 -3 -8 -6 -6 -6 5 -1 9 -6 17 -12 17 -6 0 -8
-7 -5 -16 4 -11 -2 -9 -18 7 -27 26 -53 33 -53 13 0 -10 4 -11 13 -3 9 7 15 5
23 -9 12 -22 7 -23 -37 -8 -12 4 -19 12 -16 18 4 7 2 8 -5 4 -9 -6 -9 -11 0
-22 16 -19 4 -18 -15 2 -9 8 -16 11 -16 5 0 -6 -9 -3 -20 6 -28 24 -49 25 -45
2 2 -10 -1 -22 -7 -25 -7 -4 -8 -2 -4 4 4 7 3 12 -3 12 -5 0 -12 -6 -14 -12
-3 -8 -6 -6 -6 5 -1 9 -6 17 -12 17 -6 0 -8 -7 -5 -16 4 -11 -2 -9 -18 7 -27
26 -53 33 -53 13 0 -10 4 -11 13 -3 9 7 15 5 23 -9 12 -22 7 -23 -37 -8 -12 4
-19 12 -16 18 4 7 2 8 -5 4 -9 -6 -9 -11 0 -22 16 -19 4 -18 -15 2 -9 8 -16
11 -16 5 0 -6 -9 -3 -20 6 -28 24 -49 25 -45 2 2 -10 -1 -22 -7 -25 -7 -4 -8
-2 -4 4 4 7 3 12 -3 12 -5 0 -12 -6 -14 -12 -3 -8 -6 -6 -6 5 -1 9 -6 17 -12
17 -6 0 -8 -7 -5 -16 4 -11 -2 -9 -18 7 -27 26 -53 33 -53 13 0 -10 4 -11 13
-3 9 7 15 5 23 -9 12 -22 7 -23 -37 -8 -12 4 -19 12 -16 18 4 7 2 8 -5 4 -9
-6 -9 -11 0 -22 16 -19 4 -18 -15 2 -9 8 -16 11 -16 5 0 -6 -9 -3 -20 6 -28
24 -49 25 -45 2 2 -10 -1 -22 -7 -25 -7 -4 -8 -2 -4 4 4 7 3 12 -3 12 -5 0
-12 -6 -14 -12 -3 -8 -6 -6 -6 5 -1 9 -6 17 -12 17 -6 0 -8 -7 -5 -16 4 -11
-2 -9 -18 7 -27 26 -53 33 -53 13 0 -10 4 -11 13 -3 9 7 15 5 23 -9 12 -22 7
-23 -37 -8 -12 4 -19 12 -16 18 4 7 2 8 -5 4 -9 -6 -9 -11 0 -22 16 -19 4 -18
-15 2 -9 8 -16 11 -16 5 0 -6 -9 -3 -20 6 -28 24 -49 25 -45 2 2 -10 -1 -22
-7 -25 -7 -4 -8 -2 -4 4 4 7 3 12 -3 12 -5 0 -12 -6 -14 -12 -3 -8 -6 -6 -6 5
-1 9 -6 17 -12 17 -6 0 -8 -7 -5 -16 4 -11 -2 -9 -18 7 -27 26 -53 33 -53 13
0 -10 4 -11 13 -3 9 7 15 5 23 -9 12 -22 7 -23 -37 -8 -12 4 -19 12 -16 18 4
7 2 8 -5 4 -9 -6 -9 -11 0 -22 16 -19 4 -18 -15 2 -9 8 -16 11 -16 5 0 -6 -9
-3 -20 6 -28 24 -49 25 -45 2 2 -10 -1 -22 -7 -25 -7 -4 -8 -2 -4 4 4 7 3 12
-3 12 -5 0 -12 -6 -14 -12 -3 -8 -6 -6 -6 5 -1 9 -6 17 -12 17 -6 0 -8 -7 -5
-16 4 -11 -2 -9 -18 7 -27 26 -53 33 -53 13 0 -10 4 -11 13 -3 9 7 15 5 23 -9
12 -22 7 -23 -37 -8 -12 4 -19 12 -16 18 4 7 2 8 -5 4 -9 -6 -9 -11 0 -22 16
-19 4 -18 -15 2 -9 8 -16 11 -16 5 0 -6 -9 -3 -20 6 -28 24 -49 25 -45 2 2
-10 -1 -22 -7 -25 -7 -4 -8 -2 -4 4 4 7 3 12 -3 12 -5 0 -12 -6 -14 -12 -3 -8
-6 -6 -6 5 -1 9 -6 17 -12 17 -6 0 -8 -7 -5 -16 4 -11 -2 -9 -18 7 -27 26 -53
33 -53 13 0 -10 4 -11 13 -3 9 7 15 5 23 -9 12 -22 7 -23 -37 -8 -12 4 -19 12
-16 18 4 7 2 8 -5 4 -9 -6 -9 -11 0 -22 16 -19 4 -18 -15 2 -9 8 -16 11 -16 5
0 -6 -9 -3 -20 6 -28 24 -49 25 -45 2 2 -10 -1 -22 -7 -25 -7 -4 -8 -2 -4 4 4
7 3 12 -3 12 -5 0 -12 -6 -14 -12 -3 -8 -6 -6 -6 5 -1 9 -6 17 -12 17 -6 0 -8
-7 -5 -16 4 -11 -2 -9 -18 7 -27 26 -53 33 -53 13 0 -10 4 -11 13 -3 9 7 15 5
23 -9 12 -22 7 -23 -37 -8 -12 4 -19 12 -16 18 4 7 2 8 -5 4 -9 -6 -9 -11 0
-22 16 -19 4 -18 -15 2 -9 8 -16 11 -16 5 0 -6 -9 -3 -20 6 -28 24 -49 25 -45
2 2 -10 -1 -22 -7 -25 -7 -4 -8 -2 -4 4 4 7 3 12 -3 12 -5 0 -12 -6 -14 -12
-3 -8 -6 -6 -6 5 -1 9 -6 17 -12 17 -6 0 -8 -7 -5 -16 4 -11 -2 -9 -18 7 -27
26 -53 33 -53 13 0 -10 4 -11 13 -3 9 7 15 5 23 -9 12 -22 7 -23 -37 -8 -12 4
-19 12 -16 18 4 7 2 8 -5 4 -9 -6 -9 -11 0 -22 16 -19 4 -18 -15 2 -9 8 -16
11 -16 5 0 -6 -9 -3 -20 6 -28 24 -49 25 -45 2 2 -10 -1 -22 -7 -25 -7 -4 -8
-2 -4 4 4 7 3 12 -3 12 -5 0 -12 -6 -14 -12 -3 -8 -6 -6 -6 5 -1 9 -6 17 -12
17 -6 0 -8 -7 -5 -16 4 -11 -2 -9 -18 7 -27 26 -53 33 -53 13 0 -10 4 -11 13
-3 9 7 15 5 23 -9 12 -22 7 -23 -37 -8 -12 4 -19 12 -16 18 4 7 2 8 -5 4 -9
-6 -9 -11 0 -22 16 -19 4 -18 -15 2 -9 8 -16 11 -16 5 0 -6 -9 -3 -20 6 -28
24 -49 25 -45 2 2 -10 -1 -22 -7 -25 -7 -4 -8 -2 -4 4 4 7 3 12 -3 12 -5 0
-12 -6 -14 -12 -3 -8 -6 -6 -6 5 -1 9 -6 17 -12 17 -6 0 -8 -7 -5 -16 4 -11
-2 -9 -18 7 -27 26 -53 33 -53 13 0 -10 4 -11 13 -3 9 7 15 5 23 -9 12 -22 7
-23 -37 -8 -12 4 -19 12 -16 18 4 7 2 8 -5 4 -9 -6 -9 -11 0 -22 16 -19 4 -18
-15 2 -9 8 -16 11 -16 5 0 -6 -9 -3 -20 6 -28 24 -49 25 -45 2z m35 -10 c11
-19 10 -20 -10 -9 -11 6 -18 15 -15 21 9 13 13 11 25 -12z m240 0 c11 -19 10
-20 -10 -9 -11 6 -18 15 -15 21 9 13 13 11 25 -12z m240 0 c11 -19 10 -20 -10
-9 -11 6 -18 15 -15 21 9 13 13 11 25 -12z m240 0 c11 -19 10 -20 -10 -9 -11
6 -18 15 -15 21 9 13 13 11 25 -12z m240 0 c11 -19 10 -20 -10 -9 -11 6 -18
15 -15 21 9 13 13 11 25 -12z m240 0 c11 -19 10 -20 -10 -9 -11 6 -18 15 -15
21 9 13 13 11 25 -12z m240 0 c11 -19 10 -20 -10 -9 -11 6 -18 15 -15 21 9 13
13 11 25 -12z m240 0 c11 -19 10 -20 -10 -9 -11 6 -18 15 -15 21 9 13 13 11
25 -12z m240 0 c11 -19 10 -20 -10 -9 -11 6 -18 15 -15 21 9 13 13 11 25 -12z
m240 0 c11 -19 10 -20 -10 -9 -11 6 -18 15 -15 21 9 13 13 11 25 -12z m240 0
c11 -19 10 -20 -10 -9 -11 6 -18 15 -15 21 9 13 13 11 25 -12z m240 0 c11 -19
10 -20 -10 -9 -11 6 -18 15 -15 21 9 13 13 11 25 -12z m240 0 c11 -19 10 -20
-10 -9 -11 6 -18 15 -15 21 9 13 13 11 25 -12z m240 0 c11 -19 10 -20 -10 -9
-11 6 -18 15 -15 21 9 13 13 11 25 -12z m240 0 c11 -19 10 -20 -10 -9 -11 6
-18 15 -15 21 9 13 13 11 25 -12z m240 0 c11 -19 10 -20 -10 -9 -11 6 -18 15
-15 21 9 13 13 11 25 -12z m240 0 c11 -19 10 -20 -10 -9 -11 6 -18 15 -15 21
9 13 13 11 25 -12z m240 0 c11 -19 10 -20 -10 -9 -11 6 -18 15 -15 21 9 13 13
11 25 -12z m240 0 c11 -19 10 -20 -10 -9 -11 6 -18 15 -15 21 9 13 13 11 25
-12z m240 0 c11 -19 10 -20 -10 -9 -11 6 -18 15 -15 21 9 13 13 11 25 -12z
m240 0 c11 -19 10 -20 -10 -9 -11 6 -18 15 -15 21 9 13 13 11 25 -12z m240 0
c11 -19 10 -20 -10 -9 -11 6 -18 15 -15 21 9 13 13 11 25 -12z m240 0 c11 -19
10 -20 -10 -9 -11 6 -18 15 -15 21 9 13 13 11 25 -12z m240 0 c11 -19 10 -20
-10 -9 -11 6 -18 15 -15 21 9 13 13 11 25 -12z m240 0 c11 -19 10 -20 -10 -9
-11 6 -18 15 -15 21 9 13 13 11 25 -12z m240 0 c11 -19 10 -20 -10 -9 -11 6
-18 15 -15 21 9 13 13 11 25 -12z m240 0 c11 -19 10 -20 -10 -9 -11 6 -18 15
-15 21 9 13 13 11 25 -12z m240 0 c11 -19 10 -20 -10 -9 -11 6 -18 15 -15 21
9 13 13 11 25 -12z m240 0 c11 -19 10 -20 -10 -9 -11 6 -18 15 -15 21 9 13 13
11 25 -12z m240 0 c11 -19 10 -20 -10 -9 -11 6 -18 15 -15 21 9 13 13 11 25
-12z m240 0 c11 -19 10 -20 -10 -9 -11 6 -18 15 -15 21 9 13 13 11 25 -12z
m240 0 c11 -19 10 -20 -10 -9 -11 6 -18 15 -15 21 9 13 13 11 25 -12z m240 0
c11 -19 10 -20 -10 -9 -11 6 -18 15 -15 21 9 13 13 11 25 -12z m240 0 c11 -19
10 -20 -10 -9 -11 6 -18 15 -15 21 9 13 13 11 25 -12z m240 0 c11 -19 10 -20
-10 -9 -11 6 -18 15 -15 21 9 13 13 11 25 -12z m240 0 c11 -19 10 -20 -10 -9
-11 6 -18 15 -15 21 9 13 13 11 25 -12z m240 0 c11 -19 10 -20 -10 -9 -11 6
-18 15 -15 21 9 13 13 11 25 -12z m240 0 c11 -19 10 -20 -10 -9 -11 6 -18 15
-15 21 9 13 13 11 25 -12z m-8963 -884 c0 -8 -4 -12 -9 -9 -5 3 -6 10 -3 15 9
13 12 11 12 -6z m0 -1280 c0 -8 -4 -12 -9 -9 -5 3 -6 10 -3 15 9 13 12 11 12
-6z m3826 -618 c3 -8 -1 -14 -8 -14 -7 0 -11 6 -8 14 3 7 6 13 8 13 2 0 5 -6
8 -13z m254 -9 c0 -13 -1 -17 -4 -10 -3 6 -9 10 -14 7 -5 -4 -6 1 -3 9 9 23
20 19 21 -6z m386 9 c3 -8 -1 -14 -8 -14 -7 0 -11 6 -8 14 3 7 6 13 8 13 2 0
5 -6 8 -13z m254 -9 c0 -13 -1 -17 -4 -10 -3 6 -9 10 -14 7 -5 -4 -6 1 -3 9 9
23 20 19 21 -6z m386 9 c3 -8 -1 -14 -8 -14 -7 0 -11 6 -8 14 3 7 6 13 8 13 2
0 5 -6 8 -13z m254 -9 c0 -13 -1 -17 -4 -10 -3 6 -9 10 -14 7 -5 -4 -6 1 -3 9
9 23 20 19 21 -6z m386 9 c3 -8 -1 -14 -8 -14 -7 0 -11 6 -8 14 3 7 6 13 8 13
2 0 5 -6 8 -13z m254 -9 c0 -13 -1 -17 -4 -10 -3 6 -9 10 -14 7 -5 -4 -6 1 -3
9 9 23 20 19 21 -6z m135 15 c-6 -3 -10 -8 -8 -12 3 -4 -1 -8 -9 -8 -26 0 -23
22 4 23 14 1 20 -1 13 -3z m92 -6 c-3 -8 -12 -14 -21 -14 -13 0 -13 2 3 14 10
7 19 13 21 13 1 0 0 -6 -3 -13z m160 0 c-3 -8 -12 -14 -21 -14 -13 0 -13 2 3
14 10 7 19 13 21 13 1 0 0 -6 -3 -13z m708 6 c-6 -2 -10 -9 -7 -14 4 -5 -1 -6
-10 -2 -13 5 -14 7 -3 14 7 5 18 8 23 8 6 0 4 -3 -3 -6z m92 -6 c-3 -8 -12
-14 -21 -14 -13 0 -13 2 3 14 10 7 19 13 21 13 1 0 0 -6 -3 -13z m160 0 c-3
-8 -12 -14 -21 -14 -13 0 -13 2 3 14 10 7 19 13 21 13 1 0 0 -6 -3 -13z m708
6 c-6 -2 -10 -9 -7 -14 4 -5 -1 -6 -10 -2 -13 5 -14 7 -3 14 7 5 18 8 23 8 6
0 4 -3 -3 -6z m92 -6 c-3 -8 -12 -14 -21 -14 -13 0 -13 2 3 14 10 7 19 13 21
13 1 0 0 -6 -3 -13z m160 0 c-3 -8 -12 -14 -21 -14 -13 0 -13 2 3 14 10 7 19
13 21 13 1 0 0 -6 -3 -13z m708 6 c-6 -2 -10 -9 -7 -14 4 -5 -1 -6 -10 -2 -13
5 -14 7 -3 14 7 5 18 8 23 8 6 0 4 -3 -3 -6z m92 -6 c-3 -8 -12 -14 -21 -14
-13 0 -13 2 3 14 10 7 19 13 21 13 1 0 0 -6 -3 -13z m-2554 -21 c0 -3 -4 -8
-10 -11 -5 -3 -10 -1 -10 4 0 6 5 11 10 11 6 0 10 -2 10 -4z m960 0 c0 -3 -4
-8 -10 -11 -5 -3 -10 -1 -10 4 0 6 5 11 10 11 6 0 10 -2 10 -4z m960 0 c0 -3
-4 -8 -10 -11 -5 -3 -10 -1 -10 4 0 6 5 11 10 11 6 0 10 -2 10 -4z m-5284
-995 c0 -16 -3 -17 -14 -9 -12 10 -7 19 13 28 1 0 1 -9 1 -19z m-5 -328 c13
-16 12 -17 -3 -4 -10 7 -18 15 -18 17 0 8 8 3 21 -13z m-3184 -278 c0 -8 -4
-12 -9 -9 -5 3 -6 10 -3 15 9 13 12 11 12 -6z m4643 -637 c0 -6 -6 -5 -15 2
-8 7 -15 14 -15 16 0 2 7 1 15 -2 8 -4 15 -11 15 -16z m-4643 -323 c0 -8 -4
-12 -9 -9 -5 3 -6 10 -3 15 9 13 12 11 12 -6z m3187 -210 c-2 -26 1 -35 12
-35 8 0 12 -5 9 -11 -5 -7 -13 -5 -24 5 -10 9 -20 15 -22 14 -2 -2 1 2 8 8 10
8 10 13 0 23 -9 9 -9 14 3 21 8 5 16 10 16 10 1 0 0 -16 -2 -35z m100 -39
c-10 -8 -21 -12 -24 -10 -5 6 21 24 34 24 6 0 1 -6 -10 -14z m3126 -185 c0 -4
-6 -8 -13 -8 -8 0 -14 6 -14 13 0 7 6 10 14 7 7 -3 13 -8 13 -12z m64 -70 c-4
-3 -9 0 -11 7 -3 6 -10 9 -15 6 -7 -4 -8 -2 -4 5 6 9 11 9 22 0 8 -6 12 -15 8
-18z m-6477 -456 c0 -8 -4 -12 -9 -9 -5 3 -6 10 -3 15 9 13 12 11 12 -6z
m6476 -272 c-3 -7 -6 -13 -8 -13 -2 0 -5 6 -8 13 -3 8 1 14 8 14 7 0 11 -6 8
-14z m-450 -198 c4 -8 2 -17 -3 -20 -6 -4 -10 3 -10 14 0 25 6 27 13 6z m-382
-192 c12 -16 12 -17 -2 -6 -9 7 -20 9 -24 5 -5 -4 -5 -1 -1 6 9 16 11 15 27
-5z m-5634 -105 c-3 -8 -6 -5 -6 6 -1 11 2 17 5 13 3 -3 4 -12 1 -19z m5473
17 c0 -7 -30 -13 -34 -7 -3 4 4 9 15 9 10 1 19 0 19 -2z m-155 -75 c-8 -13
-42 -18 -42 -6 0 6 11 12 24 12 12 1 21 -2 18 -6z m-132 -73 c-3 -4 -6 -7 -7
-5 -1 2 -8 12 -16 22 -14 18 -14 18 7 6 12 -8 19 -18 16 -23z m-113 -41 c0 -3
-4 -8 -10 -11 -5 -3 -10 -1 -10 4 0 6 5 11 10 11 6 0 10 -2 10 -4z m-130 -69
c0 -2 -8 -3 -18 -3 -10 0 -19 6 -19 13 0 8 6 9 19 2 10 -5 18 -11 18 -12z
m-1610 -766 c0 -6 -4 -12 -8 -15 -5 -3 -9 1 -9 9 0 8 4 15 9 15 4 0 8 -4 8 -9z
m-140 -135 c0 -2 -7 -7 -16 -10 -8 -3 -12 -2 -9 4 6 10 25 14 25 6z m114 -74
c2 -4 -5 -9 -17 -9 -17 -2 -19 0 -7 7 18 12 18 12 24 2z m-3317 -257 c0 -8 -4
-12 -9 -9 -5 3 -6 10 -3 15 9 13 12 11 12 -6z m3867 -93 c3 -5 -1 -9 -9 -9 -8
0 -12 4 -9 9 3 4 7 8 9 8 2 0 6 -4 9 -8z m316 -198 c0 -1 -5 -6 -12 -10 -7 -4
-8 -3 -4 4 7 12 -3 15 -34 13 -10 0 -11 1 -2 5 6 3 9 10 6 16 -4 5 5 2 20 -7
14 -10 26 -19 26 -21z m540 -344 c0 -5 -5 -10 -11 -10 -5 0 -7 5 -4 10 3 6 8
10 11 10 2 0 4 -4 4 -10z m470 -294 c0 -3 -4 -8 -10 -11 -5 -3 -10 -1 -10 4 0
6 5 11 10 11 6 0 10 -2 10 -4z m145 -95 c3 -5 2 -12 -3 -15 -5 -3 -9 1 -9 9 0
17 3 19 12 6z m-2130 -131 c3 -6 -1 -7 -9 -4 -18 7 -21 14 -7 14 6 0 13 -4 16
-10z m2137 -64 c7 4 8 2 4 -5 -9 -13 -26 -5 -25 12 0 9 2 8 6 -1 2 -6 10 -9
15 -6z m-5345 -61 c0 -8 -4 -12 -9 -9 -5 3 -6 10 -3 15 9 13 12 11 12 -6z
m5287 -1094 c3 -4 -1 -17 -10 -27 -14 -18 -15 -18 -5 3 8 16 8 23 -2 26 -9 4
-9 6 0 6 6 1 14 -3 17 -8z m-4 -56 c-7 -9 -15 -13 -19 -10 -3 3 1 10 9 15 21
14 24 12 10 -5z m-13 -279 c0 -8 -6 -12 -15 -9 -11 5 -11 7 0 14 7 5 13 9 14
9 0 0 1 -6 1 -14z m-1795 -20 c7 4 8 2 4 -4 -8 -14 -46 2 -46 19 0 6 7 3 16
-5 8 -9 20 -13 26 -10z m128 -68 c0 -4 -4 -8 -9 -8 -6 0 -12 4 -15 8 -3 5 1 9
9 9 8 0 15 -4 15 -9z m-1295 -118 c-3 -5 -12 -10 -18 -10 -7 0 -6 4 3 10 19
12 23 12 15 0z m-2081 -18 c3 -5 -1 -9 -9 -9 -8 0 -15 4 -15 9 0 4 4 8 9 8 6
0 12 -4 15 -8z m41 -1 c3 -5 0 -13 -6 -17 -7 -4 -9 -3 -5 4 3 5 0 13 -6 15 -9
4 -10 6 -1 6 6 1 14 -3 18 -8z m199 1 c3 -5 -1 -9 -9 -9 -8 0 -15 4 -15 9 0 4
4 8 9 8 6 0 12 -4 15 -8z m41 -1 c3 -5 0 -13 -6 -17 -7 -4 -9 -3 -5 4 3 5 0
13 -6 15 -9 4 -10 6 -1 6 6 1 14 -3 18 -8z m199 1 c3 -5 -1 -9 -9 -9 -8 0 -15
4 -15 9 0 4 4 8 9 8 6 0 12 -4 15 -8z m41 -1 c3 -5 0 -13 -6 -17 -7 -4 -9 -3
-5 4 3 5 0 13 -6 15 -9 4 -10 6 -1 6 6 1 14 -3 18 -8z m199 1 c3 -5 -1 -9 -9
-9 -8 0 -15 4 -15 9 0 4 4 8 9 8 6 0 12 -4 15 -8z m84 -17 c-3 -3 -9 2 -12 12
-6 14 -5 15 5 6 7 -7 10 -15 7 -18z m80 0 c-3 -3 -9 2 -12 12 -6 14 -5 15 5 6
7 -7 10 -15 7 -18z m80 0 c-3 -3 -9 2 -12 12 -6 14 -5 15 5 6 7 -7 10 -15 7
-18z m80 0 c-3 -3 -9 2 -12 12 -6 14 -5 15 5 6 7 -7 10 -15 7 -18z m80 0 c-3
-3 -9 2 -12 12 -6 14 -5 15 5 6 7 -7 10 -15 7 -18z m80 0 c-3 -3 -9 2 -12 12
-6 14 -5 15 5 6 7 -7 10 -15 7 -18z m80 0 c-3 -3 -9 2 -12 12 -6 14 -5 15 5 6
7 -7 10 -15 7 -18z m80 0 c-3 -3 -9 2 -12 12 -6 14 -5 15 5 6 7 -7 10 -15 7
-18z m80 0 c-3 -3 -9 2 -12 12 -6 14 -5 15 5 6 7 -7 10 -15 7 -18z m80 0 c-3
-3 -9 2 -12 12 -6 14 -5 15 5 6 7 -7 10 -15 7 -18z m80 0 c-3 -3 -9 2 -12 12
-6 14 -5 15 5 6 7 -7 10 -15 7 -18z m80 0 c-3 -3 -9 2 -12 12 -6 14 -5 15 5 6
7 -7 10 -15 7 -18z m80 0 c-3 -3 -9 2 -12 12 -6 14 -5 15 5 6 7 -7 10 -15 7
-18z m80 0 c-3 -3 -9 2 -12 12 -6 14 -5 15 5 6 7 -7 10 -15 7 -18z m80 0 c-3
-3 -9 2 -12 12 -6 14 -5 15 5 6 7 -7 10 -15 7 -18z m80 0 c-3 -3 -9 2 -12 12
-6 14 -5 15 5 6 7 -7 10 -15 7 -18z m236 17 c3 -5 -1 -9 -9 -9 -8 0 -15 4 -15
9 0 4 4 8 9 8 6 0 12 -4 15 -8z m41 -1 c3 -5 0 -13 -6 -17 -7 -4 -9 -3 -5 4 3
5 0 13 -6 15 -9 4 -10 6 -1 6 6 1 14 -3 18 -8z m199 1 c3 -5 -1 -9 -9 -9 -8 0
-15 4 -15 9 0 4 4 8 9 8 6 0 12 -4 15 -8z m41 -1 c3 -5 0 -13 -6 -17 -7 -4 -9
-3 -5 4 3 5 0 13 -6 15 -9 4 -10 6 -1 6 6 1 14 -3 18 -8z m199 1 c3 -5 -1 -9
-9 -9 -8 0 -15 4 -15 9 0 4 4 8 9 8 6 0 12 -4 15 -8z m41 -1 c3 -5 0 -13 -6
-17 -7 -4 -9 -3 -5 4 3 5 0 13 -6 15 -9 4 -10 6 -1 6 6 1 14 -3 18 -8z m912
-28 c0 -9 -4 -10 -12 -3 -7 5 -15 7 -18 3 -4 -3 -7 -1 -7 5 0 6 8 10 18 9 10
0 19 -7 19 -14z m163 -93 c0 -5 -2 -10 -4 -10 -3 0 -8 5 -11 10 -3 6 -1 10 4
10 6 0 11 -4 11 -10z m321 -173 c-10 -9 -11 -8 -5 6 3 10 9 15 12 12 3 -3 0
-11 -7 -18z m79 -46 c-1 -14 -2 -14 -11 2 -6 9 -15 14 -21 11 -7 -4 -8 -2 -4
4 9 16 36 3 36 -17z m784 -37 c-20 -30 -29 -32 -12 -1 7 12 11 26 10 30 -1 5
2 6 8 2 6 -4 4 -15 -6 -31z m6 -58 c0 -11 -19 -15 -25 -6 -3 5 1 10 9 10 9 0
16 -2 16 -4z m-32 -31 c-3 -3 -9 2 -12 12 -6 14 -5 15 5 6 7 -7 10 -15 7 -18z
m32 -40 c0 -2 -10 -10 -22 -16 -21 -11 -22 -11 -9 4 13 16 31 23 31 12z m-335
-75 c3 -5 1 -10 -4 -10 -6 0 -11 5 -11 10 0 6 2 10 4 10 3 0 8 -4 11 -10z"/>
<path d="M10733 12295 c-3 -9 -3 -18 -1 -21 3 -3 8 4 11 16 6 23 -1 27 -10 5z"/>
<path d="M1544 12249 c0 -13 3 -15 13 -7 7 6 13 12 13 13 0 2 -6 5 -13 8 -7 3
-13 -3 -13 -14z"/>
<path d="M1544 12069 c-3 -6 -2 -15 3 -20 5 -5 9 -1 9 11 0 23 -2 24 -12 9z"/>
<path d="M10764 11780 c0 -13 4 -16 10 -10 7 7 7 13 0 20 -6 6 -10 3 -10 -10z"/>
<path d="M10764 11620 c0 -13 4 -16 10 -10 7 7 7 13 0 20 -6 6 -10 3 -10 -10z"/>
<path d="M1550 11440 c0 -5 5 -10 11 -10 5 0 7 5 4 10 -3 6 -8 10 -11 10 -2 0
-4 -4 -4 -10z"/>
<path d="M1544 11269 c-3 -6 -2 -15 3 -20 5 -5 9 -1 9 11 0 23 -2 24 -12 9z"/>
<path d="M10764 11140 c0 -13 4 -16 10 -10 7 7 7 13 0 20 -6 6 -10 3 -10 -10z"/>
<path d="M1544 11109 c-3 -6 -2 -15 3 -20 5 -5 9 -1 9 11 0 23 -2 24 -12 9z"/>
<path d="M10764 10980 c0 -13 4 -16 10 -10 7 7 7 13 0 20 -6 6 -10 3 -10 -10z"/>
<path d="M1544 10949 c-3 -6 -2 -15 3 -20 5 -5 9 -1 9 11 0 23 -2 24 -12 9z"/>
<path d="M1544 10789 c-3 -6 -2 -15 3 -20 5 -5 9 -1 9 11 0 23 -2 24 -12 9z"/>
<path d="M10764 10500 c0 -13 4 -16 10 -10 7 7 7 13 0 20 -6 6 -10 3 -10 -10z"/>
<path d="M10764 10340 c0 -13 4 -16 10 -10 7 7 7 13 0 20 -6 6 -10 3 -10 -10z"/>
<path d="M1550 10160 c0 -5 5 -10 11 -10 5 0 7 5 4 10 -3 6 -8 10 -11 10 -2 0
-4 -4 -4 -10z"/>
<path d="M1544 9989 c-3 -6 -2 -15 3 -20 5 -5 9 -1 9 11 0 23 -2 24 -12 9z"/>
<path d="M10764 9860 c0 -13 4 -16 10 -10 7 7 7 13 0 20 -6 6 -10 3 -10 -10z"/>
<path d="M1544 9829 c-3 -6 -2 -15 3 -20 5 -5 9 -1 9 11 0 23 -2 24 -12 9z"/>
<path d="M10764 9700 c0 -13 4 -16 10 -10 7 7 7 13 0 20 -6 6 -10 3 -10 -10z"/>
<path d="M10774 9582 c3 -5 0 -13 -6 -15 -9 -4 -10 -6 -1 -6 17 -1 25 16 12
25 -7 4 -9 3 -5 -4z"/>
<path d="M5197 9493 c-12 -12 -7 -22 16 -33 20 -10 20 -10 5 3 -20 16 -25 32
-6 21 7 -4 8 -3 4 4 -8 14 -10 14 -19 5z"/>
<path d="M5517 9493 c-12 -12 -7 -22 16 -33 20 -10 20 -10 5 3 -20 16 -25 32
-6 21 7 -4 8 -3 4 4 -8 14 -10 14 -19 5z"/>
<path d="M5837 9493 c-12 -12 -7 -22 16 -33 20 -10 20 -10 5 3 -20 16 -25 32
-6 21 7 -4 8 -3 4 4 -8 14 -10 14 -19 5z"/>
<path d="M6157 9493 c-12 -12 -7 -22 16 -33 20 -10 20 -10 5 3 -20 16 -25 32
-6 21 7 -4 8 -3 4 4 -8 14 -10 14 -19 5z"/>
<path d="M6477 9493 c-12 -12 -7 -22 16 -33 20 -10 20 -10 5 3 -20 16 -25 32
-6 21 7 -4 8 -3 4 4 -8 14 -10 14 -19 5z"/>
<path d="M6797 9493 c-12 -12 -7 -22 16 -33 20 -10 20 -10 5 3 -20 16 -25 32
-6 21 7 -4 8 -3 4 4 -8 14 -10 14 -19 5z"/>
<path d="M7117 9493 c-12 -12 -7 -22 16 -33 20 -10 20 -10 5 3 -20 16 -25 32
-6 21 7 -4 8 -3 4 4 -8 14 -10 14 -19 5z"/>
<path d="M7437 9493 c-12 -12 -7 -22 16 -33 20 -10 20 -10 5 3 -20 16 -25 32
-6 21 7 -4 8 -3 4 4 -8 14 -10 14 -19 5z"/>
<path d="M8035 9490 c-4 -6 -14 -9 -22 -8 -9 2 -17 -3 -19 -10 -1 -7 0 -8 3
-2 3 6 11 6 25 -1 16 -9 19 -8 13 2 -6 9 -3 11 8 6 10 -3 17 -2 17 3 0 14 -18
21 -25 10z"/>
<path d="M8237 9493 c-12 -12 -7 -22 16 -33 20 -10 20 -10 5 3 -20 16 -25 32
-6 21 7 -4 8 -3 4 4 -8 14 -10 14 -19 5z"/>
<path d="M8995 9490 c-4 -6 -14 -9 -22 -8 -9 2 -17 -3 -19 -10 -1 -7 0 -8 3
-2 3 6 11 6 25 -1 16 -9 19 -8 13 2 -6 9 -3 11 8 6 10 -3 17 -2 17 3 0 14 -18
21 -25 10z"/>
<path d="M9197 9493 c-12 -12 -7 -22 16 -33 20 -10 20 -10 5 3 -20 16 -25 32
-6 21 7 -4 8 -3 4 4 -8 14 -10 14 -19 5z"/>
<path d="M9955 9490 c-4 -6 -14 -9 -22 -8 -9 2 -17 -3 -19 -10 -1 -7 0 -8 3
-2 3 6 11 6 25 -1 16 -9 19 -8 13 2 -6 9 -3 11 8 6 10 -3 17 -2 17 3 0 14 -18
21 -25 10z"/>
<path d="M10157 9493 c-12 -12 -7 -22 16 -33 20 -10 20 -10 5 3 -20 16 -25 32
-6 21 7 -4 8 -3 4 4 -8 14 -10 14 -19 5z"/>
<path d="M4866 9478 c3 -5 10 -6 15 -3 13 9 11 12 -6 12 -8 0 -12 -4 -9 -9z"/>
<path d="M5137 9473 c3 -7 6 -13 8 -13 2 0 5 6 8 13 3 8 -1 14 -8 14 -7 0 -11
-6 -8 -14z"/>
<path d="M5166 9473 c-6 -14 -5 -15 5 -6 7 7 10 15 7 18 -3 3 -9 -2 -12 -12z"/>
<path d="M5286 9482 c-3 -4 4 -9 15 -9 23 -2 25 3 4 10 -8 4 -16 3 -19 -1z"/>
<path d="M5330 9481 c0 -5 7 -12 16 -15 14 -5 15 -4 4 9 -14 17 -20 19 -20 6z"/>
<path d="M5457 9473 c3 -7 6 -13 8 -13 2 0 5 6 8 13 3 8 -1 14 -8 14 -7 0 -11
-6 -8 -14z"/>
<path d="M5486 9473 c-6 -14 -5 -15 5 -6 7 7 10 15 7 18 -3 3 -9 -2 -12 -12z"/>
<path d="M5777 9473 c3 -7 6 -13 8 -13 2 0 5 6 8 13 3 8 -1 14 -8 14 -7 0 -11
-6 -8 -14z"/>
<path d="M5806 9473 c-6 -14 -5 -15 5 -6 7 7 10 15 7 18 -3 3 -9 -2 -12 -12z"/>
<path d="M5926 9482 c-3 -4 4 -9 15 -9 23 -2 25 3 4 10 -8 4 -16 3 -19 -1z"/>
<path d="M5970 9481 c0 -5 7 -12 16 -15 14 -5 15 -4 4 9 -14 17 -20 19 -20 6z"/>
<path d="M6097 9473 c3 -7 6 -13 8 -13 2 0 5 6 8 13 3 8 -1 14 -8 14 -7 0 -11
-6 -8 -14z"/>
<path d="M6126 9473 c-6 -14 -5 -15 5 -6 7 7 10 15 7 18 -3 3 -9 -2 -12 -12z"/>
<path d="M6417 9473 c3 -7 6 -13 8 -13 2 0 5 6 8 13 3 8 -1 14 -8 14 -7 0 -11
-6 -8 -14z"/>
<path d="M6446 9473 c-6 -14 -5 -15 5 -6 7 7 10 15 7 18 -3 3 -9 -2 -12 -12z"/>
<path d="M6566 9482 c-3 -4 4 -9 15 -9 23 -2 25 3 4 10 -8 4 -16 3 -19 -1z"/>
<path d="M6610 9481 c0 -5 7 -12 16 -15 14 -5 15 -4 4 9 -14 17 -20 19 -20 6z"/>
<path d="M6737 9473 c3 -7 6 -13 8 -13 2 0 5 6 8 13 3 8 -1 14 -8 14 -7 0 -11
-6 -8 -14z"/>
<path d="M6766 9473 c-6 -14 -5 -15 5 -6 7 7 10 15 7 18 -3 3 -9 -2 -12 -12z"/>
<path d="M7057 9473 c3 -7 6 -13 8 -13 2 0 5 6 8 13 3 8 -1 14 -8 14 -7 0 -11
-6 -8 -14z"/>
<path d="M7086 9473 c-6 -14 -5 -15 5 -6 7 7 10 15 7 18 -3 3 -9 -2 -12 -12z"/>
<path d="M7206 9482 c-3 -4 4 -9 15 -9 23 -2 25 3 4 10 -8 4 -16 3 -19 -1z"/>
<path d="M7250 9481 c0 -5 7 -12 16 -15 14 -5 15 -4 4 9 -14 17 -20 19 -20 6z"/>
<path d="M7377 9473 c3 -7 6 -13 8 -13 2 0 5 6 8 13 3 8 -1 14 -8 14 -7 0 -11
-6 -8 -14z"/>
<path d="M7406 9473 c-6 -14 -5 -15 5 -6 7 7 10 15 7 18 -3 3 -9 -2 -12 -12z"/>
<path d="M7721 9474 c0 -11 3 -14 6 -6 3 7 2 16 -1 19 -3 4 -6 -2 -5 -13z"/>
<path d="M7835 9479 c-4 -6 -5 -12 -2 -15 2 -3 7 2 10 11 7 17 1 20 -8 4z"/>
<path d="M7881 9474 c0 -11 3 -14 6 -6 3 7 2 16 -1 19 -3 4 -6 -2 -5 -13z"/>
<path d="M8177 9473 c3 -7 6 -13 8 -13 2 0 5 6 8 13 3 8 -1 14 -8 14 -7 0 -11
-6 -8 -14z"/>
<path d="M8206 9473 c-6 -14 -5 -15 5 -6 7 7 10 15 7 18 -3 3 -9 -2 -12 -12z"/>
<path d="M8386 9478 c3 -5 10 -6 15 -3 13 9 11 12 -6 12 -8 0 -12 -4 -9 -9z"/>
<path d="M8681 9474 c0 -11 3 -14 6 -6 3 7 2 16 -1 19 -3 4 -6 -2 -5 -13z"/>
<path d="M8795 9479 c-4 -6 -5 -12 -2 -15 2 -3 7 2 10 11 7 17 1 20 -8 4z"/>
<path d="M8841 9474 c0 -11 3 -14 6 -6 3 7 2 16 -1 19 -3 4 -6 -2 -5 -13z"/>
<path d="M9137 9473 c3 -7 6 -13 8 -13 2 0 5 6 8 13 3 8 -1 14 -8 14 -7 0 -11
-6 -8 -14z"/>
<path d="M9166 9473 c-6 -14 -5 -15 5 -6 7 7 10 15 7 18 -3 3 -9 -2 -12 -12z"/>
<path d="M9346 9478 c3 -5 10 -6 15 -3 13 9 11 12 -6 12 -8 0 -12 -4 -9 -9z"/>
<path d="M9641 9474 c0 -11 3 -14 6 -6 3 7 2 16 -1 19 -3 4 -6 -2 -5 -13z"/>
<path d="M9755 9479 c-4 -6 -5 -12 -2 -15 2 -3 7 2 10 11 7 17 1 20 -8 4z"/>
<path d="M9801 9474 c0 -11 3 -14 6 -6 3 7 2 16 -1 19 -3 4 -6 -2 -5 -13z"/>
<path d="M10097 9473 c3 -7 6 -13 8 -13 2 0 5 6 8 13 3 8 -1 14 -8 14 -7 0
-11 -6 -8 -14z"/>
<path d="M10126 9473 c-6 -14 -5 -15 5 -6 7 7 10 15 7 18 -3 3 -9 -2 -12 -12z"/>
<path d="M10306 9478 c3 -5 10 -6 15 -3 13 9 11 12 -6 12 -8 0 -12 -4 -9 -9z"/>
<path d="M10601 9474 c0 -11 3 -14 6 -6 3 7 2 16 -1 19 -3 4 -6 -2 -5 -13z"/>
<path d="M5108 9463 c7 -3 16 -2 19 1 4 3 -2 6 -13 5 -11 0 -14 -3 -6 -6z"/>
<path d="M5595 9460 c-3 -5 -1 -10 4 -10 6 0 11 5 11 10 0 6 -2 10 -4 10 -3 0
-8 -4 -11 -10z"/>
<path d="M6235 9460 c-3 -5 -1 -10 4 -10 6 0 11 5 11 10 0 6 -2 10 -4 10 -3 0
-8 -4 -11 -10z"/>
<path d="M6875 9460 c-3 -5 -1 -10 4 -10 6 0 11 5 11 10 0 6 -2 10 -4 10 -3 0
-8 -4 -11 -10z"/>
<path d="M7515 9460 c-3 -5 -1 -10 4 -10 6 0 11 5 11 10 0 6 -2 10 -4 10 -3 0
-8 -4 -11 -10z"/>
<path d="M4756 9413 c-6 -14 -5 -15 5 -6 7 7 10 15 7 18 -3 3 -9 -2 -12 -12z"/>
<path d="M4757 9326 c-3 -8 0 -17 7 -19 10 -4 12 1 9 14 -6 23 -9 24 -16 5z"/>
<path d="M4760 9140 c-9 -6 -10 -10 -3 -10 6 0 15 5 18 10 8 12 4 12 -15 0z"/>
<path d="M4776 9122 c-3 -5 1 -9 9 -9 8 0 12 4 9 9 -3 4 -7 8 -9 8 -2 0 -6 -4
-9 -8z"/>
<path d="M4754 9089 c0 -10 4 -19 8 -19 4 0 8 6 8 14 0 8 -4 17 -8 20 -4 2 -8
-4 -8 -15z"/>
<path d="M4756 8933 c-6 -14 -5 -15 5 -6 7 7 10 15 7 18 -3 3 -9 -2 -12 -12z"/>
<path d="M4754 8850 c0 -11 6 -22 12 -24 7 -3 10 3 7 15 -7 26 -19 32 -19 9z"/>
<path d="M4754 8800 c0 -13 4 -16 10 -10 7 7 7 13 0 20 -6 6 -10 3 -10 -10z"/>
<path d="M4766 8775 c-11 -8 -15 -15 -9 -15 6 0 16 7 23 15 16 19 11 19 -14 0z"/>
<path d="M4748 8688 c5 -5 16 -8 23 -6 8 3 3 7 -10 11 -17 4 -21 3 -13 -5z"/>
<path d="M4766 8615 c-11 -8 -15 -15 -9 -15 6 0 16 7 23 15 16 19 11 19 -14 0z"/>
<path d="M4748 8528 c5 -5 16 -8 23 -6 8 3 3 7 -10 11 -17 4 -21 3 -13 -5z"/>
<path d="M4760 8340 c-9 -6 -10 -10 -3 -10 6 0 15 5 18 10 8 12 4 12 -15 0z"/>
<path d="M4766 8315 c-11 -8 -15 -15 -9 -15 6 0 16 7 23 15 16 19 11 19 -14 0z"/>
<path d="M4755 8280 c-3 -5 -1 -10 4 -10 6 0 11 5 11 10 0 6 -2 10 -4 10 -3 0
-8 -4 -11 -10z"/>
<path d="M4760 8020 c-9 -6 -10 -10 -3 -10 6 0 15 5 18 10 8 12 4 12 -15 0z"/>
<path d="M4766 7995 c-11 -8 -15 -15 -9 -15 6 0 16 7 23 15 16 19 11 19 -14 0z"/>
<path d="M4755 7960 c-3 -5 -1 -10 4 -10 6 0 11 5 11 10 0 6 -2 10 -4 10 -3 0
-8 -4 -11 -10z"/>
<path d="M1550 7920 c0 -5 5 -10 11 -10 5 0 7 5 4 10 -3 6 -8 10 -11 10 -2 0
-4 -4 -4 -10z"/>
<path d="M4753 7875 c0 -8 4 -12 9 -9 4 3 8 0 8 -7 0 -7 2 -10 5 -7 7 7 -5 38
-14 38 -4 0 -8 -7 -8 -15z"/>
<path d="M4766 7815 c-11 -8 -15 -15 -9 -15 6 0 16 7 23 15 16 19 11 19 -14 0z"/>
<path d="M1544 7749 c-3 -6 -2 -15 3 -20 5 -5 9 -1 9 11 0 23 -2 24 -12 9z"/>
<path d="M4748 7728 c5 -5 16 -8 23 -6 8 3 3 7 -10 11 -17 4 -21 3 -13 -5z"/>
<path d="M4766 7655 c-11 -8 -15 -15 -9 -15 6 0 16 7 23 15 16 19 11 19 -14 0z"/>
<path d="M1544 7589 c-3 -6 -2 -15 3 -20 5 -5 9 -1 9 11 0 23 -2 24 -12 9z"/>
<path d="M4748 7568 c5 -5 16 -8 23 -6 8 3 3 7 -10 11 -17 4 -21 3 -13 -5z"/>
<path d="M4756 7493 c-6 -14 -5 -15 5 -6 7 7 10 15 7 18 -3 3 -9 -2 -12 -12z"/>
<path d="M4757 7406 c-3 -8 0 -17 7 -19 10 -4 12 1 9 14 -6 23 -9 24 -16 5z"/>
<path d="M6406 7355 c-10 -8 -23 -12 -29 -8 -6 3 -7 1 -3 -5 8 -13 39 -1 51
18 8 13 4 12 -19 -5z"/>
<path d="M6266 7288 c3 -5 10 -6 15 -3 13 9 11 12 -6 12 -8 0 -12 -4 -9 -9z"/>
<path d="M4760 7220 c-9 -6 -10 -10 -3 -10 6 0 15 5 18 10 8 12 4 12 -15 0z"/>
<path d="M6076 7212 c-3 -5 1 -9 9 -9 8 0 12 4 9 9 -3 4 -7 8 -9 8 -2 0 -6 -4
-9 -8z"/>
<path d="M4776 7202 c-3 -5 1 -9 9 -9 8 0 12 4 9 9 -3 4 -7 8 -9 8 -2 0 -6 -4
-9 -8z"/>
<path d="M4754 7169 c0 -10 4 -19 8 -19 4 0 8 6 8 14 0 8 -4 17 -8 20 -4 2 -8
-4 -8 -15z"/>
<path d="M5675 7051 c-8 -7 -6 -21 3 -21 5 0 16 6 26 13 16 12 16 13 -4 13
-11 0 -23 -2 -25 -5z"/>
<path d="M4756 7013 c-6 -14 -5 -15 5 -6 7 7 10 15 7 18 -3 3 -9 -2 -12 -12z"/>
<path d="M5606 7014 c-5 -14 -9 -14 -24 -3 -15 13 -16 12 -3 -4 13 -16 16 -16
30 -3 8 9 12 18 9 21 -3 3 -8 -2 -12 -11z"/>
<path d="M7546 6973 c-6 -14 -5 -15 5 -6 7 7 10 15 7 18 -3 3 -9 -2 -12 -12z"/>
<path d="M1550 6960 c0 -5 5 -10 11 -10 5 0 7 5 4 10 -3 6 -8 10 -11 10 -2 0
-4 -4 -4 -10z"/>
<path d="M4754 6930 c0 -11 6 -22 12 -24 7 -3 10 3 7 15 -7 26 -19 32 -19 9z"/>
<path d="M4754 6880 c0 -13 4 -16 10 -10 7 7 7 13 0 20 -6 6 -10 3 -10 -10z"/>
<path d="M7620 6879 c0 -5 5 -7 10 -4 6 3 10 8 10 11 0 2 -4 4 -10 4 -5 0 -10
-5 -10 -11z"/>
<path d="M4766 6855 c-11 -8 -15 -15 -9 -15 6 0 16 7 23 15 16 19 11 19 -14 0z"/>
<path d="M7670 6861 c0 -6 4 -13 10 -16 6 -3 7 1 4 9 -7 18 -14 21 -14 7z"/>
<path d="M5118 6813 c7 -3 16 -2 19 1 4 3 -2 6 -13 5 -11 0 -14 -3 -6 -6z"/>
<path d="M1544 6789 c-3 -6 -2 -15 3 -20 5 -5 9 -1 9 11 0 23 -2 24 -12 9z"/>
<path d="M4748 6768 c5 -5 16 -8 23 -6 8 3 3 7 -10 11 -17 4 -21 3 -13 -5z"/>
<path d="M4905 6710 c-4 -6 -11 -7 -17 -4 -7 4 -8 2 -4 -5 6 -9 11 -9 22 0 14
11 18 19 10 19 -3 0 -8 -5 -11 -10z"/>
<path d="M1544 6629 c-3 -6 -2 -15 3 -20 5 -5 9 -1 9 11 0 23 -2 24 -12 9z"/>
<path d="M8062 6401 c-11 -7 -11 -9 0 -14 9 -3 15 1 15 9 0 8 -1 14 -1 14 -1
0 -7 -4 -14 -9z"/>
<path d="M8210 6225 c19 -23 50 -38 50 -25 0 5 -7 10 -15 10 -8 0 -15 4 -15 9
0 5 -7 12 -16 15 -14 6 -15 4 -4 -9z"/>
<path d="M8270 6186 c0 -2 7 -7 16 -10 8 -3 12 -2 9 4 -6 10 -25 14 -25 6z"/>
<path d="M1550 6000 c0 -5 5 -10 11 -10 5 0 7 5 4 10 -3 6 -8 10 -11 10 -2 0
-4 -4 -4 -10z"/>
<path d="M8430 5859 c0 -5 5 -7 10 -4 6 3 10 8 10 11 0 2 -4 4 -10 4 -5 0 -10
-5 -10 -11z"/>
<path d="M7405 5360 c-3 -6 1 -7 9 -4 18 7 21 14 7 14 -6 0 -13 -4 -16 -10z"/>
<path d="M7306 5335 c-3 -8 0 -17 6 -21 6 -4 8 -3 4 4 -3 5 -1 12 6 14 8 3 9
6 1 11 -6 4 -13 0 -17 -8z"/>
<path d="M1543 5273 c4 -6 2 -13 -5 -15 -8 -3 -6 -6 4 -10 17 -7 19 15 3 29
-4 4 -5 3 -2 -4z"/>
<path d="M6571 4976 c-8 -10 -9 -16 -1 -21 5 -3 10 -5 11 -3 4 18 7 38 4 38
-1 0 -8 -6 -14 -14z"/>
<path d="M6410 4905 c-15 -8 -19 -14 -10 -14 18 -1 46 16 40 23 -3 2 -16 -2
-30 -9z"/>
<path d="M6197 4793 c-4 -3 -7 -11 -7 -17 0 -6 5 -5 12 2 6 6 9 14 7 17 -3 3
-9 2 -12 -2z"/>
<path d="M6145 4760 c-3 -6 1 -7 9 -4 18 7 21 14 7 14 -6 0 -13 -4 -16 -10z"/>
<path d="M6035 4720 c-3 -5 -1 -10 4 -10 6 0 11 5 11 10 0 6 -2 10 -4 10 -3 0
-8 -4 -11 -10z"/>
<path d="M1544 4549 c-3 -6 -2 -15 3 -20 5 -5 9 -1 9 11 0 23 -2 24 -12 9z"/>
<path d="M1544 4389 c-3 -6 -2 -15 3 -20 5 -5 9 -1 9 11 0 23 -2 24 -12 9z"/>
<path d="M5270 4340 c0 -5 5 -10 10 -10 6 0 10 5 10 10 0 6 -4 10 -10 10 -5 0
-10 -4 -10 -10z"/>
<path d="M5196 4307 c3 -10 9 -15 12 -12 3 3 0 11 -7 18 -10 9 -11 8 -5 -6z"/>
<path d="M5108 4243 c7 -3 16 -2 19 1 4 3 -2 6 -13 5 -11 0 -14 -3 -6 -6z"/>
<path d="M1550 3760 c0 -5 5 -10 11 -10 5 0 7 5 4 10 -3 6 -8 10 -11 10 -2 0
-4 -4 -4 -10z"/>
<path d="M1544 3589 c-3 -6 -2 -15 3 -20 5 -5 9 -1 9 11 0 23 -2 24 -12 9z"/>
<path d="M1544 3429 c-3 -6 -2 -15 3 -20 5 -5 9 -1 9 11 0 23 -2 24 -12 9z"/>
<path d="M1544 3269 c-3 -6 -2 -15 3 -20 5 -5 9 -1 9 11 0 23 -2 24 -12 9z"/>
<path d="M6120 3201 c0 -6 4 -13 10 -16 6 -3 7 1 4 9 -7 18 -14 21 -14 7z"/>
<path d="M1544 3109 c-3 -6 -2 -15 3 -20 5 -5 9 -1 9 11 0 23 -2 24 -12 9z"/>
<path d="M6416 3013 c-6 -14 -5 -15 5 -6 7 7 10 15 7 18 -3 3 -9 -2 -12 -12z"/>
<path d="M6460 2981 c0 -5 11 -16 25 -25 22 -14 25 -15 25 -1 0 8 -3 14 -7 14
-20 -3 -34 2 -28 11 3 6 1 10 -4 10 -6 0 -11 -4 -11 -9z"/>
<path d="M6710 2821 c0 -4 14 -8 31 -9 37 -1 35 5 -4 12 -15 2 -27 1 -27 -3z"/>
<path d="M1550 2720 c0 -5 5 -10 11 -10 5 0 7 5 4 10 -3 6 -8 10 -11 10 -2 0
-4 -4 -4 -10z"/>
<path d="M1550 2480 c0 -5 5 -10 11 -10 5 0 7 5 4 10 -3 6 -8 10 -11 10 -2 0
-4 -4 -4 -10z"/>
<path d="M1544 2309 c-3 -6 -2 -15 3 -20 5 -5 9 -1 9 11 0 23 -2 24 -12 9z"/>
<path d="M6915 2259 c-4 -6 -5 -12 -2 -15 2 -3 7 2 10 11 7 17 1 20 -8 4z"/>
<path d="M6893 2194 c0 -6 9 -9 19 -6 10 2 18 7 18 11 0 4 -8 7 -18 7 -10 0
-19 -5 -19 -12z"/>
<path d="M6900 2162 c0 -5 7 -9 15 -9 8 0 12 4 9 9 -3 4 -9 8 -15 8 -5 0 -9
-4 -9 -8z"/>
<path d="M1544 2149 c-3 -6 -2 -15 3 -20 5 -5 9 -1 9 11 0 23 -2 24 -12 9z"/>
<path d="M6889 2093 c-7 -10 -9 -15 -5 -11 5 4 15 3 23 -3 9 -9 13 -8 13 0 0
6 -5 11 -11 11 -5 0 -7 5 -4 10 10 17 -2 11 -16 -7z"/>
<path d="M6883 2055 c0 -8 4 -12 9 -9 5 3 6 10 3 15 -9 13 -12 11 -12 -6z"/>
<path d="M6870 1660 c0 -5 5 -10 11 -10 5 0 7 5 4 10 -3 6 -8 10 -11 10 -2 0
-4 -4 -4 -10z"/>
<path d="M4785 1109 c-9 -14 -2 -20 14 -10 8 6 9 11 3 15 -6 3 -14 1 -17 -5z"/>
<path d="M6840 959 c0 -5 5 -7 10 -4 6 3 10 8 10 11 0 2 -4 4 -10 4 -5 0 -10
-5 -10 -11z"/>
<path d="M5093 935 c0 -8 4 -12 9 -9 5 3 6 10 3 15 -9 13 -12 11 -12 -6z"/>
<path d="M5350 800 c0 -5 5 -10 11 -10 5 0 7 5 4 10 -3 6 -8 10 -11 10 -2 0
-4 -4 -4 -10z"/>
<path d="M5506 708 c3 -5 10 -6 15 -3 13 9 11 12 -6 12 -8 0 -12 -4 -9 -9z"/>
<path d="M6813 235 c0 -8 4 -12 9 -9 4 3 8 9 8 15 0 5 -4 9 -8 9 -5 0 -9 -7
-9 -15z"/>
<path d="M6670 79 c0 -5 5 -7 10 -4 6 3 10 8 10 11 0 2 -4 4 -10 4 -5 0 -10
-5 -10 -11z"/>
</g>
</svg>
